G04 #@! TF.GenerationSoftware,KiCad,Pcbnew,(5.0.1)-3*
G04 #@! TF.CreationDate,2019-09-28T19:11:44-04:00*
G04 #@! TF.ProjectId,BMI160_Breakout,424D493136305F427265616B6F75742E,rev?*
G04 #@! TF.SameCoordinates,Original*
G04 #@! TF.FileFunction,Copper,L1,Top,Signal*
G04 #@! TF.FilePolarity,Positive*
%FSLAX46Y46*%
G04 Gerber Fmt 4.6, Leading zero omitted, Abs format (unit mm)*
G04 Created by KiCad (PCBNEW (5.0.1)-3) date 9/28/2019 7:11:45 PM*
%MOMM*%
%LPD*%
G01*
G04 APERTURE LIST*
G04 #@! TA.AperFunction,ComponentPad*
%ADD10O,1.700000X1.700000*%
G04 #@! TD*
G04 #@! TA.AperFunction,ComponentPad*
%ADD11R,1.700000X1.700000*%
G04 #@! TD*
G04 #@! TA.AperFunction,SMDPad,CuDef*
%ADD12R,0.250000X0.475000*%
G04 #@! TD*
G04 #@! TA.AperFunction,SMDPad,CuDef*
%ADD13R,0.475000X0.250000*%
G04 #@! TD*
G04 #@! TA.AperFunction,Conductor*
%ADD14C,0.100000*%
G04 #@! TD*
G04 #@! TA.AperFunction,SMDPad,CuDef*
%ADD15C,0.875000*%
G04 #@! TD*
G04 #@! TA.AperFunction,SMDPad,CuDef*
%ADD16C,0.950000*%
G04 #@! TD*
G04 #@! TA.AperFunction,ViaPad*
%ADD17C,0.700000*%
G04 #@! TD*
G04 #@! TA.AperFunction,Conductor*
%ADD18C,0.203200*%
G04 #@! TD*
G04 #@! TA.AperFunction,Conductor*
%ADD19C,0.457200*%
G04 #@! TD*
G04 #@! TA.AperFunction,Conductor*
%ADD20C,0.250000*%
G04 #@! TD*
G04 #@! TA.AperFunction,Conductor*
%ADD21C,0.254000*%
G04 #@! TD*
G04 APERTURE END LIST*
D10*
G04 #@! TO.P,J3,2*
G04 #@! TO.N,/SWDCLK*
X206230000Y-72330000D03*
D11*
G04 #@! TO.P,J3,1*
G04 #@! TO.N,/SWDIO*
X203690000Y-72330000D03*
G04 #@! TD*
D12*
G04 #@! TO.P,U1,14*
G04 #@! TO.N,/BMI_SDA*
X197900000Y-81788000D03*
G04 #@! TO.P,U1,13*
G04 #@! TO.N,/BMI_SCL*
X198400000Y-81788000D03*
G04 #@! TO.P,U1,12*
G04 #@! TO.N,DVDD*
X198900000Y-81788000D03*
D13*
G04 #@! TO.P,U1,11*
G04 #@! TO.N,Net-(U1-Pad11)*
X199562000Y-81950000D03*
G04 #@! TO.P,U1,10*
G04 #@! TO.N,Net-(U1-Pad10)*
X199562000Y-82450000D03*
G04 #@! TO.P,U1,9*
G04 #@! TO.N,/BMI_INT2*
X199562000Y-82950000D03*
G04 #@! TO.P,U1,8*
G04 #@! TO.N,AVDD*
X199562000Y-83450000D03*
D12*
G04 #@! TO.P,U1,7*
G04 #@! TO.N,AGND*
X198900000Y-83612000D03*
G04 #@! TO.P,U1,6*
G04 #@! TO.N,DGND*
X198400000Y-83612000D03*
G04 #@! TO.P,U1,5*
G04 #@! TO.N,DVDD*
X197900000Y-83612000D03*
D13*
G04 #@! TO.P,U1,4*
G04 #@! TO.N,/BMI_INT1*
X197238000Y-83450000D03*
G04 #@! TO.P,U1,3*
G04 #@! TO.N,Net-(U1-Pad3)*
X197238000Y-82950000D03*
G04 #@! TO.P,U1,2*
G04 #@! TO.N,Net-(U1-Pad2)*
X197238000Y-82450000D03*
G04 #@! TO.P,U1,1*
G04 #@! TO.N,DGND*
X197238000Y-81950000D03*
G04 #@! TD*
D14*
G04 #@! TO.N,DVDD*
G04 #@! TO.C,R1*
G36*
X197267691Y-77293553D02*
X197288926Y-77296703D01*
X197309750Y-77301919D01*
X197329962Y-77309151D01*
X197349368Y-77318330D01*
X197367781Y-77329366D01*
X197385024Y-77342154D01*
X197400930Y-77356570D01*
X197415346Y-77372476D01*
X197428134Y-77389719D01*
X197439170Y-77408132D01*
X197448349Y-77427538D01*
X197455581Y-77447750D01*
X197460797Y-77468574D01*
X197463947Y-77489809D01*
X197465000Y-77511250D01*
X197465000Y-77948750D01*
X197463947Y-77970191D01*
X197460797Y-77991426D01*
X197455581Y-78012250D01*
X197448349Y-78032462D01*
X197439170Y-78051868D01*
X197428134Y-78070281D01*
X197415346Y-78087524D01*
X197400930Y-78103430D01*
X197385024Y-78117846D01*
X197367781Y-78130634D01*
X197349368Y-78141670D01*
X197329962Y-78150849D01*
X197309750Y-78158081D01*
X197288926Y-78163297D01*
X197267691Y-78166447D01*
X197246250Y-78167500D01*
X196733750Y-78167500D01*
X196712309Y-78166447D01*
X196691074Y-78163297D01*
X196670250Y-78158081D01*
X196650038Y-78150849D01*
X196630632Y-78141670D01*
X196612219Y-78130634D01*
X196594976Y-78117846D01*
X196579070Y-78103430D01*
X196564654Y-78087524D01*
X196551866Y-78070281D01*
X196540830Y-78051868D01*
X196531651Y-78032462D01*
X196524419Y-78012250D01*
X196519203Y-77991426D01*
X196516053Y-77970191D01*
X196515000Y-77948750D01*
X196515000Y-77511250D01*
X196516053Y-77489809D01*
X196519203Y-77468574D01*
X196524419Y-77447750D01*
X196531651Y-77427538D01*
X196540830Y-77408132D01*
X196551866Y-77389719D01*
X196564654Y-77372476D01*
X196579070Y-77356570D01*
X196594976Y-77342154D01*
X196612219Y-77329366D01*
X196630632Y-77318330D01*
X196650038Y-77309151D01*
X196670250Y-77301919D01*
X196691074Y-77296703D01*
X196712309Y-77293553D01*
X196733750Y-77292500D01*
X197246250Y-77292500D01*
X197267691Y-77293553D01*
X197267691Y-77293553D01*
G37*
D15*
G04 #@! TD*
G04 #@! TO.P,R1,2*
G04 #@! TO.N,DVDD*
X196990000Y-77730000D03*
D14*
G04 #@! TO.N,/BMI_SDA*
G04 #@! TO.C,R1*
G36*
X197267691Y-78868553D02*
X197288926Y-78871703D01*
X197309750Y-78876919D01*
X197329962Y-78884151D01*
X197349368Y-78893330D01*
X197367781Y-78904366D01*
X197385024Y-78917154D01*
X197400930Y-78931570D01*
X197415346Y-78947476D01*
X197428134Y-78964719D01*
X197439170Y-78983132D01*
X197448349Y-79002538D01*
X197455581Y-79022750D01*
X197460797Y-79043574D01*
X197463947Y-79064809D01*
X197465000Y-79086250D01*
X197465000Y-79523750D01*
X197463947Y-79545191D01*
X197460797Y-79566426D01*
X197455581Y-79587250D01*
X197448349Y-79607462D01*
X197439170Y-79626868D01*
X197428134Y-79645281D01*
X197415346Y-79662524D01*
X197400930Y-79678430D01*
X197385024Y-79692846D01*
X197367781Y-79705634D01*
X197349368Y-79716670D01*
X197329962Y-79725849D01*
X197309750Y-79733081D01*
X197288926Y-79738297D01*
X197267691Y-79741447D01*
X197246250Y-79742500D01*
X196733750Y-79742500D01*
X196712309Y-79741447D01*
X196691074Y-79738297D01*
X196670250Y-79733081D01*
X196650038Y-79725849D01*
X196630632Y-79716670D01*
X196612219Y-79705634D01*
X196594976Y-79692846D01*
X196579070Y-79678430D01*
X196564654Y-79662524D01*
X196551866Y-79645281D01*
X196540830Y-79626868D01*
X196531651Y-79607462D01*
X196524419Y-79587250D01*
X196519203Y-79566426D01*
X196516053Y-79545191D01*
X196515000Y-79523750D01*
X196515000Y-79086250D01*
X196516053Y-79064809D01*
X196519203Y-79043574D01*
X196524419Y-79022750D01*
X196531651Y-79002538D01*
X196540830Y-78983132D01*
X196551866Y-78964719D01*
X196564654Y-78947476D01*
X196579070Y-78931570D01*
X196594976Y-78917154D01*
X196612219Y-78904366D01*
X196630632Y-78893330D01*
X196650038Y-78884151D01*
X196670250Y-78876919D01*
X196691074Y-78871703D01*
X196712309Y-78868553D01*
X196733750Y-78867500D01*
X197246250Y-78867500D01*
X197267691Y-78868553D01*
X197267691Y-78868553D01*
G37*
D15*
G04 #@! TD*
G04 #@! TO.P,R1,1*
G04 #@! TO.N,/BMI_SDA*
X196990000Y-79305000D03*
D14*
G04 #@! TO.N,AVDD*
G04 #@! TO.C,C1*
G36*
X203380779Y-84746144D02*
X203403834Y-84749563D01*
X203426443Y-84755227D01*
X203448387Y-84763079D01*
X203469457Y-84773044D01*
X203489448Y-84785026D01*
X203508168Y-84798910D01*
X203525438Y-84814562D01*
X203541090Y-84831832D01*
X203554974Y-84850552D01*
X203566956Y-84870543D01*
X203576921Y-84891613D01*
X203584773Y-84913557D01*
X203590437Y-84936166D01*
X203593856Y-84959221D01*
X203595000Y-84982500D01*
X203595000Y-85457500D01*
X203593856Y-85480779D01*
X203590437Y-85503834D01*
X203584773Y-85526443D01*
X203576921Y-85548387D01*
X203566956Y-85569457D01*
X203554974Y-85589448D01*
X203541090Y-85608168D01*
X203525438Y-85625438D01*
X203508168Y-85641090D01*
X203489448Y-85654974D01*
X203469457Y-85666956D01*
X203448387Y-85676921D01*
X203426443Y-85684773D01*
X203403834Y-85690437D01*
X203380779Y-85693856D01*
X203357500Y-85695000D01*
X202782500Y-85695000D01*
X202759221Y-85693856D01*
X202736166Y-85690437D01*
X202713557Y-85684773D01*
X202691613Y-85676921D01*
X202670543Y-85666956D01*
X202650552Y-85654974D01*
X202631832Y-85641090D01*
X202614562Y-85625438D01*
X202598910Y-85608168D01*
X202585026Y-85589448D01*
X202573044Y-85569457D01*
X202563079Y-85548387D01*
X202555227Y-85526443D01*
X202549563Y-85503834D01*
X202546144Y-85480779D01*
X202545000Y-85457500D01*
X202545000Y-84982500D01*
X202546144Y-84959221D01*
X202549563Y-84936166D01*
X202555227Y-84913557D01*
X202563079Y-84891613D01*
X202573044Y-84870543D01*
X202585026Y-84850552D01*
X202598910Y-84831832D01*
X202614562Y-84814562D01*
X202631832Y-84798910D01*
X202650552Y-84785026D01*
X202670543Y-84773044D01*
X202691613Y-84763079D01*
X202713557Y-84755227D01*
X202736166Y-84749563D01*
X202759221Y-84746144D01*
X202782500Y-84745000D01*
X203357500Y-84745000D01*
X203380779Y-84746144D01*
X203380779Y-84746144D01*
G37*
D16*
G04 #@! TD*
G04 #@! TO.P,C1,1*
G04 #@! TO.N,AVDD*
X203070000Y-85220000D03*
D14*
G04 #@! TO.N,AGND*
G04 #@! TO.C,C1*
G36*
X201630779Y-84746144D02*
X201653834Y-84749563D01*
X201676443Y-84755227D01*
X201698387Y-84763079D01*
X201719457Y-84773044D01*
X201739448Y-84785026D01*
X201758168Y-84798910D01*
X201775438Y-84814562D01*
X201791090Y-84831832D01*
X201804974Y-84850552D01*
X201816956Y-84870543D01*
X201826921Y-84891613D01*
X201834773Y-84913557D01*
X201840437Y-84936166D01*
X201843856Y-84959221D01*
X201845000Y-84982500D01*
X201845000Y-85457500D01*
X201843856Y-85480779D01*
X201840437Y-85503834D01*
X201834773Y-85526443D01*
X201826921Y-85548387D01*
X201816956Y-85569457D01*
X201804974Y-85589448D01*
X201791090Y-85608168D01*
X201775438Y-85625438D01*
X201758168Y-85641090D01*
X201739448Y-85654974D01*
X201719457Y-85666956D01*
X201698387Y-85676921D01*
X201676443Y-85684773D01*
X201653834Y-85690437D01*
X201630779Y-85693856D01*
X201607500Y-85695000D01*
X201032500Y-85695000D01*
X201009221Y-85693856D01*
X200986166Y-85690437D01*
X200963557Y-85684773D01*
X200941613Y-85676921D01*
X200920543Y-85666956D01*
X200900552Y-85654974D01*
X200881832Y-85641090D01*
X200864562Y-85625438D01*
X200848910Y-85608168D01*
X200835026Y-85589448D01*
X200823044Y-85569457D01*
X200813079Y-85548387D01*
X200805227Y-85526443D01*
X200799563Y-85503834D01*
X200796144Y-85480779D01*
X200795000Y-85457500D01*
X200795000Y-84982500D01*
X200796144Y-84959221D01*
X200799563Y-84936166D01*
X200805227Y-84913557D01*
X200813079Y-84891613D01*
X200823044Y-84870543D01*
X200835026Y-84850552D01*
X200848910Y-84831832D01*
X200864562Y-84814562D01*
X200881832Y-84798910D01*
X200900552Y-84785026D01*
X200920543Y-84773044D01*
X200941613Y-84763079D01*
X200963557Y-84755227D01*
X200986166Y-84749563D01*
X201009221Y-84746144D01*
X201032500Y-84745000D01*
X201607500Y-84745000D01*
X201630779Y-84746144D01*
X201630779Y-84746144D01*
G37*
D16*
G04 #@! TD*
G04 #@! TO.P,C1,2*
G04 #@! TO.N,AGND*
X201320000Y-85220000D03*
D14*
G04 #@! TO.N,DVDD*
G04 #@! TO.C,C2*
G36*
X197030779Y-84916144D02*
X197053834Y-84919563D01*
X197076443Y-84925227D01*
X197098387Y-84933079D01*
X197119457Y-84943044D01*
X197139448Y-84955026D01*
X197158168Y-84968910D01*
X197175438Y-84984562D01*
X197191090Y-85001832D01*
X197204974Y-85020552D01*
X197216956Y-85040543D01*
X197226921Y-85061613D01*
X197234773Y-85083557D01*
X197240437Y-85106166D01*
X197243856Y-85129221D01*
X197245000Y-85152500D01*
X197245000Y-85627500D01*
X197243856Y-85650779D01*
X197240437Y-85673834D01*
X197234773Y-85696443D01*
X197226921Y-85718387D01*
X197216956Y-85739457D01*
X197204974Y-85759448D01*
X197191090Y-85778168D01*
X197175438Y-85795438D01*
X197158168Y-85811090D01*
X197139448Y-85824974D01*
X197119457Y-85836956D01*
X197098387Y-85846921D01*
X197076443Y-85854773D01*
X197053834Y-85860437D01*
X197030779Y-85863856D01*
X197007500Y-85865000D01*
X196432500Y-85865000D01*
X196409221Y-85863856D01*
X196386166Y-85860437D01*
X196363557Y-85854773D01*
X196341613Y-85846921D01*
X196320543Y-85836956D01*
X196300552Y-85824974D01*
X196281832Y-85811090D01*
X196264562Y-85795438D01*
X196248910Y-85778168D01*
X196235026Y-85759448D01*
X196223044Y-85739457D01*
X196213079Y-85718387D01*
X196205227Y-85696443D01*
X196199563Y-85673834D01*
X196196144Y-85650779D01*
X196195000Y-85627500D01*
X196195000Y-85152500D01*
X196196144Y-85129221D01*
X196199563Y-85106166D01*
X196205227Y-85083557D01*
X196213079Y-85061613D01*
X196223044Y-85040543D01*
X196235026Y-85020552D01*
X196248910Y-85001832D01*
X196264562Y-84984562D01*
X196281832Y-84968910D01*
X196300552Y-84955026D01*
X196320543Y-84943044D01*
X196341613Y-84933079D01*
X196363557Y-84925227D01*
X196386166Y-84919563D01*
X196409221Y-84916144D01*
X196432500Y-84915000D01*
X197007500Y-84915000D01*
X197030779Y-84916144D01*
X197030779Y-84916144D01*
G37*
D16*
G04 #@! TD*
G04 #@! TO.P,C2,2*
G04 #@! TO.N,DVDD*
X196720000Y-85390000D03*
D14*
G04 #@! TO.N,DGND*
G04 #@! TO.C,C2*
G36*
X198780779Y-84916144D02*
X198803834Y-84919563D01*
X198826443Y-84925227D01*
X198848387Y-84933079D01*
X198869457Y-84943044D01*
X198889448Y-84955026D01*
X198908168Y-84968910D01*
X198925438Y-84984562D01*
X198941090Y-85001832D01*
X198954974Y-85020552D01*
X198966956Y-85040543D01*
X198976921Y-85061613D01*
X198984773Y-85083557D01*
X198990437Y-85106166D01*
X198993856Y-85129221D01*
X198995000Y-85152500D01*
X198995000Y-85627500D01*
X198993856Y-85650779D01*
X198990437Y-85673834D01*
X198984773Y-85696443D01*
X198976921Y-85718387D01*
X198966956Y-85739457D01*
X198954974Y-85759448D01*
X198941090Y-85778168D01*
X198925438Y-85795438D01*
X198908168Y-85811090D01*
X198889448Y-85824974D01*
X198869457Y-85836956D01*
X198848387Y-85846921D01*
X198826443Y-85854773D01*
X198803834Y-85860437D01*
X198780779Y-85863856D01*
X198757500Y-85865000D01*
X198182500Y-85865000D01*
X198159221Y-85863856D01*
X198136166Y-85860437D01*
X198113557Y-85854773D01*
X198091613Y-85846921D01*
X198070543Y-85836956D01*
X198050552Y-85824974D01*
X198031832Y-85811090D01*
X198014562Y-85795438D01*
X197998910Y-85778168D01*
X197985026Y-85759448D01*
X197973044Y-85739457D01*
X197963079Y-85718387D01*
X197955227Y-85696443D01*
X197949563Y-85673834D01*
X197946144Y-85650779D01*
X197945000Y-85627500D01*
X197945000Y-85152500D01*
X197946144Y-85129221D01*
X197949563Y-85106166D01*
X197955227Y-85083557D01*
X197963079Y-85061613D01*
X197973044Y-85040543D01*
X197985026Y-85020552D01*
X197998910Y-85001832D01*
X198014562Y-84984562D01*
X198031832Y-84968910D01*
X198050552Y-84955026D01*
X198070543Y-84943044D01*
X198091613Y-84933079D01*
X198113557Y-84925227D01*
X198136166Y-84919563D01*
X198159221Y-84916144D01*
X198182500Y-84915000D01*
X198757500Y-84915000D01*
X198780779Y-84916144D01*
X198780779Y-84916144D01*
G37*
D16*
G04 #@! TD*
G04 #@! TO.P,C2,1*
G04 #@! TO.N,DGND*
X198470000Y-85390000D03*
D14*
G04 #@! TO.N,/BMI_SCL*
G04 #@! TO.C,R2*
G36*
X199297691Y-78818553D02*
X199318926Y-78821703D01*
X199339750Y-78826919D01*
X199359962Y-78834151D01*
X199379368Y-78843330D01*
X199397781Y-78854366D01*
X199415024Y-78867154D01*
X199430930Y-78881570D01*
X199445346Y-78897476D01*
X199458134Y-78914719D01*
X199469170Y-78933132D01*
X199478349Y-78952538D01*
X199485581Y-78972750D01*
X199490797Y-78993574D01*
X199493947Y-79014809D01*
X199495000Y-79036250D01*
X199495000Y-79473750D01*
X199493947Y-79495191D01*
X199490797Y-79516426D01*
X199485581Y-79537250D01*
X199478349Y-79557462D01*
X199469170Y-79576868D01*
X199458134Y-79595281D01*
X199445346Y-79612524D01*
X199430930Y-79628430D01*
X199415024Y-79642846D01*
X199397781Y-79655634D01*
X199379368Y-79666670D01*
X199359962Y-79675849D01*
X199339750Y-79683081D01*
X199318926Y-79688297D01*
X199297691Y-79691447D01*
X199276250Y-79692500D01*
X198763750Y-79692500D01*
X198742309Y-79691447D01*
X198721074Y-79688297D01*
X198700250Y-79683081D01*
X198680038Y-79675849D01*
X198660632Y-79666670D01*
X198642219Y-79655634D01*
X198624976Y-79642846D01*
X198609070Y-79628430D01*
X198594654Y-79612524D01*
X198581866Y-79595281D01*
X198570830Y-79576868D01*
X198561651Y-79557462D01*
X198554419Y-79537250D01*
X198549203Y-79516426D01*
X198546053Y-79495191D01*
X198545000Y-79473750D01*
X198545000Y-79036250D01*
X198546053Y-79014809D01*
X198549203Y-78993574D01*
X198554419Y-78972750D01*
X198561651Y-78952538D01*
X198570830Y-78933132D01*
X198581866Y-78914719D01*
X198594654Y-78897476D01*
X198609070Y-78881570D01*
X198624976Y-78867154D01*
X198642219Y-78854366D01*
X198660632Y-78843330D01*
X198680038Y-78834151D01*
X198700250Y-78826919D01*
X198721074Y-78821703D01*
X198742309Y-78818553D01*
X198763750Y-78817500D01*
X199276250Y-78817500D01*
X199297691Y-78818553D01*
X199297691Y-78818553D01*
G37*
D15*
G04 #@! TD*
G04 #@! TO.P,R2,1*
G04 #@! TO.N,/BMI_SCL*
X199020000Y-79255000D03*
D14*
G04 #@! TO.N,DVDD*
G04 #@! TO.C,R2*
G36*
X199297691Y-77243553D02*
X199318926Y-77246703D01*
X199339750Y-77251919D01*
X199359962Y-77259151D01*
X199379368Y-77268330D01*
X199397781Y-77279366D01*
X199415024Y-77292154D01*
X199430930Y-77306570D01*
X199445346Y-77322476D01*
X199458134Y-77339719D01*
X199469170Y-77358132D01*
X199478349Y-77377538D01*
X199485581Y-77397750D01*
X199490797Y-77418574D01*
X199493947Y-77439809D01*
X199495000Y-77461250D01*
X199495000Y-77898750D01*
X199493947Y-77920191D01*
X199490797Y-77941426D01*
X199485581Y-77962250D01*
X199478349Y-77982462D01*
X199469170Y-78001868D01*
X199458134Y-78020281D01*
X199445346Y-78037524D01*
X199430930Y-78053430D01*
X199415024Y-78067846D01*
X199397781Y-78080634D01*
X199379368Y-78091670D01*
X199359962Y-78100849D01*
X199339750Y-78108081D01*
X199318926Y-78113297D01*
X199297691Y-78116447D01*
X199276250Y-78117500D01*
X198763750Y-78117500D01*
X198742309Y-78116447D01*
X198721074Y-78113297D01*
X198700250Y-78108081D01*
X198680038Y-78100849D01*
X198660632Y-78091670D01*
X198642219Y-78080634D01*
X198624976Y-78067846D01*
X198609070Y-78053430D01*
X198594654Y-78037524D01*
X198581866Y-78020281D01*
X198570830Y-78001868D01*
X198561651Y-77982462D01*
X198554419Y-77962250D01*
X198549203Y-77941426D01*
X198546053Y-77920191D01*
X198545000Y-77898750D01*
X198545000Y-77461250D01*
X198546053Y-77439809D01*
X198549203Y-77418574D01*
X198554419Y-77397750D01*
X198561651Y-77377538D01*
X198570830Y-77358132D01*
X198581866Y-77339719D01*
X198594654Y-77322476D01*
X198609070Y-77306570D01*
X198624976Y-77292154D01*
X198642219Y-77279366D01*
X198660632Y-77268330D01*
X198680038Y-77259151D01*
X198700250Y-77251919D01*
X198721074Y-77246703D01*
X198742309Y-77243553D01*
X198763750Y-77242500D01*
X199276250Y-77242500D01*
X199297691Y-77243553D01*
X199297691Y-77243553D01*
G37*
D15*
G04 #@! TD*
G04 #@! TO.P,R2,2*
G04 #@! TO.N,DVDD*
X199020000Y-77680000D03*
D11*
G04 #@! TO.P,J3,1*
G04 #@! TO.N,/P02*
X186050000Y-97710000D03*
D10*
G04 #@! TO.P,J3,2*
G04 #@! TO.N,/LOAD_SW_CTRL*
X188590000Y-97710000D03*
G04 #@! TO.P,J3,3*
G04 #@! TO.N,/AIN_BAT_DIV_VOLTAGE*
X191130000Y-97710000D03*
G04 #@! TO.P,J3,4*
G04 #@! TO.N,/P05*
X193670000Y-97710000D03*
G04 #@! TO.P,J3,5*
G04 #@! TO.N,/P06*
X196210000Y-97710000D03*
G04 #@! TO.P,J3,6*
G04 #@! TO.N,/P07*
X198750000Y-97710000D03*
G04 #@! TO.P,J3,7*
G04 #@! TO.N,/P08*
X201290000Y-97710000D03*
G04 #@! TO.P,J3,8*
G04 #@! TO.N,/P09*
X203830000Y-97710000D03*
G04 #@! TO.P,J3,9*
G04 #@! TO.N,/P10*
X206370000Y-97710000D03*
G04 #@! TD*
D11*
G04 #@! TO.P,J2,1*
G04 #@! TO.N,DVDD*
X186040000Y-93980000D03*
D10*
G04 #@! TO.P,J2,2*
G04 #@! TO.N,DGND*
X186040000Y-91440000D03*
G04 #@! TO.P,J2,3*
G04 #@! TO.N,AVDD*
X186040000Y-88900000D03*
G04 #@! TO.P,J2,4*
G04 #@! TO.N,AGND*
X186040000Y-86360000D03*
G04 #@! TD*
D11*
G04 #@! TO.P,J2,1*
G04 #@! TO.N,/MAX30003_CSB*
X210024000Y-97710000D03*
D10*
G04 #@! TO.P,J2,2*
G04 #@! TO.N,/MAX30003_SCLK*
X210024000Y-95170000D03*
G04 #@! TO.P,J2,3*
G04 #@! TO.N,/MAX30003_SDI*
X210024000Y-92630000D03*
G04 #@! TO.P,J2,4*
G04 #@! TO.N,/MAX30003_SDO*
X210024000Y-90090000D03*
G04 #@! TO.P,J2,5*
G04 #@! TO.N,/MAX30003_INT2*
X210024000Y-87550000D03*
G04 #@! TO.P,J2,6*
G04 #@! TO.N,/MAX30003_INT*
X210024000Y-85010000D03*
G04 #@! TO.P,J2,7*
G04 #@! TO.N,/P17*
X210024000Y-82470000D03*
G04 #@! TO.P,J2,8*
G04 #@! TO.N,/BMI_INT2*
X210024000Y-79930000D03*
G04 #@! TO.P,J2,9*
G04 #@! TO.N,/BMI_INT1*
X210024000Y-77390000D03*
G04 #@! TO.P,J2,10*
G04 #@! TO.N,/BMI_SDA*
X210024000Y-74850000D03*
G04 #@! TO.P,J2,11*
G04 #@! TO.N,/BMI_SCL*
X210024000Y-72310000D03*
G04 #@! TD*
D17*
G04 #@! TO.N,DGND*
X198450000Y-86730000D03*
X203320000Y-80700000D03*
G04 #@! TO.N,/BMI_SDA*
X197020000Y-80360000D03*
G04 #@! TO.N,/BMI_INT1*
X195710000Y-83440000D03*
G04 #@! TO.N,DVDD*
X196710000Y-86800000D03*
X194170000Y-77730000D03*
G04 #@! TD*
D18*
G04 #@! TO.N,DGND*
X198400000Y-85320000D02*
X198470000Y-85390000D01*
X198400000Y-83612000D02*
X198400000Y-85320000D01*
D19*
X198470000Y-85390000D02*
X198470000Y-86710000D01*
X198470000Y-86710000D02*
X198450000Y-86730000D01*
D18*
X197238000Y-81950000D02*
X196797300Y-81950000D01*
D19*
X196797300Y-81950000D02*
X195710000Y-81950000D01*
D20*
G04 #@! TO.N,/BMI_SDA*
X197880000Y-81655000D02*
X197880000Y-81775000D01*
D18*
X197880000Y-79890000D02*
X196990000Y-79305000D01*
X197900000Y-81788000D02*
X197880000Y-79890000D01*
X196990000Y-79305000D02*
X196990000Y-80330000D01*
X196990000Y-80330000D02*
X197020000Y-80360000D01*
G04 #@! TO.N,/BMI_SCL*
X198400000Y-79875000D02*
X199020000Y-79255000D01*
X198400000Y-81788000D02*
X198400000Y-79875000D01*
D19*
X203079000Y-79255000D02*
X199020000Y-79255000D01*
X210024000Y-72310000D02*
X203079000Y-79255000D01*
D20*
G04 #@! TO.N,/BMI_INT1*
X197095000Y-83440000D02*
X197215000Y-83440000D01*
D18*
X197238000Y-83450000D02*
X196797300Y-83450000D01*
X196797300Y-83450000D02*
X195720000Y-83450000D01*
X195720000Y-83450000D02*
X195710000Y-83440000D01*
D19*
G04 #@! TO.N,/BMI_INT2*
X210024000Y-79930000D02*
X206370000Y-79930000D01*
X206370000Y-79930000D02*
X203350000Y-82950000D01*
X203350000Y-82950000D02*
X201690000Y-82950000D01*
D18*
X199562000Y-82950000D02*
X201690000Y-82950000D01*
D20*
G04 #@! TO.N,AGND*
X200695000Y-85220000D02*
X201320000Y-85220000D01*
X200269998Y-85220000D02*
X200695000Y-85220000D01*
X198880000Y-83830002D02*
X200269998Y-85220000D01*
X198880000Y-83605000D02*
X198880000Y-83830002D01*
D19*
X201320000Y-85795000D02*
X199095000Y-88020000D01*
X201320000Y-85220000D02*
X201320000Y-85795000D01*
X187700000Y-88020000D02*
X186040000Y-86360000D01*
X199095000Y-88020000D02*
X187700000Y-88020000D01*
D18*
G04 #@! TO.N,DVDD*
X197900000Y-84210000D02*
X196720000Y-85390000D01*
X197900000Y-83612000D02*
X197900000Y-84210000D01*
X198900000Y-82107702D02*
X198900000Y-81788000D01*
X197900000Y-83107702D02*
X198900000Y-82107702D01*
X197900000Y-83612000D02*
X197900000Y-83107702D01*
D19*
X196720000Y-85390000D02*
X196720000Y-86790000D01*
X196720000Y-86790000D02*
X196710000Y-86800000D01*
X197040000Y-77680000D02*
X196990000Y-77730000D01*
X199020000Y-77680000D02*
X197040000Y-77680000D01*
X196990000Y-77730000D02*
X196415000Y-77730000D01*
X196415000Y-77730000D02*
X194170000Y-77730000D01*
D18*
G04 #@! TO.N,AVDD*
X201300000Y-83450000D02*
X203070000Y-85220000D01*
X199562000Y-83450000D02*
X201300000Y-83450000D01*
D19*
X199390000Y-88900000D02*
X186040000Y-88900000D01*
X203070000Y-85220000D02*
X199390000Y-88900000D01*
G04 #@! TD*
D21*
G04 #@! TO.N,DGND*
G36*
X211931001Y-99061000D02*
X211608433Y-99061000D01*
X211711419Y-98906870D01*
X211780416Y-98560000D01*
X211780416Y-96860000D01*
X211711419Y-96513130D01*
X211514933Y-96219067D01*
X211445508Y-96172679D01*
X211662102Y-95848524D01*
X211797069Y-95170000D01*
X211662102Y-94491476D01*
X211277749Y-93916251D01*
X211253428Y-93900000D01*
X211277749Y-93883749D01*
X211662102Y-93308524D01*
X211797069Y-92630000D01*
X211662102Y-91951476D01*
X211277749Y-91376251D01*
X211253428Y-91360000D01*
X211277749Y-91343749D01*
X211662102Y-90768524D01*
X211797069Y-90090000D01*
X211662102Y-89411476D01*
X211277749Y-88836251D01*
X211253428Y-88820000D01*
X211277749Y-88803749D01*
X211662102Y-88228524D01*
X211797069Y-87550000D01*
X211662102Y-86871476D01*
X211277749Y-86296251D01*
X211253428Y-86280000D01*
X211277749Y-86263749D01*
X211662102Y-85688524D01*
X211797069Y-85010000D01*
X211662102Y-84331476D01*
X211277749Y-83756251D01*
X211253428Y-83740000D01*
X211277749Y-83723749D01*
X211662102Y-83148524D01*
X211797069Y-82470000D01*
X211662102Y-81791476D01*
X211277749Y-81216251D01*
X211253428Y-81200000D01*
X211277749Y-81183749D01*
X211662102Y-80608524D01*
X211797069Y-79930000D01*
X211662102Y-79251476D01*
X211277749Y-78676251D01*
X211253428Y-78660000D01*
X211277749Y-78643749D01*
X211662102Y-78068524D01*
X211797069Y-77390000D01*
X211662102Y-76711476D01*
X211277749Y-76136251D01*
X211253428Y-76120000D01*
X211277749Y-76103749D01*
X211662102Y-75528524D01*
X211797069Y-74850000D01*
X211662102Y-74171476D01*
X211277749Y-73596251D01*
X211253428Y-73580000D01*
X211277749Y-73563749D01*
X211662102Y-72988524D01*
X211797069Y-72310000D01*
X211662102Y-71631476D01*
X211277749Y-71056251D01*
X210702524Y-70671898D01*
X210195276Y-70571000D01*
X209852724Y-70571000D01*
X209345476Y-70671898D01*
X208770251Y-71056251D01*
X208385898Y-71631476D01*
X208250931Y-72310000D01*
X208282876Y-72470599D01*
X207898681Y-72854794D01*
X208003069Y-72330000D01*
X207868102Y-71651476D01*
X207483749Y-71076251D01*
X206908524Y-70691898D01*
X206401276Y-70591000D01*
X206058724Y-70591000D01*
X205551476Y-70691898D01*
X205227321Y-70908492D01*
X205180933Y-70839067D01*
X204886870Y-70642581D01*
X204540000Y-70573584D01*
X202840000Y-70573584D01*
X202493130Y-70642581D01*
X202199067Y-70839067D01*
X202002581Y-71133130D01*
X201933584Y-71480000D01*
X201933584Y-73180000D01*
X202002581Y-73526870D01*
X202199067Y-73820933D01*
X202493130Y-74017419D01*
X202840000Y-74086416D01*
X204540000Y-74086416D01*
X204886870Y-74017419D01*
X205180933Y-73820933D01*
X205227321Y-73751508D01*
X205551476Y-73968102D01*
X206058724Y-74069000D01*
X206401276Y-74069000D01*
X206754795Y-73998681D01*
X202616076Y-78137400D01*
X200353946Y-78137400D01*
X200401416Y-77898750D01*
X200401416Y-77461250D01*
X200315768Y-77030668D01*
X200071863Y-76665637D01*
X199706832Y-76421732D01*
X199276250Y-76336084D01*
X198763750Y-76336084D01*
X198333168Y-76421732D01*
X198122643Y-76562400D01*
X197812527Y-76562400D01*
X197676832Y-76471732D01*
X197246250Y-76386084D01*
X196733750Y-76386084D01*
X196303168Y-76471732D01*
X196092643Y-76612400D01*
X194709537Y-76612400D01*
X194416452Y-76491000D01*
X193923548Y-76491000D01*
X193468163Y-76679627D01*
X193119627Y-77028163D01*
X192931000Y-77483548D01*
X192931000Y-77976452D01*
X193119627Y-78431837D01*
X193468163Y-78780373D01*
X193923548Y-78969000D01*
X194416452Y-78969000D01*
X194709537Y-78847600D01*
X195656054Y-78847600D01*
X195608584Y-79086250D01*
X195608584Y-79523750D01*
X195694232Y-79954332D01*
X195788507Y-80095425D01*
X195781000Y-80113548D01*
X195781000Y-80606452D01*
X195969627Y-81061837D01*
X196318163Y-81410373D01*
X196460504Y-81469332D01*
X196376146Y-81672989D01*
X196359567Y-81684067D01*
X196163081Y-81978130D01*
X196106395Y-82263109D01*
X195956452Y-82201000D01*
X195463548Y-82201000D01*
X195008163Y-82389627D01*
X194659627Y-82738163D01*
X194471000Y-83193548D01*
X194471000Y-83686452D01*
X194659627Y-84141837D01*
X195008163Y-84490373D01*
X195413416Y-84658235D01*
X195375659Y-84714742D01*
X195288584Y-85152500D01*
X195288584Y-85627500D01*
X195375659Y-86065258D01*
X195559371Y-86340202D01*
X195471000Y-86553548D01*
X195471000Y-86902400D01*
X188162925Y-86902400D01*
X187781124Y-86520599D01*
X187813069Y-86360000D01*
X187678102Y-85681476D01*
X187293749Y-85106251D01*
X186718524Y-84721898D01*
X186211276Y-84621000D01*
X185868724Y-84621000D01*
X185361476Y-84721898D01*
X184786251Y-85106251D01*
X184401898Y-85681476D01*
X184266931Y-86360000D01*
X184401898Y-87038524D01*
X184786251Y-87613749D01*
X184810572Y-87630000D01*
X184786251Y-87646251D01*
X184401898Y-88221476D01*
X184266931Y-88900000D01*
X184401898Y-89578524D01*
X184786251Y-90153749D01*
X185069286Y-90342867D01*
X184768355Y-90673076D01*
X184598524Y-91083110D01*
X184719845Y-91313000D01*
X185913000Y-91313000D01*
X185913000Y-91293000D01*
X186167000Y-91293000D01*
X186167000Y-91313000D01*
X187360155Y-91313000D01*
X187481476Y-91083110D01*
X187311645Y-90673076D01*
X187010714Y-90342867D01*
X187293749Y-90153749D01*
X187384721Y-90017600D01*
X199279927Y-90017600D01*
X199390000Y-90039495D01*
X199500073Y-90017600D01*
X199826066Y-89952756D01*
X200195745Y-89705745D01*
X200258100Y-89612424D01*
X203269109Y-86601416D01*
X203357500Y-86601416D01*
X203795258Y-86514341D01*
X204166371Y-86266371D01*
X204414341Y-85895258D01*
X204501416Y-85457500D01*
X204501416Y-84982500D01*
X204414341Y-84544742D01*
X204166371Y-84173629D01*
X203848354Y-83961137D01*
X204155745Y-83755745D01*
X204218100Y-83662424D01*
X206832925Y-81047600D01*
X208679279Y-81047600D01*
X208770251Y-81183749D01*
X208794572Y-81200000D01*
X208770251Y-81216251D01*
X208385898Y-81791476D01*
X208250931Y-82470000D01*
X208385898Y-83148524D01*
X208770251Y-83723749D01*
X208794572Y-83740000D01*
X208770251Y-83756251D01*
X208385898Y-84331476D01*
X208250931Y-85010000D01*
X208385898Y-85688524D01*
X208770251Y-86263749D01*
X208794572Y-86280000D01*
X208770251Y-86296251D01*
X208385898Y-86871476D01*
X208250931Y-87550000D01*
X208385898Y-88228524D01*
X208770251Y-88803749D01*
X208794572Y-88820000D01*
X208770251Y-88836251D01*
X208385898Y-89411476D01*
X208250931Y-90090000D01*
X208385898Y-90768524D01*
X208770251Y-91343749D01*
X208794572Y-91360000D01*
X208770251Y-91376251D01*
X208385898Y-91951476D01*
X208250931Y-92630000D01*
X208385898Y-93308524D01*
X208770251Y-93883749D01*
X208794572Y-93900000D01*
X208770251Y-93916251D01*
X208385898Y-94491476D01*
X208250931Y-95170000D01*
X208385898Y-95848524D01*
X208602492Y-96172679D01*
X208533067Y-96219067D01*
X208336581Y-96513130D01*
X208267584Y-96860000D01*
X208267584Y-98560000D01*
X208336581Y-98906870D01*
X208439567Y-99061000D01*
X207478203Y-99061000D01*
X207623749Y-98963749D01*
X208008102Y-98388524D01*
X208143069Y-97710000D01*
X208008102Y-97031476D01*
X207623749Y-96456251D01*
X207048524Y-96071898D01*
X206541276Y-95971000D01*
X206198724Y-95971000D01*
X205691476Y-96071898D01*
X205116251Y-96456251D01*
X205100000Y-96480572D01*
X205083749Y-96456251D01*
X204508524Y-96071898D01*
X204001276Y-95971000D01*
X203658724Y-95971000D01*
X203151476Y-96071898D01*
X202576251Y-96456251D01*
X202560000Y-96480572D01*
X202543749Y-96456251D01*
X201968524Y-96071898D01*
X201461276Y-95971000D01*
X201118724Y-95971000D01*
X200611476Y-96071898D01*
X200036251Y-96456251D01*
X200020000Y-96480572D01*
X200003749Y-96456251D01*
X199428524Y-96071898D01*
X198921276Y-95971000D01*
X198578724Y-95971000D01*
X198071476Y-96071898D01*
X197496251Y-96456251D01*
X197480000Y-96480572D01*
X197463749Y-96456251D01*
X196888524Y-96071898D01*
X196381276Y-95971000D01*
X196038724Y-95971000D01*
X195531476Y-96071898D01*
X194956251Y-96456251D01*
X194940000Y-96480572D01*
X194923749Y-96456251D01*
X194348524Y-96071898D01*
X193841276Y-95971000D01*
X193498724Y-95971000D01*
X192991476Y-96071898D01*
X192416251Y-96456251D01*
X192400000Y-96480572D01*
X192383749Y-96456251D01*
X191808524Y-96071898D01*
X191301276Y-95971000D01*
X190958724Y-95971000D01*
X190451476Y-96071898D01*
X189876251Y-96456251D01*
X189860000Y-96480572D01*
X189843749Y-96456251D01*
X189268524Y-96071898D01*
X188761276Y-95971000D01*
X188418724Y-95971000D01*
X187911476Y-96071898D01*
X187587321Y-96288492D01*
X187540933Y-96219067D01*
X187246870Y-96022581D01*
X186900000Y-95953584D01*
X185200000Y-95953584D01*
X184853130Y-96022581D01*
X184559067Y-96219067D01*
X184362581Y-96513130D01*
X184293584Y-96860000D01*
X184293584Y-98560000D01*
X184362581Y-98906870D01*
X184465567Y-99061000D01*
X183849000Y-99061000D01*
X183849000Y-93130000D01*
X184283584Y-93130000D01*
X184283584Y-94830000D01*
X184352581Y-95176870D01*
X184549067Y-95470933D01*
X184843130Y-95667419D01*
X185190000Y-95736416D01*
X186890000Y-95736416D01*
X187236870Y-95667419D01*
X187530933Y-95470933D01*
X187727419Y-95176870D01*
X187796416Y-94830000D01*
X187796416Y-93130000D01*
X187727419Y-92783130D01*
X187530933Y-92489067D01*
X187236870Y-92292581D01*
X187234087Y-92292027D01*
X187311645Y-92206924D01*
X187481476Y-91796890D01*
X187360155Y-91567000D01*
X186167000Y-91567000D01*
X186167000Y-91587000D01*
X185913000Y-91587000D01*
X185913000Y-91567000D01*
X184719845Y-91567000D01*
X184598524Y-91796890D01*
X184768355Y-92206924D01*
X184845913Y-92292027D01*
X184843130Y-92292581D01*
X184549067Y-92489067D01*
X184352581Y-92783130D01*
X184283584Y-93130000D01*
X183849000Y-93130000D01*
X183849000Y-76357000D01*
X189550000Y-76357000D01*
X189598601Y-76347333D01*
X189639803Y-76319803D01*
X189667333Y-76278601D01*
X189677000Y-76230000D01*
X189677000Y-70529000D01*
X211931000Y-70529000D01*
X211931001Y-99061000D01*
X211931001Y-99061000D01*
G37*
X211931001Y-99061000D02*
X211608433Y-99061000D01*
X211711419Y-98906870D01*
X211780416Y-98560000D01*
X211780416Y-96860000D01*
X211711419Y-96513130D01*
X211514933Y-96219067D01*
X211445508Y-96172679D01*
X211662102Y-95848524D01*
X211797069Y-95170000D01*
X211662102Y-94491476D01*
X211277749Y-93916251D01*
X211253428Y-93900000D01*
X211277749Y-93883749D01*
X211662102Y-93308524D01*
X211797069Y-92630000D01*
X211662102Y-91951476D01*
X211277749Y-91376251D01*
X211253428Y-91360000D01*
X211277749Y-91343749D01*
X211662102Y-90768524D01*
X211797069Y-90090000D01*
X211662102Y-89411476D01*
X211277749Y-88836251D01*
X211253428Y-88820000D01*
X211277749Y-88803749D01*
X211662102Y-88228524D01*
X211797069Y-87550000D01*
X211662102Y-86871476D01*
X211277749Y-86296251D01*
X211253428Y-86280000D01*
X211277749Y-86263749D01*
X211662102Y-85688524D01*
X211797069Y-85010000D01*
X211662102Y-84331476D01*
X211277749Y-83756251D01*
X211253428Y-83740000D01*
X211277749Y-83723749D01*
X211662102Y-83148524D01*
X211797069Y-82470000D01*
X211662102Y-81791476D01*
X211277749Y-81216251D01*
X211253428Y-81200000D01*
X211277749Y-81183749D01*
X211662102Y-80608524D01*
X211797069Y-79930000D01*
X211662102Y-79251476D01*
X211277749Y-78676251D01*
X211253428Y-78660000D01*
X211277749Y-78643749D01*
X211662102Y-78068524D01*
X211797069Y-77390000D01*
X211662102Y-76711476D01*
X211277749Y-76136251D01*
X211253428Y-76120000D01*
X211277749Y-76103749D01*
X211662102Y-75528524D01*
X211797069Y-74850000D01*
X211662102Y-74171476D01*
X211277749Y-73596251D01*
X211253428Y-73580000D01*
X211277749Y-73563749D01*
X211662102Y-72988524D01*
X211797069Y-72310000D01*
X211662102Y-71631476D01*
X211277749Y-71056251D01*
X210702524Y-70671898D01*
X210195276Y-70571000D01*
X209852724Y-70571000D01*
X209345476Y-70671898D01*
X208770251Y-71056251D01*
X208385898Y-71631476D01*
X208250931Y-72310000D01*
X208282876Y-72470599D01*
X207898681Y-72854794D01*
X208003069Y-72330000D01*
X207868102Y-71651476D01*
X207483749Y-71076251D01*
X206908524Y-70691898D01*
X206401276Y-70591000D01*
X206058724Y-70591000D01*
X205551476Y-70691898D01*
X205227321Y-70908492D01*
X205180933Y-70839067D01*
X204886870Y-70642581D01*
X204540000Y-70573584D01*
X202840000Y-70573584D01*
X202493130Y-70642581D01*
X202199067Y-70839067D01*
X202002581Y-71133130D01*
X201933584Y-71480000D01*
X201933584Y-73180000D01*
X202002581Y-73526870D01*
X202199067Y-73820933D01*
X202493130Y-74017419D01*
X202840000Y-74086416D01*
X204540000Y-74086416D01*
X204886870Y-74017419D01*
X205180933Y-73820933D01*
X205227321Y-73751508D01*
X205551476Y-73968102D01*
X206058724Y-74069000D01*
X206401276Y-74069000D01*
X206754795Y-73998681D01*
X202616076Y-78137400D01*
X200353946Y-78137400D01*
X200401416Y-77898750D01*
X200401416Y-77461250D01*
X200315768Y-77030668D01*
X200071863Y-76665637D01*
X199706832Y-76421732D01*
X199276250Y-76336084D01*
X198763750Y-76336084D01*
X198333168Y-76421732D01*
X198122643Y-76562400D01*
X197812527Y-76562400D01*
X197676832Y-76471732D01*
X197246250Y-76386084D01*
X196733750Y-76386084D01*
X196303168Y-76471732D01*
X196092643Y-76612400D01*
X194709537Y-76612400D01*
X194416452Y-76491000D01*
X193923548Y-76491000D01*
X193468163Y-76679627D01*
X193119627Y-77028163D01*
X192931000Y-77483548D01*
X192931000Y-77976452D01*
X193119627Y-78431837D01*
X193468163Y-78780373D01*
X193923548Y-78969000D01*
X194416452Y-78969000D01*
X194709537Y-78847600D01*
X195656054Y-78847600D01*
X195608584Y-79086250D01*
X195608584Y-79523750D01*
X195694232Y-79954332D01*
X195788507Y-80095425D01*
X195781000Y-80113548D01*
X195781000Y-80606452D01*
X195969627Y-81061837D01*
X196318163Y-81410373D01*
X196460504Y-81469332D01*
X196376146Y-81672989D01*
X196359567Y-81684067D01*
X196163081Y-81978130D01*
X196106395Y-82263109D01*
X195956452Y-82201000D01*
X195463548Y-82201000D01*
X195008163Y-82389627D01*
X194659627Y-82738163D01*
X194471000Y-83193548D01*
X194471000Y-83686452D01*
X194659627Y-84141837D01*
X195008163Y-84490373D01*
X195413416Y-84658235D01*
X195375659Y-84714742D01*
X195288584Y-85152500D01*
X195288584Y-85627500D01*
X195375659Y-86065258D01*
X195559371Y-86340202D01*
X195471000Y-86553548D01*
X195471000Y-86902400D01*
X188162925Y-86902400D01*
X187781124Y-86520599D01*
X187813069Y-86360000D01*
X187678102Y-85681476D01*
X187293749Y-85106251D01*
X186718524Y-84721898D01*
X186211276Y-84621000D01*
X185868724Y-84621000D01*
X185361476Y-84721898D01*
X184786251Y-85106251D01*
X184401898Y-85681476D01*
X184266931Y-86360000D01*
X184401898Y-87038524D01*
X184786251Y-87613749D01*
X184810572Y-87630000D01*
X184786251Y-87646251D01*
X184401898Y-88221476D01*
X184266931Y-88900000D01*
X184401898Y-89578524D01*
X184786251Y-90153749D01*
X185069286Y-90342867D01*
X184768355Y-90673076D01*
X184598524Y-91083110D01*
X184719845Y-91313000D01*
X185913000Y-91313000D01*
X185913000Y-91293000D01*
X186167000Y-91293000D01*
X186167000Y-91313000D01*
X187360155Y-91313000D01*
X187481476Y-91083110D01*
X187311645Y-90673076D01*
X187010714Y-90342867D01*
X187293749Y-90153749D01*
X187384721Y-90017600D01*
X199279927Y-90017600D01*
X199390000Y-90039495D01*
X199500073Y-90017600D01*
X199826066Y-89952756D01*
X200195745Y-89705745D01*
X200258100Y-89612424D01*
X203269109Y-86601416D01*
X203357500Y-86601416D01*
X203795258Y-86514341D01*
X204166371Y-86266371D01*
X204414341Y-85895258D01*
X204501416Y-85457500D01*
X204501416Y-84982500D01*
X204414341Y-84544742D01*
X204166371Y-84173629D01*
X203848354Y-83961137D01*
X204155745Y-83755745D01*
X204218100Y-83662424D01*
X206832925Y-81047600D01*
X208679279Y-81047600D01*
X208770251Y-81183749D01*
X208794572Y-81200000D01*
X208770251Y-81216251D01*
X208385898Y-81791476D01*
X208250931Y-82470000D01*
X208385898Y-83148524D01*
X208770251Y-83723749D01*
X208794572Y-83740000D01*
X208770251Y-83756251D01*
X208385898Y-84331476D01*
X208250931Y-85010000D01*
X208385898Y-85688524D01*
X208770251Y-86263749D01*
X208794572Y-86280000D01*
X208770251Y-86296251D01*
X208385898Y-86871476D01*
X208250931Y-87550000D01*
X208385898Y-88228524D01*
X208770251Y-88803749D01*
X208794572Y-88820000D01*
X208770251Y-88836251D01*
X208385898Y-89411476D01*
X208250931Y-90090000D01*
X208385898Y-90768524D01*
X208770251Y-91343749D01*
X208794572Y-91360000D01*
X208770251Y-91376251D01*
X208385898Y-91951476D01*
X208250931Y-92630000D01*
X208385898Y-93308524D01*
X208770251Y-93883749D01*
X208794572Y-93900000D01*
X208770251Y-93916251D01*
X208385898Y-94491476D01*
X208250931Y-95170000D01*
X208385898Y-95848524D01*
X208602492Y-96172679D01*
X208533067Y-96219067D01*
X208336581Y-96513130D01*
X208267584Y-96860000D01*
X208267584Y-98560000D01*
X208336581Y-98906870D01*
X208439567Y-99061000D01*
X207478203Y-99061000D01*
X207623749Y-98963749D01*
X208008102Y-98388524D01*
X208143069Y-97710000D01*
X208008102Y-97031476D01*
X207623749Y-96456251D01*
X207048524Y-96071898D01*
X206541276Y-95971000D01*
X206198724Y-95971000D01*
X205691476Y-96071898D01*
X205116251Y-96456251D01*
X205100000Y-96480572D01*
X205083749Y-96456251D01*
X204508524Y-96071898D01*
X204001276Y-95971000D01*
X203658724Y-95971000D01*
X203151476Y-96071898D01*
X202576251Y-96456251D01*
X202560000Y-96480572D01*
X202543749Y-96456251D01*
X201968524Y-96071898D01*
X201461276Y-95971000D01*
X201118724Y-95971000D01*
X200611476Y-96071898D01*
X200036251Y-96456251D01*
X200020000Y-96480572D01*
X200003749Y-96456251D01*
X199428524Y-96071898D01*
X198921276Y-95971000D01*
X198578724Y-95971000D01*
X198071476Y-96071898D01*
X197496251Y-96456251D01*
X197480000Y-96480572D01*
X197463749Y-96456251D01*
X196888524Y-96071898D01*
X196381276Y-95971000D01*
X196038724Y-95971000D01*
X195531476Y-96071898D01*
X194956251Y-96456251D01*
X194940000Y-96480572D01*
X194923749Y-96456251D01*
X194348524Y-96071898D01*
X193841276Y-95971000D01*
X193498724Y-95971000D01*
X192991476Y-96071898D01*
X192416251Y-96456251D01*
X192400000Y-96480572D01*
X192383749Y-96456251D01*
X191808524Y-96071898D01*
X191301276Y-95971000D01*
X190958724Y-95971000D01*
X190451476Y-96071898D01*
X189876251Y-96456251D01*
X189860000Y-96480572D01*
X189843749Y-96456251D01*
X189268524Y-96071898D01*
X188761276Y-95971000D01*
X188418724Y-95971000D01*
X187911476Y-96071898D01*
X187587321Y-96288492D01*
X187540933Y-96219067D01*
X187246870Y-96022581D01*
X186900000Y-95953584D01*
X185200000Y-95953584D01*
X184853130Y-96022581D01*
X184559067Y-96219067D01*
X184362581Y-96513130D01*
X184293584Y-96860000D01*
X184293584Y-98560000D01*
X184362581Y-98906870D01*
X184465567Y-99061000D01*
X183849000Y-99061000D01*
X183849000Y-93130000D01*
X184283584Y-93130000D01*
X184283584Y-94830000D01*
X184352581Y-95176870D01*
X184549067Y-95470933D01*
X184843130Y-95667419D01*
X185190000Y-95736416D01*
X186890000Y-95736416D01*
X187236870Y-95667419D01*
X187530933Y-95470933D01*
X187727419Y-95176870D01*
X187796416Y-94830000D01*
X187796416Y-93130000D01*
X187727419Y-92783130D01*
X187530933Y-92489067D01*
X187236870Y-92292581D01*
X187234087Y-92292027D01*
X187311645Y-92206924D01*
X187481476Y-91796890D01*
X187360155Y-91567000D01*
X186167000Y-91567000D01*
X186167000Y-91587000D01*
X185913000Y-91587000D01*
X185913000Y-91567000D01*
X184719845Y-91567000D01*
X184598524Y-91796890D01*
X184768355Y-92206924D01*
X184845913Y-92292027D01*
X184843130Y-92292581D01*
X184549067Y-92489067D01*
X184352581Y-92783130D01*
X184283584Y-93130000D01*
X183849000Y-93130000D01*
X183849000Y-76357000D01*
X189550000Y-76357000D01*
X189598601Y-76347333D01*
X189639803Y-76319803D01*
X189667333Y-76278601D01*
X189677000Y-76230000D01*
X189677000Y-70529000D01*
X211931000Y-70529000D01*
X211931001Y-99061000D01*
G36*
X198597000Y-85263000D02*
X198617000Y-85263000D01*
X198617000Y-85517000D01*
X198597000Y-85517000D01*
X198597000Y-86341250D01*
X198755750Y-86500000D01*
X199034476Y-86500000D01*
X198632076Y-86902400D01*
X197949000Y-86902400D01*
X197949000Y-86553548D01*
X197926820Y-86500000D01*
X198184250Y-86500000D01*
X198343000Y-86341250D01*
X198343000Y-85517000D01*
X198323000Y-85517000D01*
X198323000Y-85263000D01*
X198343000Y-85263000D01*
X198343000Y-85243000D01*
X198597000Y-85243000D01*
X198597000Y-85263000D01*
X198597000Y-85263000D01*
G37*
X198597000Y-85263000D02*
X198617000Y-85263000D01*
X198617000Y-85517000D01*
X198597000Y-85517000D01*
X198597000Y-86341250D01*
X198755750Y-86500000D01*
X199034476Y-86500000D01*
X198632076Y-86902400D01*
X197949000Y-86902400D01*
X197949000Y-86553548D01*
X197926820Y-86500000D01*
X198184250Y-86500000D01*
X198343000Y-86341250D01*
X198343000Y-85517000D01*
X198323000Y-85517000D01*
X198323000Y-85263000D01*
X198343000Y-85263000D01*
X198343000Y-85243000D01*
X198597000Y-85243000D01*
X198597000Y-85263000D01*
G36*
X208770251Y-76103749D02*
X208794572Y-76120000D01*
X208770251Y-76136251D01*
X208385898Y-76711476D01*
X208250931Y-77390000D01*
X208385898Y-78068524D01*
X208770251Y-78643749D01*
X208794572Y-78660000D01*
X208770251Y-78676251D01*
X208679279Y-78812400D01*
X206480073Y-78812400D01*
X206370000Y-78790505D01*
X205995524Y-78864993D01*
X205933934Y-78877244D01*
X205564255Y-79124255D01*
X205501902Y-79217573D01*
X202887076Y-81832400D01*
X201579927Y-81832400D01*
X201253934Y-81897244D01*
X201160911Y-81959400D01*
X200705916Y-81959400D01*
X200705916Y-81825000D01*
X200636919Y-81478130D01*
X200440433Y-81184067D01*
X200146370Y-80987581D01*
X199799500Y-80918584D01*
X199671958Y-80918584D01*
X199665933Y-80909567D01*
X199390600Y-80725596D01*
X199390600Y-80576170D01*
X199706832Y-80513268D01*
X199917357Y-80372600D01*
X202968927Y-80372600D01*
X203079000Y-80394495D01*
X203189073Y-80372600D01*
X203515066Y-80307756D01*
X203884745Y-80060745D01*
X203947100Y-79967424D01*
X208385939Y-75528586D01*
X208770251Y-76103749D01*
X208770251Y-76103749D01*
G37*
X208770251Y-76103749D02*
X208794572Y-76120000D01*
X208770251Y-76136251D01*
X208385898Y-76711476D01*
X208250931Y-77390000D01*
X208385898Y-78068524D01*
X208770251Y-78643749D01*
X208794572Y-78660000D01*
X208770251Y-78676251D01*
X208679279Y-78812400D01*
X206480073Y-78812400D01*
X206370000Y-78790505D01*
X205995524Y-78864993D01*
X205933934Y-78877244D01*
X205564255Y-79124255D01*
X205501902Y-79217573D01*
X202887076Y-81832400D01*
X201579927Y-81832400D01*
X201253934Y-81897244D01*
X201160911Y-81959400D01*
X200705916Y-81959400D01*
X200705916Y-81825000D01*
X200636919Y-81478130D01*
X200440433Y-81184067D01*
X200146370Y-80987581D01*
X199799500Y-80918584D01*
X199671958Y-80918584D01*
X199665933Y-80909567D01*
X199390600Y-80725596D01*
X199390600Y-80576170D01*
X199706832Y-80513268D01*
X199917357Y-80372600D01*
X202968927Y-80372600D01*
X203079000Y-80394495D01*
X203189073Y-80372600D01*
X203515066Y-80307756D01*
X203884745Y-80060745D01*
X203947100Y-79967424D01*
X208385939Y-75528586D01*
X208770251Y-76103749D01*
G04 #@! TD*
M02*
