M48
;DRILL file {KiCad (5.0.1)-3} date 9/28/2019 7:11:46 PM
;FORMAT={-:-/ absolute / metric / decimal}
FMAT,2
METRIC,TZ
T1C0.600
T2C1.000
%
G90
G05
M71
T1
X194.17Y-77.73
X195.71Y-83.44
X196.71Y-86.8
X197.02Y-80.36
X198.45Y-86.73
X203.32Y-80.7
T2
X210.024Y-72.31
X210.024Y-74.85
X210.024Y-77.39
X210.024Y-79.93
X210.024Y-82.47
X210.024Y-85.01
X210.024Y-87.55
X210.024Y-90.09
X210.024Y-92.63
X210.024Y-95.17
X210.024Y-97.71
X203.69Y-72.33
X206.23Y-72.33
X186.04Y-86.36
X186.04Y-88.9
X186.04Y-91.44
X186.04Y-93.98
X186.05Y-97.71
X188.59Y-97.71
X191.13Y-97.71
X193.67Y-97.71
X196.21Y-97.71
X198.75Y-97.71
X201.29Y-97.71
X203.83Y-97.71
X206.37Y-97.71
T0
M30
