G04 #@! TF.GenerationSoftware,KiCad,Pcbnew,(5.0.1)-3*
G04 #@! TF.CreationDate,2019-10-04T17:51:27-04:00*
G04 #@! TF.ProjectId,TPS62746,54505336323734362E6B696361645F70,rev?*
G04 #@! TF.SameCoordinates,Original*
G04 #@! TF.FileFunction,Copper,L2,Bot,Signal*
G04 #@! TF.FilePolarity,Positive*
%FSLAX46Y46*%
G04 Gerber Fmt 4.6, Leading zero omitted, Abs format (unit mm)*
G04 Created by KiCad (PCBNEW (5.0.1)-3) date 10/4/2019 5:51:27 PM*
%MOMM*%
%LPD*%
G01*
G04 APERTURE LIST*
G04 #@! TA.AperFunction,ComponentPad*
%ADD10R,1.700000X1.700000*%
G04 #@! TD*
G04 #@! TA.AperFunction,ComponentPad*
%ADD11O,1.700000X1.700000*%
G04 #@! TD*
G04 #@! TA.AperFunction,ViaPad*
%ADD12C,0.700000*%
G04 #@! TD*
G04 #@! TA.AperFunction,Conductor*
%ADD13C,0.203200*%
G04 #@! TD*
G04 #@! TA.AperFunction,Conductor*
%ADD14C,0.457200*%
G04 #@! TD*
G04 #@! TA.AperFunction,Conductor*
%ADD15C,0.254000*%
G04 #@! TD*
G04 APERTURE END LIST*
D10*
G04 #@! TO.P,J3,1*
G04 #@! TO.N,Net-(J3-Pad1)*
X172130000Y-89620000D03*
D11*
G04 #@! TO.P,J3,2*
G04 #@! TO.N,/LOAD_SW_CTRL*
X174670000Y-89620000D03*
G04 #@! TO.P,J3,3*
G04 #@! TO.N,/AIN_BAT_DIV_VOLTAGE*
X177210000Y-89620000D03*
G04 #@! TO.P,J3,4*
G04 #@! TO.N,N/C*
X179750000Y-89620000D03*
G04 #@! TO.P,J3,5*
X182290000Y-89620000D03*
G04 #@! TO.P,J3,6*
X184830000Y-89620000D03*
G04 #@! TO.P,J3,7*
X187370000Y-89620000D03*
G04 #@! TO.P,J3,8*
X189910000Y-89620000D03*
G04 #@! TO.P,J3,9*
X192450000Y-89620000D03*
G04 #@! TD*
D10*
G04 #@! TO.P,J1,1*
G04 #@! TO.N,DGND*
X172120000Y-85890000D03*
D11*
G04 #@! TO.P,J1,2*
G04 #@! TO.N,DVDD*
X172120000Y-83350000D03*
G04 #@! TO.P,J1,3*
G04 #@! TO.N,N/C*
X172120000Y-80810000D03*
G04 #@! TO.P,J1,4*
X172120000Y-78270000D03*
G04 #@! TD*
D10*
G04 #@! TO.P,J2,1*
G04 #@! TO.N,DGND*
X189770000Y-64240000D03*
D11*
G04 #@! TO.P,J2,2*
G04 #@! TO.N,/LOAD_IN*
X192310000Y-64240000D03*
G04 #@! TD*
D12*
G04 #@! TO.N,DGND*
X186260000Y-74320000D03*
X180110000Y-79410000D03*
G04 #@! TO.N,/LOAD_IN*
X186110000Y-73300000D03*
X178640000Y-75880000D03*
G04 #@! TO.N,DVDD*
X189030000Y-75080000D03*
G04 #@! TD*
D13*
G04 #@! TO.N,/LOAD_IN*
X185615026Y-73300000D02*
X183005026Y-75910000D01*
X186110000Y-73300000D02*
X185615026Y-73300000D01*
X183005026Y-75910000D02*
X178670000Y-75910000D01*
X178670000Y-75910000D02*
X178640000Y-75880000D01*
D14*
X186110000Y-70440000D02*
X186110000Y-73300000D01*
X192310000Y-64240000D02*
X186110000Y-70440000D01*
G04 #@! TO.N,DVDD*
X189030000Y-75080000D02*
X178390000Y-83350000D01*
X178390000Y-83350000D02*
X172120000Y-83350000D01*
G04 #@! TD*
D15*
G04 #@! TO.N,DGND*
G36*
X198011001Y-90971000D02*
X193558203Y-90971000D01*
X193703749Y-90873749D01*
X194088102Y-90298524D01*
X194223069Y-89620000D01*
X194088102Y-88941476D01*
X193703749Y-88366251D01*
X193128524Y-87981898D01*
X192621276Y-87881000D01*
X192278724Y-87881000D01*
X191771476Y-87981898D01*
X191196251Y-88366251D01*
X191180000Y-88390572D01*
X191163749Y-88366251D01*
X190588524Y-87981898D01*
X190081276Y-87881000D01*
X189738724Y-87881000D01*
X189231476Y-87981898D01*
X188656251Y-88366251D01*
X188640000Y-88390572D01*
X188623749Y-88366251D01*
X188048524Y-87981898D01*
X187541276Y-87881000D01*
X187198724Y-87881000D01*
X186691476Y-87981898D01*
X186116251Y-88366251D01*
X186100000Y-88390572D01*
X186083749Y-88366251D01*
X185508524Y-87981898D01*
X185001276Y-87881000D01*
X184658724Y-87881000D01*
X184151476Y-87981898D01*
X183576251Y-88366251D01*
X183560000Y-88390572D01*
X183543749Y-88366251D01*
X182968524Y-87981898D01*
X182461276Y-87881000D01*
X182118724Y-87881000D01*
X181611476Y-87981898D01*
X181036251Y-88366251D01*
X181020000Y-88390572D01*
X181003749Y-88366251D01*
X180428524Y-87981898D01*
X179921276Y-87881000D01*
X179578724Y-87881000D01*
X179071476Y-87981898D01*
X178496251Y-88366251D01*
X178480000Y-88390572D01*
X178463749Y-88366251D01*
X177888524Y-87981898D01*
X177381276Y-87881000D01*
X177038724Y-87881000D01*
X176531476Y-87981898D01*
X175956251Y-88366251D01*
X175940000Y-88390572D01*
X175923749Y-88366251D01*
X175348524Y-87981898D01*
X174841276Y-87881000D01*
X174498724Y-87881000D01*
X173991476Y-87981898D01*
X173667321Y-88198492D01*
X173620933Y-88129067D01*
X173326870Y-87932581D01*
X172980000Y-87863584D01*
X171280000Y-87863584D01*
X170933130Y-87932581D01*
X170639067Y-88129067D01*
X170442581Y-88423130D01*
X170373584Y-88770000D01*
X170373584Y-90470000D01*
X170442581Y-90816870D01*
X170545567Y-90971000D01*
X169929000Y-90971000D01*
X169929000Y-86175750D01*
X170635000Y-86175750D01*
X170635000Y-86866310D01*
X170731673Y-87099699D01*
X170910302Y-87278327D01*
X171143691Y-87375000D01*
X171834250Y-87375000D01*
X171993000Y-87216250D01*
X171993000Y-86017000D01*
X172247000Y-86017000D01*
X172247000Y-87216250D01*
X172405750Y-87375000D01*
X173096309Y-87375000D01*
X173329698Y-87278327D01*
X173508327Y-87099699D01*
X173605000Y-86866310D01*
X173605000Y-86175750D01*
X173446250Y-86017000D01*
X172247000Y-86017000D01*
X171993000Y-86017000D01*
X170793750Y-86017000D01*
X170635000Y-86175750D01*
X169929000Y-86175750D01*
X169929000Y-78270000D01*
X170346931Y-78270000D01*
X170481898Y-78948524D01*
X170866251Y-79523749D01*
X170890572Y-79540000D01*
X170866251Y-79556251D01*
X170481898Y-80131476D01*
X170346931Y-80810000D01*
X170481898Y-81488524D01*
X170866251Y-82063749D01*
X170890572Y-82080000D01*
X170866251Y-82096251D01*
X170481898Y-82671476D01*
X170346931Y-83350000D01*
X170481898Y-84028524D01*
X170843009Y-84568965D01*
X170731673Y-84680301D01*
X170635000Y-84913690D01*
X170635000Y-85604250D01*
X170793750Y-85763000D01*
X171993000Y-85763000D01*
X171993000Y-85743000D01*
X172247000Y-85743000D01*
X172247000Y-85763000D01*
X173446250Y-85763000D01*
X173605000Y-85604250D01*
X173605000Y-84913690D01*
X173508327Y-84680301D01*
X173396991Y-84568965D01*
X173464721Y-84467600D01*
X178209052Y-84467600D01*
X178248296Y-84480650D01*
X178430067Y-84467600D01*
X178500073Y-84467600D01*
X178539611Y-84459735D01*
X178691762Y-84448812D01*
X178755808Y-84416731D01*
X178826066Y-84402756D01*
X178952906Y-84318005D01*
X178988944Y-84299953D01*
X179044210Y-84256997D01*
X179195745Y-84155745D01*
X179218723Y-84121356D01*
X189257064Y-76319000D01*
X189276452Y-76319000D01*
X189731837Y-76130373D01*
X190080373Y-75781837D01*
X190269000Y-75326452D01*
X190269000Y-74833548D01*
X190080373Y-74378163D01*
X189731837Y-74029627D01*
X189276452Y-73841000D01*
X188783548Y-73841000D01*
X188328163Y-74029627D01*
X187979627Y-74378163D01*
X187916852Y-74529714D01*
X178006747Y-82232400D01*
X173464721Y-82232400D01*
X173373749Y-82096251D01*
X173349428Y-82080000D01*
X173373749Y-82063749D01*
X173758102Y-81488524D01*
X173893069Y-80810000D01*
X173758102Y-80131476D01*
X173373749Y-79556251D01*
X173349428Y-79540000D01*
X173373749Y-79523749D01*
X173758102Y-78948524D01*
X173893069Y-78270000D01*
X173758102Y-77591476D01*
X173373749Y-77016251D01*
X172798524Y-76631898D01*
X172291276Y-76531000D01*
X171948724Y-76531000D01*
X171441476Y-76631898D01*
X170866251Y-77016251D01*
X170481898Y-77591476D01*
X170346931Y-78270000D01*
X169929000Y-78270000D01*
X169929000Y-75633548D01*
X177401000Y-75633548D01*
X177401000Y-76126452D01*
X177589627Y-76581837D01*
X177938163Y-76930373D01*
X178393548Y-77119000D01*
X178886452Y-77119000D01*
X179341837Y-76930373D01*
X179371610Y-76900600D01*
X182907461Y-76900600D01*
X183005026Y-76920007D01*
X183102591Y-76900600D01*
X183102592Y-76900600D01*
X183391539Y-76843125D01*
X183719209Y-76624183D01*
X183774478Y-76541467D01*
X185802311Y-74513635D01*
X185863548Y-74539000D01*
X186356452Y-74539000D01*
X186811837Y-74350373D01*
X187160373Y-74001837D01*
X187349000Y-73546452D01*
X187349000Y-73053548D01*
X187227600Y-72760463D01*
X187227600Y-70902924D01*
X192151525Y-65979000D01*
X192481276Y-65979000D01*
X192988524Y-65878102D01*
X193563749Y-65493749D01*
X193948102Y-64918524D01*
X194083069Y-64240000D01*
X193948102Y-63561476D01*
X193563749Y-62986251D01*
X192988524Y-62601898D01*
X192481276Y-62501000D01*
X192138724Y-62501000D01*
X191631476Y-62601898D01*
X191091035Y-62963009D01*
X190979699Y-62851673D01*
X190746310Y-62755000D01*
X190055750Y-62755000D01*
X189897000Y-62913750D01*
X189897000Y-64113000D01*
X189917000Y-64113000D01*
X189917000Y-64367000D01*
X189897000Y-64367000D01*
X189897000Y-64387000D01*
X189643000Y-64387000D01*
X189643000Y-64367000D01*
X188443750Y-64367000D01*
X188285000Y-64525750D01*
X188285000Y-65216309D01*
X188381673Y-65449698D01*
X188560301Y-65628327D01*
X188793690Y-65725000D01*
X189244475Y-65725000D01*
X185397576Y-69571900D01*
X185304255Y-69634255D01*
X185057245Y-70003934D01*
X185057244Y-70003935D01*
X184970505Y-70440000D01*
X184992400Y-70550074D01*
X184992401Y-72524640D01*
X184900843Y-72585817D01*
X184845576Y-72668530D01*
X182594707Y-74919400D01*
X179431610Y-74919400D01*
X179341837Y-74829627D01*
X178886452Y-74641000D01*
X178393548Y-74641000D01*
X177938163Y-74829627D01*
X177589627Y-75178163D01*
X177401000Y-75633548D01*
X169929000Y-75633548D01*
X169929000Y-68268349D01*
X175629807Y-68277000D01*
X175678423Y-68267406D01*
X175719666Y-68239939D01*
X175747259Y-68198779D01*
X175757000Y-68150193D01*
X175764415Y-63263691D01*
X188285000Y-63263691D01*
X188285000Y-63954250D01*
X188443750Y-64113000D01*
X189643000Y-64113000D01*
X189643000Y-62913750D01*
X189484250Y-62755000D01*
X188793690Y-62755000D01*
X188560301Y-62851673D01*
X188381673Y-63030302D01*
X188285000Y-63263691D01*
X175764415Y-63263691D01*
X175765667Y-62439000D01*
X198011000Y-62439000D01*
X198011001Y-90971000D01*
X198011001Y-90971000D01*
G37*
X198011001Y-90971000D02*
X193558203Y-90971000D01*
X193703749Y-90873749D01*
X194088102Y-90298524D01*
X194223069Y-89620000D01*
X194088102Y-88941476D01*
X193703749Y-88366251D01*
X193128524Y-87981898D01*
X192621276Y-87881000D01*
X192278724Y-87881000D01*
X191771476Y-87981898D01*
X191196251Y-88366251D01*
X191180000Y-88390572D01*
X191163749Y-88366251D01*
X190588524Y-87981898D01*
X190081276Y-87881000D01*
X189738724Y-87881000D01*
X189231476Y-87981898D01*
X188656251Y-88366251D01*
X188640000Y-88390572D01*
X188623749Y-88366251D01*
X188048524Y-87981898D01*
X187541276Y-87881000D01*
X187198724Y-87881000D01*
X186691476Y-87981898D01*
X186116251Y-88366251D01*
X186100000Y-88390572D01*
X186083749Y-88366251D01*
X185508524Y-87981898D01*
X185001276Y-87881000D01*
X184658724Y-87881000D01*
X184151476Y-87981898D01*
X183576251Y-88366251D01*
X183560000Y-88390572D01*
X183543749Y-88366251D01*
X182968524Y-87981898D01*
X182461276Y-87881000D01*
X182118724Y-87881000D01*
X181611476Y-87981898D01*
X181036251Y-88366251D01*
X181020000Y-88390572D01*
X181003749Y-88366251D01*
X180428524Y-87981898D01*
X179921276Y-87881000D01*
X179578724Y-87881000D01*
X179071476Y-87981898D01*
X178496251Y-88366251D01*
X178480000Y-88390572D01*
X178463749Y-88366251D01*
X177888524Y-87981898D01*
X177381276Y-87881000D01*
X177038724Y-87881000D01*
X176531476Y-87981898D01*
X175956251Y-88366251D01*
X175940000Y-88390572D01*
X175923749Y-88366251D01*
X175348524Y-87981898D01*
X174841276Y-87881000D01*
X174498724Y-87881000D01*
X173991476Y-87981898D01*
X173667321Y-88198492D01*
X173620933Y-88129067D01*
X173326870Y-87932581D01*
X172980000Y-87863584D01*
X171280000Y-87863584D01*
X170933130Y-87932581D01*
X170639067Y-88129067D01*
X170442581Y-88423130D01*
X170373584Y-88770000D01*
X170373584Y-90470000D01*
X170442581Y-90816870D01*
X170545567Y-90971000D01*
X169929000Y-90971000D01*
X169929000Y-86175750D01*
X170635000Y-86175750D01*
X170635000Y-86866310D01*
X170731673Y-87099699D01*
X170910302Y-87278327D01*
X171143691Y-87375000D01*
X171834250Y-87375000D01*
X171993000Y-87216250D01*
X171993000Y-86017000D01*
X172247000Y-86017000D01*
X172247000Y-87216250D01*
X172405750Y-87375000D01*
X173096309Y-87375000D01*
X173329698Y-87278327D01*
X173508327Y-87099699D01*
X173605000Y-86866310D01*
X173605000Y-86175750D01*
X173446250Y-86017000D01*
X172247000Y-86017000D01*
X171993000Y-86017000D01*
X170793750Y-86017000D01*
X170635000Y-86175750D01*
X169929000Y-86175750D01*
X169929000Y-78270000D01*
X170346931Y-78270000D01*
X170481898Y-78948524D01*
X170866251Y-79523749D01*
X170890572Y-79540000D01*
X170866251Y-79556251D01*
X170481898Y-80131476D01*
X170346931Y-80810000D01*
X170481898Y-81488524D01*
X170866251Y-82063749D01*
X170890572Y-82080000D01*
X170866251Y-82096251D01*
X170481898Y-82671476D01*
X170346931Y-83350000D01*
X170481898Y-84028524D01*
X170843009Y-84568965D01*
X170731673Y-84680301D01*
X170635000Y-84913690D01*
X170635000Y-85604250D01*
X170793750Y-85763000D01*
X171993000Y-85763000D01*
X171993000Y-85743000D01*
X172247000Y-85743000D01*
X172247000Y-85763000D01*
X173446250Y-85763000D01*
X173605000Y-85604250D01*
X173605000Y-84913690D01*
X173508327Y-84680301D01*
X173396991Y-84568965D01*
X173464721Y-84467600D01*
X178209052Y-84467600D01*
X178248296Y-84480650D01*
X178430067Y-84467600D01*
X178500073Y-84467600D01*
X178539611Y-84459735D01*
X178691762Y-84448812D01*
X178755808Y-84416731D01*
X178826066Y-84402756D01*
X178952906Y-84318005D01*
X178988944Y-84299953D01*
X179044210Y-84256997D01*
X179195745Y-84155745D01*
X179218723Y-84121356D01*
X189257064Y-76319000D01*
X189276452Y-76319000D01*
X189731837Y-76130373D01*
X190080373Y-75781837D01*
X190269000Y-75326452D01*
X190269000Y-74833548D01*
X190080373Y-74378163D01*
X189731837Y-74029627D01*
X189276452Y-73841000D01*
X188783548Y-73841000D01*
X188328163Y-74029627D01*
X187979627Y-74378163D01*
X187916852Y-74529714D01*
X178006747Y-82232400D01*
X173464721Y-82232400D01*
X173373749Y-82096251D01*
X173349428Y-82080000D01*
X173373749Y-82063749D01*
X173758102Y-81488524D01*
X173893069Y-80810000D01*
X173758102Y-80131476D01*
X173373749Y-79556251D01*
X173349428Y-79540000D01*
X173373749Y-79523749D01*
X173758102Y-78948524D01*
X173893069Y-78270000D01*
X173758102Y-77591476D01*
X173373749Y-77016251D01*
X172798524Y-76631898D01*
X172291276Y-76531000D01*
X171948724Y-76531000D01*
X171441476Y-76631898D01*
X170866251Y-77016251D01*
X170481898Y-77591476D01*
X170346931Y-78270000D01*
X169929000Y-78270000D01*
X169929000Y-75633548D01*
X177401000Y-75633548D01*
X177401000Y-76126452D01*
X177589627Y-76581837D01*
X177938163Y-76930373D01*
X178393548Y-77119000D01*
X178886452Y-77119000D01*
X179341837Y-76930373D01*
X179371610Y-76900600D01*
X182907461Y-76900600D01*
X183005026Y-76920007D01*
X183102591Y-76900600D01*
X183102592Y-76900600D01*
X183391539Y-76843125D01*
X183719209Y-76624183D01*
X183774478Y-76541467D01*
X185802311Y-74513635D01*
X185863548Y-74539000D01*
X186356452Y-74539000D01*
X186811837Y-74350373D01*
X187160373Y-74001837D01*
X187349000Y-73546452D01*
X187349000Y-73053548D01*
X187227600Y-72760463D01*
X187227600Y-70902924D01*
X192151525Y-65979000D01*
X192481276Y-65979000D01*
X192988524Y-65878102D01*
X193563749Y-65493749D01*
X193948102Y-64918524D01*
X194083069Y-64240000D01*
X193948102Y-63561476D01*
X193563749Y-62986251D01*
X192988524Y-62601898D01*
X192481276Y-62501000D01*
X192138724Y-62501000D01*
X191631476Y-62601898D01*
X191091035Y-62963009D01*
X190979699Y-62851673D01*
X190746310Y-62755000D01*
X190055750Y-62755000D01*
X189897000Y-62913750D01*
X189897000Y-64113000D01*
X189917000Y-64113000D01*
X189917000Y-64367000D01*
X189897000Y-64367000D01*
X189897000Y-64387000D01*
X189643000Y-64387000D01*
X189643000Y-64367000D01*
X188443750Y-64367000D01*
X188285000Y-64525750D01*
X188285000Y-65216309D01*
X188381673Y-65449698D01*
X188560301Y-65628327D01*
X188793690Y-65725000D01*
X189244475Y-65725000D01*
X185397576Y-69571900D01*
X185304255Y-69634255D01*
X185057245Y-70003934D01*
X185057244Y-70003935D01*
X184970505Y-70440000D01*
X184992400Y-70550074D01*
X184992401Y-72524640D01*
X184900843Y-72585817D01*
X184845576Y-72668530D01*
X182594707Y-74919400D01*
X179431610Y-74919400D01*
X179341837Y-74829627D01*
X178886452Y-74641000D01*
X178393548Y-74641000D01*
X177938163Y-74829627D01*
X177589627Y-75178163D01*
X177401000Y-75633548D01*
X169929000Y-75633548D01*
X169929000Y-68268349D01*
X175629807Y-68277000D01*
X175678423Y-68267406D01*
X175719666Y-68239939D01*
X175747259Y-68198779D01*
X175757000Y-68150193D01*
X175764415Y-63263691D01*
X188285000Y-63263691D01*
X188285000Y-63954250D01*
X188443750Y-64113000D01*
X189643000Y-64113000D01*
X189643000Y-62913750D01*
X189484250Y-62755000D01*
X188793690Y-62755000D01*
X188560301Y-62851673D01*
X188381673Y-63030302D01*
X188285000Y-63263691D01*
X175764415Y-63263691D01*
X175765667Y-62439000D01*
X198011000Y-62439000D01*
X198011001Y-90971000D01*
G04 #@! TD*
M02*
