M48
;DRILL file {KiCad (5.0.1)-3} date 10/4/2019 5:51:28 PM
;FORMAT={-:-/ absolute / metric / decimal}
FMAT,2
METRIC,TZ
T1C0.600
T2C1.000
%
G90
G05
M71
T1
X178.64Y-75.88
X180.11Y-79.41
X186.11Y-73.3
X186.26Y-74.32
X189.03Y-75.08
T2
X172.12Y-78.27
X172.12Y-80.81
X172.12Y-83.35
X172.12Y-85.89
X189.77Y-64.24
X192.31Y-64.24
X172.13Y-89.62
X174.67Y-89.62
X177.21Y-89.62
X179.75Y-89.62
X182.29Y-89.62
X184.83Y-89.62
X187.37Y-89.62
X189.91Y-89.62
X192.45Y-89.62
T0
M30
