G04 #@! TF.GenerationSoftware,KiCad,Pcbnew,(5.0.1)-3*
G04 #@! TF.CreationDate,2019-09-28T19:14:33-04:00*
G04 #@! TF.ProjectId,NRF,4E52462E6B696361645F706362000000,rev?*
G04 #@! TF.SameCoordinates,Original*
G04 #@! TF.FileFunction,Copper,L2,Bot,Signal*
G04 #@! TF.FilePolarity,Positive*
%FSLAX46Y46*%
G04 Gerber Fmt 4.6, Leading zero omitted, Abs format (unit mm)*
G04 Created by KiCad (PCBNEW (5.0.1)-3) date 9/28/2019 7:14:33 PM*
%MOMM*%
%LPD*%
G01*
G04 APERTURE LIST*
G04 #@! TA.AperFunction,ComponentPad*
%ADD10R,1.700000X1.700000*%
G04 #@! TD*
G04 #@! TA.AperFunction,ComponentPad*
%ADD11O,1.700000X1.700000*%
G04 #@! TD*
G04 #@! TA.AperFunction,ViaPad*
%ADD12C,0.700000*%
G04 #@! TD*
G04 #@! TA.AperFunction,Conductor*
%ADD13C,0.152000*%
G04 #@! TD*
G04 #@! TA.AperFunction,Conductor*
%ADD14C,0.457200*%
G04 #@! TD*
G04 #@! TA.AperFunction,Conductor*
%ADD15C,0.254000*%
G04 #@! TD*
G04 APERTURE END LIST*
D10*
G04 #@! TO.P,J2,1*
G04 #@! TO.N,/MAX30003_CSB*
X228854000Y-123190000D03*
D11*
G04 #@! TO.P,J2,2*
G04 #@! TO.N,/MAX30003_SCLK*
X228854000Y-120650000D03*
G04 #@! TO.P,J2,3*
G04 #@! TO.N,/MAX30003_SDI*
X228854000Y-118110000D03*
G04 #@! TO.P,J2,4*
G04 #@! TO.N,/MAX30003_SDO*
X228854000Y-115570000D03*
G04 #@! TO.P,J2,5*
G04 #@! TO.N,/MAX30003_INT2*
X228854000Y-113030000D03*
G04 #@! TO.P,J2,6*
G04 #@! TO.N,/MAX30003_INT*
X228854000Y-110490000D03*
G04 #@! TO.P,J2,7*
G04 #@! TO.N,/P17*
X228854000Y-107950000D03*
G04 #@! TO.P,J2,8*
G04 #@! TO.N,/BMI_INT2*
X228854000Y-105410000D03*
G04 #@! TO.P,J2,9*
G04 #@! TO.N,/BMI_INT1*
X228854000Y-102870000D03*
G04 #@! TO.P,J2,10*
G04 #@! TO.N,/BMI_SDA*
X228854000Y-100330000D03*
G04 #@! TO.P,J2,11*
G04 #@! TO.N,/BMI_SCL*
X228854000Y-97790000D03*
G04 #@! TD*
D10*
G04 #@! TO.P,J1,1*
G04 #@! TO.N,/P02*
X204880000Y-123190000D03*
D11*
G04 #@! TO.P,J1,2*
G04 #@! TO.N,/LOAD_SW_CTRL*
X207420000Y-123190000D03*
G04 #@! TO.P,J1,3*
G04 #@! TO.N,/AIN_BAT_DIV_VOLTAGE*
X209960000Y-123190000D03*
G04 #@! TO.P,J1,4*
G04 #@! TO.N,/P05*
X212500000Y-123190000D03*
G04 #@! TO.P,J1,5*
G04 #@! TO.N,/P06*
X215040000Y-123190000D03*
G04 #@! TO.P,J1,6*
G04 #@! TO.N,/P07*
X217580000Y-123190000D03*
G04 #@! TO.P,J1,7*
G04 #@! TO.N,/P08*
X220120000Y-123190000D03*
G04 #@! TO.P,J1,8*
G04 #@! TO.N,/P09*
X222660000Y-123190000D03*
G04 #@! TO.P,J1,9*
G04 #@! TO.N,/P10*
X225200000Y-123190000D03*
G04 #@! TD*
G04 #@! TO.P,J3,2*
G04 #@! TO.N,/SWDCLK*
X225060000Y-97810000D03*
D10*
G04 #@! TO.P,J3,1*
G04 #@! TO.N,/SWDIO*
X222520000Y-97810000D03*
G04 #@! TD*
G04 #@! TO.P,J4,1*
G04 #@! TO.N,/DVDD*
X204870000Y-119460000D03*
D11*
G04 #@! TO.P,J4,2*
G04 #@! TO.N,DGND*
X204870000Y-116920000D03*
G04 #@! TO.P,J4,3*
G04 #@! TO.N,/AVDD*
X204870000Y-114380000D03*
G04 #@! TO.P,J4,4*
G04 #@! TO.N,AGND*
X204870000Y-111840000D03*
G04 #@! TD*
D12*
G04 #@! TO.N,DGND*
X214720000Y-104798000D03*
X212660000Y-98458000D03*
X207730000Y-109730000D03*
X216710000Y-96910000D03*
X220590000Y-109930000D03*
G04 #@! TO.N,/DVDD*
X210605000Y-99058000D03*
X210770000Y-100750000D03*
X210540000Y-106598000D03*
X216800000Y-106720000D03*
G04 #@! TD*
D13*
G04 #@! TO.N,DGND*
X212690000Y-98038000D02*
X212680000Y-98038000D01*
X212660000Y-98458000D02*
X212690000Y-98038000D01*
D14*
G04 #@! TO.N,/DVDD*
X210540000Y-101123000D02*
X210540000Y-106598000D01*
X210520000Y-100598000D02*
X210930000Y-99383000D01*
X210930000Y-99383000D02*
X210605000Y-99058000D01*
X210520000Y-100598000D02*
X210540000Y-101123000D01*
X211580000Y-108132974D02*
X211580000Y-110560000D01*
X210540000Y-107092974D02*
X211580000Y-108132974D01*
X210540000Y-106598000D02*
X210540000Y-107092974D01*
X211580000Y-108500000D02*
X211580000Y-110560000D01*
X215382000Y-108138000D02*
X216800000Y-106720000D01*
X211942000Y-108138000D02*
X215382000Y-108138000D01*
X206177200Y-119460000D02*
X204870000Y-119460000D01*
X211580000Y-114057200D02*
X206177200Y-119460000D01*
X211580000Y-110560000D02*
X211580000Y-114057200D01*
G04 #@! TD*
D15*
G04 #@! TO.N,DGND*
G36*
X230761001Y-124541000D02*
X230438433Y-124541000D01*
X230541419Y-124386870D01*
X230610416Y-124040000D01*
X230610416Y-122340000D01*
X230541419Y-121993130D01*
X230344933Y-121699067D01*
X230275508Y-121652679D01*
X230492102Y-121328524D01*
X230627069Y-120650000D01*
X230492102Y-119971476D01*
X230107749Y-119396251D01*
X230083428Y-119380000D01*
X230107749Y-119363749D01*
X230492102Y-118788524D01*
X230627069Y-118110000D01*
X230492102Y-117431476D01*
X230107749Y-116856251D01*
X230083428Y-116840000D01*
X230107749Y-116823749D01*
X230492102Y-116248524D01*
X230627069Y-115570000D01*
X230492102Y-114891476D01*
X230107749Y-114316251D01*
X230083428Y-114300000D01*
X230107749Y-114283749D01*
X230492102Y-113708524D01*
X230627069Y-113030000D01*
X230492102Y-112351476D01*
X230107749Y-111776251D01*
X230083428Y-111760000D01*
X230107749Y-111743749D01*
X230492102Y-111168524D01*
X230627069Y-110490000D01*
X230492102Y-109811476D01*
X230107749Y-109236251D01*
X230083428Y-109220000D01*
X230107749Y-109203749D01*
X230492102Y-108628524D01*
X230627069Y-107950000D01*
X230492102Y-107271476D01*
X230107749Y-106696251D01*
X230083428Y-106680000D01*
X230107749Y-106663749D01*
X230492102Y-106088524D01*
X230627069Y-105410000D01*
X230492102Y-104731476D01*
X230107749Y-104156251D01*
X230083428Y-104140000D01*
X230107749Y-104123749D01*
X230492102Y-103548524D01*
X230627069Y-102870000D01*
X230492102Y-102191476D01*
X230107749Y-101616251D01*
X230083428Y-101600000D01*
X230107749Y-101583749D01*
X230492102Y-101008524D01*
X230627069Y-100330000D01*
X230492102Y-99651476D01*
X230107749Y-99076251D01*
X230083428Y-99060000D01*
X230107749Y-99043749D01*
X230492102Y-98468524D01*
X230627069Y-97790000D01*
X230492102Y-97111476D01*
X230107749Y-96536251D01*
X229532524Y-96151898D01*
X229025276Y-96051000D01*
X228682724Y-96051000D01*
X228175476Y-96151898D01*
X227600251Y-96536251D01*
X227215898Y-97111476D01*
X227080931Y-97790000D01*
X227215898Y-98468524D01*
X227600251Y-99043749D01*
X227624572Y-99060000D01*
X227600251Y-99076251D01*
X227215898Y-99651476D01*
X227080931Y-100330000D01*
X227215898Y-101008524D01*
X227600251Y-101583749D01*
X227624572Y-101600000D01*
X227600251Y-101616251D01*
X227215898Y-102191476D01*
X227080931Y-102870000D01*
X227215898Y-103548524D01*
X227600251Y-104123749D01*
X227624572Y-104140000D01*
X227600251Y-104156251D01*
X227215898Y-104731476D01*
X227080931Y-105410000D01*
X227215898Y-106088524D01*
X227600251Y-106663749D01*
X227624572Y-106680000D01*
X227600251Y-106696251D01*
X227215898Y-107271476D01*
X227080931Y-107950000D01*
X227215898Y-108628524D01*
X227600251Y-109203749D01*
X227624572Y-109220000D01*
X227600251Y-109236251D01*
X227215898Y-109811476D01*
X227080931Y-110490000D01*
X227215898Y-111168524D01*
X227600251Y-111743749D01*
X227624572Y-111760000D01*
X227600251Y-111776251D01*
X227215898Y-112351476D01*
X227080931Y-113030000D01*
X227215898Y-113708524D01*
X227600251Y-114283749D01*
X227624572Y-114300000D01*
X227600251Y-114316251D01*
X227215898Y-114891476D01*
X227080931Y-115570000D01*
X227215898Y-116248524D01*
X227600251Y-116823749D01*
X227624572Y-116840000D01*
X227600251Y-116856251D01*
X227215898Y-117431476D01*
X227080931Y-118110000D01*
X227215898Y-118788524D01*
X227600251Y-119363749D01*
X227624572Y-119380000D01*
X227600251Y-119396251D01*
X227215898Y-119971476D01*
X227080931Y-120650000D01*
X227215898Y-121328524D01*
X227432492Y-121652679D01*
X227363067Y-121699067D01*
X227166581Y-121993130D01*
X227097584Y-122340000D01*
X227097584Y-124040000D01*
X227166581Y-124386870D01*
X227269567Y-124541000D01*
X226308203Y-124541000D01*
X226453749Y-124443749D01*
X226838102Y-123868524D01*
X226973069Y-123190000D01*
X226838102Y-122511476D01*
X226453749Y-121936251D01*
X225878524Y-121551898D01*
X225371276Y-121451000D01*
X225028724Y-121451000D01*
X224521476Y-121551898D01*
X223946251Y-121936251D01*
X223930000Y-121960572D01*
X223913749Y-121936251D01*
X223338524Y-121551898D01*
X222831276Y-121451000D01*
X222488724Y-121451000D01*
X221981476Y-121551898D01*
X221406251Y-121936251D01*
X221390000Y-121960572D01*
X221373749Y-121936251D01*
X220798524Y-121551898D01*
X220291276Y-121451000D01*
X219948724Y-121451000D01*
X219441476Y-121551898D01*
X218866251Y-121936251D01*
X218850000Y-121960572D01*
X218833749Y-121936251D01*
X218258524Y-121551898D01*
X217751276Y-121451000D01*
X217408724Y-121451000D01*
X216901476Y-121551898D01*
X216326251Y-121936251D01*
X216310000Y-121960572D01*
X216293749Y-121936251D01*
X215718524Y-121551898D01*
X215211276Y-121451000D01*
X214868724Y-121451000D01*
X214361476Y-121551898D01*
X213786251Y-121936251D01*
X213770000Y-121960572D01*
X213753749Y-121936251D01*
X213178524Y-121551898D01*
X212671276Y-121451000D01*
X212328724Y-121451000D01*
X211821476Y-121551898D01*
X211246251Y-121936251D01*
X211230000Y-121960572D01*
X211213749Y-121936251D01*
X210638524Y-121551898D01*
X210131276Y-121451000D01*
X209788724Y-121451000D01*
X209281476Y-121551898D01*
X208706251Y-121936251D01*
X208690000Y-121960572D01*
X208673749Y-121936251D01*
X208098524Y-121551898D01*
X207591276Y-121451000D01*
X207248724Y-121451000D01*
X206741476Y-121551898D01*
X206417321Y-121768492D01*
X206370933Y-121699067D01*
X206076870Y-121502581D01*
X205730000Y-121433584D01*
X204030000Y-121433584D01*
X203683130Y-121502581D01*
X203389067Y-121699067D01*
X203192581Y-121993130D01*
X203123584Y-122340000D01*
X203123584Y-124040000D01*
X203192581Y-124386870D01*
X203295567Y-124541000D01*
X202679000Y-124541000D01*
X202679000Y-118610000D01*
X203113584Y-118610000D01*
X203113584Y-120310000D01*
X203182581Y-120656870D01*
X203379067Y-120950933D01*
X203673130Y-121147419D01*
X204020000Y-121216416D01*
X205720000Y-121216416D01*
X206066870Y-121147419D01*
X206360933Y-120950933D01*
X206557419Y-120656870D01*
X206584965Y-120518385D01*
X206613266Y-120512756D01*
X206982945Y-120265745D01*
X207045300Y-120172424D01*
X212292427Y-114925298D01*
X212385745Y-114862945D01*
X212632756Y-114493266D01*
X212655286Y-114380000D01*
X212719495Y-114057201D01*
X212697600Y-113947128D01*
X212697600Y-109255600D01*
X215271927Y-109255600D01*
X215382000Y-109277495D01*
X215492073Y-109255600D01*
X215818066Y-109190756D01*
X216187745Y-108943745D01*
X216250099Y-108850425D01*
X217208753Y-107891773D01*
X217501837Y-107770373D01*
X217850373Y-107421837D01*
X218039000Y-106966452D01*
X218039000Y-106473548D01*
X217850373Y-106018163D01*
X217501837Y-105669627D01*
X217046452Y-105481000D01*
X216553548Y-105481000D01*
X216098163Y-105669627D01*
X215749627Y-106018163D01*
X215628227Y-106311247D01*
X214919075Y-107020400D01*
X212047951Y-107020400D01*
X211779000Y-106751450D01*
X211779000Y-106351548D01*
X211657600Y-106058463D01*
X211657600Y-101614610D01*
X211820373Y-101451837D01*
X212009000Y-100996452D01*
X212009000Y-100503548D01*
X211856018Y-100134218D01*
X211941563Y-99880713D01*
X211982755Y-99819065D01*
X212012031Y-99671889D01*
X212024127Y-99636042D01*
X212033458Y-99564165D01*
X212069495Y-99382999D01*
X212061921Y-99344924D01*
X212066919Y-99306428D01*
X212018791Y-99128095D01*
X211982755Y-98946935D01*
X211961188Y-98914658D01*
X211951073Y-98877177D01*
X211838364Y-98730837D01*
X211798095Y-98670571D01*
X211776774Y-98649250D01*
X211655373Y-98356163D01*
X211306837Y-98007627D01*
X210851452Y-97819000D01*
X210358548Y-97819000D01*
X209903163Y-98007627D01*
X209554627Y-98356163D01*
X209366000Y-98811548D01*
X209366000Y-99304452D01*
X209554627Y-99759837D01*
X209605989Y-99811199D01*
X209501531Y-100120751D01*
X209451408Y-100202326D01*
X209431129Y-100329383D01*
X209425872Y-100344960D01*
X209413798Y-100437961D01*
X209399020Y-100530552D01*
X209399646Y-100546977D01*
X209383081Y-100674572D01*
X209408028Y-100767010D01*
X209422400Y-101144264D01*
X209422401Y-106058461D01*
X209301000Y-106351548D01*
X209301000Y-106844452D01*
X209401620Y-107087369D01*
X209400505Y-107092974D01*
X209422400Y-107203046D01*
X209422400Y-107203047D01*
X209487244Y-107529040D01*
X209734256Y-107898719D01*
X209827573Y-107961072D01*
X210462400Y-108595899D01*
X210462401Y-110449923D01*
X210462400Y-110449928D01*
X210462401Y-113594274D01*
X206197087Y-117859589D01*
X206066870Y-117772581D01*
X206064087Y-117772027D01*
X206141645Y-117686924D01*
X206311476Y-117276890D01*
X206190155Y-117047000D01*
X204997000Y-117047000D01*
X204997000Y-117067000D01*
X204743000Y-117067000D01*
X204743000Y-117047000D01*
X203549845Y-117047000D01*
X203428524Y-117276890D01*
X203598355Y-117686924D01*
X203675913Y-117772027D01*
X203673130Y-117772581D01*
X203379067Y-117969067D01*
X203182581Y-118263130D01*
X203113584Y-118610000D01*
X202679000Y-118610000D01*
X202679000Y-111840000D01*
X203096931Y-111840000D01*
X203231898Y-112518524D01*
X203616251Y-113093749D01*
X203640572Y-113110000D01*
X203616251Y-113126251D01*
X203231898Y-113701476D01*
X203096931Y-114380000D01*
X203231898Y-115058524D01*
X203616251Y-115633749D01*
X203899286Y-115822867D01*
X203598355Y-116153076D01*
X203428524Y-116563110D01*
X203549845Y-116793000D01*
X204743000Y-116793000D01*
X204743000Y-116773000D01*
X204997000Y-116773000D01*
X204997000Y-116793000D01*
X206190155Y-116793000D01*
X206311476Y-116563110D01*
X206141645Y-116153076D01*
X205840714Y-115822867D01*
X206123749Y-115633749D01*
X206508102Y-115058524D01*
X206643069Y-114380000D01*
X206508102Y-113701476D01*
X206123749Y-113126251D01*
X206099428Y-113110000D01*
X206123749Y-113093749D01*
X206508102Y-112518524D01*
X206643069Y-111840000D01*
X206508102Y-111161476D01*
X206123749Y-110586251D01*
X205548524Y-110201898D01*
X205041276Y-110101000D01*
X204698724Y-110101000D01*
X204191476Y-110201898D01*
X203616251Y-110586251D01*
X203231898Y-111161476D01*
X203096931Y-111840000D01*
X202679000Y-111840000D01*
X202679000Y-101841184D01*
X208289416Y-101866999D01*
X208338060Y-101857555D01*
X208379388Y-101830215D01*
X208407108Y-101789140D01*
X208416985Y-101741927D01*
X208489548Y-96960000D01*
X220763584Y-96960000D01*
X220763584Y-98660000D01*
X220832581Y-99006870D01*
X221029067Y-99300933D01*
X221323130Y-99497419D01*
X221670000Y-99566416D01*
X223370000Y-99566416D01*
X223716870Y-99497419D01*
X224010933Y-99300933D01*
X224057321Y-99231508D01*
X224381476Y-99448102D01*
X224888724Y-99549000D01*
X225231276Y-99549000D01*
X225738524Y-99448102D01*
X226313749Y-99063749D01*
X226698102Y-98488524D01*
X226833069Y-97810000D01*
X226698102Y-97131476D01*
X226313749Y-96556251D01*
X225738524Y-96171898D01*
X225231276Y-96071000D01*
X224888724Y-96071000D01*
X224381476Y-96171898D01*
X224057321Y-96388492D01*
X224010933Y-96319067D01*
X223716870Y-96122581D01*
X223370000Y-96053584D01*
X221670000Y-96053584D01*
X221323130Y-96122581D01*
X221029067Y-96319067D01*
X220832581Y-96613130D01*
X220763584Y-96960000D01*
X208489548Y-96960000D01*
X208503979Y-96009000D01*
X230761000Y-96009000D01*
X230761001Y-124541000D01*
X230761001Y-124541000D01*
G37*
X230761001Y-124541000D02*
X230438433Y-124541000D01*
X230541419Y-124386870D01*
X230610416Y-124040000D01*
X230610416Y-122340000D01*
X230541419Y-121993130D01*
X230344933Y-121699067D01*
X230275508Y-121652679D01*
X230492102Y-121328524D01*
X230627069Y-120650000D01*
X230492102Y-119971476D01*
X230107749Y-119396251D01*
X230083428Y-119380000D01*
X230107749Y-119363749D01*
X230492102Y-118788524D01*
X230627069Y-118110000D01*
X230492102Y-117431476D01*
X230107749Y-116856251D01*
X230083428Y-116840000D01*
X230107749Y-116823749D01*
X230492102Y-116248524D01*
X230627069Y-115570000D01*
X230492102Y-114891476D01*
X230107749Y-114316251D01*
X230083428Y-114300000D01*
X230107749Y-114283749D01*
X230492102Y-113708524D01*
X230627069Y-113030000D01*
X230492102Y-112351476D01*
X230107749Y-111776251D01*
X230083428Y-111760000D01*
X230107749Y-111743749D01*
X230492102Y-111168524D01*
X230627069Y-110490000D01*
X230492102Y-109811476D01*
X230107749Y-109236251D01*
X230083428Y-109220000D01*
X230107749Y-109203749D01*
X230492102Y-108628524D01*
X230627069Y-107950000D01*
X230492102Y-107271476D01*
X230107749Y-106696251D01*
X230083428Y-106680000D01*
X230107749Y-106663749D01*
X230492102Y-106088524D01*
X230627069Y-105410000D01*
X230492102Y-104731476D01*
X230107749Y-104156251D01*
X230083428Y-104140000D01*
X230107749Y-104123749D01*
X230492102Y-103548524D01*
X230627069Y-102870000D01*
X230492102Y-102191476D01*
X230107749Y-101616251D01*
X230083428Y-101600000D01*
X230107749Y-101583749D01*
X230492102Y-101008524D01*
X230627069Y-100330000D01*
X230492102Y-99651476D01*
X230107749Y-99076251D01*
X230083428Y-99060000D01*
X230107749Y-99043749D01*
X230492102Y-98468524D01*
X230627069Y-97790000D01*
X230492102Y-97111476D01*
X230107749Y-96536251D01*
X229532524Y-96151898D01*
X229025276Y-96051000D01*
X228682724Y-96051000D01*
X228175476Y-96151898D01*
X227600251Y-96536251D01*
X227215898Y-97111476D01*
X227080931Y-97790000D01*
X227215898Y-98468524D01*
X227600251Y-99043749D01*
X227624572Y-99060000D01*
X227600251Y-99076251D01*
X227215898Y-99651476D01*
X227080931Y-100330000D01*
X227215898Y-101008524D01*
X227600251Y-101583749D01*
X227624572Y-101600000D01*
X227600251Y-101616251D01*
X227215898Y-102191476D01*
X227080931Y-102870000D01*
X227215898Y-103548524D01*
X227600251Y-104123749D01*
X227624572Y-104140000D01*
X227600251Y-104156251D01*
X227215898Y-104731476D01*
X227080931Y-105410000D01*
X227215898Y-106088524D01*
X227600251Y-106663749D01*
X227624572Y-106680000D01*
X227600251Y-106696251D01*
X227215898Y-107271476D01*
X227080931Y-107950000D01*
X227215898Y-108628524D01*
X227600251Y-109203749D01*
X227624572Y-109220000D01*
X227600251Y-109236251D01*
X227215898Y-109811476D01*
X227080931Y-110490000D01*
X227215898Y-111168524D01*
X227600251Y-111743749D01*
X227624572Y-111760000D01*
X227600251Y-111776251D01*
X227215898Y-112351476D01*
X227080931Y-113030000D01*
X227215898Y-113708524D01*
X227600251Y-114283749D01*
X227624572Y-114300000D01*
X227600251Y-114316251D01*
X227215898Y-114891476D01*
X227080931Y-115570000D01*
X227215898Y-116248524D01*
X227600251Y-116823749D01*
X227624572Y-116840000D01*
X227600251Y-116856251D01*
X227215898Y-117431476D01*
X227080931Y-118110000D01*
X227215898Y-118788524D01*
X227600251Y-119363749D01*
X227624572Y-119380000D01*
X227600251Y-119396251D01*
X227215898Y-119971476D01*
X227080931Y-120650000D01*
X227215898Y-121328524D01*
X227432492Y-121652679D01*
X227363067Y-121699067D01*
X227166581Y-121993130D01*
X227097584Y-122340000D01*
X227097584Y-124040000D01*
X227166581Y-124386870D01*
X227269567Y-124541000D01*
X226308203Y-124541000D01*
X226453749Y-124443749D01*
X226838102Y-123868524D01*
X226973069Y-123190000D01*
X226838102Y-122511476D01*
X226453749Y-121936251D01*
X225878524Y-121551898D01*
X225371276Y-121451000D01*
X225028724Y-121451000D01*
X224521476Y-121551898D01*
X223946251Y-121936251D01*
X223930000Y-121960572D01*
X223913749Y-121936251D01*
X223338524Y-121551898D01*
X222831276Y-121451000D01*
X222488724Y-121451000D01*
X221981476Y-121551898D01*
X221406251Y-121936251D01*
X221390000Y-121960572D01*
X221373749Y-121936251D01*
X220798524Y-121551898D01*
X220291276Y-121451000D01*
X219948724Y-121451000D01*
X219441476Y-121551898D01*
X218866251Y-121936251D01*
X218850000Y-121960572D01*
X218833749Y-121936251D01*
X218258524Y-121551898D01*
X217751276Y-121451000D01*
X217408724Y-121451000D01*
X216901476Y-121551898D01*
X216326251Y-121936251D01*
X216310000Y-121960572D01*
X216293749Y-121936251D01*
X215718524Y-121551898D01*
X215211276Y-121451000D01*
X214868724Y-121451000D01*
X214361476Y-121551898D01*
X213786251Y-121936251D01*
X213770000Y-121960572D01*
X213753749Y-121936251D01*
X213178524Y-121551898D01*
X212671276Y-121451000D01*
X212328724Y-121451000D01*
X211821476Y-121551898D01*
X211246251Y-121936251D01*
X211230000Y-121960572D01*
X211213749Y-121936251D01*
X210638524Y-121551898D01*
X210131276Y-121451000D01*
X209788724Y-121451000D01*
X209281476Y-121551898D01*
X208706251Y-121936251D01*
X208690000Y-121960572D01*
X208673749Y-121936251D01*
X208098524Y-121551898D01*
X207591276Y-121451000D01*
X207248724Y-121451000D01*
X206741476Y-121551898D01*
X206417321Y-121768492D01*
X206370933Y-121699067D01*
X206076870Y-121502581D01*
X205730000Y-121433584D01*
X204030000Y-121433584D01*
X203683130Y-121502581D01*
X203389067Y-121699067D01*
X203192581Y-121993130D01*
X203123584Y-122340000D01*
X203123584Y-124040000D01*
X203192581Y-124386870D01*
X203295567Y-124541000D01*
X202679000Y-124541000D01*
X202679000Y-118610000D01*
X203113584Y-118610000D01*
X203113584Y-120310000D01*
X203182581Y-120656870D01*
X203379067Y-120950933D01*
X203673130Y-121147419D01*
X204020000Y-121216416D01*
X205720000Y-121216416D01*
X206066870Y-121147419D01*
X206360933Y-120950933D01*
X206557419Y-120656870D01*
X206584965Y-120518385D01*
X206613266Y-120512756D01*
X206982945Y-120265745D01*
X207045300Y-120172424D01*
X212292427Y-114925298D01*
X212385745Y-114862945D01*
X212632756Y-114493266D01*
X212655286Y-114380000D01*
X212719495Y-114057201D01*
X212697600Y-113947128D01*
X212697600Y-109255600D01*
X215271927Y-109255600D01*
X215382000Y-109277495D01*
X215492073Y-109255600D01*
X215818066Y-109190756D01*
X216187745Y-108943745D01*
X216250099Y-108850425D01*
X217208753Y-107891773D01*
X217501837Y-107770373D01*
X217850373Y-107421837D01*
X218039000Y-106966452D01*
X218039000Y-106473548D01*
X217850373Y-106018163D01*
X217501837Y-105669627D01*
X217046452Y-105481000D01*
X216553548Y-105481000D01*
X216098163Y-105669627D01*
X215749627Y-106018163D01*
X215628227Y-106311247D01*
X214919075Y-107020400D01*
X212047951Y-107020400D01*
X211779000Y-106751450D01*
X211779000Y-106351548D01*
X211657600Y-106058463D01*
X211657600Y-101614610D01*
X211820373Y-101451837D01*
X212009000Y-100996452D01*
X212009000Y-100503548D01*
X211856018Y-100134218D01*
X211941563Y-99880713D01*
X211982755Y-99819065D01*
X212012031Y-99671889D01*
X212024127Y-99636042D01*
X212033458Y-99564165D01*
X212069495Y-99382999D01*
X212061921Y-99344924D01*
X212066919Y-99306428D01*
X212018791Y-99128095D01*
X211982755Y-98946935D01*
X211961188Y-98914658D01*
X211951073Y-98877177D01*
X211838364Y-98730837D01*
X211798095Y-98670571D01*
X211776774Y-98649250D01*
X211655373Y-98356163D01*
X211306837Y-98007627D01*
X210851452Y-97819000D01*
X210358548Y-97819000D01*
X209903163Y-98007627D01*
X209554627Y-98356163D01*
X209366000Y-98811548D01*
X209366000Y-99304452D01*
X209554627Y-99759837D01*
X209605989Y-99811199D01*
X209501531Y-100120751D01*
X209451408Y-100202326D01*
X209431129Y-100329383D01*
X209425872Y-100344960D01*
X209413798Y-100437961D01*
X209399020Y-100530552D01*
X209399646Y-100546977D01*
X209383081Y-100674572D01*
X209408028Y-100767010D01*
X209422400Y-101144264D01*
X209422401Y-106058461D01*
X209301000Y-106351548D01*
X209301000Y-106844452D01*
X209401620Y-107087369D01*
X209400505Y-107092974D01*
X209422400Y-107203046D01*
X209422400Y-107203047D01*
X209487244Y-107529040D01*
X209734256Y-107898719D01*
X209827573Y-107961072D01*
X210462400Y-108595899D01*
X210462401Y-110449923D01*
X210462400Y-110449928D01*
X210462401Y-113594274D01*
X206197087Y-117859589D01*
X206066870Y-117772581D01*
X206064087Y-117772027D01*
X206141645Y-117686924D01*
X206311476Y-117276890D01*
X206190155Y-117047000D01*
X204997000Y-117047000D01*
X204997000Y-117067000D01*
X204743000Y-117067000D01*
X204743000Y-117047000D01*
X203549845Y-117047000D01*
X203428524Y-117276890D01*
X203598355Y-117686924D01*
X203675913Y-117772027D01*
X203673130Y-117772581D01*
X203379067Y-117969067D01*
X203182581Y-118263130D01*
X203113584Y-118610000D01*
X202679000Y-118610000D01*
X202679000Y-111840000D01*
X203096931Y-111840000D01*
X203231898Y-112518524D01*
X203616251Y-113093749D01*
X203640572Y-113110000D01*
X203616251Y-113126251D01*
X203231898Y-113701476D01*
X203096931Y-114380000D01*
X203231898Y-115058524D01*
X203616251Y-115633749D01*
X203899286Y-115822867D01*
X203598355Y-116153076D01*
X203428524Y-116563110D01*
X203549845Y-116793000D01*
X204743000Y-116793000D01*
X204743000Y-116773000D01*
X204997000Y-116773000D01*
X204997000Y-116793000D01*
X206190155Y-116793000D01*
X206311476Y-116563110D01*
X206141645Y-116153076D01*
X205840714Y-115822867D01*
X206123749Y-115633749D01*
X206508102Y-115058524D01*
X206643069Y-114380000D01*
X206508102Y-113701476D01*
X206123749Y-113126251D01*
X206099428Y-113110000D01*
X206123749Y-113093749D01*
X206508102Y-112518524D01*
X206643069Y-111840000D01*
X206508102Y-111161476D01*
X206123749Y-110586251D01*
X205548524Y-110201898D01*
X205041276Y-110101000D01*
X204698724Y-110101000D01*
X204191476Y-110201898D01*
X203616251Y-110586251D01*
X203231898Y-111161476D01*
X203096931Y-111840000D01*
X202679000Y-111840000D01*
X202679000Y-101841184D01*
X208289416Y-101866999D01*
X208338060Y-101857555D01*
X208379388Y-101830215D01*
X208407108Y-101789140D01*
X208416985Y-101741927D01*
X208489548Y-96960000D01*
X220763584Y-96960000D01*
X220763584Y-98660000D01*
X220832581Y-99006870D01*
X221029067Y-99300933D01*
X221323130Y-99497419D01*
X221670000Y-99566416D01*
X223370000Y-99566416D01*
X223716870Y-99497419D01*
X224010933Y-99300933D01*
X224057321Y-99231508D01*
X224381476Y-99448102D01*
X224888724Y-99549000D01*
X225231276Y-99549000D01*
X225738524Y-99448102D01*
X226313749Y-99063749D01*
X226698102Y-98488524D01*
X226833069Y-97810000D01*
X226698102Y-97131476D01*
X226313749Y-96556251D01*
X225738524Y-96171898D01*
X225231276Y-96071000D01*
X224888724Y-96071000D01*
X224381476Y-96171898D01*
X224057321Y-96388492D01*
X224010933Y-96319067D01*
X223716870Y-96122581D01*
X223370000Y-96053584D01*
X221670000Y-96053584D01*
X221323130Y-96122581D01*
X221029067Y-96319067D01*
X220832581Y-96613130D01*
X220763584Y-96960000D01*
X208489548Y-96960000D01*
X208503979Y-96009000D01*
X230761000Y-96009000D01*
X230761001Y-124541000D01*
G04 #@! TD*
M02*
