G04 #@! TF.GenerationSoftware,KiCad,Pcbnew,(5.0.1)-3*
G04 #@! TF.CreationDate,2019-09-28T19:14:33-04:00*
G04 #@! TF.ProjectId,NRF,4E52462E6B696361645F706362000000,rev?*
G04 #@! TF.SameCoordinates,Original*
G04 #@! TF.FileFunction,Copper,L1,Top,Signal*
G04 #@! TF.FilePolarity,Positive*
%FSLAX46Y46*%
G04 Gerber Fmt 4.6, Leading zero omitted, Abs format (unit mm)*
G04 Created by KiCad (PCBNEW (5.0.1)-3) date 9/28/2019 7:14:33 PM*
%MOMM*%
%LPD*%
G01*
G04 APERTURE LIST*
G04 #@! TA.AperFunction,Conductor*
%ADD10C,0.100000*%
G04 #@! TD*
G04 #@! TA.AperFunction,SMDPad,CuDef*
%ADD11C,0.590000*%
G04 #@! TD*
G04 #@! TA.AperFunction,ComponentPad*
%ADD12R,1.700000X1.700000*%
G04 #@! TD*
G04 #@! TA.AperFunction,ComponentPad*
%ADD13O,1.700000X1.700000*%
G04 #@! TD*
G04 #@! TA.AperFunction,SMDPad,CuDef*
%ADD14R,0.900000X0.800000*%
G04 #@! TD*
G04 #@! TA.AperFunction,SMDPad,CuDef*
%ADD15R,0.599440X0.398780*%
G04 #@! TD*
G04 #@! TA.AperFunction,SMDPad,CuDef*
%ADD16R,1.100000X0.600000*%
G04 #@! TD*
G04 #@! TA.AperFunction,SMDPad,CuDef*
%ADD17R,0.800000X1.600000*%
G04 #@! TD*
G04 #@! TA.AperFunction,SMDPad,CuDef*
%ADD18C,0.875000*%
G04 #@! TD*
G04 #@! TA.AperFunction,SMDPad,CuDef*
%ADD19R,0.700000X0.300000*%
G04 #@! TD*
G04 #@! TA.AperFunction,SMDPad,CuDef*
%ADD20R,0.600000X0.600000*%
G04 #@! TD*
G04 #@! TA.AperFunction,SMDPad,CuDef*
%ADD21R,1.112500X1.112500*%
G04 #@! TD*
G04 #@! TA.AperFunction,SMDPad,CuDef*
%ADD22R,0.800000X0.200000*%
G04 #@! TD*
G04 #@! TA.AperFunction,SMDPad,CuDef*
%ADD23R,0.200000X0.800000*%
G04 #@! TD*
G04 #@! TA.AperFunction,ViaPad*
%ADD24C,0.700000*%
G04 #@! TD*
G04 #@! TA.AperFunction,Conductor*
%ADD25C,0.460000*%
G04 #@! TD*
G04 #@! TA.AperFunction,Conductor*
%ADD26C,0.152000*%
G04 #@! TD*
G04 #@! TA.AperFunction,Conductor*
%ADD27C,0.457200*%
G04 #@! TD*
G04 #@! TA.AperFunction,Conductor*
%ADD28C,0.152400*%
G04 #@! TD*
G04 #@! TA.AperFunction,Conductor*
%ADD29C,0.203200*%
G04 #@! TD*
G04 #@! TA.AperFunction,Conductor*
%ADD30C,0.229000*%
G04 #@! TD*
G04 #@! TA.AperFunction,Conductor*
%ADD31C,0.254000*%
G04 #@! TD*
G04 APERTURE END LIST*
D10*
G04 #@! TO.N,DGND*
G04 #@! TO.C,C2*
G36*
X209731958Y-109380710D02*
X209746276Y-109382834D01*
X209760317Y-109386351D01*
X209773946Y-109391228D01*
X209787031Y-109397417D01*
X209799447Y-109404858D01*
X209811073Y-109413481D01*
X209821798Y-109423202D01*
X209831519Y-109433927D01*
X209840142Y-109445553D01*
X209847583Y-109457969D01*
X209853772Y-109471054D01*
X209858649Y-109484683D01*
X209862166Y-109498724D01*
X209864290Y-109513042D01*
X209865000Y-109527500D01*
X209865000Y-109872500D01*
X209864290Y-109886958D01*
X209862166Y-109901276D01*
X209858649Y-109915317D01*
X209853772Y-109928946D01*
X209847583Y-109942031D01*
X209840142Y-109954447D01*
X209831519Y-109966073D01*
X209821798Y-109976798D01*
X209811073Y-109986519D01*
X209799447Y-109995142D01*
X209787031Y-110002583D01*
X209773946Y-110008772D01*
X209760317Y-110013649D01*
X209746276Y-110017166D01*
X209731958Y-110019290D01*
X209717500Y-110020000D01*
X209422500Y-110020000D01*
X209408042Y-110019290D01*
X209393724Y-110017166D01*
X209379683Y-110013649D01*
X209366054Y-110008772D01*
X209352969Y-110002583D01*
X209340553Y-109995142D01*
X209328927Y-109986519D01*
X209318202Y-109976798D01*
X209308481Y-109966073D01*
X209299858Y-109954447D01*
X209292417Y-109942031D01*
X209286228Y-109928946D01*
X209281351Y-109915317D01*
X209277834Y-109901276D01*
X209275710Y-109886958D01*
X209275000Y-109872500D01*
X209275000Y-109527500D01*
X209275710Y-109513042D01*
X209277834Y-109498724D01*
X209281351Y-109484683D01*
X209286228Y-109471054D01*
X209292417Y-109457969D01*
X209299858Y-109445553D01*
X209308481Y-109433927D01*
X209318202Y-109423202D01*
X209328927Y-109413481D01*
X209340553Y-109404858D01*
X209352969Y-109397417D01*
X209366054Y-109391228D01*
X209379683Y-109386351D01*
X209393724Y-109382834D01*
X209408042Y-109380710D01*
X209422500Y-109380000D01*
X209717500Y-109380000D01*
X209731958Y-109380710D01*
X209731958Y-109380710D01*
G37*
D11*
G04 #@! TD*
G04 #@! TO.P,C2,2*
G04 #@! TO.N,DGND*
X209570000Y-109700000D03*
D10*
G04 #@! TO.N,/DEC1*
G04 #@! TO.C,C2*
G36*
X210701958Y-109380710D02*
X210716276Y-109382834D01*
X210730317Y-109386351D01*
X210743946Y-109391228D01*
X210757031Y-109397417D01*
X210769447Y-109404858D01*
X210781073Y-109413481D01*
X210791798Y-109423202D01*
X210801519Y-109433927D01*
X210810142Y-109445553D01*
X210817583Y-109457969D01*
X210823772Y-109471054D01*
X210828649Y-109484683D01*
X210832166Y-109498724D01*
X210834290Y-109513042D01*
X210835000Y-109527500D01*
X210835000Y-109872500D01*
X210834290Y-109886958D01*
X210832166Y-109901276D01*
X210828649Y-109915317D01*
X210823772Y-109928946D01*
X210817583Y-109942031D01*
X210810142Y-109954447D01*
X210801519Y-109966073D01*
X210791798Y-109976798D01*
X210781073Y-109986519D01*
X210769447Y-109995142D01*
X210757031Y-110002583D01*
X210743946Y-110008772D01*
X210730317Y-110013649D01*
X210716276Y-110017166D01*
X210701958Y-110019290D01*
X210687500Y-110020000D01*
X210392500Y-110020000D01*
X210378042Y-110019290D01*
X210363724Y-110017166D01*
X210349683Y-110013649D01*
X210336054Y-110008772D01*
X210322969Y-110002583D01*
X210310553Y-109995142D01*
X210298927Y-109986519D01*
X210288202Y-109976798D01*
X210278481Y-109966073D01*
X210269858Y-109954447D01*
X210262417Y-109942031D01*
X210256228Y-109928946D01*
X210251351Y-109915317D01*
X210247834Y-109901276D01*
X210245710Y-109886958D01*
X210245000Y-109872500D01*
X210245000Y-109527500D01*
X210245710Y-109513042D01*
X210247834Y-109498724D01*
X210251351Y-109484683D01*
X210256228Y-109471054D01*
X210262417Y-109457969D01*
X210269858Y-109445553D01*
X210278481Y-109433927D01*
X210288202Y-109423202D01*
X210298927Y-109413481D01*
X210310553Y-109404858D01*
X210322969Y-109397417D01*
X210336054Y-109391228D01*
X210349683Y-109386351D01*
X210363724Y-109382834D01*
X210378042Y-109380710D01*
X210392500Y-109380000D01*
X210687500Y-109380000D01*
X210701958Y-109380710D01*
X210701958Y-109380710D01*
G37*
D11*
G04 #@! TD*
G04 #@! TO.P,C2,1*
G04 #@! TO.N,/DEC1*
X210540000Y-109700000D03*
D10*
G04 #@! TO.N,Net-(C9-Pad1)*
G04 #@! TO.C,C9*
G36*
X210701958Y-110420710D02*
X210716276Y-110422834D01*
X210730317Y-110426351D01*
X210743946Y-110431228D01*
X210757031Y-110437417D01*
X210769447Y-110444858D01*
X210781073Y-110453481D01*
X210791798Y-110463202D01*
X210801519Y-110473927D01*
X210810142Y-110485553D01*
X210817583Y-110497969D01*
X210823772Y-110511054D01*
X210828649Y-110524683D01*
X210832166Y-110538724D01*
X210834290Y-110553042D01*
X210835000Y-110567500D01*
X210835000Y-110912500D01*
X210834290Y-110926958D01*
X210832166Y-110941276D01*
X210828649Y-110955317D01*
X210823772Y-110968946D01*
X210817583Y-110982031D01*
X210810142Y-110994447D01*
X210801519Y-111006073D01*
X210791798Y-111016798D01*
X210781073Y-111026519D01*
X210769447Y-111035142D01*
X210757031Y-111042583D01*
X210743946Y-111048772D01*
X210730317Y-111053649D01*
X210716276Y-111057166D01*
X210701958Y-111059290D01*
X210687500Y-111060000D01*
X210392500Y-111060000D01*
X210378042Y-111059290D01*
X210363724Y-111057166D01*
X210349683Y-111053649D01*
X210336054Y-111048772D01*
X210322969Y-111042583D01*
X210310553Y-111035142D01*
X210298927Y-111026519D01*
X210288202Y-111016798D01*
X210278481Y-111006073D01*
X210269858Y-110994447D01*
X210262417Y-110982031D01*
X210256228Y-110968946D01*
X210251351Y-110955317D01*
X210247834Y-110941276D01*
X210245710Y-110926958D01*
X210245000Y-110912500D01*
X210245000Y-110567500D01*
X210245710Y-110553042D01*
X210247834Y-110538724D01*
X210251351Y-110524683D01*
X210256228Y-110511054D01*
X210262417Y-110497969D01*
X210269858Y-110485553D01*
X210278481Y-110473927D01*
X210288202Y-110463202D01*
X210298927Y-110453481D01*
X210310553Y-110444858D01*
X210322969Y-110437417D01*
X210336054Y-110431228D01*
X210349683Y-110426351D01*
X210363724Y-110422834D01*
X210378042Y-110420710D01*
X210392500Y-110420000D01*
X210687500Y-110420000D01*
X210701958Y-110420710D01*
X210701958Y-110420710D01*
G37*
D11*
G04 #@! TD*
G04 #@! TO.P,C9,1*
G04 #@! TO.N,Net-(C9-Pad1)*
X210540000Y-110740000D03*
D10*
G04 #@! TO.N,DGND*
G04 #@! TO.C,C9*
G36*
X209731958Y-110420710D02*
X209746276Y-110422834D01*
X209760317Y-110426351D01*
X209773946Y-110431228D01*
X209787031Y-110437417D01*
X209799447Y-110444858D01*
X209811073Y-110453481D01*
X209821798Y-110463202D01*
X209831519Y-110473927D01*
X209840142Y-110485553D01*
X209847583Y-110497969D01*
X209853772Y-110511054D01*
X209858649Y-110524683D01*
X209862166Y-110538724D01*
X209864290Y-110553042D01*
X209865000Y-110567500D01*
X209865000Y-110912500D01*
X209864290Y-110926958D01*
X209862166Y-110941276D01*
X209858649Y-110955317D01*
X209853772Y-110968946D01*
X209847583Y-110982031D01*
X209840142Y-110994447D01*
X209831519Y-111006073D01*
X209821798Y-111016798D01*
X209811073Y-111026519D01*
X209799447Y-111035142D01*
X209787031Y-111042583D01*
X209773946Y-111048772D01*
X209760317Y-111053649D01*
X209746276Y-111057166D01*
X209731958Y-111059290D01*
X209717500Y-111060000D01*
X209422500Y-111060000D01*
X209408042Y-111059290D01*
X209393724Y-111057166D01*
X209379683Y-111053649D01*
X209366054Y-111048772D01*
X209352969Y-111042583D01*
X209340553Y-111035142D01*
X209328927Y-111026519D01*
X209318202Y-111016798D01*
X209308481Y-111006073D01*
X209299858Y-110994447D01*
X209292417Y-110982031D01*
X209286228Y-110968946D01*
X209281351Y-110955317D01*
X209277834Y-110941276D01*
X209275710Y-110926958D01*
X209275000Y-110912500D01*
X209275000Y-110567500D01*
X209275710Y-110553042D01*
X209277834Y-110538724D01*
X209281351Y-110524683D01*
X209286228Y-110511054D01*
X209292417Y-110497969D01*
X209299858Y-110485553D01*
X209308481Y-110473927D01*
X209318202Y-110463202D01*
X209328927Y-110453481D01*
X209340553Y-110444858D01*
X209352969Y-110437417D01*
X209366054Y-110431228D01*
X209379683Y-110426351D01*
X209393724Y-110422834D01*
X209408042Y-110420710D01*
X209422500Y-110420000D01*
X209717500Y-110420000D01*
X209731958Y-110420710D01*
X209731958Y-110420710D01*
G37*
D11*
G04 #@! TD*
G04 #@! TO.P,C9,2*
G04 #@! TO.N,DGND*
X209570000Y-110740000D03*
D10*
G04 #@! TO.N,/DVDD*
G04 #@! TO.C,C5*
G36*
X210696958Y-107465710D02*
X210711276Y-107467834D01*
X210725317Y-107471351D01*
X210738946Y-107476228D01*
X210752031Y-107482417D01*
X210764447Y-107489858D01*
X210776073Y-107498481D01*
X210786798Y-107508202D01*
X210796519Y-107518927D01*
X210805142Y-107530553D01*
X210812583Y-107542969D01*
X210818772Y-107556054D01*
X210823649Y-107569683D01*
X210827166Y-107583724D01*
X210829290Y-107598042D01*
X210830000Y-107612500D01*
X210830000Y-107907500D01*
X210829290Y-107921958D01*
X210827166Y-107936276D01*
X210823649Y-107950317D01*
X210818772Y-107963946D01*
X210812583Y-107977031D01*
X210805142Y-107989447D01*
X210796519Y-108001073D01*
X210786798Y-108011798D01*
X210776073Y-108021519D01*
X210764447Y-108030142D01*
X210752031Y-108037583D01*
X210738946Y-108043772D01*
X210725317Y-108048649D01*
X210711276Y-108052166D01*
X210696958Y-108054290D01*
X210682500Y-108055000D01*
X210337500Y-108055000D01*
X210323042Y-108054290D01*
X210308724Y-108052166D01*
X210294683Y-108048649D01*
X210281054Y-108043772D01*
X210267969Y-108037583D01*
X210255553Y-108030142D01*
X210243927Y-108021519D01*
X210233202Y-108011798D01*
X210223481Y-108001073D01*
X210214858Y-107989447D01*
X210207417Y-107977031D01*
X210201228Y-107963946D01*
X210196351Y-107950317D01*
X210192834Y-107936276D01*
X210190710Y-107921958D01*
X210190000Y-107907500D01*
X210190000Y-107612500D01*
X210190710Y-107598042D01*
X210192834Y-107583724D01*
X210196351Y-107569683D01*
X210201228Y-107556054D01*
X210207417Y-107542969D01*
X210214858Y-107530553D01*
X210223481Y-107518927D01*
X210233202Y-107508202D01*
X210243927Y-107498481D01*
X210255553Y-107489858D01*
X210267969Y-107482417D01*
X210281054Y-107476228D01*
X210294683Y-107471351D01*
X210308724Y-107467834D01*
X210323042Y-107465710D01*
X210337500Y-107465000D01*
X210682500Y-107465000D01*
X210696958Y-107465710D01*
X210696958Y-107465710D01*
G37*
D11*
G04 #@! TD*
G04 #@! TO.P,C5,2*
G04 #@! TO.N,/DVDD*
X210510000Y-107760000D03*
D10*
G04 #@! TO.N,DGND*
G04 #@! TO.C,C5*
G36*
X210696958Y-108435710D02*
X210711276Y-108437834D01*
X210725317Y-108441351D01*
X210738946Y-108446228D01*
X210752031Y-108452417D01*
X210764447Y-108459858D01*
X210776073Y-108468481D01*
X210786798Y-108478202D01*
X210796519Y-108488927D01*
X210805142Y-108500553D01*
X210812583Y-108512969D01*
X210818772Y-108526054D01*
X210823649Y-108539683D01*
X210827166Y-108553724D01*
X210829290Y-108568042D01*
X210830000Y-108582500D01*
X210830000Y-108877500D01*
X210829290Y-108891958D01*
X210827166Y-108906276D01*
X210823649Y-108920317D01*
X210818772Y-108933946D01*
X210812583Y-108947031D01*
X210805142Y-108959447D01*
X210796519Y-108971073D01*
X210786798Y-108981798D01*
X210776073Y-108991519D01*
X210764447Y-109000142D01*
X210752031Y-109007583D01*
X210738946Y-109013772D01*
X210725317Y-109018649D01*
X210711276Y-109022166D01*
X210696958Y-109024290D01*
X210682500Y-109025000D01*
X210337500Y-109025000D01*
X210323042Y-109024290D01*
X210308724Y-109022166D01*
X210294683Y-109018649D01*
X210281054Y-109013772D01*
X210267969Y-109007583D01*
X210255553Y-109000142D01*
X210243927Y-108991519D01*
X210233202Y-108981798D01*
X210223481Y-108971073D01*
X210214858Y-108959447D01*
X210207417Y-108947031D01*
X210201228Y-108933946D01*
X210196351Y-108920317D01*
X210192834Y-108906276D01*
X210190710Y-108891958D01*
X210190000Y-108877500D01*
X210190000Y-108582500D01*
X210190710Y-108568042D01*
X210192834Y-108553724D01*
X210196351Y-108539683D01*
X210201228Y-108526054D01*
X210207417Y-108512969D01*
X210214858Y-108500553D01*
X210223481Y-108488927D01*
X210233202Y-108478202D01*
X210243927Y-108468481D01*
X210255553Y-108459858D01*
X210267969Y-108452417D01*
X210281054Y-108446228D01*
X210294683Y-108441351D01*
X210308724Y-108437834D01*
X210323042Y-108435710D01*
X210337500Y-108435000D01*
X210682500Y-108435000D01*
X210696958Y-108435710D01*
X210696958Y-108435710D01*
G37*
D11*
G04 #@! TD*
G04 #@! TO.P,C5,1*
G04 #@! TO.N,DGND*
X210510000Y-108730000D03*
D12*
G04 #@! TO.P,J2,1*
G04 #@! TO.N,/MAX30003_CSB*
X228854000Y-123190000D03*
D13*
G04 #@! TO.P,J2,2*
G04 #@! TO.N,/MAX30003_SCLK*
X228854000Y-120650000D03*
G04 #@! TO.P,J2,3*
G04 #@! TO.N,/MAX30003_SDI*
X228854000Y-118110000D03*
G04 #@! TO.P,J2,4*
G04 #@! TO.N,/MAX30003_SDO*
X228854000Y-115570000D03*
G04 #@! TO.P,J2,5*
G04 #@! TO.N,/MAX30003_INT2*
X228854000Y-113030000D03*
G04 #@! TO.P,J2,6*
G04 #@! TO.N,/MAX30003_INT*
X228854000Y-110490000D03*
G04 #@! TO.P,J2,7*
G04 #@! TO.N,/P17*
X228854000Y-107950000D03*
G04 #@! TO.P,J2,8*
G04 #@! TO.N,/BMI_INT2*
X228854000Y-105410000D03*
G04 #@! TO.P,J2,9*
G04 #@! TO.N,/BMI_INT1*
X228854000Y-102870000D03*
G04 #@! TO.P,J2,10*
G04 #@! TO.N,/BMI_SDA*
X228854000Y-100330000D03*
G04 #@! TO.P,J2,11*
G04 #@! TO.N,/BMI_SCL*
X228854000Y-97790000D03*
G04 #@! TD*
D14*
G04 #@! TO.P,X1,4*
G04 #@! TO.N,DGND*
X206830000Y-102608000D03*
G04 #@! TO.P,X1,3*
G04 #@! TO.N,Net-(C8-Pad2)*
X208230000Y-102608000D03*
G04 #@! TO.P,X1,1*
G04 #@! TO.N,Net-(C6-Pad2)*
X206830000Y-103708000D03*
G04 #@! TO.P,X1,2*
G04 #@! TO.N,DGND*
X208230000Y-103708000D03*
G04 #@! TD*
D15*
G04 #@! TO.P,L2,1*
G04 #@! TO.N,Net-(L1-Pad2)*
X207720000Y-108240000D03*
G04 #@! TO.P,L2,2*
G04 #@! TO.N,Net-(C1-Pad1)*
X207720000Y-107340840D03*
G04 #@! TD*
D16*
G04 #@! TO.P,X2,1*
G04 #@! TO.N,Net-(C11-Pad1)*
X211980000Y-111640000D03*
G04 #@! TO.P,X2,2*
G04 #@! TO.N,Net-(C9-Pad1)*
X211980000Y-110240000D03*
G04 #@! TD*
D12*
G04 #@! TO.P,J1,1*
G04 #@! TO.N,/P02*
X204880000Y-123190000D03*
D13*
G04 #@! TO.P,J1,2*
G04 #@! TO.N,/LOAD_SW_CTRL*
X207420000Y-123190000D03*
G04 #@! TO.P,J1,3*
G04 #@! TO.N,/AIN_BAT_DIV_VOLTAGE*
X209960000Y-123190000D03*
G04 #@! TO.P,J1,4*
G04 #@! TO.N,/P05*
X212500000Y-123190000D03*
G04 #@! TO.P,J1,5*
G04 #@! TO.N,/P06*
X215040000Y-123190000D03*
G04 #@! TO.P,J1,6*
G04 #@! TO.N,/P07*
X217580000Y-123190000D03*
G04 #@! TO.P,J1,7*
G04 #@! TO.N,/P08*
X220120000Y-123190000D03*
G04 #@! TO.P,J1,8*
G04 #@! TO.N,/P09*
X222660000Y-123190000D03*
G04 #@! TO.P,J1,9*
G04 #@! TO.N,/P10*
X225200000Y-123190000D03*
G04 #@! TD*
G04 #@! TO.P,J3,2*
G04 #@! TO.N,/SWDCLK*
X225060000Y-97810000D03*
D12*
G04 #@! TO.P,J3,1*
G04 #@! TO.N,/SWDIO*
X222520000Y-97810000D03*
G04 #@! TD*
D10*
G04 #@! TO.N,DGND*
G04 #@! TO.C,C11*
G36*
X209731958Y-111450710D02*
X209746276Y-111452834D01*
X209760317Y-111456351D01*
X209773946Y-111461228D01*
X209787031Y-111467417D01*
X209799447Y-111474858D01*
X209811073Y-111483481D01*
X209821798Y-111493202D01*
X209831519Y-111503927D01*
X209840142Y-111515553D01*
X209847583Y-111527969D01*
X209853772Y-111541054D01*
X209858649Y-111554683D01*
X209862166Y-111568724D01*
X209864290Y-111583042D01*
X209865000Y-111597500D01*
X209865000Y-111942500D01*
X209864290Y-111956958D01*
X209862166Y-111971276D01*
X209858649Y-111985317D01*
X209853772Y-111998946D01*
X209847583Y-112012031D01*
X209840142Y-112024447D01*
X209831519Y-112036073D01*
X209821798Y-112046798D01*
X209811073Y-112056519D01*
X209799447Y-112065142D01*
X209787031Y-112072583D01*
X209773946Y-112078772D01*
X209760317Y-112083649D01*
X209746276Y-112087166D01*
X209731958Y-112089290D01*
X209717500Y-112090000D01*
X209422500Y-112090000D01*
X209408042Y-112089290D01*
X209393724Y-112087166D01*
X209379683Y-112083649D01*
X209366054Y-112078772D01*
X209352969Y-112072583D01*
X209340553Y-112065142D01*
X209328927Y-112056519D01*
X209318202Y-112046798D01*
X209308481Y-112036073D01*
X209299858Y-112024447D01*
X209292417Y-112012031D01*
X209286228Y-111998946D01*
X209281351Y-111985317D01*
X209277834Y-111971276D01*
X209275710Y-111956958D01*
X209275000Y-111942500D01*
X209275000Y-111597500D01*
X209275710Y-111583042D01*
X209277834Y-111568724D01*
X209281351Y-111554683D01*
X209286228Y-111541054D01*
X209292417Y-111527969D01*
X209299858Y-111515553D01*
X209308481Y-111503927D01*
X209318202Y-111493202D01*
X209328927Y-111483481D01*
X209340553Y-111474858D01*
X209352969Y-111467417D01*
X209366054Y-111461228D01*
X209379683Y-111456351D01*
X209393724Y-111452834D01*
X209408042Y-111450710D01*
X209422500Y-111450000D01*
X209717500Y-111450000D01*
X209731958Y-111450710D01*
X209731958Y-111450710D01*
G37*
D11*
G04 #@! TD*
G04 #@! TO.P,C11,2*
G04 #@! TO.N,DGND*
X209570000Y-111770000D03*
D10*
G04 #@! TO.N,Net-(C11-Pad1)*
G04 #@! TO.C,C11*
G36*
X210701958Y-111450710D02*
X210716276Y-111452834D01*
X210730317Y-111456351D01*
X210743946Y-111461228D01*
X210757031Y-111467417D01*
X210769447Y-111474858D01*
X210781073Y-111483481D01*
X210791798Y-111493202D01*
X210801519Y-111503927D01*
X210810142Y-111515553D01*
X210817583Y-111527969D01*
X210823772Y-111541054D01*
X210828649Y-111554683D01*
X210832166Y-111568724D01*
X210834290Y-111583042D01*
X210835000Y-111597500D01*
X210835000Y-111942500D01*
X210834290Y-111956958D01*
X210832166Y-111971276D01*
X210828649Y-111985317D01*
X210823772Y-111998946D01*
X210817583Y-112012031D01*
X210810142Y-112024447D01*
X210801519Y-112036073D01*
X210791798Y-112046798D01*
X210781073Y-112056519D01*
X210769447Y-112065142D01*
X210757031Y-112072583D01*
X210743946Y-112078772D01*
X210730317Y-112083649D01*
X210716276Y-112087166D01*
X210701958Y-112089290D01*
X210687500Y-112090000D01*
X210392500Y-112090000D01*
X210378042Y-112089290D01*
X210363724Y-112087166D01*
X210349683Y-112083649D01*
X210336054Y-112078772D01*
X210322969Y-112072583D01*
X210310553Y-112065142D01*
X210298927Y-112056519D01*
X210288202Y-112046798D01*
X210278481Y-112036073D01*
X210269858Y-112024447D01*
X210262417Y-112012031D01*
X210256228Y-111998946D01*
X210251351Y-111985317D01*
X210247834Y-111971276D01*
X210245710Y-111956958D01*
X210245000Y-111942500D01*
X210245000Y-111597500D01*
X210245710Y-111583042D01*
X210247834Y-111568724D01*
X210251351Y-111554683D01*
X210256228Y-111541054D01*
X210262417Y-111527969D01*
X210269858Y-111515553D01*
X210278481Y-111503927D01*
X210288202Y-111493202D01*
X210298927Y-111483481D01*
X210310553Y-111474858D01*
X210322969Y-111467417D01*
X210336054Y-111461228D01*
X210349683Y-111456351D01*
X210363724Y-111452834D01*
X210378042Y-111450710D01*
X210392500Y-111450000D01*
X210687500Y-111450000D01*
X210701958Y-111450710D01*
X210701958Y-111450710D01*
G37*
D11*
G04 #@! TD*
G04 #@! TO.P,C11,1*
G04 #@! TO.N,Net-(C11-Pad1)*
X210540000Y-111770000D03*
D10*
G04 #@! TO.N,/DVDD*
G04 #@! TO.C,C12*
G36*
X218056958Y-106643710D02*
X218071276Y-106645834D01*
X218085317Y-106649351D01*
X218098946Y-106654228D01*
X218112031Y-106660417D01*
X218124447Y-106667858D01*
X218136073Y-106676481D01*
X218146798Y-106686202D01*
X218156519Y-106696927D01*
X218165142Y-106708553D01*
X218172583Y-106720969D01*
X218178772Y-106734054D01*
X218183649Y-106747683D01*
X218187166Y-106761724D01*
X218189290Y-106776042D01*
X218190000Y-106790500D01*
X218190000Y-107085500D01*
X218189290Y-107099958D01*
X218187166Y-107114276D01*
X218183649Y-107128317D01*
X218178772Y-107141946D01*
X218172583Y-107155031D01*
X218165142Y-107167447D01*
X218156519Y-107179073D01*
X218146798Y-107189798D01*
X218136073Y-107199519D01*
X218124447Y-107208142D01*
X218112031Y-107215583D01*
X218098946Y-107221772D01*
X218085317Y-107226649D01*
X218071276Y-107230166D01*
X218056958Y-107232290D01*
X218042500Y-107233000D01*
X217697500Y-107233000D01*
X217683042Y-107232290D01*
X217668724Y-107230166D01*
X217654683Y-107226649D01*
X217641054Y-107221772D01*
X217627969Y-107215583D01*
X217615553Y-107208142D01*
X217603927Y-107199519D01*
X217593202Y-107189798D01*
X217583481Y-107179073D01*
X217574858Y-107167447D01*
X217567417Y-107155031D01*
X217561228Y-107141946D01*
X217556351Y-107128317D01*
X217552834Y-107114276D01*
X217550710Y-107099958D01*
X217550000Y-107085500D01*
X217550000Y-106790500D01*
X217550710Y-106776042D01*
X217552834Y-106761724D01*
X217556351Y-106747683D01*
X217561228Y-106734054D01*
X217567417Y-106720969D01*
X217574858Y-106708553D01*
X217583481Y-106696927D01*
X217593202Y-106686202D01*
X217603927Y-106676481D01*
X217615553Y-106667858D01*
X217627969Y-106660417D01*
X217641054Y-106654228D01*
X217654683Y-106649351D01*
X217668724Y-106645834D01*
X217683042Y-106643710D01*
X217697500Y-106643000D01*
X218042500Y-106643000D01*
X218056958Y-106643710D01*
X218056958Y-106643710D01*
G37*
D11*
G04 #@! TD*
G04 #@! TO.P,C12,1*
G04 #@! TO.N,/DVDD*
X217870000Y-106938000D03*
D10*
G04 #@! TO.N,DGND*
G04 #@! TO.C,C12*
G36*
X218056958Y-107613710D02*
X218071276Y-107615834D01*
X218085317Y-107619351D01*
X218098946Y-107624228D01*
X218112031Y-107630417D01*
X218124447Y-107637858D01*
X218136073Y-107646481D01*
X218146798Y-107656202D01*
X218156519Y-107666927D01*
X218165142Y-107678553D01*
X218172583Y-107690969D01*
X218178772Y-107704054D01*
X218183649Y-107717683D01*
X218187166Y-107731724D01*
X218189290Y-107746042D01*
X218190000Y-107760500D01*
X218190000Y-108055500D01*
X218189290Y-108069958D01*
X218187166Y-108084276D01*
X218183649Y-108098317D01*
X218178772Y-108111946D01*
X218172583Y-108125031D01*
X218165142Y-108137447D01*
X218156519Y-108149073D01*
X218146798Y-108159798D01*
X218136073Y-108169519D01*
X218124447Y-108178142D01*
X218112031Y-108185583D01*
X218098946Y-108191772D01*
X218085317Y-108196649D01*
X218071276Y-108200166D01*
X218056958Y-108202290D01*
X218042500Y-108203000D01*
X217697500Y-108203000D01*
X217683042Y-108202290D01*
X217668724Y-108200166D01*
X217654683Y-108196649D01*
X217641054Y-108191772D01*
X217627969Y-108185583D01*
X217615553Y-108178142D01*
X217603927Y-108169519D01*
X217593202Y-108159798D01*
X217583481Y-108149073D01*
X217574858Y-108137447D01*
X217567417Y-108125031D01*
X217561228Y-108111946D01*
X217556351Y-108098317D01*
X217552834Y-108084276D01*
X217550710Y-108069958D01*
X217550000Y-108055500D01*
X217550000Y-107760500D01*
X217550710Y-107746042D01*
X217552834Y-107731724D01*
X217556351Y-107717683D01*
X217561228Y-107704054D01*
X217567417Y-107690969D01*
X217574858Y-107678553D01*
X217583481Y-107666927D01*
X217593202Y-107656202D01*
X217603927Y-107646481D01*
X217615553Y-107637858D01*
X217627969Y-107630417D01*
X217641054Y-107624228D01*
X217654683Y-107619351D01*
X217668724Y-107615834D01*
X217683042Y-107613710D01*
X217697500Y-107613000D01*
X218042500Y-107613000D01*
X218056958Y-107613710D01*
X218056958Y-107613710D01*
G37*
D11*
G04 #@! TD*
G04 #@! TO.P,C12,2*
G04 #@! TO.N,DGND*
X217870000Y-107908000D03*
D17*
G04 #@! TO.P,A1,2*
G04 #@! TO.N,N/C*
X203225000Y-97281000D03*
G04 #@! TO.P,A1,1*
G04 #@! TO.N,Net-(A1-Pad1)*
X206625000Y-97281000D03*
G04 #@! TD*
D10*
G04 #@! TO.N,DGND*
G04 #@! TO.C,C1*
G36*
X207922691Y-104756053D02*
X207943926Y-104759203D01*
X207964750Y-104764419D01*
X207984962Y-104771651D01*
X208004368Y-104780830D01*
X208022781Y-104791866D01*
X208040024Y-104804654D01*
X208055930Y-104819070D01*
X208070346Y-104834976D01*
X208083134Y-104852219D01*
X208094170Y-104870632D01*
X208103349Y-104890038D01*
X208110581Y-104910250D01*
X208115797Y-104931074D01*
X208118947Y-104952309D01*
X208120000Y-104973750D01*
X208120000Y-105486250D01*
X208118947Y-105507691D01*
X208115797Y-105528926D01*
X208110581Y-105549750D01*
X208103349Y-105569962D01*
X208094170Y-105589368D01*
X208083134Y-105607781D01*
X208070346Y-105625024D01*
X208055930Y-105640930D01*
X208040024Y-105655346D01*
X208022781Y-105668134D01*
X208004368Y-105679170D01*
X207984962Y-105688349D01*
X207964750Y-105695581D01*
X207943926Y-105700797D01*
X207922691Y-105703947D01*
X207901250Y-105705000D01*
X207463750Y-105705000D01*
X207442309Y-105703947D01*
X207421074Y-105700797D01*
X207400250Y-105695581D01*
X207380038Y-105688349D01*
X207360632Y-105679170D01*
X207342219Y-105668134D01*
X207324976Y-105655346D01*
X207309070Y-105640930D01*
X207294654Y-105625024D01*
X207281866Y-105607781D01*
X207270830Y-105589368D01*
X207261651Y-105569962D01*
X207254419Y-105549750D01*
X207249203Y-105528926D01*
X207246053Y-105507691D01*
X207245000Y-105486250D01*
X207245000Y-104973750D01*
X207246053Y-104952309D01*
X207249203Y-104931074D01*
X207254419Y-104910250D01*
X207261651Y-104890038D01*
X207270830Y-104870632D01*
X207281866Y-104852219D01*
X207294654Y-104834976D01*
X207309070Y-104819070D01*
X207324976Y-104804654D01*
X207342219Y-104791866D01*
X207360632Y-104780830D01*
X207380038Y-104771651D01*
X207400250Y-104764419D01*
X207421074Y-104759203D01*
X207442309Y-104756053D01*
X207463750Y-104755000D01*
X207901250Y-104755000D01*
X207922691Y-104756053D01*
X207922691Y-104756053D01*
G37*
D18*
G04 #@! TD*
G04 #@! TO.P,C1,2*
G04 #@! TO.N,DGND*
X207682500Y-105230000D03*
D10*
G04 #@! TO.N,Net-(C1-Pad1)*
G04 #@! TO.C,C1*
G36*
X209497691Y-104756053D02*
X209518926Y-104759203D01*
X209539750Y-104764419D01*
X209559962Y-104771651D01*
X209579368Y-104780830D01*
X209597781Y-104791866D01*
X209615024Y-104804654D01*
X209630930Y-104819070D01*
X209645346Y-104834976D01*
X209658134Y-104852219D01*
X209669170Y-104870632D01*
X209678349Y-104890038D01*
X209685581Y-104910250D01*
X209690797Y-104931074D01*
X209693947Y-104952309D01*
X209695000Y-104973750D01*
X209695000Y-105486250D01*
X209693947Y-105507691D01*
X209690797Y-105528926D01*
X209685581Y-105549750D01*
X209678349Y-105569962D01*
X209669170Y-105589368D01*
X209658134Y-105607781D01*
X209645346Y-105625024D01*
X209630930Y-105640930D01*
X209615024Y-105655346D01*
X209597781Y-105668134D01*
X209579368Y-105679170D01*
X209559962Y-105688349D01*
X209539750Y-105695581D01*
X209518926Y-105700797D01*
X209497691Y-105703947D01*
X209476250Y-105705000D01*
X209038750Y-105705000D01*
X209017309Y-105703947D01*
X208996074Y-105700797D01*
X208975250Y-105695581D01*
X208955038Y-105688349D01*
X208935632Y-105679170D01*
X208917219Y-105668134D01*
X208899976Y-105655346D01*
X208884070Y-105640930D01*
X208869654Y-105625024D01*
X208856866Y-105607781D01*
X208845830Y-105589368D01*
X208836651Y-105569962D01*
X208829419Y-105549750D01*
X208824203Y-105528926D01*
X208821053Y-105507691D01*
X208820000Y-105486250D01*
X208820000Y-104973750D01*
X208821053Y-104952309D01*
X208824203Y-104931074D01*
X208829419Y-104910250D01*
X208836651Y-104890038D01*
X208845830Y-104870632D01*
X208856866Y-104852219D01*
X208869654Y-104834976D01*
X208884070Y-104819070D01*
X208899976Y-104804654D01*
X208917219Y-104791866D01*
X208935632Y-104780830D01*
X208955038Y-104771651D01*
X208975250Y-104764419D01*
X208996074Y-104759203D01*
X209017309Y-104756053D01*
X209038750Y-104755000D01*
X209476250Y-104755000D01*
X209497691Y-104756053D01*
X209497691Y-104756053D01*
G37*
D18*
G04 #@! TD*
G04 #@! TO.P,C1,1*
G04 #@! TO.N,Net-(C1-Pad1)*
X209257500Y-105230000D03*
D10*
G04 #@! TO.N,DGND*
G04 #@! TO.C,C4*
G36*
X211906958Y-97868710D02*
X211921276Y-97870834D01*
X211935317Y-97874351D01*
X211948946Y-97879228D01*
X211962031Y-97885417D01*
X211974447Y-97892858D01*
X211986073Y-97901481D01*
X211996798Y-97911202D01*
X212006519Y-97921927D01*
X212015142Y-97933553D01*
X212022583Y-97945969D01*
X212028772Y-97959054D01*
X212033649Y-97972683D01*
X212037166Y-97986724D01*
X212039290Y-98001042D01*
X212040000Y-98015500D01*
X212040000Y-98310500D01*
X212039290Y-98324958D01*
X212037166Y-98339276D01*
X212033649Y-98353317D01*
X212028772Y-98366946D01*
X212022583Y-98380031D01*
X212015142Y-98392447D01*
X212006519Y-98404073D01*
X211996798Y-98414798D01*
X211986073Y-98424519D01*
X211974447Y-98433142D01*
X211962031Y-98440583D01*
X211948946Y-98446772D01*
X211935317Y-98451649D01*
X211921276Y-98455166D01*
X211906958Y-98457290D01*
X211892500Y-98458000D01*
X211547500Y-98458000D01*
X211533042Y-98457290D01*
X211518724Y-98455166D01*
X211504683Y-98451649D01*
X211491054Y-98446772D01*
X211477969Y-98440583D01*
X211465553Y-98433142D01*
X211453927Y-98424519D01*
X211443202Y-98414798D01*
X211433481Y-98404073D01*
X211424858Y-98392447D01*
X211417417Y-98380031D01*
X211411228Y-98366946D01*
X211406351Y-98353317D01*
X211402834Y-98339276D01*
X211400710Y-98324958D01*
X211400000Y-98310500D01*
X211400000Y-98015500D01*
X211400710Y-98001042D01*
X211402834Y-97986724D01*
X211406351Y-97972683D01*
X211411228Y-97959054D01*
X211417417Y-97945969D01*
X211424858Y-97933553D01*
X211433481Y-97921927D01*
X211443202Y-97911202D01*
X211453927Y-97901481D01*
X211465553Y-97892858D01*
X211477969Y-97885417D01*
X211491054Y-97879228D01*
X211504683Y-97874351D01*
X211518724Y-97870834D01*
X211533042Y-97868710D01*
X211547500Y-97868000D01*
X211892500Y-97868000D01*
X211906958Y-97868710D01*
X211906958Y-97868710D01*
G37*
D11*
G04 #@! TD*
G04 #@! TO.P,C4,1*
G04 #@! TO.N,DGND*
X211720000Y-98163000D03*
D10*
G04 #@! TO.N,/DEC3*
G04 #@! TO.C,C4*
G36*
X211906958Y-98838710D02*
X211921276Y-98840834D01*
X211935317Y-98844351D01*
X211948946Y-98849228D01*
X211962031Y-98855417D01*
X211974447Y-98862858D01*
X211986073Y-98871481D01*
X211996798Y-98881202D01*
X212006519Y-98891927D01*
X212015142Y-98903553D01*
X212022583Y-98915969D01*
X212028772Y-98929054D01*
X212033649Y-98942683D01*
X212037166Y-98956724D01*
X212039290Y-98971042D01*
X212040000Y-98985500D01*
X212040000Y-99280500D01*
X212039290Y-99294958D01*
X212037166Y-99309276D01*
X212033649Y-99323317D01*
X212028772Y-99336946D01*
X212022583Y-99350031D01*
X212015142Y-99362447D01*
X212006519Y-99374073D01*
X211996798Y-99384798D01*
X211986073Y-99394519D01*
X211974447Y-99403142D01*
X211962031Y-99410583D01*
X211948946Y-99416772D01*
X211935317Y-99421649D01*
X211921276Y-99425166D01*
X211906958Y-99427290D01*
X211892500Y-99428000D01*
X211547500Y-99428000D01*
X211533042Y-99427290D01*
X211518724Y-99425166D01*
X211504683Y-99421649D01*
X211491054Y-99416772D01*
X211477969Y-99410583D01*
X211465553Y-99403142D01*
X211453927Y-99394519D01*
X211443202Y-99384798D01*
X211433481Y-99374073D01*
X211424858Y-99362447D01*
X211417417Y-99350031D01*
X211411228Y-99336946D01*
X211406351Y-99323317D01*
X211402834Y-99309276D01*
X211400710Y-99294958D01*
X211400000Y-99280500D01*
X211400000Y-98985500D01*
X211400710Y-98971042D01*
X211402834Y-98956724D01*
X211406351Y-98942683D01*
X211411228Y-98929054D01*
X211417417Y-98915969D01*
X211424858Y-98903553D01*
X211433481Y-98891927D01*
X211443202Y-98881202D01*
X211453927Y-98871481D01*
X211465553Y-98862858D01*
X211477969Y-98855417D01*
X211491054Y-98849228D01*
X211504683Y-98844351D01*
X211518724Y-98840834D01*
X211533042Y-98838710D01*
X211547500Y-98838000D01*
X211892500Y-98838000D01*
X211906958Y-98838710D01*
X211906958Y-98838710D01*
G37*
D11*
G04 #@! TD*
G04 #@! TO.P,C4,2*
G04 #@! TO.N,/DEC3*
X211720000Y-99133000D03*
D10*
G04 #@! TO.N,Net-(C6-Pad2)*
G04 #@! TO.C,C6*
G36*
X206016958Y-103498710D02*
X206031276Y-103500834D01*
X206045317Y-103504351D01*
X206058946Y-103509228D01*
X206072031Y-103515417D01*
X206084447Y-103522858D01*
X206096073Y-103531481D01*
X206106798Y-103541202D01*
X206116519Y-103551927D01*
X206125142Y-103563553D01*
X206132583Y-103575969D01*
X206138772Y-103589054D01*
X206143649Y-103602683D01*
X206147166Y-103616724D01*
X206149290Y-103631042D01*
X206150000Y-103645500D01*
X206150000Y-103940500D01*
X206149290Y-103954958D01*
X206147166Y-103969276D01*
X206143649Y-103983317D01*
X206138772Y-103996946D01*
X206132583Y-104010031D01*
X206125142Y-104022447D01*
X206116519Y-104034073D01*
X206106798Y-104044798D01*
X206096073Y-104054519D01*
X206084447Y-104063142D01*
X206072031Y-104070583D01*
X206058946Y-104076772D01*
X206045317Y-104081649D01*
X206031276Y-104085166D01*
X206016958Y-104087290D01*
X206002500Y-104088000D01*
X205657500Y-104088000D01*
X205643042Y-104087290D01*
X205628724Y-104085166D01*
X205614683Y-104081649D01*
X205601054Y-104076772D01*
X205587969Y-104070583D01*
X205575553Y-104063142D01*
X205563927Y-104054519D01*
X205553202Y-104044798D01*
X205543481Y-104034073D01*
X205534858Y-104022447D01*
X205527417Y-104010031D01*
X205521228Y-103996946D01*
X205516351Y-103983317D01*
X205512834Y-103969276D01*
X205510710Y-103954958D01*
X205510000Y-103940500D01*
X205510000Y-103645500D01*
X205510710Y-103631042D01*
X205512834Y-103616724D01*
X205516351Y-103602683D01*
X205521228Y-103589054D01*
X205527417Y-103575969D01*
X205534858Y-103563553D01*
X205543481Y-103551927D01*
X205553202Y-103541202D01*
X205563927Y-103531481D01*
X205575553Y-103522858D01*
X205587969Y-103515417D01*
X205601054Y-103509228D01*
X205614683Y-103504351D01*
X205628724Y-103500834D01*
X205643042Y-103498710D01*
X205657500Y-103498000D01*
X206002500Y-103498000D01*
X206016958Y-103498710D01*
X206016958Y-103498710D01*
G37*
D11*
G04 #@! TD*
G04 #@! TO.P,C6,2*
G04 #@! TO.N,Net-(C6-Pad2)*
X205830000Y-103793000D03*
D10*
G04 #@! TO.N,DGND*
G04 #@! TO.C,C6*
G36*
X206016958Y-102528710D02*
X206031276Y-102530834D01*
X206045317Y-102534351D01*
X206058946Y-102539228D01*
X206072031Y-102545417D01*
X206084447Y-102552858D01*
X206096073Y-102561481D01*
X206106798Y-102571202D01*
X206116519Y-102581927D01*
X206125142Y-102593553D01*
X206132583Y-102605969D01*
X206138772Y-102619054D01*
X206143649Y-102632683D01*
X206147166Y-102646724D01*
X206149290Y-102661042D01*
X206150000Y-102675500D01*
X206150000Y-102970500D01*
X206149290Y-102984958D01*
X206147166Y-102999276D01*
X206143649Y-103013317D01*
X206138772Y-103026946D01*
X206132583Y-103040031D01*
X206125142Y-103052447D01*
X206116519Y-103064073D01*
X206106798Y-103074798D01*
X206096073Y-103084519D01*
X206084447Y-103093142D01*
X206072031Y-103100583D01*
X206058946Y-103106772D01*
X206045317Y-103111649D01*
X206031276Y-103115166D01*
X206016958Y-103117290D01*
X206002500Y-103118000D01*
X205657500Y-103118000D01*
X205643042Y-103117290D01*
X205628724Y-103115166D01*
X205614683Y-103111649D01*
X205601054Y-103106772D01*
X205587969Y-103100583D01*
X205575553Y-103093142D01*
X205563927Y-103084519D01*
X205553202Y-103074798D01*
X205543481Y-103064073D01*
X205534858Y-103052447D01*
X205527417Y-103040031D01*
X205521228Y-103026946D01*
X205516351Y-103013317D01*
X205512834Y-102999276D01*
X205510710Y-102984958D01*
X205510000Y-102970500D01*
X205510000Y-102675500D01*
X205510710Y-102661042D01*
X205512834Y-102646724D01*
X205516351Y-102632683D01*
X205521228Y-102619054D01*
X205527417Y-102605969D01*
X205534858Y-102593553D01*
X205543481Y-102581927D01*
X205553202Y-102571202D01*
X205563927Y-102561481D01*
X205575553Y-102552858D01*
X205587969Y-102545417D01*
X205601054Y-102539228D01*
X205614683Y-102534351D01*
X205628724Y-102530834D01*
X205643042Y-102528710D01*
X205657500Y-102528000D01*
X206002500Y-102528000D01*
X206016958Y-102528710D01*
X206016958Y-102528710D01*
G37*
D11*
G04 #@! TD*
G04 #@! TO.P,C6,1*
G04 #@! TO.N,DGND*
X205830000Y-102823000D03*
D10*
G04 #@! TO.N,/DVDD*
G04 #@! TO.C,C7*
G36*
X209927378Y-98748710D02*
X209941696Y-98750834D01*
X209955737Y-98754351D01*
X209969366Y-98759228D01*
X209982451Y-98765417D01*
X209994867Y-98772858D01*
X210006493Y-98781481D01*
X210017218Y-98791202D01*
X210026939Y-98801927D01*
X210035562Y-98813553D01*
X210043003Y-98825969D01*
X210049192Y-98839054D01*
X210054069Y-98852683D01*
X210057586Y-98866724D01*
X210059710Y-98881042D01*
X210060420Y-98895500D01*
X210060420Y-99240500D01*
X210059710Y-99254958D01*
X210057586Y-99269276D01*
X210054069Y-99283317D01*
X210049192Y-99296946D01*
X210043003Y-99310031D01*
X210035562Y-99322447D01*
X210026939Y-99334073D01*
X210017218Y-99344798D01*
X210006493Y-99354519D01*
X209994867Y-99363142D01*
X209982451Y-99370583D01*
X209969366Y-99376772D01*
X209955737Y-99381649D01*
X209941696Y-99385166D01*
X209927378Y-99387290D01*
X209912920Y-99388000D01*
X209617920Y-99388000D01*
X209603462Y-99387290D01*
X209589144Y-99385166D01*
X209575103Y-99381649D01*
X209561474Y-99376772D01*
X209548389Y-99370583D01*
X209535973Y-99363142D01*
X209524347Y-99354519D01*
X209513622Y-99344798D01*
X209503901Y-99334073D01*
X209495278Y-99322447D01*
X209487837Y-99310031D01*
X209481648Y-99296946D01*
X209476771Y-99283317D01*
X209473254Y-99269276D01*
X209471130Y-99254958D01*
X209470420Y-99240500D01*
X209470420Y-98895500D01*
X209471130Y-98881042D01*
X209473254Y-98866724D01*
X209476771Y-98852683D01*
X209481648Y-98839054D01*
X209487837Y-98825969D01*
X209495278Y-98813553D01*
X209503901Y-98801927D01*
X209513622Y-98791202D01*
X209524347Y-98781481D01*
X209535973Y-98772858D01*
X209548389Y-98765417D01*
X209561474Y-98759228D01*
X209575103Y-98754351D01*
X209589144Y-98750834D01*
X209603462Y-98748710D01*
X209617920Y-98748000D01*
X209912920Y-98748000D01*
X209927378Y-98748710D01*
X209927378Y-98748710D01*
G37*
D11*
G04 #@! TD*
G04 #@! TO.P,C7,2*
G04 #@! TO.N,/DVDD*
X209765420Y-99068000D03*
D10*
G04 #@! TO.N,DGND*
G04 #@! TO.C,C7*
G36*
X208957378Y-98748710D02*
X208971696Y-98750834D01*
X208985737Y-98754351D01*
X208999366Y-98759228D01*
X209012451Y-98765417D01*
X209024867Y-98772858D01*
X209036493Y-98781481D01*
X209047218Y-98791202D01*
X209056939Y-98801927D01*
X209065562Y-98813553D01*
X209073003Y-98825969D01*
X209079192Y-98839054D01*
X209084069Y-98852683D01*
X209087586Y-98866724D01*
X209089710Y-98881042D01*
X209090420Y-98895500D01*
X209090420Y-99240500D01*
X209089710Y-99254958D01*
X209087586Y-99269276D01*
X209084069Y-99283317D01*
X209079192Y-99296946D01*
X209073003Y-99310031D01*
X209065562Y-99322447D01*
X209056939Y-99334073D01*
X209047218Y-99344798D01*
X209036493Y-99354519D01*
X209024867Y-99363142D01*
X209012451Y-99370583D01*
X208999366Y-99376772D01*
X208985737Y-99381649D01*
X208971696Y-99385166D01*
X208957378Y-99387290D01*
X208942920Y-99388000D01*
X208647920Y-99388000D01*
X208633462Y-99387290D01*
X208619144Y-99385166D01*
X208605103Y-99381649D01*
X208591474Y-99376772D01*
X208578389Y-99370583D01*
X208565973Y-99363142D01*
X208554347Y-99354519D01*
X208543622Y-99344798D01*
X208533901Y-99334073D01*
X208525278Y-99322447D01*
X208517837Y-99310031D01*
X208511648Y-99296946D01*
X208506771Y-99283317D01*
X208503254Y-99269276D01*
X208501130Y-99254958D01*
X208500420Y-99240500D01*
X208500420Y-98895500D01*
X208501130Y-98881042D01*
X208503254Y-98866724D01*
X208506771Y-98852683D01*
X208511648Y-98839054D01*
X208517837Y-98825969D01*
X208525278Y-98813553D01*
X208533901Y-98801927D01*
X208543622Y-98791202D01*
X208554347Y-98781481D01*
X208565973Y-98772858D01*
X208578389Y-98765417D01*
X208591474Y-98759228D01*
X208605103Y-98754351D01*
X208619144Y-98750834D01*
X208633462Y-98748710D01*
X208647920Y-98748000D01*
X208942920Y-98748000D01*
X208957378Y-98748710D01*
X208957378Y-98748710D01*
G37*
D11*
G04 #@! TD*
G04 #@! TO.P,C7,1*
G04 #@! TO.N,DGND*
X208795420Y-99068000D03*
D10*
G04 #@! TO.N,DGND*
G04 #@! TO.C,C8*
G36*
X209416958Y-103398710D02*
X209431276Y-103400834D01*
X209445317Y-103404351D01*
X209458946Y-103409228D01*
X209472031Y-103415417D01*
X209484447Y-103422858D01*
X209496073Y-103431481D01*
X209506798Y-103441202D01*
X209516519Y-103451927D01*
X209525142Y-103463553D01*
X209532583Y-103475969D01*
X209538772Y-103489054D01*
X209543649Y-103502683D01*
X209547166Y-103516724D01*
X209549290Y-103531042D01*
X209550000Y-103545500D01*
X209550000Y-103840500D01*
X209549290Y-103854958D01*
X209547166Y-103869276D01*
X209543649Y-103883317D01*
X209538772Y-103896946D01*
X209532583Y-103910031D01*
X209525142Y-103922447D01*
X209516519Y-103934073D01*
X209506798Y-103944798D01*
X209496073Y-103954519D01*
X209484447Y-103963142D01*
X209472031Y-103970583D01*
X209458946Y-103976772D01*
X209445317Y-103981649D01*
X209431276Y-103985166D01*
X209416958Y-103987290D01*
X209402500Y-103988000D01*
X209057500Y-103988000D01*
X209043042Y-103987290D01*
X209028724Y-103985166D01*
X209014683Y-103981649D01*
X209001054Y-103976772D01*
X208987969Y-103970583D01*
X208975553Y-103963142D01*
X208963927Y-103954519D01*
X208953202Y-103944798D01*
X208943481Y-103934073D01*
X208934858Y-103922447D01*
X208927417Y-103910031D01*
X208921228Y-103896946D01*
X208916351Y-103883317D01*
X208912834Y-103869276D01*
X208910710Y-103854958D01*
X208910000Y-103840500D01*
X208910000Y-103545500D01*
X208910710Y-103531042D01*
X208912834Y-103516724D01*
X208916351Y-103502683D01*
X208921228Y-103489054D01*
X208927417Y-103475969D01*
X208934858Y-103463553D01*
X208943481Y-103451927D01*
X208953202Y-103441202D01*
X208963927Y-103431481D01*
X208975553Y-103422858D01*
X208987969Y-103415417D01*
X209001054Y-103409228D01*
X209014683Y-103404351D01*
X209028724Y-103400834D01*
X209043042Y-103398710D01*
X209057500Y-103398000D01*
X209402500Y-103398000D01*
X209416958Y-103398710D01*
X209416958Y-103398710D01*
G37*
D11*
G04 #@! TD*
G04 #@! TO.P,C8,1*
G04 #@! TO.N,DGND*
X209230000Y-103693000D03*
D10*
G04 #@! TO.N,Net-(C8-Pad2)*
G04 #@! TO.C,C8*
G36*
X209416958Y-102428710D02*
X209431276Y-102430834D01*
X209445317Y-102434351D01*
X209458946Y-102439228D01*
X209472031Y-102445417D01*
X209484447Y-102452858D01*
X209496073Y-102461481D01*
X209506798Y-102471202D01*
X209516519Y-102481927D01*
X209525142Y-102493553D01*
X209532583Y-102505969D01*
X209538772Y-102519054D01*
X209543649Y-102532683D01*
X209547166Y-102546724D01*
X209549290Y-102561042D01*
X209550000Y-102575500D01*
X209550000Y-102870500D01*
X209549290Y-102884958D01*
X209547166Y-102899276D01*
X209543649Y-102913317D01*
X209538772Y-102926946D01*
X209532583Y-102940031D01*
X209525142Y-102952447D01*
X209516519Y-102964073D01*
X209506798Y-102974798D01*
X209496073Y-102984519D01*
X209484447Y-102993142D01*
X209472031Y-103000583D01*
X209458946Y-103006772D01*
X209445317Y-103011649D01*
X209431276Y-103015166D01*
X209416958Y-103017290D01*
X209402500Y-103018000D01*
X209057500Y-103018000D01*
X209043042Y-103017290D01*
X209028724Y-103015166D01*
X209014683Y-103011649D01*
X209001054Y-103006772D01*
X208987969Y-103000583D01*
X208975553Y-102993142D01*
X208963927Y-102984519D01*
X208953202Y-102974798D01*
X208943481Y-102964073D01*
X208934858Y-102952447D01*
X208927417Y-102940031D01*
X208921228Y-102926946D01*
X208916351Y-102913317D01*
X208912834Y-102899276D01*
X208910710Y-102884958D01*
X208910000Y-102870500D01*
X208910000Y-102575500D01*
X208910710Y-102561042D01*
X208912834Y-102546724D01*
X208916351Y-102532683D01*
X208921228Y-102519054D01*
X208927417Y-102505969D01*
X208934858Y-102493553D01*
X208943481Y-102481927D01*
X208953202Y-102471202D01*
X208963927Y-102461481D01*
X208975553Y-102452858D01*
X208987969Y-102445417D01*
X209001054Y-102439228D01*
X209014683Y-102434351D01*
X209028724Y-102430834D01*
X209043042Y-102428710D01*
X209057500Y-102428000D01*
X209402500Y-102428000D01*
X209416958Y-102428710D01*
X209416958Y-102428710D01*
G37*
D11*
G04 #@! TD*
G04 #@! TO.P,C8,2*
G04 #@! TO.N,Net-(C8-Pad2)*
X209230000Y-102723000D03*
D10*
G04 #@! TO.N,/RF*
G04 #@! TO.C,C10*
G36*
X212126958Y-96988710D02*
X212141276Y-96990834D01*
X212155317Y-96994351D01*
X212168946Y-96999228D01*
X212182031Y-97005417D01*
X212194447Y-97012858D01*
X212206073Y-97021481D01*
X212216798Y-97031202D01*
X212226519Y-97041927D01*
X212235142Y-97053553D01*
X212242583Y-97065969D01*
X212248772Y-97079054D01*
X212253649Y-97092683D01*
X212257166Y-97106724D01*
X212259290Y-97121042D01*
X212260000Y-97135500D01*
X212260000Y-97480500D01*
X212259290Y-97494958D01*
X212257166Y-97509276D01*
X212253649Y-97523317D01*
X212248772Y-97536946D01*
X212242583Y-97550031D01*
X212235142Y-97562447D01*
X212226519Y-97574073D01*
X212216798Y-97584798D01*
X212206073Y-97594519D01*
X212194447Y-97603142D01*
X212182031Y-97610583D01*
X212168946Y-97616772D01*
X212155317Y-97621649D01*
X212141276Y-97625166D01*
X212126958Y-97627290D01*
X212112500Y-97628000D01*
X211817500Y-97628000D01*
X211803042Y-97627290D01*
X211788724Y-97625166D01*
X211774683Y-97621649D01*
X211761054Y-97616772D01*
X211747969Y-97610583D01*
X211735553Y-97603142D01*
X211723927Y-97594519D01*
X211713202Y-97584798D01*
X211703481Y-97574073D01*
X211694858Y-97562447D01*
X211687417Y-97550031D01*
X211681228Y-97536946D01*
X211676351Y-97523317D01*
X211672834Y-97509276D01*
X211670710Y-97494958D01*
X211670000Y-97480500D01*
X211670000Y-97135500D01*
X211670710Y-97121042D01*
X211672834Y-97106724D01*
X211676351Y-97092683D01*
X211681228Y-97079054D01*
X211687417Y-97065969D01*
X211694858Y-97053553D01*
X211703481Y-97041927D01*
X211713202Y-97031202D01*
X211723927Y-97021481D01*
X211735553Y-97012858D01*
X211747969Y-97005417D01*
X211761054Y-96999228D01*
X211774683Y-96994351D01*
X211788724Y-96990834D01*
X211803042Y-96988710D01*
X211817500Y-96988000D01*
X212112500Y-96988000D01*
X212126958Y-96988710D01*
X212126958Y-96988710D01*
G37*
D11*
G04 #@! TD*
G04 #@! TO.P,C10,1*
G04 #@! TO.N,/RF*
X211965000Y-97308000D03*
D10*
G04 #@! TO.N,Net-(C10-Pad2)*
G04 #@! TO.C,C10*
G36*
X211156958Y-96988710D02*
X211171276Y-96990834D01*
X211185317Y-96994351D01*
X211198946Y-96999228D01*
X211212031Y-97005417D01*
X211224447Y-97012858D01*
X211236073Y-97021481D01*
X211246798Y-97031202D01*
X211256519Y-97041927D01*
X211265142Y-97053553D01*
X211272583Y-97065969D01*
X211278772Y-97079054D01*
X211283649Y-97092683D01*
X211287166Y-97106724D01*
X211289290Y-97121042D01*
X211290000Y-97135500D01*
X211290000Y-97480500D01*
X211289290Y-97494958D01*
X211287166Y-97509276D01*
X211283649Y-97523317D01*
X211278772Y-97536946D01*
X211272583Y-97550031D01*
X211265142Y-97562447D01*
X211256519Y-97574073D01*
X211246798Y-97584798D01*
X211236073Y-97594519D01*
X211224447Y-97603142D01*
X211212031Y-97610583D01*
X211198946Y-97616772D01*
X211185317Y-97621649D01*
X211171276Y-97625166D01*
X211156958Y-97627290D01*
X211142500Y-97628000D01*
X210847500Y-97628000D01*
X210833042Y-97627290D01*
X210818724Y-97625166D01*
X210804683Y-97621649D01*
X210791054Y-97616772D01*
X210777969Y-97610583D01*
X210765553Y-97603142D01*
X210753927Y-97594519D01*
X210743202Y-97584798D01*
X210733481Y-97574073D01*
X210724858Y-97562447D01*
X210717417Y-97550031D01*
X210711228Y-97536946D01*
X210706351Y-97523317D01*
X210702834Y-97509276D01*
X210700710Y-97494958D01*
X210700000Y-97480500D01*
X210700000Y-97135500D01*
X210700710Y-97121042D01*
X210702834Y-97106724D01*
X210706351Y-97092683D01*
X210711228Y-97079054D01*
X210717417Y-97065969D01*
X210724858Y-97053553D01*
X210733481Y-97041927D01*
X210743202Y-97031202D01*
X210753927Y-97021481D01*
X210765553Y-97012858D01*
X210777969Y-97005417D01*
X210791054Y-96999228D01*
X210804683Y-96994351D01*
X210818724Y-96990834D01*
X210833042Y-96988710D01*
X210847500Y-96988000D01*
X211142500Y-96988000D01*
X211156958Y-96988710D01*
X211156958Y-96988710D01*
G37*
D11*
G04 #@! TD*
G04 #@! TO.P,C10,2*
G04 #@! TO.N,Net-(C10-Pad2)*
X210995000Y-97308000D03*
D19*
G04 #@! TO.P,F1,3*
G04 #@! TO.N,DGND*
X213517500Y-98108000D03*
D20*
G04 #@! TO.P,F1,4*
G04 #@! TO.N,/RF*
X213880000Y-97495500D03*
G04 #@! TO.P,F1,2*
G04 #@! TO.N,Net-(F1-Pad2)*
X213880000Y-98720500D03*
D19*
G04 #@! TO.P,F1,1*
G04 #@! TO.N,DGND*
X214206500Y-98108000D03*
G04 #@! TD*
D12*
G04 #@! TO.P,J4,1*
G04 #@! TO.N,/DVDD*
X204870000Y-119460000D03*
D13*
G04 #@! TO.P,J4,2*
G04 #@! TO.N,DGND*
X204870000Y-116920000D03*
G04 #@! TO.P,J4,3*
G04 #@! TO.N,/AVDD*
X204870000Y-114380000D03*
G04 #@! TO.P,J4,4*
G04 #@! TO.N,AGND*
X204870000Y-111840000D03*
G04 #@! TD*
D10*
G04 #@! TO.N,Net-(L1-Pad2)*
G04 #@! TO.C,L1*
G36*
X209517691Y-107851053D02*
X209538926Y-107854203D01*
X209559750Y-107859419D01*
X209579962Y-107866651D01*
X209599368Y-107875830D01*
X209617781Y-107886866D01*
X209635024Y-107899654D01*
X209650930Y-107914070D01*
X209665346Y-107929976D01*
X209678134Y-107947219D01*
X209689170Y-107965632D01*
X209698349Y-107985038D01*
X209705581Y-108005250D01*
X209710797Y-108026074D01*
X209713947Y-108047309D01*
X209715000Y-108068750D01*
X209715000Y-108506250D01*
X209713947Y-108527691D01*
X209710797Y-108548926D01*
X209705581Y-108569750D01*
X209698349Y-108589962D01*
X209689170Y-108609368D01*
X209678134Y-108627781D01*
X209665346Y-108645024D01*
X209650930Y-108660930D01*
X209635024Y-108675346D01*
X209617781Y-108688134D01*
X209599368Y-108699170D01*
X209579962Y-108708349D01*
X209559750Y-108715581D01*
X209538926Y-108720797D01*
X209517691Y-108723947D01*
X209496250Y-108725000D01*
X208983750Y-108725000D01*
X208962309Y-108723947D01*
X208941074Y-108720797D01*
X208920250Y-108715581D01*
X208900038Y-108708349D01*
X208880632Y-108699170D01*
X208862219Y-108688134D01*
X208844976Y-108675346D01*
X208829070Y-108660930D01*
X208814654Y-108645024D01*
X208801866Y-108627781D01*
X208790830Y-108609368D01*
X208781651Y-108589962D01*
X208774419Y-108569750D01*
X208769203Y-108548926D01*
X208766053Y-108527691D01*
X208765000Y-108506250D01*
X208765000Y-108068750D01*
X208766053Y-108047309D01*
X208769203Y-108026074D01*
X208774419Y-108005250D01*
X208781651Y-107985038D01*
X208790830Y-107965632D01*
X208801866Y-107947219D01*
X208814654Y-107929976D01*
X208829070Y-107914070D01*
X208844976Y-107899654D01*
X208862219Y-107886866D01*
X208880632Y-107875830D01*
X208900038Y-107866651D01*
X208920250Y-107859419D01*
X208941074Y-107854203D01*
X208962309Y-107851053D01*
X208983750Y-107850000D01*
X209496250Y-107850000D01*
X209517691Y-107851053D01*
X209517691Y-107851053D01*
G37*
D18*
G04 #@! TD*
G04 #@! TO.P,L1,2*
G04 #@! TO.N,Net-(L1-Pad2)*
X209240000Y-108287500D03*
D10*
G04 #@! TO.N,Net-(L1-Pad1)*
G04 #@! TO.C,L1*
G36*
X209517691Y-106276053D02*
X209538926Y-106279203D01*
X209559750Y-106284419D01*
X209579962Y-106291651D01*
X209599368Y-106300830D01*
X209617781Y-106311866D01*
X209635024Y-106324654D01*
X209650930Y-106339070D01*
X209665346Y-106354976D01*
X209678134Y-106372219D01*
X209689170Y-106390632D01*
X209698349Y-106410038D01*
X209705581Y-106430250D01*
X209710797Y-106451074D01*
X209713947Y-106472309D01*
X209715000Y-106493750D01*
X209715000Y-106931250D01*
X209713947Y-106952691D01*
X209710797Y-106973926D01*
X209705581Y-106994750D01*
X209698349Y-107014962D01*
X209689170Y-107034368D01*
X209678134Y-107052781D01*
X209665346Y-107070024D01*
X209650930Y-107085930D01*
X209635024Y-107100346D01*
X209617781Y-107113134D01*
X209599368Y-107124170D01*
X209579962Y-107133349D01*
X209559750Y-107140581D01*
X209538926Y-107145797D01*
X209517691Y-107148947D01*
X209496250Y-107150000D01*
X208983750Y-107150000D01*
X208962309Y-107148947D01*
X208941074Y-107145797D01*
X208920250Y-107140581D01*
X208900038Y-107133349D01*
X208880632Y-107124170D01*
X208862219Y-107113134D01*
X208844976Y-107100346D01*
X208829070Y-107085930D01*
X208814654Y-107070024D01*
X208801866Y-107052781D01*
X208790830Y-107034368D01*
X208781651Y-107014962D01*
X208774419Y-106994750D01*
X208769203Y-106973926D01*
X208766053Y-106952691D01*
X208765000Y-106931250D01*
X208765000Y-106493750D01*
X208766053Y-106472309D01*
X208769203Y-106451074D01*
X208774419Y-106430250D01*
X208781651Y-106410038D01*
X208790830Y-106390632D01*
X208801866Y-106372219D01*
X208814654Y-106354976D01*
X208829070Y-106339070D01*
X208844976Y-106324654D01*
X208862219Y-106311866D01*
X208880632Y-106300830D01*
X208900038Y-106291651D01*
X208920250Y-106284419D01*
X208941074Y-106279203D01*
X208962309Y-106276053D01*
X208983750Y-106275000D01*
X209496250Y-106275000D01*
X209517691Y-106276053D01*
X209517691Y-106276053D01*
G37*
D18*
G04 #@! TD*
G04 #@! TO.P,L1,1*
G04 #@! TO.N,Net-(L1-Pad1)*
X209240000Y-106712500D03*
D10*
G04 #@! TO.N,Net-(C10-Pad2)*
G04 #@! TO.C,L3*
G36*
X208926958Y-96988710D02*
X208941276Y-96990834D01*
X208955317Y-96994351D01*
X208968946Y-96999228D01*
X208982031Y-97005417D01*
X208994447Y-97012858D01*
X209006073Y-97021481D01*
X209016798Y-97031202D01*
X209026519Y-97041927D01*
X209035142Y-97053553D01*
X209042583Y-97065969D01*
X209048772Y-97079054D01*
X209053649Y-97092683D01*
X209057166Y-97106724D01*
X209059290Y-97121042D01*
X209060000Y-97135500D01*
X209060000Y-97480500D01*
X209059290Y-97494958D01*
X209057166Y-97509276D01*
X209053649Y-97523317D01*
X209048772Y-97536946D01*
X209042583Y-97550031D01*
X209035142Y-97562447D01*
X209026519Y-97574073D01*
X209016798Y-97584798D01*
X209006073Y-97594519D01*
X208994447Y-97603142D01*
X208982031Y-97610583D01*
X208968946Y-97616772D01*
X208955317Y-97621649D01*
X208941276Y-97625166D01*
X208926958Y-97627290D01*
X208912500Y-97628000D01*
X208617500Y-97628000D01*
X208603042Y-97627290D01*
X208588724Y-97625166D01*
X208574683Y-97621649D01*
X208561054Y-97616772D01*
X208547969Y-97610583D01*
X208535553Y-97603142D01*
X208523927Y-97594519D01*
X208513202Y-97584798D01*
X208503481Y-97574073D01*
X208494858Y-97562447D01*
X208487417Y-97550031D01*
X208481228Y-97536946D01*
X208476351Y-97523317D01*
X208472834Y-97509276D01*
X208470710Y-97494958D01*
X208470000Y-97480500D01*
X208470000Y-97135500D01*
X208470710Y-97121042D01*
X208472834Y-97106724D01*
X208476351Y-97092683D01*
X208481228Y-97079054D01*
X208487417Y-97065969D01*
X208494858Y-97053553D01*
X208503481Y-97041927D01*
X208513202Y-97031202D01*
X208523927Y-97021481D01*
X208535553Y-97012858D01*
X208547969Y-97005417D01*
X208561054Y-96999228D01*
X208574683Y-96994351D01*
X208588724Y-96990834D01*
X208603042Y-96988710D01*
X208617500Y-96988000D01*
X208912500Y-96988000D01*
X208926958Y-96988710D01*
X208926958Y-96988710D01*
G37*
D11*
G04 #@! TD*
G04 #@! TO.P,L3,1*
G04 #@! TO.N,Net-(C10-Pad2)*
X208765000Y-97308000D03*
D10*
G04 #@! TO.N,Net-(A1-Pad1)*
G04 #@! TO.C,L3*
G36*
X207956958Y-96988710D02*
X207971276Y-96990834D01*
X207985317Y-96994351D01*
X207998946Y-96999228D01*
X208012031Y-97005417D01*
X208024447Y-97012858D01*
X208036073Y-97021481D01*
X208046798Y-97031202D01*
X208056519Y-97041927D01*
X208065142Y-97053553D01*
X208072583Y-97065969D01*
X208078772Y-97079054D01*
X208083649Y-97092683D01*
X208087166Y-97106724D01*
X208089290Y-97121042D01*
X208090000Y-97135500D01*
X208090000Y-97480500D01*
X208089290Y-97494958D01*
X208087166Y-97509276D01*
X208083649Y-97523317D01*
X208078772Y-97536946D01*
X208072583Y-97550031D01*
X208065142Y-97562447D01*
X208056519Y-97574073D01*
X208046798Y-97584798D01*
X208036073Y-97594519D01*
X208024447Y-97603142D01*
X208012031Y-97610583D01*
X207998946Y-97616772D01*
X207985317Y-97621649D01*
X207971276Y-97625166D01*
X207956958Y-97627290D01*
X207942500Y-97628000D01*
X207647500Y-97628000D01*
X207633042Y-97627290D01*
X207618724Y-97625166D01*
X207604683Y-97621649D01*
X207591054Y-97616772D01*
X207577969Y-97610583D01*
X207565553Y-97603142D01*
X207553927Y-97594519D01*
X207543202Y-97584798D01*
X207533481Y-97574073D01*
X207524858Y-97562447D01*
X207517417Y-97550031D01*
X207511228Y-97536946D01*
X207506351Y-97523317D01*
X207502834Y-97509276D01*
X207500710Y-97494958D01*
X207500000Y-97480500D01*
X207500000Y-97135500D01*
X207500710Y-97121042D01*
X207502834Y-97106724D01*
X207506351Y-97092683D01*
X207511228Y-97079054D01*
X207517417Y-97065969D01*
X207524858Y-97053553D01*
X207533481Y-97041927D01*
X207543202Y-97031202D01*
X207553927Y-97021481D01*
X207565553Y-97012858D01*
X207577969Y-97005417D01*
X207591054Y-96999228D01*
X207604683Y-96994351D01*
X207618724Y-96990834D01*
X207633042Y-96988710D01*
X207647500Y-96988000D01*
X207942500Y-96988000D01*
X207956958Y-96988710D01*
X207956958Y-96988710D01*
G37*
D11*
G04 #@! TD*
G04 #@! TO.P,L3,2*
G04 #@! TO.N,Net-(A1-Pad1)*
X207795000Y-97308000D03*
D10*
G04 #@! TO.N,DGND*
G04 #@! TO.C,L4*
G36*
X210066958Y-97898710D02*
X210081276Y-97900834D01*
X210095317Y-97904351D01*
X210108946Y-97909228D01*
X210122031Y-97915417D01*
X210134447Y-97922858D01*
X210146073Y-97931481D01*
X210156798Y-97941202D01*
X210166519Y-97951927D01*
X210175142Y-97963553D01*
X210182583Y-97975969D01*
X210188772Y-97989054D01*
X210193649Y-98002683D01*
X210197166Y-98016724D01*
X210199290Y-98031042D01*
X210200000Y-98045500D01*
X210200000Y-98340500D01*
X210199290Y-98354958D01*
X210197166Y-98369276D01*
X210193649Y-98383317D01*
X210188772Y-98396946D01*
X210182583Y-98410031D01*
X210175142Y-98422447D01*
X210166519Y-98434073D01*
X210156798Y-98444798D01*
X210146073Y-98454519D01*
X210134447Y-98463142D01*
X210122031Y-98470583D01*
X210108946Y-98476772D01*
X210095317Y-98481649D01*
X210081276Y-98485166D01*
X210066958Y-98487290D01*
X210052500Y-98488000D01*
X209707500Y-98488000D01*
X209693042Y-98487290D01*
X209678724Y-98485166D01*
X209664683Y-98481649D01*
X209651054Y-98476772D01*
X209637969Y-98470583D01*
X209625553Y-98463142D01*
X209613927Y-98454519D01*
X209603202Y-98444798D01*
X209593481Y-98434073D01*
X209584858Y-98422447D01*
X209577417Y-98410031D01*
X209571228Y-98396946D01*
X209566351Y-98383317D01*
X209562834Y-98369276D01*
X209560710Y-98354958D01*
X209560000Y-98340500D01*
X209560000Y-98045500D01*
X209560710Y-98031042D01*
X209562834Y-98016724D01*
X209566351Y-98002683D01*
X209571228Y-97989054D01*
X209577417Y-97975969D01*
X209584858Y-97963553D01*
X209593481Y-97951927D01*
X209603202Y-97941202D01*
X209613927Y-97931481D01*
X209625553Y-97922858D01*
X209637969Y-97915417D01*
X209651054Y-97909228D01*
X209664683Y-97904351D01*
X209678724Y-97900834D01*
X209693042Y-97898710D01*
X209707500Y-97898000D01*
X210052500Y-97898000D01*
X210066958Y-97898710D01*
X210066958Y-97898710D01*
G37*
D11*
G04 #@! TD*
G04 #@! TO.P,L4,2*
G04 #@! TO.N,DGND*
X209880000Y-98193000D03*
D10*
G04 #@! TO.N,Net-(C10-Pad2)*
G04 #@! TO.C,L4*
G36*
X210066958Y-96928710D02*
X210081276Y-96930834D01*
X210095317Y-96934351D01*
X210108946Y-96939228D01*
X210122031Y-96945417D01*
X210134447Y-96952858D01*
X210146073Y-96961481D01*
X210156798Y-96971202D01*
X210166519Y-96981927D01*
X210175142Y-96993553D01*
X210182583Y-97005969D01*
X210188772Y-97019054D01*
X210193649Y-97032683D01*
X210197166Y-97046724D01*
X210199290Y-97061042D01*
X210200000Y-97075500D01*
X210200000Y-97370500D01*
X210199290Y-97384958D01*
X210197166Y-97399276D01*
X210193649Y-97413317D01*
X210188772Y-97426946D01*
X210182583Y-97440031D01*
X210175142Y-97452447D01*
X210166519Y-97464073D01*
X210156798Y-97474798D01*
X210146073Y-97484519D01*
X210134447Y-97493142D01*
X210122031Y-97500583D01*
X210108946Y-97506772D01*
X210095317Y-97511649D01*
X210081276Y-97515166D01*
X210066958Y-97517290D01*
X210052500Y-97518000D01*
X209707500Y-97518000D01*
X209693042Y-97517290D01*
X209678724Y-97515166D01*
X209664683Y-97511649D01*
X209651054Y-97506772D01*
X209637969Y-97500583D01*
X209625553Y-97493142D01*
X209613927Y-97484519D01*
X209603202Y-97474798D01*
X209593481Y-97464073D01*
X209584858Y-97452447D01*
X209577417Y-97440031D01*
X209571228Y-97426946D01*
X209566351Y-97413317D01*
X209562834Y-97399276D01*
X209560710Y-97384958D01*
X209560000Y-97370500D01*
X209560000Y-97075500D01*
X209560710Y-97061042D01*
X209562834Y-97046724D01*
X209566351Y-97032683D01*
X209571228Y-97019054D01*
X209577417Y-97005969D01*
X209584858Y-96993553D01*
X209593481Y-96981927D01*
X209603202Y-96971202D01*
X209613927Y-96961481D01*
X209625553Y-96952858D01*
X209637969Y-96945417D01*
X209651054Y-96939228D01*
X209664683Y-96934351D01*
X209678724Y-96930834D01*
X209693042Y-96928710D01*
X209707500Y-96928000D01*
X210052500Y-96928000D01*
X210066958Y-96928710D01*
X210066958Y-96928710D01*
G37*
D11*
G04 #@! TD*
G04 #@! TO.P,L4,1*
G04 #@! TO.N,Net-(C10-Pad2)*
X209880000Y-97223000D03*
D21*
G04 #@! TO.P,U1,49*
G04 #@! TO.N,DGND*
X212011250Y-105276750D03*
X213123750Y-105276750D03*
X214236250Y-105276750D03*
X215348750Y-105276750D03*
X212011250Y-104164250D03*
X213123750Y-104164250D03*
X214236250Y-104164250D03*
X215348750Y-104164250D03*
X212011250Y-103051750D03*
X213123750Y-103051750D03*
X214236250Y-103051750D03*
X215348750Y-103051750D03*
X212011250Y-101939250D03*
X213123750Y-101939250D03*
X214236250Y-101939250D03*
X215348750Y-101939250D03*
D22*
G04 #@! TO.P,U1,48*
G04 #@! TO.N,/DVDD*
X210680000Y-105808000D03*
G04 #@! TO.P,U1,47*
G04 #@! TO.N,Net-(L1-Pad1)*
X210680000Y-105408000D03*
G04 #@! TO.P,U1,46*
G04 #@! TO.N,Net-(C1-Pad1)*
X210680000Y-105008000D03*
G04 #@! TO.P,U1,45*
G04 #@! TO.N,DGND*
X210680000Y-104608000D03*
G04 #@! TO.P,U1,44*
G04 #@! TO.N,Net-(U1-Pad44)*
X210680000Y-104208000D03*
G04 #@! TO.P,U1,43*
G04 #@! TO.N,Net-(U1-Pad43)*
X210680000Y-103808000D03*
G04 #@! TO.P,U1,42*
G04 #@! TO.N,Net-(U1-Pad42)*
X210680000Y-103408000D03*
G04 #@! TO.P,U1,41*
G04 #@! TO.N,Net-(U1-Pad41)*
X210680000Y-103008000D03*
G04 #@! TO.P,U1,40*
G04 #@! TO.N,Net-(U1-Pad40)*
X210680000Y-102608000D03*
G04 #@! TO.P,U1,39*
G04 #@! TO.N,Net-(U1-Pad39)*
X210680000Y-102208000D03*
G04 #@! TO.P,U1,38*
G04 #@! TO.N,Net-(U1-Pad38)*
X210680000Y-101808000D03*
G04 #@! TO.P,U1,37*
G04 #@! TO.N,Net-(U1-Pad37)*
X210680000Y-101408000D03*
D23*
G04 #@! TO.P,U1,36*
G04 #@! TO.N,/DVDD*
X211480000Y-100608000D03*
G04 #@! TO.P,U1,35*
G04 #@! TO.N,Net-(C8-Pad2)*
X211880000Y-100608000D03*
G04 #@! TO.P,U1,34*
G04 #@! TO.N,Net-(C6-Pad2)*
X212280000Y-100608000D03*
G04 #@! TO.P,U1,33*
G04 #@! TO.N,/DEC3*
X212680000Y-100608000D03*
G04 #@! TO.P,U1,32*
G04 #@! TO.N,Net-(U1-Pad32)*
X213080000Y-100608000D03*
G04 #@! TO.P,U1,31*
G04 #@! TO.N,DGND*
X213480000Y-100608000D03*
G04 #@! TO.P,U1,30*
G04 #@! TO.N,Net-(F1-Pad2)*
X213880000Y-100608000D03*
G04 #@! TO.P,U1,29*
G04 #@! TO.N,Net-(U1-Pad29)*
X214280000Y-100608000D03*
G04 #@! TO.P,U1,28*
G04 #@! TO.N,Net-(U1-Pad28)*
X214680000Y-100608000D03*
G04 #@! TO.P,U1,27*
G04 #@! TO.N,Net-(U1-Pad27)*
X215080000Y-100608000D03*
G04 #@! TO.P,U1,26*
G04 #@! TO.N,/SWDIO*
X215480000Y-100608000D03*
G04 #@! TO.P,U1,25*
G04 #@! TO.N,/SWDCLK*
X215880000Y-100608000D03*
D22*
G04 #@! TO.P,U1,24*
G04 #@! TO.N,/BMI_SCL*
X216680000Y-101408000D03*
G04 #@! TO.P,U1,23*
G04 #@! TO.N,/BMI_SDA*
X216680000Y-101808000D03*
G04 #@! TO.P,U1,22*
G04 #@! TO.N,/BMI_INT1*
X216680000Y-102208000D03*
G04 #@! TO.P,U1,21*
G04 #@! TO.N,/BMI_INT2*
X216680000Y-102608000D03*
G04 #@! TO.P,U1,20*
G04 #@! TO.N,/P17*
X216680000Y-103008000D03*
G04 #@! TO.P,U1,19*
G04 #@! TO.N,/MAX30003_INT*
X216680000Y-103408000D03*
G04 #@! TO.P,U1,18*
G04 #@! TO.N,/MAX30003_INT2*
X216680000Y-103808000D03*
G04 #@! TO.P,U1,17*
G04 #@! TO.N,/MAX30003_SDO*
X216680000Y-104208000D03*
G04 #@! TO.P,U1,16*
G04 #@! TO.N,/MAX30003_SDI*
X216680000Y-104608000D03*
G04 #@! TO.P,U1,15*
G04 #@! TO.N,/MAX30003_SCLK*
X216680000Y-105008000D03*
G04 #@! TO.P,U1,14*
G04 #@! TO.N,/MAX30003_CSB*
X216680000Y-105408000D03*
G04 #@! TO.P,U1,13*
G04 #@! TO.N,/DVDD*
X216680000Y-105808000D03*
D23*
G04 #@! TO.P,U1,12*
G04 #@! TO.N,/P10*
X215880000Y-106608000D03*
G04 #@! TO.P,U1,11*
G04 #@! TO.N,/P09*
X215480000Y-106608000D03*
G04 #@! TO.P,U1,10*
G04 #@! TO.N,/P08*
X215080000Y-106608000D03*
G04 #@! TO.P,U1,9*
G04 #@! TO.N,/P07*
X214680000Y-106608000D03*
G04 #@! TO.P,U1,8*
G04 #@! TO.N,/P06*
X214280000Y-106608000D03*
G04 #@! TO.P,U1,7*
G04 #@! TO.N,/P05*
X213880000Y-106608000D03*
G04 #@! TO.P,U1,6*
G04 #@! TO.N,/AIN_BAT_DIV_VOLTAGE*
X213480000Y-106608000D03*
G04 #@! TO.P,U1,5*
G04 #@! TO.N,/LOAD_SW_CTRL*
X213080000Y-106608000D03*
G04 #@! TO.P,U1,4*
G04 #@! TO.N,/P02*
X212680000Y-106608000D03*
G04 #@! TO.P,U1,3*
G04 #@! TO.N,Net-(C11-Pad1)*
X212280000Y-106608000D03*
G04 #@! TO.P,U1,2*
G04 #@! TO.N,Net-(C9-Pad1)*
X211880000Y-106608000D03*
G04 #@! TO.P,U1,1*
G04 #@! TO.N,/DEC1*
X211480000Y-106608000D03*
G04 #@! TD*
D24*
G04 #@! TO.N,DGND*
X214720000Y-104798000D03*
X212660000Y-98458000D03*
X207730000Y-109730000D03*
X216710000Y-96910000D03*
X220590000Y-109930000D03*
G04 #@! TO.N,/DVDD*
X210605000Y-99058000D03*
X210770000Y-100750000D03*
X210540000Y-106598000D03*
X216800000Y-106720000D03*
G04 #@! TD*
D25*
G04 #@! TO.N,Net-(A1-Pad1)*
X207830420Y-97308000D02*
X206652000Y-97308000D01*
X206652000Y-97308000D02*
X206625000Y-97281000D01*
D26*
G04 #@! TO.N,DGND*
X211789580Y-98408000D02*
X211609580Y-98228000D01*
X210680840Y-98198420D02*
X210640000Y-98157580D01*
X211720000Y-98198420D02*
X210680840Y-98198420D01*
D27*
X209880000Y-98157580D02*
X210640000Y-98157580D01*
X210640000Y-98157580D02*
X210710420Y-98228000D01*
X209030420Y-98407580D02*
X209280420Y-98157580D01*
D26*
X213517500Y-98108000D02*
X214206500Y-98108000D01*
D27*
X209280420Y-98157580D02*
X209880000Y-98157580D01*
X209030420Y-99058000D02*
X209030420Y-98407580D01*
D26*
X209230000Y-103657580D02*
X209479580Y-103657580D01*
X213123750Y-104164250D02*
X214236250Y-104164250D01*
X215348750Y-105276750D02*
X214236250Y-105276750D01*
X212011250Y-101939250D02*
X213123750Y-101939250D01*
X211567500Y-104608000D02*
X212011250Y-104164250D01*
X213480000Y-100608000D02*
X213480000Y-101583000D01*
X213480000Y-101583000D02*
X213123750Y-101939250D01*
X214236250Y-101939250D02*
X214236250Y-103051750D01*
X213480000Y-99308000D02*
X213230000Y-99058000D01*
X213123750Y-105276750D02*
X212011250Y-105276750D01*
X214236250Y-103051750D02*
X213123750Y-103051750D01*
X213123750Y-103051750D02*
X212011250Y-103051750D01*
X212011250Y-103051750D02*
X212011250Y-104164250D01*
X212011250Y-104164250D02*
X213123750Y-104164250D01*
X206830000Y-102608000D02*
X206080420Y-102608000D01*
X213480000Y-100608000D02*
X213480000Y-99308000D01*
X215348750Y-104164250D02*
X215348750Y-105276750D01*
X214236250Y-104164250D02*
X215348750Y-104164250D01*
D28*
X208330420Y-103657580D02*
X208230000Y-103758000D01*
D26*
X213230000Y-99058000D02*
X213230000Y-98108000D01*
X213123750Y-101939250D02*
X214236250Y-101939250D01*
X206080420Y-102608000D02*
X205830000Y-102858420D01*
X215348750Y-101939250D02*
X215348750Y-103051750D01*
X214236250Y-101939250D02*
X215348750Y-101939250D01*
X210680000Y-104608000D02*
X211567500Y-104608000D01*
X214236250Y-105276750D02*
X213123750Y-105276750D01*
X212780000Y-98108000D02*
X213517500Y-98108000D01*
X212660000Y-98458000D02*
X211890420Y-98028000D01*
X211890420Y-98028000D02*
X211720000Y-98198420D01*
D28*
X212780000Y-98338000D02*
X212660000Y-98458000D01*
X212780000Y-98108000D02*
X212780000Y-98338000D01*
D29*
X208280420Y-103657580D02*
X208230000Y-103708000D01*
X209230000Y-103657580D02*
X208280420Y-103657580D01*
D28*
X208068518Y-103708000D02*
X208230000Y-103708000D01*
X206968518Y-102608000D02*
X208068518Y-103708000D01*
X206830000Y-102608000D02*
X206968518Y-102608000D01*
X210127600Y-104608000D02*
X210680000Y-104608000D01*
X209750000Y-104608000D02*
X210127600Y-104608000D01*
X209230000Y-104088000D02*
X209750000Y-104608000D01*
X209230000Y-103693000D02*
X209230000Y-104088000D01*
D29*
X208230000Y-105010000D02*
X207700000Y-105540000D01*
X208230000Y-103708000D02*
X208230000Y-105010000D01*
X210510000Y-108760000D02*
X209570000Y-109700000D01*
X210510000Y-108730000D02*
X210510000Y-108760000D01*
D27*
X219892000Y-109930000D02*
X217870000Y-107908000D01*
X220590000Y-109930000D02*
X219892000Y-109930000D01*
D30*
G04 #@! TO.N,Net-(F1-Pad2)*
X213880000Y-98708000D02*
X213880000Y-100608000D01*
D27*
G04 #@! TO.N,/RF*
X211929580Y-97308000D02*
X213680000Y-97308000D01*
X213680000Y-97308000D02*
X213880000Y-97508000D01*
D29*
G04 #@! TO.N,Net-(L1-Pad1)*
X209966510Y-105564288D02*
X210122798Y-105408000D01*
X209966510Y-106298490D02*
X209966510Y-105564288D01*
X209240000Y-107025000D02*
X209966510Y-106298490D01*
X210122798Y-105408000D02*
X210478489Y-105408000D01*
G04 #@! TO.N,Net-(L1-Pad2)*
X208880000Y-108240000D02*
X209240000Y-108600000D01*
X207720000Y-108240000D02*
X208880000Y-108240000D01*
D28*
G04 #@! TO.N,Net-(C1-Pad1)*
X209807000Y-105008000D02*
X209275000Y-105540000D01*
X210680000Y-105008000D02*
X209807000Y-105008000D01*
D29*
X207720000Y-106767500D02*
X207720000Y-107340840D01*
X209257500Y-105230000D02*
X207720000Y-106767500D01*
G04 #@! TO.N,/DEC1*
X211480000Y-106908000D02*
X211480000Y-106608000D01*
X211480000Y-108760000D02*
X210540000Y-109700000D01*
X211480000Y-106608000D02*
X211480000Y-108760000D01*
G04 #@! TO.N,/LOAD_SW_CTRL*
X207420000Y-120139708D02*
X207420000Y-123190000D01*
X213771218Y-113748490D02*
X207420000Y-120139708D01*
X213771219Y-109375405D02*
X213771218Y-113748490D01*
X213080000Y-106608000D02*
X213080000Y-108684184D01*
X213080000Y-108684184D02*
X213771219Y-109375405D01*
G04 #@! TO.N,/AIN_BAT_DIV_VOLTAGE*
X213480000Y-106608000D02*
X213480000Y-108581277D01*
X214126828Y-109228108D02*
X214126828Y-113953172D01*
X213480000Y-108581277D02*
X214126828Y-109228108D01*
X209960000Y-118120000D02*
X209960000Y-123190000D01*
X214126828Y-113953172D02*
X209960000Y-118120000D01*
G04 #@! TO.N,/P10*
X215880000Y-106608000D02*
X215880000Y-107957092D01*
X215880000Y-107957092D02*
X223015609Y-115092701D01*
X225200000Y-117310000D02*
X225200000Y-123190000D01*
X223015609Y-115092701D02*
X225200000Y-117310000D01*
G04 #@! TO.N,/P17*
X223000000Y-107950000D02*
X228854000Y-107950000D01*
X216680000Y-103008000D02*
X218058000Y-103008000D01*
X218058000Y-103008000D02*
X223000000Y-107950000D01*
G04 #@! TO.N,/SWDCLK*
X222262000Y-100608000D02*
X225060000Y-97810000D01*
X215880000Y-100608000D02*
X222262000Y-100608000D01*
G04 #@! TO.N,/SWDIO*
X221466800Y-97810000D02*
X222520000Y-97810000D01*
X217674800Y-97810000D02*
X221466800Y-97810000D01*
X215480000Y-100004800D02*
X217674800Y-97810000D01*
X215480000Y-100608000D02*
X215480000Y-100004800D01*
D26*
G04 #@! TO.N,/DEC3*
X212319580Y-99097580D02*
X211720000Y-99097580D01*
X212680000Y-99458000D02*
X212319580Y-99097580D01*
X212680000Y-100608000D02*
X212680000Y-99458000D01*
G04 #@! TO.N,Net-(C6-Pad2)*
X206830000Y-103708000D02*
X206980000Y-103708000D01*
X205830000Y-103757580D02*
X206780420Y-103757580D01*
X206780420Y-103757580D02*
X206830000Y-103708000D01*
X211275598Y-99653598D02*
X210880000Y-99648000D01*
X212280000Y-100608000D02*
X212280000Y-99938490D01*
X212280000Y-99938490D02*
X211995108Y-99653598D01*
X211995108Y-99653598D02*
X211275598Y-99653598D01*
X210880000Y-99648000D02*
X209770000Y-99658000D01*
D28*
X209770000Y-99658000D02*
X209152000Y-99658000D01*
X209152000Y-99658000D02*
X208620000Y-100190000D01*
X208620000Y-100190000D02*
X208620000Y-101790000D01*
X208620000Y-101790000D02*
X208470000Y-101940000D01*
X205495832Y-103458832D02*
X205830000Y-103793000D01*
X205281390Y-103244390D02*
X205495832Y-103458832D01*
X205281390Y-102519710D02*
X205281390Y-103244390D01*
X205861100Y-101940000D02*
X205281390Y-102519710D01*
X208470000Y-101940000D02*
X205861100Y-101940000D01*
D29*
G04 #@! TO.N,Net-(C8-Pad2)*
X208380420Y-102758420D02*
X208230000Y-102608000D01*
X209230000Y-102758420D02*
X208380420Y-102758420D01*
D28*
X208924810Y-100316256D02*
X209278256Y-99962810D01*
X211787210Y-99962810D02*
X209278256Y-99962810D01*
X211880000Y-100055600D02*
X211787210Y-99962810D01*
X211880000Y-100608000D02*
X211880000Y-100055600D01*
X208280000Y-102608000D02*
X208230000Y-102608000D01*
X208924809Y-101963191D02*
X208280000Y-102608000D01*
X208924810Y-100316256D02*
X208924809Y-101963191D01*
D25*
G04 #@! TO.N,Net-(C10-Pad2)*
X209880000Y-97307580D02*
X208730000Y-97307580D01*
X208730000Y-97307580D02*
X208729580Y-97308000D01*
X209880420Y-97308000D02*
X209880000Y-97307580D01*
X211030420Y-97308000D02*
X209880420Y-97308000D01*
D29*
G04 #@! TO.N,/P09*
X215480000Y-106608000D02*
X215480000Y-108060000D01*
X219770000Y-112350000D02*
X219770000Y-112377092D01*
X215480000Y-108060000D02*
X219770000Y-112350000D01*
X222660000Y-115267092D02*
X222660000Y-123190000D01*
X219770000Y-112377092D02*
X222660000Y-115267092D01*
G04 #@! TO.N,Net-(C11-Pad1)*
X212230000Y-111640000D02*
X211980000Y-111640000D01*
X213060000Y-110810000D02*
X212230000Y-111640000D01*
X213060000Y-109670000D02*
X213060000Y-110810000D01*
X212280000Y-108890000D02*
X213060000Y-109670000D01*
X212280000Y-106608000D02*
X212280000Y-108890000D01*
X210670000Y-111640000D02*
X210540000Y-111770000D01*
X211980000Y-111640000D02*
X210670000Y-111640000D01*
G04 #@! TO.N,Net-(C9-Pad1)*
X211880000Y-110140000D02*
X211980000Y-110240000D01*
X211880000Y-106608000D02*
X211880000Y-110140000D01*
X211040000Y-110240000D02*
X210540000Y-110740000D01*
X211980000Y-110240000D02*
X211040000Y-110240000D01*
G04 #@! TO.N,/P02*
X204880000Y-122136800D02*
X204880000Y-123190000D01*
X213415609Y-113601191D02*
X204880000Y-122136800D01*
X213415610Y-109522702D02*
X213415609Y-113601191D01*
X212680000Y-106608000D02*
X212680000Y-108787092D01*
X212680000Y-108787092D02*
X213415610Y-109522702D01*
G04 #@! TO.N,/P05*
X213880000Y-108478371D02*
X214490000Y-109088371D01*
X213880000Y-106608000D02*
X213880000Y-108478371D01*
X214490000Y-111570000D02*
X214482438Y-111577562D01*
X214490000Y-109088371D02*
X214490000Y-111570000D01*
X214482438Y-111577562D02*
X214482437Y-114100471D01*
X212500000Y-116082908D02*
X212500000Y-123190000D01*
X214482437Y-114100471D02*
X212500000Y-116082908D01*
G04 #@! TO.N,/P06*
X214280000Y-108375463D02*
X214845610Y-108941073D01*
X214280000Y-106608000D02*
X214280000Y-108375463D01*
X214845610Y-108941073D02*
X214845610Y-111784390D01*
X214845610Y-111784390D02*
X214838047Y-111791953D01*
X215040000Y-122300000D02*
X215040000Y-123190000D01*
X214838047Y-111791953D02*
X214838047Y-122098047D01*
X214838047Y-122098047D02*
X215040000Y-122300000D01*
G04 #@! TO.N,/P07*
X214680000Y-108272555D02*
X215201220Y-108793775D01*
X214680000Y-106608000D02*
X214680000Y-108272555D01*
X215201220Y-108793775D02*
X215201220Y-108801220D01*
X217580000Y-111180000D02*
X217580000Y-123190000D01*
X215201220Y-108801220D02*
X217580000Y-111180000D01*
G04 #@! TO.N,/P08*
X215080000Y-106608000D02*
X215080000Y-108169647D01*
X215570000Y-108667092D02*
X217935610Y-111032702D01*
X215080000Y-108169647D02*
X215570000Y-108659647D01*
X215570000Y-108659647D02*
X215570000Y-108667092D01*
X217935610Y-111032702D02*
X217935610Y-111045610D01*
X220120000Y-113230000D02*
X220120000Y-123190000D01*
X217935610Y-111045610D02*
X220120000Y-113230000D01*
D26*
G04 #@! TO.N,/DVDD*
X209929580Y-99058000D02*
X210460000Y-99058000D01*
D30*
X210605000Y-99058000D02*
X209929580Y-99058000D01*
D28*
X217870000Y-106698000D02*
X217870000Y-106938000D01*
D26*
X210520000Y-100598000D02*
X211055000Y-100608000D01*
X211055000Y-100608000D02*
X211480000Y-100608000D01*
D28*
X210680000Y-106458000D02*
X210540000Y-106598000D01*
D27*
X210540000Y-106598000D02*
X210540000Y-106029001D01*
D29*
X210540000Y-107455000D02*
X210560000Y-107475000D01*
X210540000Y-106598000D02*
X210540000Y-107455000D01*
X210540000Y-105948000D02*
X210680000Y-105808000D01*
X210540000Y-106029001D02*
X210540000Y-105948000D01*
X217018000Y-106938000D02*
X216800000Y-106720000D01*
X217870000Y-106938000D02*
X217018000Y-106938000D01*
X216680000Y-106600000D02*
X216800000Y-106720000D01*
X216680000Y-105808000D02*
X216680000Y-106600000D01*
G04 #@! TO.N,/MAX30003_INT*
X228854000Y-110490000D02*
X225032908Y-110490000D01*
X217950908Y-103408000D02*
X216680000Y-103408000D01*
X225032908Y-110490000D02*
X217950908Y-103408000D01*
G04 #@! TO.N,/MAX30003_INT2*
X217327590Y-103852390D02*
X217892390Y-103852390D01*
X216680000Y-103808000D02*
X217283200Y-103808000D01*
X217283200Y-103808000D02*
X217327590Y-103852390D01*
X227070000Y-113030000D02*
X228854000Y-113030000D01*
X217892390Y-103852390D02*
X227070000Y-113030000D01*
G04 #@! TO.N,/MAX30003_SDO*
X228854000Y-115570000D02*
X227651919Y-115570000D01*
X217283200Y-104208000D02*
X216680000Y-104208000D01*
X217722646Y-104208000D02*
X217283200Y-104208000D01*
X227651919Y-114137273D02*
X217722646Y-104208000D01*
X227651919Y-115570000D02*
X227651919Y-114137273D01*
G04 #@! TO.N,/MAX30003_SDI*
X217283200Y-104608000D02*
X217285200Y-104610000D01*
X226920000Y-118110000D02*
X228854000Y-118110000D01*
X216680000Y-104608000D02*
X217283200Y-104608000D01*
X217621738Y-104610000D02*
X226305610Y-113293872D01*
X226305610Y-113293872D02*
X226305610Y-117495610D01*
X217285200Y-104610000D02*
X217621738Y-104610000D01*
X226305610Y-117495610D02*
X226920000Y-118110000D01*
G04 #@! TO.N,/MAX30003_SCLK*
X226940000Y-120650000D02*
X228854000Y-120650000D01*
X225950000Y-119660000D02*
X226940000Y-120650000D01*
X225950000Y-113441170D02*
X225950000Y-119660000D01*
X216680000Y-105008000D02*
X217516830Y-105008000D01*
X217516830Y-105008000D02*
X225950000Y-113441170D01*
G04 #@! TO.N,/MAX30003_CSB*
X217283200Y-105408000D02*
X216680000Y-105408000D01*
X217413922Y-105408000D02*
X217283200Y-105408000D01*
X225555610Y-113549688D02*
X217413922Y-105408000D01*
X225555610Y-120944810D02*
X225555610Y-113549688D01*
X227800800Y-123190000D02*
X225555610Y-120944810D01*
X228854000Y-123190000D02*
X227800800Y-123190000D01*
G04 #@! TO.N,/BMI_INT2*
X217327590Y-102652390D02*
X218212390Y-102652390D01*
X216680000Y-102608000D02*
X217283200Y-102608000D01*
X217283200Y-102608000D02*
X217327590Y-102652390D01*
X220970000Y-105410000D02*
X228854000Y-105410000D01*
X218212390Y-102652390D02*
X220970000Y-105410000D01*
G04 #@! TO.N,/BMI_INT1*
X218932908Y-102870000D02*
X228854000Y-102870000D01*
X216680000Y-102208000D02*
X218270908Y-102208000D01*
X218270908Y-102208000D02*
X218932908Y-102870000D01*
G04 #@! TO.N,/BMI_SDA*
X227376000Y-101808000D02*
X228854000Y-100330000D01*
X216680000Y-101808000D02*
X227376000Y-101808000D01*
G04 #@! TO.N,/BMI_SCL*
X225234000Y-101410000D02*
X228854000Y-97790000D01*
X216982000Y-101410000D02*
X225234000Y-101410000D01*
X216680000Y-101408000D02*
X216980000Y-101408000D01*
X216980000Y-101408000D02*
X216982000Y-101410000D01*
G04 #@! TD*
D31*
G04 #@! TO.N,DGND*
G36*
X230761001Y-124541000D02*
X230438433Y-124541000D01*
X230541419Y-124386870D01*
X230610416Y-124040000D01*
X230610416Y-122340000D01*
X230541419Y-121993130D01*
X230344933Y-121699067D01*
X230275508Y-121652679D01*
X230492102Y-121328524D01*
X230627069Y-120650000D01*
X230492102Y-119971476D01*
X230107749Y-119396251D01*
X230083428Y-119380000D01*
X230107749Y-119363749D01*
X230492102Y-118788524D01*
X230627069Y-118110000D01*
X230492102Y-117431476D01*
X230107749Y-116856251D01*
X230083428Y-116840000D01*
X230107749Y-116823749D01*
X230492102Y-116248524D01*
X230627069Y-115570000D01*
X230492102Y-114891476D01*
X230107749Y-114316251D01*
X230083428Y-114300000D01*
X230107749Y-114283749D01*
X230492102Y-113708524D01*
X230627069Y-113030000D01*
X230492102Y-112351476D01*
X230107749Y-111776251D01*
X230083428Y-111760000D01*
X230107749Y-111743749D01*
X230492102Y-111168524D01*
X230627069Y-110490000D01*
X230492102Y-109811476D01*
X230107749Y-109236251D01*
X230083428Y-109220000D01*
X230107749Y-109203749D01*
X230492102Y-108628524D01*
X230627069Y-107950000D01*
X230492102Y-107271476D01*
X230107749Y-106696251D01*
X230083428Y-106680000D01*
X230107749Y-106663749D01*
X230492102Y-106088524D01*
X230627069Y-105410000D01*
X230492102Y-104731476D01*
X230107749Y-104156251D01*
X230083428Y-104140000D01*
X230107749Y-104123749D01*
X230492102Y-103548524D01*
X230627069Y-102870000D01*
X230492102Y-102191476D01*
X230107749Y-101616251D01*
X230083428Y-101600000D01*
X230107749Y-101583749D01*
X230492102Y-101008524D01*
X230627069Y-100330000D01*
X230492102Y-99651476D01*
X230107749Y-99076251D01*
X230083428Y-99060000D01*
X230107749Y-99043749D01*
X230492102Y-98468524D01*
X230627069Y-97790000D01*
X230492102Y-97111476D01*
X230107749Y-96536251D01*
X229532524Y-96151898D01*
X229025276Y-96051000D01*
X228682724Y-96051000D01*
X228175476Y-96151898D01*
X227600251Y-96536251D01*
X227215898Y-97111476D01*
X227080931Y-97790000D01*
X227142675Y-98100406D01*
X226584421Y-98658659D01*
X226698102Y-98488524D01*
X226833069Y-97810000D01*
X226698102Y-97131476D01*
X226313749Y-96556251D01*
X225738524Y-96171898D01*
X225231276Y-96071000D01*
X224888724Y-96071000D01*
X224381476Y-96171898D01*
X224057321Y-96388492D01*
X224010933Y-96319067D01*
X223716870Y-96122581D01*
X223370000Y-96053584D01*
X221670000Y-96053584D01*
X221323130Y-96122581D01*
X221029067Y-96319067D01*
X220832581Y-96613130D01*
X220791551Y-96819400D01*
X217772366Y-96819400D01*
X217674800Y-96799993D01*
X217288286Y-96876875D01*
X217130280Y-96982452D01*
X216960617Y-97095817D01*
X216905350Y-97178530D01*
X215086416Y-98997465D01*
X215086416Y-98626109D01*
X215094827Y-98617698D01*
X215191500Y-98384309D01*
X215191500Y-98341750D01*
X215040769Y-98191019D01*
X215024256Y-98108000D01*
X215040769Y-98024981D01*
X215191500Y-97874250D01*
X215191500Y-97831691D01*
X215094827Y-97598302D01*
X215086416Y-97589891D01*
X215086416Y-97195500D01*
X215017419Y-96848630D01*
X214820933Y-96554567D01*
X214526870Y-96358081D01*
X214180000Y-96289084D01*
X214166711Y-96289084D01*
X214116066Y-96255244D01*
X213790073Y-96190400D01*
X213680000Y-96168505D01*
X213569927Y-96190400D01*
X212558606Y-96190400D01*
X212515816Y-96161809D01*
X212112500Y-96081584D01*
X211817500Y-96081584D01*
X211480000Y-96148717D01*
X211142500Y-96081584D01*
X210847500Y-96081584D01*
X210522344Y-96146262D01*
X210455816Y-96101809D01*
X210052500Y-96021584D01*
X209707500Y-96021584D01*
X209304184Y-96101809D01*
X209237656Y-96146262D01*
X208912500Y-96081584D01*
X208617500Y-96081584D01*
X208515448Y-96101883D01*
X208515588Y-96009000D01*
X230761000Y-96009000D01*
X230761001Y-124541000D01*
X230761001Y-124541000D01*
G37*
X230761001Y-124541000D02*
X230438433Y-124541000D01*
X230541419Y-124386870D01*
X230610416Y-124040000D01*
X230610416Y-122340000D01*
X230541419Y-121993130D01*
X230344933Y-121699067D01*
X230275508Y-121652679D01*
X230492102Y-121328524D01*
X230627069Y-120650000D01*
X230492102Y-119971476D01*
X230107749Y-119396251D01*
X230083428Y-119380000D01*
X230107749Y-119363749D01*
X230492102Y-118788524D01*
X230627069Y-118110000D01*
X230492102Y-117431476D01*
X230107749Y-116856251D01*
X230083428Y-116840000D01*
X230107749Y-116823749D01*
X230492102Y-116248524D01*
X230627069Y-115570000D01*
X230492102Y-114891476D01*
X230107749Y-114316251D01*
X230083428Y-114300000D01*
X230107749Y-114283749D01*
X230492102Y-113708524D01*
X230627069Y-113030000D01*
X230492102Y-112351476D01*
X230107749Y-111776251D01*
X230083428Y-111760000D01*
X230107749Y-111743749D01*
X230492102Y-111168524D01*
X230627069Y-110490000D01*
X230492102Y-109811476D01*
X230107749Y-109236251D01*
X230083428Y-109220000D01*
X230107749Y-109203749D01*
X230492102Y-108628524D01*
X230627069Y-107950000D01*
X230492102Y-107271476D01*
X230107749Y-106696251D01*
X230083428Y-106680000D01*
X230107749Y-106663749D01*
X230492102Y-106088524D01*
X230627069Y-105410000D01*
X230492102Y-104731476D01*
X230107749Y-104156251D01*
X230083428Y-104140000D01*
X230107749Y-104123749D01*
X230492102Y-103548524D01*
X230627069Y-102870000D01*
X230492102Y-102191476D01*
X230107749Y-101616251D01*
X230083428Y-101600000D01*
X230107749Y-101583749D01*
X230492102Y-101008524D01*
X230627069Y-100330000D01*
X230492102Y-99651476D01*
X230107749Y-99076251D01*
X230083428Y-99060000D01*
X230107749Y-99043749D01*
X230492102Y-98468524D01*
X230627069Y-97790000D01*
X230492102Y-97111476D01*
X230107749Y-96536251D01*
X229532524Y-96151898D01*
X229025276Y-96051000D01*
X228682724Y-96051000D01*
X228175476Y-96151898D01*
X227600251Y-96536251D01*
X227215898Y-97111476D01*
X227080931Y-97790000D01*
X227142675Y-98100406D01*
X226584421Y-98658659D01*
X226698102Y-98488524D01*
X226833069Y-97810000D01*
X226698102Y-97131476D01*
X226313749Y-96556251D01*
X225738524Y-96171898D01*
X225231276Y-96071000D01*
X224888724Y-96071000D01*
X224381476Y-96171898D01*
X224057321Y-96388492D01*
X224010933Y-96319067D01*
X223716870Y-96122581D01*
X223370000Y-96053584D01*
X221670000Y-96053584D01*
X221323130Y-96122581D01*
X221029067Y-96319067D01*
X220832581Y-96613130D01*
X220791551Y-96819400D01*
X217772366Y-96819400D01*
X217674800Y-96799993D01*
X217288286Y-96876875D01*
X217130280Y-96982452D01*
X216960617Y-97095817D01*
X216905350Y-97178530D01*
X215086416Y-98997465D01*
X215086416Y-98626109D01*
X215094827Y-98617698D01*
X215191500Y-98384309D01*
X215191500Y-98341750D01*
X215040769Y-98191019D01*
X215024256Y-98108000D01*
X215040769Y-98024981D01*
X215191500Y-97874250D01*
X215191500Y-97831691D01*
X215094827Y-97598302D01*
X215086416Y-97589891D01*
X215086416Y-97195500D01*
X215017419Y-96848630D01*
X214820933Y-96554567D01*
X214526870Y-96358081D01*
X214180000Y-96289084D01*
X214166711Y-96289084D01*
X214116066Y-96255244D01*
X213790073Y-96190400D01*
X213680000Y-96168505D01*
X213569927Y-96190400D01*
X212558606Y-96190400D01*
X212515816Y-96161809D01*
X212112500Y-96081584D01*
X211817500Y-96081584D01*
X211480000Y-96148717D01*
X211142500Y-96081584D01*
X210847500Y-96081584D01*
X210522344Y-96146262D01*
X210455816Y-96101809D01*
X210052500Y-96021584D01*
X209707500Y-96021584D01*
X209304184Y-96101809D01*
X209237656Y-96146262D01*
X208912500Y-96081584D01*
X208617500Y-96081584D01*
X208515448Y-96101883D01*
X208515588Y-96009000D01*
X230761000Y-96009000D01*
X230761001Y-124541000D01*
G36*
X204556730Y-101866927D02*
X204372192Y-102143109D01*
X204316190Y-102424649D01*
X204316190Y-102424653D01*
X204297282Y-102519710D01*
X204316190Y-102614767D01*
X204316190Y-103149333D01*
X204297282Y-103244390D01*
X204316190Y-103339447D01*
X204316190Y-103339452D01*
X204371876Y-103619400D01*
X204372193Y-103620992D01*
X204521330Y-103844191D01*
X204585521Y-103940260D01*
X204606298Y-103954143D01*
X204683809Y-104343816D01*
X204912269Y-104685731D01*
X205254184Y-104914191D01*
X205657500Y-104994416D01*
X206002500Y-104994416D01*
X206140977Y-104966871D01*
X206380000Y-105014416D01*
X206680166Y-105014416D01*
X206768750Y-105103000D01*
X207555500Y-105103000D01*
X207555500Y-105083000D01*
X207809500Y-105083000D01*
X207809500Y-105103000D01*
X207829500Y-105103000D01*
X207829500Y-105257080D01*
X207709581Y-105377000D01*
X207555500Y-105377000D01*
X207555500Y-105357000D01*
X206768750Y-105357000D01*
X206610000Y-105515750D01*
X206610000Y-105831310D01*
X206706673Y-106064699D01*
X206881438Y-106239463D01*
X206786875Y-106380988D01*
X206756212Y-106535141D01*
X206582861Y-106794580D01*
X206513864Y-107141450D01*
X206513864Y-107540230D01*
X206563630Y-107790420D01*
X206513864Y-108040610D01*
X206513864Y-108439390D01*
X206582861Y-108786260D01*
X206779347Y-109080323D01*
X207073410Y-109276809D01*
X207420280Y-109345806D01*
X208019720Y-109345806D01*
X208200180Y-109309910D01*
X208553168Y-109545768D01*
X208983750Y-109631416D01*
X209338584Y-109631416D01*
X209338584Y-109827000D01*
X209326250Y-109827000D01*
X209284250Y-109785000D01*
X209148691Y-109785000D01*
X209047294Y-109827000D01*
X208798750Y-109827000D01*
X208640000Y-109985750D01*
X208640000Y-110146310D01*
X208670523Y-110220000D01*
X208640000Y-110293690D01*
X208640000Y-110454250D01*
X208798750Y-110613000D01*
X209047294Y-110613000D01*
X209148691Y-110655000D01*
X209284250Y-110655000D01*
X209326250Y-110613000D01*
X209338584Y-110613000D01*
X209338584Y-110867000D01*
X209336250Y-110867000D01*
X209284250Y-110815000D01*
X209148691Y-110815000D01*
X209023152Y-110867000D01*
X208798750Y-110867000D01*
X208640000Y-111025750D01*
X208640000Y-111186310D01*
X208668452Y-111255000D01*
X208640000Y-111323690D01*
X208640000Y-111484250D01*
X208798750Y-111643000D01*
X209023152Y-111643000D01*
X209148691Y-111695000D01*
X209284250Y-111695000D01*
X209336250Y-111643000D01*
X209338584Y-111643000D01*
X209338584Y-111897000D01*
X208798750Y-111897000D01*
X208640000Y-112055750D01*
X208640000Y-112216310D01*
X208736673Y-112449699D01*
X208915302Y-112628327D01*
X209148691Y-112725000D01*
X209284250Y-112725000D01*
X209443000Y-112566250D01*
X209443000Y-112382020D01*
X209647269Y-112687731D01*
X209989184Y-112916191D01*
X210392500Y-112996416D01*
X210687500Y-112996416D01*
X211090816Y-112916191D01*
X211249096Y-112810432D01*
X211430000Y-112846416D01*
X212425009Y-112846416D01*
X212425009Y-113190871D01*
X206626416Y-118989465D01*
X206626416Y-118610000D01*
X206557419Y-118263130D01*
X206360933Y-117969067D01*
X206066870Y-117772581D01*
X206064087Y-117772027D01*
X206141645Y-117686924D01*
X206311476Y-117276890D01*
X206190155Y-117047000D01*
X204997000Y-117047000D01*
X204997000Y-117067000D01*
X204743000Y-117067000D01*
X204743000Y-117047000D01*
X203549845Y-117047000D01*
X203428524Y-117276890D01*
X203598355Y-117686924D01*
X203675913Y-117772027D01*
X203673130Y-117772581D01*
X203379067Y-117969067D01*
X203182581Y-118263130D01*
X203113584Y-118610000D01*
X203113584Y-120310000D01*
X203182581Y-120656870D01*
X203379067Y-120950933D01*
X203673130Y-121147419D01*
X204020000Y-121216416D01*
X204399465Y-121216416D01*
X204248533Y-121367348D01*
X204165817Y-121422617D01*
X204158489Y-121433584D01*
X204030000Y-121433584D01*
X203683130Y-121502581D01*
X203389067Y-121699067D01*
X203192581Y-121993130D01*
X203123584Y-122340000D01*
X203123584Y-124040000D01*
X203192581Y-124386870D01*
X203295567Y-124541000D01*
X202679000Y-124541000D01*
X202679000Y-111840000D01*
X203096931Y-111840000D01*
X203231898Y-112518524D01*
X203616251Y-113093749D01*
X203640572Y-113110000D01*
X203616251Y-113126251D01*
X203231898Y-113701476D01*
X203096931Y-114380000D01*
X203231898Y-115058524D01*
X203616251Y-115633749D01*
X203899286Y-115822867D01*
X203598355Y-116153076D01*
X203428524Y-116563110D01*
X203549845Y-116793000D01*
X204743000Y-116793000D01*
X204743000Y-116773000D01*
X204997000Y-116773000D01*
X204997000Y-116793000D01*
X206190155Y-116793000D01*
X206311476Y-116563110D01*
X206141645Y-116153076D01*
X205840714Y-115822867D01*
X206123749Y-115633749D01*
X206508102Y-115058524D01*
X206643069Y-114380000D01*
X206508102Y-113701476D01*
X206123749Y-113126251D01*
X206099428Y-113110000D01*
X206123749Y-113093749D01*
X206508102Y-112518524D01*
X206643069Y-111840000D01*
X206508102Y-111161476D01*
X206123749Y-110586251D01*
X205548524Y-110201898D01*
X205041276Y-110101000D01*
X204698724Y-110101000D01*
X204191476Y-110201898D01*
X203616251Y-110586251D01*
X203231898Y-111161476D01*
X203096931Y-111840000D01*
X202679000Y-111840000D01*
X202679000Y-101846767D01*
X204556730Y-101866927D01*
X204556730Y-101866927D01*
G37*
X204556730Y-101866927D02*
X204372192Y-102143109D01*
X204316190Y-102424649D01*
X204316190Y-102424653D01*
X204297282Y-102519710D01*
X204316190Y-102614767D01*
X204316190Y-103149333D01*
X204297282Y-103244390D01*
X204316190Y-103339447D01*
X204316190Y-103339452D01*
X204371876Y-103619400D01*
X204372193Y-103620992D01*
X204521330Y-103844191D01*
X204585521Y-103940260D01*
X204606298Y-103954143D01*
X204683809Y-104343816D01*
X204912269Y-104685731D01*
X205254184Y-104914191D01*
X205657500Y-104994416D01*
X206002500Y-104994416D01*
X206140977Y-104966871D01*
X206380000Y-105014416D01*
X206680166Y-105014416D01*
X206768750Y-105103000D01*
X207555500Y-105103000D01*
X207555500Y-105083000D01*
X207809500Y-105083000D01*
X207809500Y-105103000D01*
X207829500Y-105103000D01*
X207829500Y-105257080D01*
X207709581Y-105377000D01*
X207555500Y-105377000D01*
X207555500Y-105357000D01*
X206768750Y-105357000D01*
X206610000Y-105515750D01*
X206610000Y-105831310D01*
X206706673Y-106064699D01*
X206881438Y-106239463D01*
X206786875Y-106380988D01*
X206756212Y-106535141D01*
X206582861Y-106794580D01*
X206513864Y-107141450D01*
X206513864Y-107540230D01*
X206563630Y-107790420D01*
X206513864Y-108040610D01*
X206513864Y-108439390D01*
X206582861Y-108786260D01*
X206779347Y-109080323D01*
X207073410Y-109276809D01*
X207420280Y-109345806D01*
X208019720Y-109345806D01*
X208200180Y-109309910D01*
X208553168Y-109545768D01*
X208983750Y-109631416D01*
X209338584Y-109631416D01*
X209338584Y-109827000D01*
X209326250Y-109827000D01*
X209284250Y-109785000D01*
X209148691Y-109785000D01*
X209047294Y-109827000D01*
X208798750Y-109827000D01*
X208640000Y-109985750D01*
X208640000Y-110146310D01*
X208670523Y-110220000D01*
X208640000Y-110293690D01*
X208640000Y-110454250D01*
X208798750Y-110613000D01*
X209047294Y-110613000D01*
X209148691Y-110655000D01*
X209284250Y-110655000D01*
X209326250Y-110613000D01*
X209338584Y-110613000D01*
X209338584Y-110867000D01*
X209336250Y-110867000D01*
X209284250Y-110815000D01*
X209148691Y-110815000D01*
X209023152Y-110867000D01*
X208798750Y-110867000D01*
X208640000Y-111025750D01*
X208640000Y-111186310D01*
X208668452Y-111255000D01*
X208640000Y-111323690D01*
X208640000Y-111484250D01*
X208798750Y-111643000D01*
X209023152Y-111643000D01*
X209148691Y-111695000D01*
X209284250Y-111695000D01*
X209336250Y-111643000D01*
X209338584Y-111643000D01*
X209338584Y-111897000D01*
X208798750Y-111897000D01*
X208640000Y-112055750D01*
X208640000Y-112216310D01*
X208736673Y-112449699D01*
X208915302Y-112628327D01*
X209148691Y-112725000D01*
X209284250Y-112725000D01*
X209443000Y-112566250D01*
X209443000Y-112382020D01*
X209647269Y-112687731D01*
X209989184Y-112916191D01*
X210392500Y-112996416D01*
X210687500Y-112996416D01*
X211090816Y-112916191D01*
X211249096Y-112810432D01*
X211430000Y-112846416D01*
X212425009Y-112846416D01*
X212425009Y-113190871D01*
X206626416Y-118989465D01*
X206626416Y-118610000D01*
X206557419Y-118263130D01*
X206360933Y-117969067D01*
X206066870Y-117772581D01*
X206064087Y-117772027D01*
X206141645Y-117686924D01*
X206311476Y-117276890D01*
X206190155Y-117047000D01*
X204997000Y-117047000D01*
X204997000Y-117067000D01*
X204743000Y-117067000D01*
X204743000Y-117047000D01*
X203549845Y-117047000D01*
X203428524Y-117276890D01*
X203598355Y-117686924D01*
X203675913Y-117772027D01*
X203673130Y-117772581D01*
X203379067Y-117969067D01*
X203182581Y-118263130D01*
X203113584Y-118610000D01*
X203113584Y-120310000D01*
X203182581Y-120656870D01*
X203379067Y-120950933D01*
X203673130Y-121147419D01*
X204020000Y-121216416D01*
X204399465Y-121216416D01*
X204248533Y-121367348D01*
X204165817Y-121422617D01*
X204158489Y-121433584D01*
X204030000Y-121433584D01*
X203683130Y-121502581D01*
X203389067Y-121699067D01*
X203192581Y-121993130D01*
X203123584Y-122340000D01*
X203123584Y-124040000D01*
X203192581Y-124386870D01*
X203295567Y-124541000D01*
X202679000Y-124541000D01*
X202679000Y-111840000D01*
X203096931Y-111840000D01*
X203231898Y-112518524D01*
X203616251Y-113093749D01*
X203640572Y-113110000D01*
X203616251Y-113126251D01*
X203231898Y-113701476D01*
X203096931Y-114380000D01*
X203231898Y-115058524D01*
X203616251Y-115633749D01*
X203899286Y-115822867D01*
X203598355Y-116153076D01*
X203428524Y-116563110D01*
X203549845Y-116793000D01*
X204743000Y-116793000D01*
X204743000Y-116773000D01*
X204997000Y-116773000D01*
X204997000Y-116793000D01*
X206190155Y-116793000D01*
X206311476Y-116563110D01*
X206141645Y-116153076D01*
X205840714Y-115822867D01*
X206123749Y-115633749D01*
X206508102Y-115058524D01*
X206643069Y-114380000D01*
X206508102Y-113701476D01*
X206123749Y-113126251D01*
X206099428Y-113110000D01*
X206123749Y-113093749D01*
X206508102Y-112518524D01*
X206643069Y-111840000D01*
X206508102Y-111161476D01*
X206123749Y-110586251D01*
X205548524Y-110201898D01*
X205041276Y-110101000D01*
X204698724Y-110101000D01*
X204191476Y-110201898D01*
X203616251Y-110586251D01*
X203231898Y-111161476D01*
X203096931Y-111840000D01*
X202679000Y-111840000D01*
X202679000Y-101846767D01*
X204556730Y-101866927D01*
G36*
X224565011Y-113960009D02*
X224565011Y-115253933D01*
X223787135Y-114464339D01*
X223785058Y-114461230D01*
X223718664Y-114394836D01*
X223652814Y-114327994D01*
X223649723Y-114325895D01*
X218161827Y-108838000D01*
X218316310Y-108838000D01*
X218549699Y-108741327D01*
X218728327Y-108562698D01*
X218825000Y-108329309D01*
X218825000Y-108219997D01*
X224565011Y-113960009D01*
X224565011Y-113960009D01*
G37*
X224565011Y-113960009D02*
X224565011Y-115253933D01*
X223787135Y-114464339D01*
X223785058Y-114461230D01*
X223718664Y-114394836D01*
X223652814Y-114327994D01*
X223649723Y-114325895D01*
X218161827Y-108838000D01*
X218316310Y-108838000D01*
X218549699Y-108741327D01*
X218728327Y-108562698D01*
X218825000Y-108329309D01*
X218825000Y-108219997D01*
X224565011Y-113960009D01*
G36*
X214109248Y-105315657D02*
X214080000Y-105321475D01*
X214000365Y-105305635D01*
X214109248Y-105196752D01*
X214109248Y-105315657D01*
X214109248Y-105315657D01*
G37*
X214109248Y-105315657D02*
X214080000Y-105321475D01*
X214000365Y-105305635D01*
X214109248Y-105196752D01*
X214109248Y-105315657D01*
G36*
X213359635Y-105305635D02*
X213280000Y-105321475D01*
X213250752Y-105315657D01*
X213250752Y-105196752D01*
X213359635Y-105305635D01*
X213359635Y-105305635D01*
G37*
X213359635Y-105305635D02*
X213280000Y-105321475D01*
X213250752Y-105315657D01*
X213250752Y-105196752D01*
X213359635Y-105305635D01*
G36*
X212996748Y-105301584D02*
X212980000Y-105301584D01*
X212976750Y-105302230D01*
X212976750Y-105216750D01*
X212996748Y-105196752D01*
X212996748Y-105301584D01*
X212996748Y-105301584D01*
G37*
X212996748Y-105301584D02*
X212980000Y-105301584D01*
X212976750Y-105302230D01*
X212976750Y-105216750D01*
X212996748Y-105196752D01*
X212996748Y-105301584D01*
G36*
X214383250Y-105216750D02*
X214383250Y-105302230D01*
X214380000Y-105301584D01*
X214363252Y-105301584D01*
X214363252Y-105196752D01*
X214383250Y-105216750D01*
X214383250Y-105216750D01*
G37*
X214383250Y-105216750D02*
X214383250Y-105302230D01*
X214380000Y-105301584D01*
X214363252Y-105301584D01*
X214363252Y-105196752D01*
X214383250Y-105216750D01*
G36*
X212071250Y-104311250D02*
X211985770Y-104311250D01*
X211986416Y-104308000D01*
X211986416Y-104291252D01*
X212091248Y-104291252D01*
X212071250Y-104311250D01*
X212071250Y-104311250D01*
G37*
X212071250Y-104311250D02*
X211985770Y-104311250D01*
X211986416Y-104308000D01*
X211986416Y-104291252D01*
X212091248Y-104291252D01*
X212071250Y-104311250D01*
G36*
X213203750Y-104037250D02*
X213211225Y-104037250D01*
X213250750Y-104076776D01*
X213250750Y-104084250D01*
X213330750Y-104164250D01*
X213250750Y-104244250D01*
X213250750Y-104251724D01*
X213211225Y-104291250D01*
X213203750Y-104291250D01*
X213183750Y-104311250D01*
X213063750Y-104311250D01*
X213043750Y-104291250D01*
X213036275Y-104291250D01*
X212996750Y-104251724D01*
X212996750Y-104244250D01*
X212976750Y-104224250D01*
X212976750Y-104104250D01*
X212996750Y-104084250D01*
X212996750Y-104076776D01*
X213036275Y-104037250D01*
X213043750Y-104037250D01*
X213123750Y-103957250D01*
X213203750Y-104037250D01*
X213203750Y-104037250D01*
G37*
X213203750Y-104037250D02*
X213211225Y-104037250D01*
X213250750Y-104076776D01*
X213250750Y-104084250D01*
X213330750Y-104164250D01*
X213250750Y-104244250D01*
X213250750Y-104251724D01*
X213211225Y-104291250D01*
X213203750Y-104291250D01*
X213183750Y-104311250D01*
X213063750Y-104311250D01*
X213043750Y-104291250D01*
X213036275Y-104291250D01*
X212996750Y-104251724D01*
X212996750Y-104244250D01*
X212976750Y-104224250D01*
X212976750Y-104104250D01*
X212996750Y-104084250D01*
X212996750Y-104076776D01*
X213036275Y-104037250D01*
X213043750Y-104037250D01*
X213123750Y-103957250D01*
X213203750Y-104037250D01*
G36*
X214316250Y-104037250D02*
X214323725Y-104037250D01*
X214363250Y-104076776D01*
X214363250Y-104084250D01*
X214383250Y-104104250D01*
X214383250Y-104224250D01*
X214363250Y-104244250D01*
X214363250Y-104251724D01*
X214323725Y-104291250D01*
X214316250Y-104291250D01*
X214296250Y-104311250D01*
X214176250Y-104311250D01*
X214156250Y-104291250D01*
X214148775Y-104291250D01*
X214109250Y-104251724D01*
X214109250Y-104244250D01*
X214029250Y-104164250D01*
X214109250Y-104084250D01*
X214109250Y-104076776D01*
X214148775Y-104037250D01*
X214156250Y-104037250D01*
X214236250Y-103957250D01*
X214316250Y-104037250D01*
X214316250Y-104037250D01*
G37*
X214316250Y-104037250D02*
X214323725Y-104037250D01*
X214363250Y-104076776D01*
X214363250Y-104084250D01*
X214383250Y-104104250D01*
X214383250Y-104224250D01*
X214363250Y-104244250D01*
X214363250Y-104251724D01*
X214323725Y-104291250D01*
X214316250Y-104291250D01*
X214296250Y-104311250D01*
X214176250Y-104311250D01*
X214156250Y-104291250D01*
X214148775Y-104291250D01*
X214109250Y-104251724D01*
X214109250Y-104244250D01*
X214029250Y-104164250D01*
X214109250Y-104084250D01*
X214109250Y-104076776D01*
X214148775Y-104037250D01*
X214156250Y-104037250D01*
X214236250Y-103957250D01*
X214316250Y-104037250D01*
G36*
X215373584Y-104308000D02*
X215374230Y-104311250D01*
X215288750Y-104311250D01*
X215268752Y-104291252D01*
X215373584Y-104291252D01*
X215373584Y-104308000D01*
X215373584Y-104308000D01*
G37*
X215373584Y-104308000D02*
X215374230Y-104311250D01*
X215288750Y-104311250D01*
X215268752Y-104291252D01*
X215373584Y-104291252D01*
X215373584Y-104308000D01*
G36*
X212091248Y-104037248D02*
X211972343Y-104037248D01*
X211966525Y-104008000D01*
X211982365Y-103928365D01*
X212091248Y-104037248D01*
X212091248Y-104037248D01*
G37*
X212091248Y-104037248D02*
X211972343Y-104037248D01*
X211966525Y-104008000D01*
X211982365Y-103928365D01*
X212091248Y-104037248D01*
G36*
X215393475Y-104008000D02*
X215387657Y-104037248D01*
X215268752Y-104037248D01*
X215377635Y-103928365D01*
X215393475Y-104008000D01*
X215393475Y-104008000D01*
G37*
X215393475Y-104008000D02*
X215387657Y-104037248D01*
X215268752Y-104037248D01*
X215377635Y-103928365D01*
X215393475Y-104008000D01*
G36*
X215393475Y-103208000D02*
X215377635Y-103287635D01*
X215268752Y-103178752D01*
X215387657Y-103178752D01*
X215393475Y-103208000D01*
X215393475Y-103208000D01*
G37*
X215393475Y-103208000D02*
X215377635Y-103287635D01*
X215268752Y-103178752D01*
X215387657Y-103178752D01*
X215393475Y-103208000D01*
G36*
X211982365Y-103287635D02*
X211966525Y-103208000D01*
X211972343Y-103178752D01*
X212091248Y-103178752D01*
X211982365Y-103287635D01*
X211982365Y-103287635D01*
G37*
X211982365Y-103287635D02*
X211966525Y-103208000D01*
X211972343Y-103178752D01*
X212091248Y-103178752D01*
X211982365Y-103287635D01*
G36*
X214316250Y-102924750D02*
X214323725Y-102924750D01*
X214363250Y-102964276D01*
X214363250Y-102971750D01*
X214383250Y-102991750D01*
X214383250Y-103111750D01*
X214363250Y-103131750D01*
X214363250Y-103139224D01*
X214323725Y-103178750D01*
X214316250Y-103178750D01*
X214236250Y-103258750D01*
X214156250Y-103178750D01*
X214148775Y-103178750D01*
X214109250Y-103139224D01*
X214109250Y-103131750D01*
X214029250Y-103051750D01*
X214109250Y-102971750D01*
X214109250Y-102964276D01*
X214148775Y-102924750D01*
X214156250Y-102924750D01*
X214176250Y-102904750D01*
X214296250Y-102904750D01*
X214316250Y-102924750D01*
X214316250Y-102924750D01*
G37*
X214316250Y-102924750D02*
X214323725Y-102924750D01*
X214363250Y-102964276D01*
X214363250Y-102971750D01*
X214383250Y-102991750D01*
X214383250Y-103111750D01*
X214363250Y-103131750D01*
X214363250Y-103139224D01*
X214323725Y-103178750D01*
X214316250Y-103178750D01*
X214236250Y-103258750D01*
X214156250Y-103178750D01*
X214148775Y-103178750D01*
X214109250Y-103139224D01*
X214109250Y-103131750D01*
X214029250Y-103051750D01*
X214109250Y-102971750D01*
X214109250Y-102964276D01*
X214148775Y-102924750D01*
X214156250Y-102924750D01*
X214176250Y-102904750D01*
X214296250Y-102904750D01*
X214316250Y-102924750D01*
G36*
X213203750Y-102924750D02*
X213211225Y-102924750D01*
X213250750Y-102964276D01*
X213250750Y-102971750D01*
X213330750Y-103051750D01*
X213250750Y-103131750D01*
X213250750Y-103139224D01*
X213211225Y-103178750D01*
X213203750Y-103178750D01*
X213123750Y-103258750D01*
X213043750Y-103178750D01*
X213036275Y-103178750D01*
X212996750Y-103139224D01*
X212996750Y-103131750D01*
X212976750Y-103111750D01*
X212976750Y-102991750D01*
X212996750Y-102971750D01*
X212996750Y-102964276D01*
X213036275Y-102924750D01*
X213043750Y-102924750D01*
X213063750Y-102904750D01*
X213183750Y-102904750D01*
X213203750Y-102924750D01*
X213203750Y-102924750D01*
G37*
X213203750Y-102924750D02*
X213211225Y-102924750D01*
X213250750Y-102964276D01*
X213250750Y-102971750D01*
X213330750Y-103051750D01*
X213250750Y-103131750D01*
X213250750Y-103139224D01*
X213211225Y-103178750D01*
X213203750Y-103178750D01*
X213123750Y-103258750D01*
X213043750Y-103178750D01*
X213036275Y-103178750D01*
X212996750Y-103139224D01*
X212996750Y-103131750D01*
X212976750Y-103111750D01*
X212976750Y-102991750D01*
X212996750Y-102971750D01*
X212996750Y-102964276D01*
X213036275Y-102924750D01*
X213043750Y-102924750D01*
X213063750Y-102904750D01*
X213183750Y-102904750D01*
X213203750Y-102924750D01*
G36*
X215373584Y-102908000D02*
X215373584Y-102924748D01*
X215268752Y-102924748D01*
X215288750Y-102904750D01*
X215374230Y-102904750D01*
X215373584Y-102908000D01*
X215373584Y-102908000D01*
G37*
X215373584Y-102908000D02*
X215373584Y-102924748D01*
X215268752Y-102924748D01*
X215288750Y-102904750D01*
X215374230Y-102904750D01*
X215373584Y-102908000D01*
G36*
X212091248Y-102924748D02*
X211986416Y-102924748D01*
X211986416Y-102908000D01*
X211985770Y-102904750D01*
X212071250Y-102904750D01*
X212091248Y-102924748D01*
X212091248Y-102924748D01*
G37*
X212091248Y-102924748D02*
X211986416Y-102924748D01*
X211986416Y-102908000D01*
X211985770Y-102904750D01*
X212071250Y-102904750D01*
X212091248Y-102924748D01*
G36*
X212980000Y-101914416D02*
X212996748Y-101914416D01*
X212996748Y-102019248D01*
X212976750Y-101999250D01*
X212976750Y-101913770D01*
X212980000Y-101914416D01*
X212980000Y-101914416D01*
G37*
X212980000Y-101914416D02*
X212996748Y-101914416D01*
X212996748Y-102019248D01*
X212976750Y-101999250D01*
X212976750Y-101913770D01*
X212980000Y-101914416D01*
G36*
X213250752Y-102019248D02*
X213250752Y-101900343D01*
X213399182Y-101870818D01*
X213250752Y-102019248D01*
X213250752Y-102019248D01*
G37*
X213250752Y-102019248D02*
X213250752Y-101900343D01*
X213399182Y-101870818D01*
X213250752Y-102019248D01*
G36*
X214109248Y-101900343D02*
X214109248Y-102019248D01*
X214000365Y-101910365D01*
X214080000Y-101894525D01*
X214109248Y-101900343D01*
X214109248Y-101900343D01*
G37*
X214109248Y-101900343D02*
X214109248Y-102019248D01*
X214000365Y-101910365D01*
X214080000Y-101894525D01*
X214109248Y-101900343D01*
G36*
X214383250Y-101999250D02*
X214363252Y-102019248D01*
X214363252Y-101914416D01*
X214380000Y-101914416D01*
X214383250Y-101913770D01*
X214383250Y-101999250D01*
X214383250Y-101999250D01*
G37*
X214383250Y-101999250D02*
X214363252Y-102019248D01*
X214363252Y-101914416D01*
X214380000Y-101914416D01*
X214383250Y-101913770D01*
X214383250Y-101999250D01*
G04 #@! TD*
M02*
