M48
;DRILL file {KiCad (5.0.1)-3} date 9/28/2019 7:14:34 PM
;FORMAT={-:-/ absolute / metric / decimal}
FMAT,2
METRIC,TZ
T1C0.600
T2C1.000
%
G90
G05
M71
T1
X207.73Y-109.73
X210.54Y-106.598
X210.605Y-99.058
X210.77Y-100.75
X212.66Y-98.458
X214.72Y-104.798
X216.71Y-96.91
X216.8Y-106.72
X220.59Y-109.93
T2
X228.854Y-97.79
X228.854Y-100.33
X228.854Y-102.87
X228.854Y-105.41
X228.854Y-107.95
X228.854Y-110.49
X228.854Y-113.03
X228.854Y-115.57
X228.854Y-118.11
X228.854Y-120.65
X228.854Y-123.19
X204.87Y-111.84
X204.87Y-114.38
X204.87Y-116.92
X204.87Y-119.46
X222.52Y-97.81
X225.06Y-97.81
X204.88Y-123.19
X207.42Y-123.19
X209.96Y-123.19
X212.5Y-123.19
X215.04Y-123.19
X217.58Y-123.19
X220.12Y-123.19
X222.66Y-123.19
X225.2Y-123.19
T0
M30
