G04 #@! TF.GenerationSoftware,KiCad,Pcbnew,(5.0.1)-3*
G04 #@! TF.CreationDate,2019-10-05T13:26:35-04:00*
G04 #@! TF.ProjectId,MAX30003,4D415833303030332E6B696361645F70,rev?*
G04 #@! TF.SameCoordinates,Original*
G04 #@! TF.FileFunction,Copper,L1,Top,Signal*
G04 #@! TF.FilePolarity,Positive*
%FSLAX46Y46*%
G04 Gerber Fmt 4.6, Leading zero omitted, Abs format (unit mm)*
G04 Created by KiCad (PCBNEW (5.0.1)-3) date 10/5/2019 1:26:35 PM*
%MOMM*%
%LPD*%
G01*
G04 APERTURE LIST*
G04 #@! TA.AperFunction,Conductor*
%ADD10C,0.100000*%
G04 #@! TD*
G04 #@! TA.AperFunction,SMDPad,CuDef*
%ADD11C,0.875000*%
G04 #@! TD*
G04 #@! TA.AperFunction,SMDPad,CuDef*
%ADD12R,3.350000X3.350000*%
G04 #@! TD*
G04 #@! TA.AperFunction,SMDPad,CuDef*
%ADD13R,0.300000X1.000000*%
G04 #@! TD*
G04 #@! TA.AperFunction,SMDPad,CuDef*
%ADD14R,1.000000X0.300000*%
G04 #@! TD*
G04 #@! TA.AperFunction,SMDPad,CuDef*
%ADD15R,0.900000X0.800000*%
G04 #@! TD*
G04 #@! TA.AperFunction,ComponentPad*
%ADD16R,1.700000X1.700000*%
G04 #@! TD*
G04 #@! TA.AperFunction,ComponentPad*
%ADD17O,1.700000X1.700000*%
G04 #@! TD*
G04 #@! TA.AperFunction,SMDPad,CuDef*
%ADD18C,0.975000*%
G04 #@! TD*
G04 #@! TA.AperFunction,ViaPad*
%ADD19C,0.700000*%
G04 #@! TD*
G04 #@! TA.AperFunction,Conductor*
%ADD20C,0.152000*%
G04 #@! TD*
G04 #@! TA.AperFunction,Conductor*
%ADD21C,0.203200*%
G04 #@! TD*
G04 #@! TA.AperFunction,Conductor*
%ADD22C,0.457200*%
G04 #@! TD*
G04 #@! TA.AperFunction,Conductor*
%ADD23C,0.254000*%
G04 #@! TD*
G04 APERTURE END LIST*
D10*
G04 #@! TO.N,DVDD*
G04 #@! TO.C,C5*
G36*
X145363691Y-94378053D02*
X145384926Y-94381203D01*
X145405750Y-94386419D01*
X145425962Y-94393651D01*
X145445368Y-94402830D01*
X145463781Y-94413866D01*
X145481024Y-94426654D01*
X145496930Y-94441070D01*
X145511346Y-94456976D01*
X145524134Y-94474219D01*
X145535170Y-94492632D01*
X145544349Y-94512038D01*
X145551581Y-94532250D01*
X145556797Y-94553074D01*
X145559947Y-94574309D01*
X145561000Y-94595750D01*
X145561000Y-95033250D01*
X145559947Y-95054691D01*
X145556797Y-95075926D01*
X145551581Y-95096750D01*
X145544349Y-95116962D01*
X145535170Y-95136368D01*
X145524134Y-95154781D01*
X145511346Y-95172024D01*
X145496930Y-95187930D01*
X145481024Y-95202346D01*
X145463781Y-95215134D01*
X145445368Y-95226170D01*
X145425962Y-95235349D01*
X145405750Y-95242581D01*
X145384926Y-95247797D01*
X145363691Y-95250947D01*
X145342250Y-95252000D01*
X144829750Y-95252000D01*
X144808309Y-95250947D01*
X144787074Y-95247797D01*
X144766250Y-95242581D01*
X144746038Y-95235349D01*
X144726632Y-95226170D01*
X144708219Y-95215134D01*
X144690976Y-95202346D01*
X144675070Y-95187930D01*
X144660654Y-95172024D01*
X144647866Y-95154781D01*
X144636830Y-95136368D01*
X144627651Y-95116962D01*
X144620419Y-95096750D01*
X144615203Y-95075926D01*
X144612053Y-95054691D01*
X144611000Y-95033250D01*
X144611000Y-94595750D01*
X144612053Y-94574309D01*
X144615203Y-94553074D01*
X144620419Y-94532250D01*
X144627651Y-94512038D01*
X144636830Y-94492632D01*
X144647866Y-94474219D01*
X144660654Y-94456976D01*
X144675070Y-94441070D01*
X144690976Y-94426654D01*
X144708219Y-94413866D01*
X144726632Y-94402830D01*
X144746038Y-94393651D01*
X144766250Y-94386419D01*
X144787074Y-94381203D01*
X144808309Y-94378053D01*
X144829750Y-94377000D01*
X145342250Y-94377000D01*
X145363691Y-94378053D01*
X145363691Y-94378053D01*
G37*
D11*
G04 #@! TD*
G04 #@! TO.P,C5,1*
G04 #@! TO.N,DVDD*
X145086000Y-94814500D03*
D10*
G04 #@! TO.N,DGND*
G04 #@! TO.C,C5*
G36*
X145363691Y-95953053D02*
X145384926Y-95956203D01*
X145405750Y-95961419D01*
X145425962Y-95968651D01*
X145445368Y-95977830D01*
X145463781Y-95988866D01*
X145481024Y-96001654D01*
X145496930Y-96016070D01*
X145511346Y-96031976D01*
X145524134Y-96049219D01*
X145535170Y-96067632D01*
X145544349Y-96087038D01*
X145551581Y-96107250D01*
X145556797Y-96128074D01*
X145559947Y-96149309D01*
X145561000Y-96170750D01*
X145561000Y-96608250D01*
X145559947Y-96629691D01*
X145556797Y-96650926D01*
X145551581Y-96671750D01*
X145544349Y-96691962D01*
X145535170Y-96711368D01*
X145524134Y-96729781D01*
X145511346Y-96747024D01*
X145496930Y-96762930D01*
X145481024Y-96777346D01*
X145463781Y-96790134D01*
X145445368Y-96801170D01*
X145425962Y-96810349D01*
X145405750Y-96817581D01*
X145384926Y-96822797D01*
X145363691Y-96825947D01*
X145342250Y-96827000D01*
X144829750Y-96827000D01*
X144808309Y-96825947D01*
X144787074Y-96822797D01*
X144766250Y-96817581D01*
X144746038Y-96810349D01*
X144726632Y-96801170D01*
X144708219Y-96790134D01*
X144690976Y-96777346D01*
X144675070Y-96762930D01*
X144660654Y-96747024D01*
X144647866Y-96729781D01*
X144636830Y-96711368D01*
X144627651Y-96691962D01*
X144620419Y-96671750D01*
X144615203Y-96650926D01*
X144612053Y-96629691D01*
X144611000Y-96608250D01*
X144611000Y-96170750D01*
X144612053Y-96149309D01*
X144615203Y-96128074D01*
X144620419Y-96107250D01*
X144627651Y-96087038D01*
X144636830Y-96067632D01*
X144647866Y-96049219D01*
X144660654Y-96031976D01*
X144675070Y-96016070D01*
X144690976Y-96001654D01*
X144708219Y-95988866D01*
X144726632Y-95977830D01*
X144746038Y-95968651D01*
X144766250Y-95961419D01*
X144787074Y-95956203D01*
X144808309Y-95953053D01*
X144829750Y-95952000D01*
X145342250Y-95952000D01*
X145363691Y-95953053D01*
X145363691Y-95953053D01*
G37*
D11*
G04 #@! TD*
G04 #@! TO.P,C5,2*
G04 #@! TO.N,DGND*
X145086000Y-96389500D03*
D10*
G04 #@! TO.N,DGND*
G04 #@! TO.C,C7*
G36*
X147173691Y-95920553D02*
X147194926Y-95923703D01*
X147215750Y-95928919D01*
X147235962Y-95936151D01*
X147255368Y-95945330D01*
X147273781Y-95956366D01*
X147291024Y-95969154D01*
X147306930Y-95983570D01*
X147321346Y-95999476D01*
X147334134Y-96016719D01*
X147345170Y-96035132D01*
X147354349Y-96054538D01*
X147361581Y-96074750D01*
X147366797Y-96095574D01*
X147369947Y-96116809D01*
X147371000Y-96138250D01*
X147371000Y-96575750D01*
X147369947Y-96597191D01*
X147366797Y-96618426D01*
X147361581Y-96639250D01*
X147354349Y-96659462D01*
X147345170Y-96678868D01*
X147334134Y-96697281D01*
X147321346Y-96714524D01*
X147306930Y-96730430D01*
X147291024Y-96744846D01*
X147273781Y-96757634D01*
X147255368Y-96768670D01*
X147235962Y-96777849D01*
X147215750Y-96785081D01*
X147194926Y-96790297D01*
X147173691Y-96793447D01*
X147152250Y-96794500D01*
X146639750Y-96794500D01*
X146618309Y-96793447D01*
X146597074Y-96790297D01*
X146576250Y-96785081D01*
X146556038Y-96777849D01*
X146536632Y-96768670D01*
X146518219Y-96757634D01*
X146500976Y-96744846D01*
X146485070Y-96730430D01*
X146470654Y-96714524D01*
X146457866Y-96697281D01*
X146446830Y-96678868D01*
X146437651Y-96659462D01*
X146430419Y-96639250D01*
X146425203Y-96618426D01*
X146422053Y-96597191D01*
X146421000Y-96575750D01*
X146421000Y-96138250D01*
X146422053Y-96116809D01*
X146425203Y-96095574D01*
X146430419Y-96074750D01*
X146437651Y-96054538D01*
X146446830Y-96035132D01*
X146457866Y-96016719D01*
X146470654Y-95999476D01*
X146485070Y-95983570D01*
X146500976Y-95969154D01*
X146518219Y-95956366D01*
X146536632Y-95945330D01*
X146556038Y-95936151D01*
X146576250Y-95928919D01*
X146597074Y-95923703D01*
X146618309Y-95920553D01*
X146639750Y-95919500D01*
X147152250Y-95919500D01*
X147173691Y-95920553D01*
X147173691Y-95920553D01*
G37*
D11*
G04 #@! TD*
G04 #@! TO.P,C7,2*
G04 #@! TO.N,DGND*
X146896000Y-96357000D03*
D10*
G04 #@! TO.N,/FCLK*
G04 #@! TO.C,C7*
G36*
X147173691Y-94345553D02*
X147194926Y-94348703D01*
X147215750Y-94353919D01*
X147235962Y-94361151D01*
X147255368Y-94370330D01*
X147273781Y-94381366D01*
X147291024Y-94394154D01*
X147306930Y-94408570D01*
X147321346Y-94424476D01*
X147334134Y-94441719D01*
X147345170Y-94460132D01*
X147354349Y-94479538D01*
X147361581Y-94499750D01*
X147366797Y-94520574D01*
X147369947Y-94541809D01*
X147371000Y-94563250D01*
X147371000Y-95000750D01*
X147369947Y-95022191D01*
X147366797Y-95043426D01*
X147361581Y-95064250D01*
X147354349Y-95084462D01*
X147345170Y-95103868D01*
X147334134Y-95122281D01*
X147321346Y-95139524D01*
X147306930Y-95155430D01*
X147291024Y-95169846D01*
X147273781Y-95182634D01*
X147255368Y-95193670D01*
X147235962Y-95202849D01*
X147215750Y-95210081D01*
X147194926Y-95215297D01*
X147173691Y-95218447D01*
X147152250Y-95219500D01*
X146639750Y-95219500D01*
X146618309Y-95218447D01*
X146597074Y-95215297D01*
X146576250Y-95210081D01*
X146556038Y-95202849D01*
X146536632Y-95193670D01*
X146518219Y-95182634D01*
X146500976Y-95169846D01*
X146485070Y-95155430D01*
X146470654Y-95139524D01*
X146457866Y-95122281D01*
X146446830Y-95103868D01*
X146437651Y-95084462D01*
X146430419Y-95064250D01*
X146425203Y-95043426D01*
X146422053Y-95022191D01*
X146421000Y-95000750D01*
X146421000Y-94563250D01*
X146422053Y-94541809D01*
X146425203Y-94520574D01*
X146430419Y-94499750D01*
X146437651Y-94479538D01*
X146446830Y-94460132D01*
X146457866Y-94441719D01*
X146470654Y-94424476D01*
X146485070Y-94408570D01*
X146500976Y-94394154D01*
X146518219Y-94381366D01*
X146536632Y-94370330D01*
X146556038Y-94361151D01*
X146576250Y-94353919D01*
X146597074Y-94348703D01*
X146618309Y-94345553D01*
X146639750Y-94344500D01*
X147152250Y-94344500D01*
X147173691Y-94345553D01*
X147173691Y-94345553D01*
G37*
D11*
G04 #@! TD*
G04 #@! TO.P,C7,1*
G04 #@! TO.N,/FCLK*
X146896000Y-94782000D03*
D12*
G04 #@! TO.P,IC1,29*
G04 #@! TO.N,AGND*
X141166000Y-89252000D03*
D13*
G04 #@! TO.P,IC1,28*
X139666000Y-86902000D03*
G04 #@! TO.P,IC1,27*
G04 #@! TO.N,Net-(C3-Pad1)*
X140166000Y-86902000D03*
G04 #@! TO.P,IC1,26*
G04 #@! TO.N,AGND*
X140666000Y-86902000D03*
G04 #@! TO.P,IC1,25*
G04 #@! TO.N,Net-(C1-Pad2)*
X141166000Y-86902000D03*
G04 #@! TO.P,IC1,24*
G04 #@! TO.N,AGND*
X141666000Y-86902000D03*
G04 #@! TO.P,IC1,23*
G04 #@! TO.N,Net-(C2-Pad1)*
X142166000Y-86902000D03*
G04 #@! TO.P,IC1,22*
G04 #@! TO.N,AVDD*
X142666000Y-86902000D03*
D14*
G04 #@! TO.P,IC1,21*
G04 #@! TO.N,/MAX30003_INTB*
X143516000Y-87752000D03*
G04 #@! TO.P,IC1,20*
G04 #@! TO.N,/MAX30003_INT2B*
X143516000Y-88252000D03*
G04 #@! TO.P,IC1,19*
G04 #@! TO.N,AVDD*
X143516000Y-88752000D03*
G04 #@! TO.P,IC1,18*
G04 #@! TO.N,/MAX30003_SDO*
X143516000Y-89252000D03*
G04 #@! TO.P,IC1,17*
G04 #@! TO.N,/MAX30003_SDI*
X143516000Y-89752000D03*
G04 #@! TO.P,IC1,16*
G04 #@! TO.N,/MAX30003_SCLK*
X143516000Y-90252000D03*
G04 #@! TO.P,IC1,15*
G04 #@! TO.N,/MAX30003_CSB*
X143516000Y-90752000D03*
D13*
G04 #@! TO.P,IC1,14*
G04 #@! TO.N,/FCLK*
X142666000Y-91602000D03*
G04 #@! TO.P,IC1,13*
G04 #@! TO.N,DVDD*
X142166000Y-91602000D03*
G04 #@! TO.P,IC1,12*
G04 #@! TO.N,DGND*
X141666000Y-91602000D03*
G04 #@! TO.P,IC1,11*
G04 #@! TO.N,Net-(C11-Pad1)*
X141166000Y-91602000D03*
G04 #@! TO.P,IC1,10*
G04 #@! TO.N,Net-(C10-Pad1)*
X140666000Y-91602000D03*
G04 #@! TO.P,IC1,9*
G04 #@! TO.N,Net-(C10-Pad2)*
X140166000Y-91602000D03*
G04 #@! TO.P,IC1,8*
G04 #@! TO.N,DGND*
X139666000Y-91602000D03*
D14*
G04 #@! TO.P,IC1,7*
G04 #@! TO.N,Net-(IC1-Pad7)*
X138816000Y-90752000D03*
G04 #@! TO.P,IC1,6*
G04 #@! TO.N,Net-(IC1-Pad6)*
X138816000Y-90252000D03*
G04 #@! TO.P,IC1,5*
G04 #@! TO.N,AGND*
X138816000Y-89752000D03*
G04 #@! TO.P,IC1,4*
X138816000Y-89252000D03*
G04 #@! TO.P,IC1,3*
X138816000Y-88752000D03*
G04 #@! TO.P,IC1,2*
X138816000Y-88252000D03*
G04 #@! TO.P,IC1,1*
X138816000Y-87752000D03*
G04 #@! TD*
D10*
G04 #@! TO.N,AVDD*
G04 #@! TO.C,C4*
G36*
X146737691Y-82376053D02*
X146758926Y-82379203D01*
X146779750Y-82384419D01*
X146799962Y-82391651D01*
X146819368Y-82400830D01*
X146837781Y-82411866D01*
X146855024Y-82424654D01*
X146870930Y-82439070D01*
X146885346Y-82454976D01*
X146898134Y-82472219D01*
X146909170Y-82490632D01*
X146918349Y-82510038D01*
X146925581Y-82530250D01*
X146930797Y-82551074D01*
X146933947Y-82572309D01*
X146935000Y-82593750D01*
X146935000Y-83106250D01*
X146933947Y-83127691D01*
X146930797Y-83148926D01*
X146925581Y-83169750D01*
X146918349Y-83189962D01*
X146909170Y-83209368D01*
X146898134Y-83227781D01*
X146885346Y-83245024D01*
X146870930Y-83260930D01*
X146855024Y-83275346D01*
X146837781Y-83288134D01*
X146819368Y-83299170D01*
X146799962Y-83308349D01*
X146779750Y-83315581D01*
X146758926Y-83320797D01*
X146737691Y-83323947D01*
X146716250Y-83325000D01*
X146278750Y-83325000D01*
X146257309Y-83323947D01*
X146236074Y-83320797D01*
X146215250Y-83315581D01*
X146195038Y-83308349D01*
X146175632Y-83299170D01*
X146157219Y-83288134D01*
X146139976Y-83275346D01*
X146124070Y-83260930D01*
X146109654Y-83245024D01*
X146096866Y-83227781D01*
X146085830Y-83209368D01*
X146076651Y-83189962D01*
X146069419Y-83169750D01*
X146064203Y-83148926D01*
X146061053Y-83127691D01*
X146060000Y-83106250D01*
X146060000Y-82593750D01*
X146061053Y-82572309D01*
X146064203Y-82551074D01*
X146069419Y-82530250D01*
X146076651Y-82510038D01*
X146085830Y-82490632D01*
X146096866Y-82472219D01*
X146109654Y-82454976D01*
X146124070Y-82439070D01*
X146139976Y-82424654D01*
X146157219Y-82411866D01*
X146175632Y-82400830D01*
X146195038Y-82391651D01*
X146215250Y-82384419D01*
X146236074Y-82379203D01*
X146257309Y-82376053D01*
X146278750Y-82375000D01*
X146716250Y-82375000D01*
X146737691Y-82376053D01*
X146737691Y-82376053D01*
G37*
D11*
G04 #@! TD*
G04 #@! TO.P,C4,2*
G04 #@! TO.N,AVDD*
X146497500Y-82850000D03*
D10*
G04 #@! TO.N,AGND*
G04 #@! TO.C,C4*
G36*
X145162691Y-82376053D02*
X145183926Y-82379203D01*
X145204750Y-82384419D01*
X145224962Y-82391651D01*
X145244368Y-82400830D01*
X145262781Y-82411866D01*
X145280024Y-82424654D01*
X145295930Y-82439070D01*
X145310346Y-82454976D01*
X145323134Y-82472219D01*
X145334170Y-82490632D01*
X145343349Y-82510038D01*
X145350581Y-82530250D01*
X145355797Y-82551074D01*
X145358947Y-82572309D01*
X145360000Y-82593750D01*
X145360000Y-83106250D01*
X145358947Y-83127691D01*
X145355797Y-83148926D01*
X145350581Y-83169750D01*
X145343349Y-83189962D01*
X145334170Y-83209368D01*
X145323134Y-83227781D01*
X145310346Y-83245024D01*
X145295930Y-83260930D01*
X145280024Y-83275346D01*
X145262781Y-83288134D01*
X145244368Y-83299170D01*
X145224962Y-83308349D01*
X145204750Y-83315581D01*
X145183926Y-83320797D01*
X145162691Y-83323947D01*
X145141250Y-83325000D01*
X144703750Y-83325000D01*
X144682309Y-83323947D01*
X144661074Y-83320797D01*
X144640250Y-83315581D01*
X144620038Y-83308349D01*
X144600632Y-83299170D01*
X144582219Y-83288134D01*
X144564976Y-83275346D01*
X144549070Y-83260930D01*
X144534654Y-83245024D01*
X144521866Y-83227781D01*
X144510830Y-83209368D01*
X144501651Y-83189962D01*
X144494419Y-83169750D01*
X144489203Y-83148926D01*
X144486053Y-83127691D01*
X144485000Y-83106250D01*
X144485000Y-82593750D01*
X144486053Y-82572309D01*
X144489203Y-82551074D01*
X144494419Y-82530250D01*
X144501651Y-82510038D01*
X144510830Y-82490632D01*
X144521866Y-82472219D01*
X144534654Y-82454976D01*
X144549070Y-82439070D01*
X144564976Y-82424654D01*
X144582219Y-82411866D01*
X144600632Y-82400830D01*
X144620038Y-82391651D01*
X144640250Y-82384419D01*
X144661074Y-82379203D01*
X144682309Y-82376053D01*
X144703750Y-82375000D01*
X145141250Y-82375000D01*
X145162691Y-82376053D01*
X145162691Y-82376053D01*
G37*
D11*
G04 #@! TD*
G04 #@! TO.P,C4,1*
G04 #@! TO.N,AGND*
X144922500Y-82850000D03*
D10*
G04 #@! TO.N,Net-(C10-Pad1)*
G04 #@! TO.C,C10*
G36*
X138143691Y-93205553D02*
X138164926Y-93208703D01*
X138185750Y-93213919D01*
X138205962Y-93221151D01*
X138225368Y-93230330D01*
X138243781Y-93241366D01*
X138261024Y-93254154D01*
X138276930Y-93268570D01*
X138291346Y-93284476D01*
X138304134Y-93301719D01*
X138315170Y-93320132D01*
X138324349Y-93339538D01*
X138331581Y-93359750D01*
X138336797Y-93380574D01*
X138339947Y-93401809D01*
X138341000Y-93423250D01*
X138341000Y-93860750D01*
X138339947Y-93882191D01*
X138336797Y-93903426D01*
X138331581Y-93924250D01*
X138324349Y-93944462D01*
X138315170Y-93963868D01*
X138304134Y-93982281D01*
X138291346Y-93999524D01*
X138276930Y-94015430D01*
X138261024Y-94029846D01*
X138243781Y-94042634D01*
X138225368Y-94053670D01*
X138205962Y-94062849D01*
X138185750Y-94070081D01*
X138164926Y-94075297D01*
X138143691Y-94078447D01*
X138122250Y-94079500D01*
X137609750Y-94079500D01*
X137588309Y-94078447D01*
X137567074Y-94075297D01*
X137546250Y-94070081D01*
X137526038Y-94062849D01*
X137506632Y-94053670D01*
X137488219Y-94042634D01*
X137470976Y-94029846D01*
X137455070Y-94015430D01*
X137440654Y-93999524D01*
X137427866Y-93982281D01*
X137416830Y-93963868D01*
X137407651Y-93944462D01*
X137400419Y-93924250D01*
X137395203Y-93903426D01*
X137392053Y-93882191D01*
X137391000Y-93860750D01*
X137391000Y-93423250D01*
X137392053Y-93401809D01*
X137395203Y-93380574D01*
X137400419Y-93359750D01*
X137407651Y-93339538D01*
X137416830Y-93320132D01*
X137427866Y-93301719D01*
X137440654Y-93284476D01*
X137455070Y-93268570D01*
X137470976Y-93254154D01*
X137488219Y-93241366D01*
X137506632Y-93230330D01*
X137526038Y-93221151D01*
X137546250Y-93213919D01*
X137567074Y-93208703D01*
X137588309Y-93205553D01*
X137609750Y-93204500D01*
X138122250Y-93204500D01*
X138143691Y-93205553D01*
X138143691Y-93205553D01*
G37*
D11*
G04 #@! TD*
G04 #@! TO.P,C10,1*
G04 #@! TO.N,Net-(C10-Pad1)*
X137866000Y-93642000D03*
D10*
G04 #@! TO.N,Net-(C10-Pad2)*
G04 #@! TO.C,C10*
G36*
X138143691Y-94780553D02*
X138164926Y-94783703D01*
X138185750Y-94788919D01*
X138205962Y-94796151D01*
X138225368Y-94805330D01*
X138243781Y-94816366D01*
X138261024Y-94829154D01*
X138276930Y-94843570D01*
X138291346Y-94859476D01*
X138304134Y-94876719D01*
X138315170Y-94895132D01*
X138324349Y-94914538D01*
X138331581Y-94934750D01*
X138336797Y-94955574D01*
X138339947Y-94976809D01*
X138341000Y-94998250D01*
X138341000Y-95435750D01*
X138339947Y-95457191D01*
X138336797Y-95478426D01*
X138331581Y-95499250D01*
X138324349Y-95519462D01*
X138315170Y-95538868D01*
X138304134Y-95557281D01*
X138291346Y-95574524D01*
X138276930Y-95590430D01*
X138261024Y-95604846D01*
X138243781Y-95617634D01*
X138225368Y-95628670D01*
X138205962Y-95637849D01*
X138185750Y-95645081D01*
X138164926Y-95650297D01*
X138143691Y-95653447D01*
X138122250Y-95654500D01*
X137609750Y-95654500D01*
X137588309Y-95653447D01*
X137567074Y-95650297D01*
X137546250Y-95645081D01*
X137526038Y-95637849D01*
X137506632Y-95628670D01*
X137488219Y-95617634D01*
X137470976Y-95604846D01*
X137455070Y-95590430D01*
X137440654Y-95574524D01*
X137427866Y-95557281D01*
X137416830Y-95538868D01*
X137407651Y-95519462D01*
X137400419Y-95499250D01*
X137395203Y-95478426D01*
X137392053Y-95457191D01*
X137391000Y-95435750D01*
X137391000Y-94998250D01*
X137392053Y-94976809D01*
X137395203Y-94955574D01*
X137400419Y-94934750D01*
X137407651Y-94914538D01*
X137416830Y-94895132D01*
X137427866Y-94876719D01*
X137440654Y-94859476D01*
X137455070Y-94843570D01*
X137470976Y-94829154D01*
X137488219Y-94816366D01*
X137506632Y-94805330D01*
X137526038Y-94796151D01*
X137546250Y-94788919D01*
X137567074Y-94783703D01*
X137588309Y-94780553D01*
X137609750Y-94779500D01*
X138122250Y-94779500D01*
X138143691Y-94780553D01*
X138143691Y-94780553D01*
G37*
D11*
G04 #@! TD*
G04 #@! TO.P,C10,2*
G04 #@! TO.N,Net-(C10-Pad2)*
X137866000Y-95217000D03*
D10*
G04 #@! TO.N,DGND*
G04 #@! TO.C,C11*
G36*
X139701691Y-94788553D02*
X139722926Y-94791703D01*
X139743750Y-94796919D01*
X139763962Y-94804151D01*
X139783368Y-94813330D01*
X139801781Y-94824366D01*
X139819024Y-94837154D01*
X139834930Y-94851570D01*
X139849346Y-94867476D01*
X139862134Y-94884719D01*
X139873170Y-94903132D01*
X139882349Y-94922538D01*
X139889581Y-94942750D01*
X139894797Y-94963574D01*
X139897947Y-94984809D01*
X139899000Y-95006250D01*
X139899000Y-95443750D01*
X139897947Y-95465191D01*
X139894797Y-95486426D01*
X139889581Y-95507250D01*
X139882349Y-95527462D01*
X139873170Y-95546868D01*
X139862134Y-95565281D01*
X139849346Y-95582524D01*
X139834930Y-95598430D01*
X139819024Y-95612846D01*
X139801781Y-95625634D01*
X139783368Y-95636670D01*
X139763962Y-95645849D01*
X139743750Y-95653081D01*
X139722926Y-95658297D01*
X139701691Y-95661447D01*
X139680250Y-95662500D01*
X139167750Y-95662500D01*
X139146309Y-95661447D01*
X139125074Y-95658297D01*
X139104250Y-95653081D01*
X139084038Y-95645849D01*
X139064632Y-95636670D01*
X139046219Y-95625634D01*
X139028976Y-95612846D01*
X139013070Y-95598430D01*
X138998654Y-95582524D01*
X138985866Y-95565281D01*
X138974830Y-95546868D01*
X138965651Y-95527462D01*
X138958419Y-95507250D01*
X138953203Y-95486426D01*
X138950053Y-95465191D01*
X138949000Y-95443750D01*
X138949000Y-95006250D01*
X138950053Y-94984809D01*
X138953203Y-94963574D01*
X138958419Y-94942750D01*
X138965651Y-94922538D01*
X138974830Y-94903132D01*
X138985866Y-94884719D01*
X138998654Y-94867476D01*
X139013070Y-94851570D01*
X139028976Y-94837154D01*
X139046219Y-94824366D01*
X139064632Y-94813330D01*
X139084038Y-94804151D01*
X139104250Y-94796919D01*
X139125074Y-94791703D01*
X139146309Y-94788553D01*
X139167750Y-94787500D01*
X139680250Y-94787500D01*
X139701691Y-94788553D01*
X139701691Y-94788553D01*
G37*
D11*
G04 #@! TD*
G04 #@! TO.P,C11,2*
G04 #@! TO.N,DGND*
X139424000Y-95225000D03*
D10*
G04 #@! TO.N,Net-(C11-Pad1)*
G04 #@! TO.C,C11*
G36*
X139701691Y-93213553D02*
X139722926Y-93216703D01*
X139743750Y-93221919D01*
X139763962Y-93229151D01*
X139783368Y-93238330D01*
X139801781Y-93249366D01*
X139819024Y-93262154D01*
X139834930Y-93276570D01*
X139849346Y-93292476D01*
X139862134Y-93309719D01*
X139873170Y-93328132D01*
X139882349Y-93347538D01*
X139889581Y-93367750D01*
X139894797Y-93388574D01*
X139897947Y-93409809D01*
X139899000Y-93431250D01*
X139899000Y-93868750D01*
X139897947Y-93890191D01*
X139894797Y-93911426D01*
X139889581Y-93932250D01*
X139882349Y-93952462D01*
X139873170Y-93971868D01*
X139862134Y-93990281D01*
X139849346Y-94007524D01*
X139834930Y-94023430D01*
X139819024Y-94037846D01*
X139801781Y-94050634D01*
X139783368Y-94061670D01*
X139763962Y-94070849D01*
X139743750Y-94078081D01*
X139722926Y-94083297D01*
X139701691Y-94086447D01*
X139680250Y-94087500D01*
X139167750Y-94087500D01*
X139146309Y-94086447D01*
X139125074Y-94083297D01*
X139104250Y-94078081D01*
X139084038Y-94070849D01*
X139064632Y-94061670D01*
X139046219Y-94050634D01*
X139028976Y-94037846D01*
X139013070Y-94023430D01*
X138998654Y-94007524D01*
X138985866Y-93990281D01*
X138974830Y-93971868D01*
X138965651Y-93952462D01*
X138958419Y-93932250D01*
X138953203Y-93911426D01*
X138950053Y-93890191D01*
X138949000Y-93868750D01*
X138949000Y-93431250D01*
X138950053Y-93409809D01*
X138953203Y-93388574D01*
X138958419Y-93367750D01*
X138965651Y-93347538D01*
X138974830Y-93328132D01*
X138985866Y-93309719D01*
X138998654Y-93292476D01*
X139013070Y-93276570D01*
X139028976Y-93262154D01*
X139046219Y-93249366D01*
X139064632Y-93238330D01*
X139084038Y-93229151D01*
X139104250Y-93221919D01*
X139125074Y-93216703D01*
X139146309Y-93213553D01*
X139167750Y-93212500D01*
X139680250Y-93212500D01*
X139701691Y-93213553D01*
X139701691Y-93213553D01*
G37*
D11*
G04 #@! TD*
G04 #@! TO.P,C11,1*
G04 #@! TO.N,Net-(C11-Pad1)*
X139424000Y-93650000D03*
D10*
G04 #@! TO.N,Net-(C3-Pad1)*
G04 #@! TO.C,C3*
G36*
X137887691Y-83601053D02*
X137908926Y-83604203D01*
X137929750Y-83609419D01*
X137949962Y-83616651D01*
X137969368Y-83625830D01*
X137987781Y-83636866D01*
X138005024Y-83649654D01*
X138020930Y-83664070D01*
X138035346Y-83679976D01*
X138048134Y-83697219D01*
X138059170Y-83715632D01*
X138068349Y-83735038D01*
X138075581Y-83755250D01*
X138080797Y-83776074D01*
X138083947Y-83797309D01*
X138085000Y-83818750D01*
X138085000Y-84256250D01*
X138083947Y-84277691D01*
X138080797Y-84298926D01*
X138075581Y-84319750D01*
X138068349Y-84339962D01*
X138059170Y-84359368D01*
X138048134Y-84377781D01*
X138035346Y-84395024D01*
X138020930Y-84410930D01*
X138005024Y-84425346D01*
X137987781Y-84438134D01*
X137969368Y-84449170D01*
X137949962Y-84458349D01*
X137929750Y-84465581D01*
X137908926Y-84470797D01*
X137887691Y-84473947D01*
X137866250Y-84475000D01*
X137353750Y-84475000D01*
X137332309Y-84473947D01*
X137311074Y-84470797D01*
X137290250Y-84465581D01*
X137270038Y-84458349D01*
X137250632Y-84449170D01*
X137232219Y-84438134D01*
X137214976Y-84425346D01*
X137199070Y-84410930D01*
X137184654Y-84395024D01*
X137171866Y-84377781D01*
X137160830Y-84359368D01*
X137151651Y-84339962D01*
X137144419Y-84319750D01*
X137139203Y-84298926D01*
X137136053Y-84277691D01*
X137135000Y-84256250D01*
X137135000Y-83818750D01*
X137136053Y-83797309D01*
X137139203Y-83776074D01*
X137144419Y-83755250D01*
X137151651Y-83735038D01*
X137160830Y-83715632D01*
X137171866Y-83697219D01*
X137184654Y-83679976D01*
X137199070Y-83664070D01*
X137214976Y-83649654D01*
X137232219Y-83636866D01*
X137250632Y-83625830D01*
X137270038Y-83616651D01*
X137290250Y-83609419D01*
X137311074Y-83604203D01*
X137332309Y-83601053D01*
X137353750Y-83600000D01*
X137866250Y-83600000D01*
X137887691Y-83601053D01*
X137887691Y-83601053D01*
G37*
D11*
G04 #@! TD*
G04 #@! TO.P,C3,1*
G04 #@! TO.N,Net-(C3-Pad1)*
X137610000Y-84037500D03*
D10*
G04 #@! TO.N,AGND*
G04 #@! TO.C,C3*
G36*
X137887691Y-82026053D02*
X137908926Y-82029203D01*
X137929750Y-82034419D01*
X137949962Y-82041651D01*
X137969368Y-82050830D01*
X137987781Y-82061866D01*
X138005024Y-82074654D01*
X138020930Y-82089070D01*
X138035346Y-82104976D01*
X138048134Y-82122219D01*
X138059170Y-82140632D01*
X138068349Y-82160038D01*
X138075581Y-82180250D01*
X138080797Y-82201074D01*
X138083947Y-82222309D01*
X138085000Y-82243750D01*
X138085000Y-82681250D01*
X138083947Y-82702691D01*
X138080797Y-82723926D01*
X138075581Y-82744750D01*
X138068349Y-82764962D01*
X138059170Y-82784368D01*
X138048134Y-82802781D01*
X138035346Y-82820024D01*
X138020930Y-82835930D01*
X138005024Y-82850346D01*
X137987781Y-82863134D01*
X137969368Y-82874170D01*
X137949962Y-82883349D01*
X137929750Y-82890581D01*
X137908926Y-82895797D01*
X137887691Y-82898947D01*
X137866250Y-82900000D01*
X137353750Y-82900000D01*
X137332309Y-82898947D01*
X137311074Y-82895797D01*
X137290250Y-82890581D01*
X137270038Y-82883349D01*
X137250632Y-82874170D01*
X137232219Y-82863134D01*
X137214976Y-82850346D01*
X137199070Y-82835930D01*
X137184654Y-82820024D01*
X137171866Y-82802781D01*
X137160830Y-82784368D01*
X137151651Y-82764962D01*
X137144419Y-82744750D01*
X137139203Y-82723926D01*
X137136053Y-82702691D01*
X137135000Y-82681250D01*
X137135000Y-82243750D01*
X137136053Y-82222309D01*
X137139203Y-82201074D01*
X137144419Y-82180250D01*
X137151651Y-82160038D01*
X137160830Y-82140632D01*
X137171866Y-82122219D01*
X137184654Y-82104976D01*
X137199070Y-82089070D01*
X137214976Y-82074654D01*
X137232219Y-82061866D01*
X137250632Y-82050830D01*
X137270038Y-82041651D01*
X137290250Y-82034419D01*
X137311074Y-82029203D01*
X137332309Y-82026053D01*
X137353750Y-82025000D01*
X137866250Y-82025000D01*
X137887691Y-82026053D01*
X137887691Y-82026053D01*
G37*
D11*
G04 #@! TD*
G04 #@! TO.P,C3,2*
G04 #@! TO.N,AGND*
X137610000Y-82462500D03*
D10*
G04 #@! TO.N,DVDD*
G04 #@! TO.C,C9*
G36*
X143579691Y-93193553D02*
X143600926Y-93196703D01*
X143621750Y-93201919D01*
X143641962Y-93209151D01*
X143661368Y-93218330D01*
X143679781Y-93229366D01*
X143697024Y-93242154D01*
X143712930Y-93256570D01*
X143727346Y-93272476D01*
X143740134Y-93289719D01*
X143751170Y-93308132D01*
X143760349Y-93327538D01*
X143767581Y-93347750D01*
X143772797Y-93368574D01*
X143775947Y-93389809D01*
X143777000Y-93411250D01*
X143777000Y-93848750D01*
X143775947Y-93870191D01*
X143772797Y-93891426D01*
X143767581Y-93912250D01*
X143760349Y-93932462D01*
X143751170Y-93951868D01*
X143740134Y-93970281D01*
X143727346Y-93987524D01*
X143712930Y-94003430D01*
X143697024Y-94017846D01*
X143679781Y-94030634D01*
X143661368Y-94041670D01*
X143641962Y-94050849D01*
X143621750Y-94058081D01*
X143600926Y-94063297D01*
X143579691Y-94066447D01*
X143558250Y-94067500D01*
X143045750Y-94067500D01*
X143024309Y-94066447D01*
X143003074Y-94063297D01*
X142982250Y-94058081D01*
X142962038Y-94050849D01*
X142942632Y-94041670D01*
X142924219Y-94030634D01*
X142906976Y-94017846D01*
X142891070Y-94003430D01*
X142876654Y-93987524D01*
X142863866Y-93970281D01*
X142852830Y-93951868D01*
X142843651Y-93932462D01*
X142836419Y-93912250D01*
X142831203Y-93891426D01*
X142828053Y-93870191D01*
X142827000Y-93848750D01*
X142827000Y-93411250D01*
X142828053Y-93389809D01*
X142831203Y-93368574D01*
X142836419Y-93347750D01*
X142843651Y-93327538D01*
X142852830Y-93308132D01*
X142863866Y-93289719D01*
X142876654Y-93272476D01*
X142891070Y-93256570D01*
X142906976Y-93242154D01*
X142924219Y-93229366D01*
X142942632Y-93218330D01*
X142962038Y-93209151D01*
X142982250Y-93201919D01*
X143003074Y-93196703D01*
X143024309Y-93193553D01*
X143045750Y-93192500D01*
X143558250Y-93192500D01*
X143579691Y-93193553D01*
X143579691Y-93193553D01*
G37*
D11*
G04 #@! TD*
G04 #@! TO.P,C9,1*
G04 #@! TO.N,DVDD*
X143302000Y-93630000D03*
D10*
G04 #@! TO.N,DGND*
G04 #@! TO.C,C9*
G36*
X143579691Y-94768553D02*
X143600926Y-94771703D01*
X143621750Y-94776919D01*
X143641962Y-94784151D01*
X143661368Y-94793330D01*
X143679781Y-94804366D01*
X143697024Y-94817154D01*
X143712930Y-94831570D01*
X143727346Y-94847476D01*
X143740134Y-94864719D01*
X143751170Y-94883132D01*
X143760349Y-94902538D01*
X143767581Y-94922750D01*
X143772797Y-94943574D01*
X143775947Y-94964809D01*
X143777000Y-94986250D01*
X143777000Y-95423750D01*
X143775947Y-95445191D01*
X143772797Y-95466426D01*
X143767581Y-95487250D01*
X143760349Y-95507462D01*
X143751170Y-95526868D01*
X143740134Y-95545281D01*
X143727346Y-95562524D01*
X143712930Y-95578430D01*
X143697024Y-95592846D01*
X143679781Y-95605634D01*
X143661368Y-95616670D01*
X143641962Y-95625849D01*
X143621750Y-95633081D01*
X143600926Y-95638297D01*
X143579691Y-95641447D01*
X143558250Y-95642500D01*
X143045750Y-95642500D01*
X143024309Y-95641447D01*
X143003074Y-95638297D01*
X142982250Y-95633081D01*
X142962038Y-95625849D01*
X142942632Y-95616670D01*
X142924219Y-95605634D01*
X142906976Y-95592846D01*
X142891070Y-95578430D01*
X142876654Y-95562524D01*
X142863866Y-95545281D01*
X142852830Y-95526868D01*
X142843651Y-95507462D01*
X142836419Y-95487250D01*
X142831203Y-95466426D01*
X142828053Y-95445191D01*
X142827000Y-95423750D01*
X142827000Y-94986250D01*
X142828053Y-94964809D01*
X142831203Y-94943574D01*
X142836419Y-94922750D01*
X142843651Y-94902538D01*
X142852830Y-94883132D01*
X142863866Y-94864719D01*
X142876654Y-94847476D01*
X142891070Y-94831570D01*
X142906976Y-94817154D01*
X142924219Y-94804366D01*
X142942632Y-94793330D01*
X142962038Y-94784151D01*
X142982250Y-94776919D01*
X143003074Y-94771703D01*
X143024309Y-94768553D01*
X143045750Y-94767500D01*
X143558250Y-94767500D01*
X143579691Y-94768553D01*
X143579691Y-94768553D01*
G37*
D11*
G04 #@! TD*
G04 #@! TO.P,C9,2*
G04 #@! TO.N,DGND*
X143302000Y-95205000D03*
D15*
G04 #@! TO.P,X1,1*
G04 #@! TO.N,DVDD*
X145026000Y-93422000D03*
G04 #@! TO.P,X1,2*
G04 #@! TO.N,DGND*
X146426000Y-93422000D03*
G04 #@! TO.P,X1,3*
G04 #@! TO.N,/FCLK*
X146426000Y-92322000D03*
G04 #@! TO.P,X1,4*
G04 #@! TO.N,DVDD*
X145026000Y-92322000D03*
G04 #@! TD*
D16*
G04 #@! TO.P,J1,1*
G04 #@! TO.N,Net-(IC1-Pad6)*
X130830000Y-86270000D03*
D17*
G04 #@! TO.P,J1,2*
G04 #@! TO.N,Net-(IC1-Pad7)*
X130830000Y-88810000D03*
G04 #@! TD*
D16*
G04 #@! TO.P,J1,1*
G04 #@! TO.N,/P02*
X130860000Y-103820000D03*
D17*
G04 #@! TO.P,J1,2*
G04 #@! TO.N,/LOAD_SW_CTRL*
X133400000Y-103820000D03*
G04 #@! TO.P,J1,3*
G04 #@! TO.N,/AIN_BAT_DIV_VOLTAGE*
X135940000Y-103820000D03*
G04 #@! TO.P,J1,4*
G04 #@! TO.N,/P05*
X138480000Y-103820000D03*
G04 #@! TO.P,J1,5*
G04 #@! TO.N,/P06*
X141020000Y-103820000D03*
G04 #@! TO.P,J1,6*
G04 #@! TO.N,/P07*
X143560000Y-103820000D03*
G04 #@! TO.P,J1,7*
G04 #@! TO.N,/P08*
X146100000Y-103820000D03*
G04 #@! TO.P,J1,8*
G04 #@! TO.N,/P09*
X148640000Y-103820000D03*
G04 #@! TO.P,J1,9*
G04 #@! TO.N,/P10*
X151180000Y-103820000D03*
G04 #@! TD*
D16*
G04 #@! TO.P,J3,1*
G04 #@! TO.N,AGND*
X130850000Y-92470000D03*
D17*
G04 #@! TO.P,J3,2*
G04 #@! TO.N,AVDD*
X130850000Y-95010000D03*
G04 #@! TO.P,J3,3*
G04 #@! TO.N,DGND*
X130850000Y-97550000D03*
G04 #@! TO.P,J3,4*
G04 #@! TO.N,DVDD*
X130850000Y-100090000D03*
G04 #@! TD*
D16*
G04 #@! TO.P,J2,1*
G04 #@! TO.N,/MAX30003_CSB*
X154836000Y-103820000D03*
D17*
G04 #@! TO.P,J2,2*
G04 #@! TO.N,/MAX30003_SCLK*
X154836000Y-101280000D03*
G04 #@! TO.P,J2,3*
G04 #@! TO.N,/MAX30003_SDI*
X154836000Y-98740000D03*
G04 #@! TO.P,J2,4*
G04 #@! TO.N,/MAX30003_SDO*
X154836000Y-96200000D03*
G04 #@! TO.P,J2,5*
G04 #@! TO.N,/MAX30003_INT2B*
X154836000Y-93660000D03*
G04 #@! TO.P,J2,6*
G04 #@! TO.N,/MAX30003_INTB*
X154836000Y-91120000D03*
G04 #@! TO.P,J2,7*
G04 #@! TO.N,N/C*
X154836000Y-88580000D03*
G04 #@! TO.P,J2,8*
X154836000Y-86040000D03*
G04 #@! TO.P,J2,9*
X154836000Y-83500000D03*
G04 #@! TO.P,J2,10*
X154836000Y-80960000D03*
G04 #@! TO.P,J2,11*
X154836000Y-78420000D03*
G04 #@! TD*
G04 #@! TO.P,J3,2*
G04 #@! TO.N,/SWDCLK*
X151042000Y-78440000D03*
D16*
G04 #@! TO.P,J3,1*
G04 #@! TO.N,/SWDIO*
X148502000Y-78440000D03*
G04 #@! TD*
D10*
G04 #@! TO.N,Net-(C1-Pad2)*
G04 #@! TO.C,C1*
G36*
X140830142Y-83861174D02*
X140853803Y-83864684D01*
X140877007Y-83870496D01*
X140899529Y-83878554D01*
X140921153Y-83888782D01*
X140941670Y-83901079D01*
X140960883Y-83915329D01*
X140978607Y-83931393D01*
X140994671Y-83949117D01*
X141008921Y-83968330D01*
X141021218Y-83988847D01*
X141031446Y-84010471D01*
X141039504Y-84032993D01*
X141045316Y-84056197D01*
X141048826Y-84079858D01*
X141050000Y-84103750D01*
X141050000Y-84591250D01*
X141048826Y-84615142D01*
X141045316Y-84638803D01*
X141039504Y-84662007D01*
X141031446Y-84684529D01*
X141021218Y-84706153D01*
X141008921Y-84726670D01*
X140994671Y-84745883D01*
X140978607Y-84763607D01*
X140960883Y-84779671D01*
X140941670Y-84793921D01*
X140921153Y-84806218D01*
X140899529Y-84816446D01*
X140877007Y-84824504D01*
X140853803Y-84830316D01*
X140830142Y-84833826D01*
X140806250Y-84835000D01*
X139893750Y-84835000D01*
X139869858Y-84833826D01*
X139846197Y-84830316D01*
X139822993Y-84824504D01*
X139800471Y-84816446D01*
X139778847Y-84806218D01*
X139758330Y-84793921D01*
X139739117Y-84779671D01*
X139721393Y-84763607D01*
X139705329Y-84745883D01*
X139691079Y-84726670D01*
X139678782Y-84706153D01*
X139668554Y-84684529D01*
X139660496Y-84662007D01*
X139654684Y-84638803D01*
X139651174Y-84615142D01*
X139650000Y-84591250D01*
X139650000Y-84103750D01*
X139651174Y-84079858D01*
X139654684Y-84056197D01*
X139660496Y-84032993D01*
X139668554Y-84010471D01*
X139678782Y-83988847D01*
X139691079Y-83968330D01*
X139705329Y-83949117D01*
X139721393Y-83931393D01*
X139739117Y-83915329D01*
X139758330Y-83901079D01*
X139778847Y-83888782D01*
X139800471Y-83878554D01*
X139822993Y-83870496D01*
X139846197Y-83864684D01*
X139869858Y-83861174D01*
X139893750Y-83860000D01*
X140806250Y-83860000D01*
X140830142Y-83861174D01*
X140830142Y-83861174D01*
G37*
D18*
G04 #@! TD*
G04 #@! TO.P,C1,2*
G04 #@! TO.N,Net-(C1-Pad2)*
X140350000Y-84347500D03*
D10*
G04 #@! TO.N,AGND*
G04 #@! TO.C,C1*
G36*
X140830142Y-81986174D02*
X140853803Y-81989684D01*
X140877007Y-81995496D01*
X140899529Y-82003554D01*
X140921153Y-82013782D01*
X140941670Y-82026079D01*
X140960883Y-82040329D01*
X140978607Y-82056393D01*
X140994671Y-82074117D01*
X141008921Y-82093330D01*
X141021218Y-82113847D01*
X141031446Y-82135471D01*
X141039504Y-82157993D01*
X141045316Y-82181197D01*
X141048826Y-82204858D01*
X141050000Y-82228750D01*
X141050000Y-82716250D01*
X141048826Y-82740142D01*
X141045316Y-82763803D01*
X141039504Y-82787007D01*
X141031446Y-82809529D01*
X141021218Y-82831153D01*
X141008921Y-82851670D01*
X140994671Y-82870883D01*
X140978607Y-82888607D01*
X140960883Y-82904671D01*
X140941670Y-82918921D01*
X140921153Y-82931218D01*
X140899529Y-82941446D01*
X140877007Y-82949504D01*
X140853803Y-82955316D01*
X140830142Y-82958826D01*
X140806250Y-82960000D01*
X139893750Y-82960000D01*
X139869858Y-82958826D01*
X139846197Y-82955316D01*
X139822993Y-82949504D01*
X139800471Y-82941446D01*
X139778847Y-82931218D01*
X139758330Y-82918921D01*
X139739117Y-82904671D01*
X139721393Y-82888607D01*
X139705329Y-82870883D01*
X139691079Y-82851670D01*
X139678782Y-82831153D01*
X139668554Y-82809529D01*
X139660496Y-82787007D01*
X139654684Y-82763803D01*
X139651174Y-82740142D01*
X139650000Y-82716250D01*
X139650000Y-82228750D01*
X139651174Y-82204858D01*
X139654684Y-82181197D01*
X139660496Y-82157993D01*
X139668554Y-82135471D01*
X139678782Y-82113847D01*
X139691079Y-82093330D01*
X139705329Y-82074117D01*
X139721393Y-82056393D01*
X139739117Y-82040329D01*
X139758330Y-82026079D01*
X139778847Y-82013782D01*
X139800471Y-82003554D01*
X139822993Y-81995496D01*
X139846197Y-81989684D01*
X139869858Y-81986174D01*
X139893750Y-81985000D01*
X140806250Y-81985000D01*
X140830142Y-81986174D01*
X140830142Y-81986174D01*
G37*
D18*
G04 #@! TD*
G04 #@! TO.P,C1,1*
G04 #@! TO.N,AGND*
X140350000Y-82472500D03*
D10*
G04 #@! TO.N,Net-(C2-Pad1)*
G04 #@! TO.C,C2*
G36*
X143090142Y-83878674D02*
X143113803Y-83882184D01*
X143137007Y-83887996D01*
X143159529Y-83896054D01*
X143181153Y-83906282D01*
X143201670Y-83918579D01*
X143220883Y-83932829D01*
X143238607Y-83948893D01*
X143254671Y-83966617D01*
X143268921Y-83985830D01*
X143281218Y-84006347D01*
X143291446Y-84027971D01*
X143299504Y-84050493D01*
X143305316Y-84073697D01*
X143308826Y-84097358D01*
X143310000Y-84121250D01*
X143310000Y-84608750D01*
X143308826Y-84632642D01*
X143305316Y-84656303D01*
X143299504Y-84679507D01*
X143291446Y-84702029D01*
X143281218Y-84723653D01*
X143268921Y-84744170D01*
X143254671Y-84763383D01*
X143238607Y-84781107D01*
X143220883Y-84797171D01*
X143201670Y-84811421D01*
X143181153Y-84823718D01*
X143159529Y-84833946D01*
X143137007Y-84842004D01*
X143113803Y-84847816D01*
X143090142Y-84851326D01*
X143066250Y-84852500D01*
X142153750Y-84852500D01*
X142129858Y-84851326D01*
X142106197Y-84847816D01*
X142082993Y-84842004D01*
X142060471Y-84833946D01*
X142038847Y-84823718D01*
X142018330Y-84811421D01*
X141999117Y-84797171D01*
X141981393Y-84781107D01*
X141965329Y-84763383D01*
X141951079Y-84744170D01*
X141938782Y-84723653D01*
X141928554Y-84702029D01*
X141920496Y-84679507D01*
X141914684Y-84656303D01*
X141911174Y-84632642D01*
X141910000Y-84608750D01*
X141910000Y-84121250D01*
X141911174Y-84097358D01*
X141914684Y-84073697D01*
X141920496Y-84050493D01*
X141928554Y-84027971D01*
X141938782Y-84006347D01*
X141951079Y-83985830D01*
X141965329Y-83966617D01*
X141981393Y-83948893D01*
X141999117Y-83932829D01*
X142018330Y-83918579D01*
X142038847Y-83906282D01*
X142060471Y-83896054D01*
X142082993Y-83887996D01*
X142106197Y-83882184D01*
X142129858Y-83878674D01*
X142153750Y-83877500D01*
X143066250Y-83877500D01*
X143090142Y-83878674D01*
X143090142Y-83878674D01*
G37*
D18*
G04 #@! TD*
G04 #@! TO.P,C2,1*
G04 #@! TO.N,Net-(C2-Pad1)*
X142610000Y-84365000D03*
D10*
G04 #@! TO.N,AGND*
G04 #@! TO.C,C2*
G36*
X143090142Y-82003674D02*
X143113803Y-82007184D01*
X143137007Y-82012996D01*
X143159529Y-82021054D01*
X143181153Y-82031282D01*
X143201670Y-82043579D01*
X143220883Y-82057829D01*
X143238607Y-82073893D01*
X143254671Y-82091617D01*
X143268921Y-82110830D01*
X143281218Y-82131347D01*
X143291446Y-82152971D01*
X143299504Y-82175493D01*
X143305316Y-82198697D01*
X143308826Y-82222358D01*
X143310000Y-82246250D01*
X143310000Y-82733750D01*
X143308826Y-82757642D01*
X143305316Y-82781303D01*
X143299504Y-82804507D01*
X143291446Y-82827029D01*
X143281218Y-82848653D01*
X143268921Y-82869170D01*
X143254671Y-82888383D01*
X143238607Y-82906107D01*
X143220883Y-82922171D01*
X143201670Y-82936421D01*
X143181153Y-82948718D01*
X143159529Y-82958946D01*
X143137007Y-82967004D01*
X143113803Y-82972816D01*
X143090142Y-82976326D01*
X143066250Y-82977500D01*
X142153750Y-82977500D01*
X142129858Y-82976326D01*
X142106197Y-82972816D01*
X142082993Y-82967004D01*
X142060471Y-82958946D01*
X142038847Y-82948718D01*
X142018330Y-82936421D01*
X141999117Y-82922171D01*
X141981393Y-82906107D01*
X141965329Y-82888383D01*
X141951079Y-82869170D01*
X141938782Y-82848653D01*
X141928554Y-82827029D01*
X141920496Y-82804507D01*
X141914684Y-82781303D01*
X141911174Y-82757642D01*
X141910000Y-82733750D01*
X141910000Y-82246250D01*
X141911174Y-82222358D01*
X141914684Y-82198697D01*
X141920496Y-82175493D01*
X141928554Y-82152971D01*
X141938782Y-82131347D01*
X141951079Y-82110830D01*
X141965329Y-82091617D01*
X141981393Y-82073893D01*
X141999117Y-82057829D01*
X142018330Y-82043579D01*
X142038847Y-82031282D01*
X142060471Y-82021054D01*
X142082993Y-82012996D01*
X142106197Y-82007184D01*
X142129858Y-82003674D01*
X142153750Y-82002500D01*
X143066250Y-82002500D01*
X143090142Y-82003674D01*
X143090142Y-82003674D01*
G37*
D18*
G04 #@! TD*
G04 #@! TO.P,C2,2*
G04 #@! TO.N,AGND*
X142610000Y-82490000D03*
D10*
G04 #@! TO.N,AGND*
G04 #@! TO.C,C6*
G36*
X145116142Y-84133174D02*
X145139803Y-84136684D01*
X145163007Y-84142496D01*
X145185529Y-84150554D01*
X145207153Y-84160782D01*
X145227670Y-84173079D01*
X145246883Y-84187329D01*
X145264607Y-84203393D01*
X145280671Y-84221117D01*
X145294921Y-84240330D01*
X145307218Y-84260847D01*
X145317446Y-84282471D01*
X145325504Y-84304993D01*
X145331316Y-84328197D01*
X145334826Y-84351858D01*
X145336000Y-84375750D01*
X145336000Y-85288250D01*
X145334826Y-85312142D01*
X145331316Y-85335803D01*
X145325504Y-85359007D01*
X145317446Y-85381529D01*
X145307218Y-85403153D01*
X145294921Y-85423670D01*
X145280671Y-85442883D01*
X145264607Y-85460607D01*
X145246883Y-85476671D01*
X145227670Y-85490921D01*
X145207153Y-85503218D01*
X145185529Y-85513446D01*
X145163007Y-85521504D01*
X145139803Y-85527316D01*
X145116142Y-85530826D01*
X145092250Y-85532000D01*
X144604750Y-85532000D01*
X144580858Y-85530826D01*
X144557197Y-85527316D01*
X144533993Y-85521504D01*
X144511471Y-85513446D01*
X144489847Y-85503218D01*
X144469330Y-85490921D01*
X144450117Y-85476671D01*
X144432393Y-85460607D01*
X144416329Y-85442883D01*
X144402079Y-85423670D01*
X144389782Y-85403153D01*
X144379554Y-85381529D01*
X144371496Y-85359007D01*
X144365684Y-85335803D01*
X144362174Y-85312142D01*
X144361000Y-85288250D01*
X144361000Y-84375750D01*
X144362174Y-84351858D01*
X144365684Y-84328197D01*
X144371496Y-84304993D01*
X144379554Y-84282471D01*
X144389782Y-84260847D01*
X144402079Y-84240330D01*
X144416329Y-84221117D01*
X144432393Y-84203393D01*
X144450117Y-84187329D01*
X144469330Y-84173079D01*
X144489847Y-84160782D01*
X144511471Y-84150554D01*
X144533993Y-84142496D01*
X144557197Y-84136684D01*
X144580858Y-84133174D01*
X144604750Y-84132000D01*
X145092250Y-84132000D01*
X145116142Y-84133174D01*
X145116142Y-84133174D01*
G37*
D18*
G04 #@! TD*
G04 #@! TO.P,C6,2*
G04 #@! TO.N,AGND*
X144848500Y-84832000D03*
D10*
G04 #@! TO.N,AVDD*
G04 #@! TO.C,C6*
G36*
X146991142Y-84133174D02*
X147014803Y-84136684D01*
X147038007Y-84142496D01*
X147060529Y-84150554D01*
X147082153Y-84160782D01*
X147102670Y-84173079D01*
X147121883Y-84187329D01*
X147139607Y-84203393D01*
X147155671Y-84221117D01*
X147169921Y-84240330D01*
X147182218Y-84260847D01*
X147192446Y-84282471D01*
X147200504Y-84304993D01*
X147206316Y-84328197D01*
X147209826Y-84351858D01*
X147211000Y-84375750D01*
X147211000Y-85288250D01*
X147209826Y-85312142D01*
X147206316Y-85335803D01*
X147200504Y-85359007D01*
X147192446Y-85381529D01*
X147182218Y-85403153D01*
X147169921Y-85423670D01*
X147155671Y-85442883D01*
X147139607Y-85460607D01*
X147121883Y-85476671D01*
X147102670Y-85490921D01*
X147082153Y-85503218D01*
X147060529Y-85513446D01*
X147038007Y-85521504D01*
X147014803Y-85527316D01*
X146991142Y-85530826D01*
X146967250Y-85532000D01*
X146479750Y-85532000D01*
X146455858Y-85530826D01*
X146432197Y-85527316D01*
X146408993Y-85521504D01*
X146386471Y-85513446D01*
X146364847Y-85503218D01*
X146344330Y-85490921D01*
X146325117Y-85476671D01*
X146307393Y-85460607D01*
X146291329Y-85442883D01*
X146277079Y-85423670D01*
X146264782Y-85403153D01*
X146254554Y-85381529D01*
X146246496Y-85359007D01*
X146240684Y-85335803D01*
X146237174Y-85312142D01*
X146236000Y-85288250D01*
X146236000Y-84375750D01*
X146237174Y-84351858D01*
X146240684Y-84328197D01*
X146246496Y-84304993D01*
X146254554Y-84282471D01*
X146264782Y-84260847D01*
X146277079Y-84240330D01*
X146291329Y-84221117D01*
X146307393Y-84203393D01*
X146325117Y-84187329D01*
X146344330Y-84173079D01*
X146364847Y-84160782D01*
X146386471Y-84150554D01*
X146408993Y-84142496D01*
X146432197Y-84136684D01*
X146455858Y-84133174D01*
X146479750Y-84132000D01*
X146967250Y-84132000D01*
X146991142Y-84133174D01*
X146991142Y-84133174D01*
G37*
D18*
G04 #@! TD*
G04 #@! TO.P,C6,1*
G04 #@! TO.N,AVDD*
X146723500Y-84832000D03*
D10*
G04 #@! TO.N,DGND*
G04 #@! TO.C,C8*
G36*
X141880142Y-95811174D02*
X141903803Y-95814684D01*
X141927007Y-95820496D01*
X141949529Y-95828554D01*
X141971153Y-95838782D01*
X141991670Y-95851079D01*
X142010883Y-95865329D01*
X142028607Y-95881393D01*
X142044671Y-95899117D01*
X142058921Y-95918330D01*
X142071218Y-95938847D01*
X142081446Y-95960471D01*
X142089504Y-95982993D01*
X142095316Y-96006197D01*
X142098826Y-96029858D01*
X142100000Y-96053750D01*
X142100000Y-96541250D01*
X142098826Y-96565142D01*
X142095316Y-96588803D01*
X142089504Y-96612007D01*
X142081446Y-96634529D01*
X142071218Y-96656153D01*
X142058921Y-96676670D01*
X142044671Y-96695883D01*
X142028607Y-96713607D01*
X142010883Y-96729671D01*
X141991670Y-96743921D01*
X141971153Y-96756218D01*
X141949529Y-96766446D01*
X141927007Y-96774504D01*
X141903803Y-96780316D01*
X141880142Y-96783826D01*
X141856250Y-96785000D01*
X140943750Y-96785000D01*
X140919858Y-96783826D01*
X140896197Y-96780316D01*
X140872993Y-96774504D01*
X140850471Y-96766446D01*
X140828847Y-96756218D01*
X140808330Y-96743921D01*
X140789117Y-96729671D01*
X140771393Y-96713607D01*
X140755329Y-96695883D01*
X140741079Y-96676670D01*
X140728782Y-96656153D01*
X140718554Y-96634529D01*
X140710496Y-96612007D01*
X140704684Y-96588803D01*
X140701174Y-96565142D01*
X140700000Y-96541250D01*
X140700000Y-96053750D01*
X140701174Y-96029858D01*
X140704684Y-96006197D01*
X140710496Y-95982993D01*
X140718554Y-95960471D01*
X140728782Y-95938847D01*
X140741079Y-95918330D01*
X140755329Y-95899117D01*
X140771393Y-95881393D01*
X140789117Y-95865329D01*
X140808330Y-95851079D01*
X140828847Y-95838782D01*
X140850471Y-95828554D01*
X140872993Y-95820496D01*
X140896197Y-95814684D01*
X140919858Y-95811174D01*
X140943750Y-95810000D01*
X141856250Y-95810000D01*
X141880142Y-95811174D01*
X141880142Y-95811174D01*
G37*
D18*
G04 #@! TD*
G04 #@! TO.P,C8,1*
G04 #@! TO.N,DGND*
X141400000Y-96297500D03*
D10*
G04 #@! TO.N,DVDD*
G04 #@! TO.C,C8*
G36*
X141880142Y-93936174D02*
X141903803Y-93939684D01*
X141927007Y-93945496D01*
X141949529Y-93953554D01*
X141971153Y-93963782D01*
X141991670Y-93976079D01*
X142010883Y-93990329D01*
X142028607Y-94006393D01*
X142044671Y-94024117D01*
X142058921Y-94043330D01*
X142071218Y-94063847D01*
X142081446Y-94085471D01*
X142089504Y-94107993D01*
X142095316Y-94131197D01*
X142098826Y-94154858D01*
X142100000Y-94178750D01*
X142100000Y-94666250D01*
X142098826Y-94690142D01*
X142095316Y-94713803D01*
X142089504Y-94737007D01*
X142081446Y-94759529D01*
X142071218Y-94781153D01*
X142058921Y-94801670D01*
X142044671Y-94820883D01*
X142028607Y-94838607D01*
X142010883Y-94854671D01*
X141991670Y-94868921D01*
X141971153Y-94881218D01*
X141949529Y-94891446D01*
X141927007Y-94899504D01*
X141903803Y-94905316D01*
X141880142Y-94908826D01*
X141856250Y-94910000D01*
X140943750Y-94910000D01*
X140919858Y-94908826D01*
X140896197Y-94905316D01*
X140872993Y-94899504D01*
X140850471Y-94891446D01*
X140828847Y-94881218D01*
X140808330Y-94868921D01*
X140789117Y-94854671D01*
X140771393Y-94838607D01*
X140755329Y-94820883D01*
X140741079Y-94801670D01*
X140728782Y-94781153D01*
X140718554Y-94759529D01*
X140710496Y-94737007D01*
X140704684Y-94713803D01*
X140701174Y-94690142D01*
X140700000Y-94666250D01*
X140700000Y-94178750D01*
X140701174Y-94154858D01*
X140704684Y-94131197D01*
X140710496Y-94107993D01*
X140718554Y-94085471D01*
X140728782Y-94063847D01*
X140741079Y-94043330D01*
X140755329Y-94024117D01*
X140771393Y-94006393D01*
X140789117Y-93990329D01*
X140808330Y-93976079D01*
X140828847Y-93963782D01*
X140850471Y-93953554D01*
X140872993Y-93945496D01*
X140896197Y-93939684D01*
X140919858Y-93936174D01*
X140943750Y-93935000D01*
X141856250Y-93935000D01*
X141880142Y-93936174D01*
X141880142Y-93936174D01*
G37*
D18*
G04 #@! TD*
G04 #@! TO.P,C8,2*
G04 #@! TO.N,DVDD*
X141400000Y-94422500D03*
D19*
G04 #@! TO.N,AGND*
X141770000Y-90480000D03*
G04 #@! TO.N,AVDD*
X134366000Y-94996000D03*
X146370000Y-88590000D03*
X147660000Y-82760000D03*
G04 #@! TD*
D20*
G04 #@! TO.N,AGND*
X141666000Y-87554000D02*
X141166000Y-88054000D01*
X141666000Y-86902000D02*
X141666000Y-87554000D01*
X141166000Y-88054000D02*
X141166000Y-88800000D01*
X140666000Y-87554000D02*
X141166000Y-88054000D01*
X140666000Y-86902000D02*
X140666000Y-87554000D01*
X139666000Y-87752000D02*
X141166000Y-89252000D01*
X139666000Y-86902000D02*
X139666000Y-87752000D01*
X139666000Y-90752000D02*
X141166000Y-89252000D01*
X138816000Y-87752000D02*
X138816000Y-89752000D01*
X140666000Y-88752000D02*
X141166000Y-89252000D01*
X138816000Y-88752000D02*
X140666000Y-88752000D01*
X145013500Y-83282000D02*
X144996000Y-83282000D01*
X144991000Y-83287000D02*
X144996000Y-83282000D01*
D21*
X144996000Y-84829500D02*
X144998500Y-84832000D01*
X144996000Y-83282000D02*
X144996000Y-84829500D01*
D20*
X141166000Y-88800000D02*
X141166000Y-89252000D01*
D21*
G04 #@! TO.N,Net-(C1-Pad2)*
X141166000Y-85163500D02*
X140350000Y-84347500D01*
X141166000Y-86902000D02*
X141166000Y-85163500D01*
D20*
G04 #@! TO.N,AVDD*
X142720000Y-86848000D02*
X142666000Y-86902000D01*
D21*
X146573500Y-84832000D02*
X146573500Y-85407000D01*
X146571000Y-84829500D02*
X146573500Y-84832000D01*
D22*
X146571000Y-83282000D02*
X146571000Y-84829500D01*
X130850000Y-95010000D02*
X134352000Y-95010000D01*
X134352000Y-95010000D02*
X134366000Y-94996000D01*
D23*
X146452000Y-88752000D02*
X146558000Y-88646000D01*
X143516000Y-88752000D02*
X146452000Y-88752000D01*
D22*
X146629000Y-83340000D02*
X146571000Y-83282000D01*
X146723500Y-84832000D02*
X144725500Y-86830000D01*
X144725500Y-86830000D02*
X143330000Y-86830000D01*
D21*
X143258000Y-86902000D02*
X142666000Y-86902000D01*
X143330000Y-86830000D02*
X143258000Y-86902000D01*
X147570000Y-82850000D02*
X147660000Y-82760000D01*
X146497500Y-82850000D02*
X147570000Y-82850000D01*
D20*
G04 #@! TO.N,DVDD*
X144818000Y-93630000D02*
X145026000Y-93422000D01*
X145026000Y-93422000D02*
X145076000Y-93422000D01*
X145026000Y-93422000D02*
X144976000Y-93422000D01*
X145026000Y-94754500D02*
X145086000Y-94814500D01*
X143510000Y-93422000D02*
X143302000Y-93630000D01*
X145026000Y-93422000D02*
X143510000Y-93422000D01*
X145086000Y-93482000D02*
X145026000Y-93422000D01*
X145086000Y-94814500D02*
X145086000Y-93482000D01*
D21*
X145026000Y-92322000D02*
X145026000Y-93422000D01*
D22*
X145547612Y-95276112D02*
X145086000Y-94814500D01*
X145942010Y-95670510D02*
X145547612Y-95276112D01*
X145942010Y-96933108D02*
X145942010Y-95670510D01*
X142785118Y-100090000D02*
X145942010Y-96933108D01*
X130850000Y-100090000D02*
X142785118Y-100090000D01*
D21*
X142802000Y-94130000D02*
X143302000Y-93630000D01*
X141340000Y-94130000D02*
X142802000Y-94130000D01*
X142166000Y-92494000D02*
X143302000Y-93630000D01*
X142166000Y-91602000D02*
X142166000Y-92494000D01*
G04 #@! TO.N,/FCLK*
X142666000Y-91602000D02*
X146309200Y-91602000D01*
X147357612Y-94320388D02*
X146896000Y-94782000D01*
X147357612Y-92600412D02*
X147357612Y-94320388D01*
X147079200Y-92322000D02*
X147357612Y-92600412D01*
X146426000Y-92322000D02*
X147079200Y-92322000D01*
X146426000Y-91718800D02*
X146426000Y-92322000D01*
X146309200Y-91602000D02*
X146426000Y-91718800D01*
G04 #@! TO.N,Net-(IC1-Pad7)*
X130830000Y-88810000D02*
X132772000Y-90752000D01*
D22*
X132881610Y-90861610D02*
X135866692Y-90861610D01*
X130830000Y-88810000D02*
X132881610Y-90861610D01*
X135866692Y-90861610D02*
X137800000Y-90861610D01*
D21*
X137909610Y-90752000D02*
X137800000Y-90861610D01*
X138816000Y-90752000D02*
X137909610Y-90752000D01*
G04 #@! TO.N,Net-(IC1-Pad6)*
X138112800Y-90252000D02*
X138816000Y-90252000D01*
D22*
X136119200Y-90252000D02*
X138112800Y-90252000D01*
X132137200Y-86270000D02*
X136119200Y-90252000D01*
X130830000Y-86270000D02*
X132137200Y-86270000D01*
D20*
G04 #@! TO.N,DGND*
X143302000Y-95096000D02*
X143302000Y-95205000D01*
X146426000Y-93422000D02*
X146376000Y-93422000D01*
X146623500Y-96389500D02*
X146626000Y-96387000D01*
X143901500Y-95205000D02*
X145086000Y-96389500D01*
X143302000Y-95205000D02*
X143901500Y-95205000D01*
X147087612Y-95925388D02*
X146626000Y-96387000D01*
X146426000Y-93422000D02*
X146476000Y-93422000D01*
X146426000Y-93974000D02*
X146426000Y-93422000D01*
X146192590Y-94207410D02*
X146426000Y-93974000D01*
X146192590Y-95185972D02*
X146192590Y-94207410D01*
X146434388Y-95427770D02*
X146192590Y-95185972D01*
X146434388Y-95895388D02*
X146434388Y-95427770D01*
X146896000Y-96357000D02*
X146434388Y-95895388D01*
D22*
X130000001Y-98399999D02*
X130850000Y-97550000D01*
X129695199Y-101321001D02*
X129618999Y-101244801D01*
X129618999Y-101244801D02*
X129618999Y-98781001D01*
X129618999Y-98781001D02*
X130000001Y-98399999D01*
X146896000Y-96357000D02*
X146896000Y-98468000D01*
X144042999Y-101321001D02*
X142240000Y-101321001D01*
X146896000Y-98468000D02*
X144042999Y-101321001D01*
X142469499Y-101321001D02*
X142240000Y-101321001D01*
X142240000Y-101321001D02*
X129695199Y-101321001D01*
X132348000Y-97550000D02*
X130850000Y-97550000D01*
X133771001Y-98973001D02*
X132348000Y-97550000D01*
X143039999Y-98973001D02*
X133771001Y-98973001D01*
X145086000Y-96389500D02*
X145086000Y-96927000D01*
X145086000Y-96927000D02*
X143039999Y-98973001D01*
D21*
X142502000Y-96005000D02*
X143302000Y-95205000D01*
X141340000Y-96005000D02*
X142502000Y-96005000D01*
X139885612Y-94763388D02*
X139424000Y-95225000D01*
X139885612Y-94532948D02*
X139885612Y-94763388D01*
X141666000Y-92752560D02*
X139885612Y-94532948D01*
X141666000Y-91602000D02*
X141666000Y-92752560D01*
X139312800Y-91602000D02*
X139310800Y-91600000D01*
X139666000Y-91602000D02*
X139312800Y-91602000D01*
D22*
X139424000Y-96001500D02*
X139720000Y-96297500D01*
X139424000Y-95225000D02*
X139424000Y-96001500D01*
X139720000Y-96297500D02*
X141400000Y-96297500D01*
X137262500Y-96297500D02*
X139720000Y-96297500D01*
X138073488Y-91600000D02*
X136620000Y-91600000D01*
X139312800Y-91602000D02*
X138075488Y-91602000D01*
X136620000Y-91600000D02*
X136050000Y-92170000D01*
X138075488Y-91602000D02*
X138073488Y-91600000D01*
X136050000Y-92170000D02*
X136050000Y-95110000D01*
X136050000Y-95110000D02*
X137262500Y-96297500D01*
D21*
G04 #@! TO.N,Net-(C2-Pad1)*
X142166000Y-84809000D02*
X142610000Y-84365000D01*
X142166000Y-86902000D02*
X142166000Y-84809000D01*
G04 #@! TO.N,Net-(C3-Pad1)*
X140166000Y-86198800D02*
X140166000Y-86902000D01*
X140166000Y-86018500D02*
X140166000Y-86198800D01*
X138185000Y-84037500D02*
X140166000Y-86018500D01*
X137610000Y-84037500D02*
X138185000Y-84037500D01*
G04 #@! TO.N,Net-(C10-Pad1)*
X140666000Y-92305200D02*
X140666000Y-91602000D01*
X140666000Y-92584000D02*
X140666000Y-92305200D01*
X140460000Y-92790000D02*
X140666000Y-92584000D01*
X138718000Y-92790000D02*
X140460000Y-92790000D01*
X137866000Y-93642000D02*
X138718000Y-92790000D01*
D20*
G04 #@! TO.N,Net-(C10-Pad2)*
X137162590Y-94513590D02*
X137404388Y-94755388D01*
D21*
X137404388Y-94755388D02*
X137866000Y-95217000D01*
X137136990Y-94487990D02*
X137404388Y-94755388D01*
X137136990Y-93227424D02*
X137136990Y-94487990D01*
X137930024Y-92434390D02*
X137136990Y-93227424D01*
X140036810Y-92434390D02*
X137930024Y-92434390D01*
X140166000Y-92305200D02*
X140036810Y-92434390D01*
X140166000Y-91602000D02*
X140166000Y-92305200D01*
D20*
G04 #@! TO.N,Net-(C11-Pad1)*
X139424000Y-93255500D02*
X139424000Y-93650000D01*
D21*
X139885612Y-93188388D02*
X139424000Y-93650000D01*
X140564520Y-93188388D02*
X139885612Y-93188388D01*
X141166000Y-92586908D02*
X140564520Y-93188388D01*
X141166000Y-91602000D02*
X141166000Y-92586908D01*
G04 #@! TO.N,/SWDIO*
X147446800Y-78440000D02*
X148500000Y-78440000D01*
D23*
G04 #@! TO.N,/MAX30003_SDO*
X150100000Y-96200000D02*
X154836000Y-96200000D01*
X149362820Y-95462820D02*
X150100000Y-96200000D01*
X149362820Y-92181648D02*
X149362820Y-95462820D01*
X143516000Y-89252000D02*
X146433172Y-89252000D01*
X146433172Y-89252000D02*
X149362820Y-92181648D01*
G04 #@! TO.N,/MAX30003_SDI*
X143516000Y-89752000D02*
X146358422Y-89752000D01*
X148956410Y-92349988D02*
X148956410Y-97716410D01*
X146358422Y-89752000D02*
X148956410Y-92349988D01*
X149980000Y-98740000D02*
X154836000Y-98740000D01*
X148956410Y-97716410D02*
X149980000Y-98740000D01*
G04 #@! TO.N,/MAX30003_SCLK*
X146283672Y-90252000D02*
X148550000Y-92518328D01*
X143516000Y-90252000D02*
X146283672Y-90252000D01*
X148550000Y-92930000D02*
X148536410Y-92943590D01*
X148550000Y-92518328D02*
X148550000Y-92930000D01*
X148536410Y-92943590D02*
X148536410Y-98049660D01*
X151766750Y-101280000D02*
X154836000Y-101280000D01*
X148536410Y-98049660D02*
X151766750Y-101280000D01*
G04 #@! TO.N,/MAX30003_CSB*
X146208922Y-90752000D02*
X148130000Y-92673078D01*
X143516000Y-90752000D02*
X146208922Y-90752000D01*
X153732000Y-103820000D02*
X154836000Y-103820000D01*
X148130000Y-98218000D02*
X153732000Y-103820000D01*
X148130000Y-92673078D02*
X148130000Y-98218000D01*
G04 #@! TO.N,/MAX30003_INTB*
X143516000Y-87752000D02*
X145178000Y-87752000D01*
X145656410Y-87273590D02*
X147208341Y-87273591D01*
X145178000Y-87752000D02*
X145656410Y-87273590D01*
X147956410Y-88021660D02*
X147956410Y-89536410D01*
X147208341Y-87273591D02*
X147956410Y-88021660D01*
X149540000Y-91120000D02*
X154836000Y-91120000D01*
X147956410Y-89536410D02*
X149540000Y-91120000D01*
G04 #@! TO.N,/MAX30003_INT2B*
X150750000Y-93660000D02*
X154836000Y-93660000D01*
X149769230Y-92679230D02*
X150750000Y-93660000D01*
X149769230Y-92013308D02*
X149769230Y-92679230D01*
X145448000Y-88252000D02*
X146020000Y-87680000D01*
X143516000Y-88252000D02*
X145448000Y-88252000D01*
X146020000Y-87680000D02*
X147040000Y-87680000D01*
X147040000Y-87680000D02*
X147550000Y-88190000D01*
X147550000Y-88190000D02*
X147550000Y-89794078D01*
X147550000Y-89794078D02*
X149769230Y-92013308D01*
G04 #@! TD*
G04 #@! TO.N,AGND*
G36*
X156743001Y-105171000D02*
X156420433Y-105171000D01*
X156523419Y-105016870D01*
X156592416Y-104670000D01*
X156592416Y-102970000D01*
X156523419Y-102623130D01*
X156326933Y-102329067D01*
X156257508Y-102282679D01*
X156474102Y-101958524D01*
X156609069Y-101280000D01*
X156474102Y-100601476D01*
X156089749Y-100026251D01*
X156065428Y-100010000D01*
X156089749Y-99993749D01*
X156474102Y-99418524D01*
X156609069Y-98740000D01*
X156474102Y-98061476D01*
X156089749Y-97486251D01*
X156065428Y-97470000D01*
X156089749Y-97453749D01*
X156474102Y-96878524D01*
X156609069Y-96200000D01*
X156474102Y-95521476D01*
X156089749Y-94946251D01*
X156065428Y-94930000D01*
X156089749Y-94913749D01*
X156474102Y-94338524D01*
X156609069Y-93660000D01*
X156474102Y-92981476D01*
X156089749Y-92406251D01*
X156065428Y-92390000D01*
X156089749Y-92373749D01*
X156474102Y-91798524D01*
X156609069Y-91120000D01*
X156474102Y-90441476D01*
X156089749Y-89866251D01*
X156065428Y-89850000D01*
X156089749Y-89833749D01*
X156474102Y-89258524D01*
X156609069Y-88580000D01*
X156474102Y-87901476D01*
X156089749Y-87326251D01*
X156065428Y-87310000D01*
X156089749Y-87293749D01*
X156474102Y-86718524D01*
X156609069Y-86040000D01*
X156474102Y-85361476D01*
X156089749Y-84786251D01*
X156065428Y-84770000D01*
X156089749Y-84753749D01*
X156474102Y-84178524D01*
X156609069Y-83500000D01*
X156474102Y-82821476D01*
X156089749Y-82246251D01*
X156065428Y-82230000D01*
X156089749Y-82213749D01*
X156474102Y-81638524D01*
X156609069Y-80960000D01*
X156474102Y-80281476D01*
X156089749Y-79706251D01*
X156065428Y-79690000D01*
X156089749Y-79673749D01*
X156474102Y-79098524D01*
X156609069Y-78420000D01*
X156474102Y-77741476D01*
X156089749Y-77166251D01*
X155514524Y-76781898D01*
X155007276Y-76681000D01*
X154664724Y-76681000D01*
X154157476Y-76781898D01*
X153582251Y-77166251D01*
X153197898Y-77741476D01*
X153062931Y-78420000D01*
X153197898Y-79098524D01*
X153582251Y-79673749D01*
X153606572Y-79690000D01*
X153582251Y-79706251D01*
X153197898Y-80281476D01*
X153062931Y-80960000D01*
X153197898Y-81638524D01*
X153582251Y-82213749D01*
X153606572Y-82230000D01*
X153582251Y-82246251D01*
X153197898Y-82821476D01*
X153062931Y-83500000D01*
X153197898Y-84178524D01*
X153582251Y-84753749D01*
X153606572Y-84770000D01*
X153582251Y-84786251D01*
X153197898Y-85361476D01*
X153062931Y-86040000D01*
X153197898Y-86718524D01*
X153582251Y-87293749D01*
X153606572Y-87310000D01*
X153582251Y-87326251D01*
X153197898Y-87901476D01*
X153062931Y-88580000D01*
X153197898Y-89258524D01*
X153582251Y-89833749D01*
X153606572Y-89850000D01*
X153582251Y-89866251D01*
X153423392Y-90104000D01*
X149960841Y-90104000D01*
X148972410Y-89115570D01*
X148972410Y-88121723D01*
X148992314Y-88021659D01*
X148968408Y-87901476D01*
X148913461Y-87625237D01*
X148907412Y-87616183D01*
X148841975Y-87518250D01*
X148688905Y-87289165D01*
X148604073Y-87232482D01*
X147997518Y-86625928D01*
X147940836Y-86541097D01*
X147856003Y-86484413D01*
X147604764Y-86316541D01*
X147492260Y-86294162D01*
X147780540Y-86101540D01*
X148029865Y-85728399D01*
X148117416Y-85288250D01*
X148117416Y-84375750D01*
X148032122Y-83946946D01*
X148361837Y-83810373D01*
X148710373Y-83461837D01*
X148899000Y-83006452D01*
X148899000Y-82513548D01*
X148710373Y-82058163D01*
X148361837Y-81709627D01*
X147906452Y-81521000D01*
X147413548Y-81521000D01*
X147218198Y-81601917D01*
X147146832Y-81554232D01*
X146716250Y-81468584D01*
X146278750Y-81468584D01*
X145848168Y-81554232D01*
X145538063Y-81761437D01*
X145486309Y-81740000D01*
X145208250Y-81740000D01*
X145049500Y-81898750D01*
X145049500Y-82723000D01*
X145069500Y-82723000D01*
X145069500Y-82977000D01*
X145049500Y-82977000D01*
X145049500Y-83581750D01*
X144975500Y-83655750D01*
X144975500Y-84705000D01*
X144995500Y-84705000D01*
X144995500Y-84959000D01*
X144975500Y-84959000D01*
X144975500Y-84979000D01*
X144721500Y-84979000D01*
X144721500Y-84959000D01*
X144701500Y-84959000D01*
X144701500Y-84705000D01*
X144721500Y-84705000D01*
X144721500Y-83875250D01*
X144795500Y-83801250D01*
X144795500Y-82977000D01*
X144775500Y-82977000D01*
X144775500Y-82723000D01*
X144795500Y-82723000D01*
X144795500Y-81898750D01*
X144636750Y-81740000D01*
X144358691Y-81740000D01*
X144125302Y-81836673D01*
X143946673Y-82015301D01*
X143945000Y-82019340D01*
X143945000Y-81876191D01*
X143848327Y-81642802D01*
X143669699Y-81464173D01*
X143436310Y-81367500D01*
X142895750Y-81367500D01*
X142737000Y-81526250D01*
X142737000Y-82363000D01*
X142757000Y-82363000D01*
X142757000Y-82617000D01*
X142737000Y-82617000D01*
X142737000Y-82637000D01*
X142483000Y-82637000D01*
X142483000Y-82617000D01*
X141543750Y-82617000D01*
X141526250Y-82599500D01*
X140477000Y-82599500D01*
X140477000Y-82619500D01*
X140223000Y-82619500D01*
X140223000Y-82599500D01*
X139173750Y-82599500D01*
X139015000Y-82758250D01*
X139015000Y-83086309D01*
X139095421Y-83280463D01*
X139080460Y-83290460D01*
X138983696Y-83435277D01*
X138954452Y-83406033D01*
X138899183Y-83323317D01*
X138832798Y-83278960D01*
X138698563Y-83078063D01*
X138720000Y-83026309D01*
X138720000Y-82748250D01*
X138561250Y-82589500D01*
X137737000Y-82589500D01*
X137737000Y-82609500D01*
X137483000Y-82609500D01*
X137483000Y-82589500D01*
X136658750Y-82589500D01*
X136500000Y-82748250D01*
X136500000Y-83026309D01*
X136521437Y-83078063D01*
X136314232Y-83388168D01*
X136228584Y-83818750D01*
X136228584Y-84256250D01*
X136314232Y-84686832D01*
X136558137Y-85051863D01*
X136923168Y-85295768D01*
X137353750Y-85381416D01*
X137866250Y-85381416D01*
X138084570Y-85337989D01*
X138922377Y-86175797D01*
X138881000Y-86275690D01*
X138881000Y-86616250D01*
X139039750Y-86775000D01*
X139109584Y-86775000D01*
X139109584Y-86967000D01*
X139101750Y-86967000D01*
X138881000Y-87187750D01*
X138881000Y-87390335D01*
X138856000Y-87450690D01*
X138856000Y-88899000D01*
X138689000Y-88899000D01*
X138689000Y-87125750D01*
X138530250Y-86967000D01*
X138189690Y-86967000D01*
X137956301Y-87063673D01*
X137777673Y-87242302D01*
X137681000Y-87475691D01*
X137681000Y-87518250D01*
X137839750Y-87677000D01*
X137842975Y-87677000D01*
X137777673Y-87742302D01*
X137681000Y-87975691D01*
X137681000Y-88028309D01*
X137773656Y-88252000D01*
X137681000Y-88475691D01*
X137681000Y-88528309D01*
X137773656Y-88752000D01*
X137681000Y-88975691D01*
X137681000Y-89028309D01*
X137721050Y-89124998D01*
X137681000Y-89124998D01*
X137681000Y-89134400D01*
X136582125Y-89134400D01*
X133005300Y-85557576D01*
X132942945Y-85464255D01*
X132573266Y-85217244D01*
X132544965Y-85211615D01*
X132517419Y-85073130D01*
X132320933Y-84779067D01*
X132026870Y-84582581D01*
X131680000Y-84513584D01*
X129980000Y-84513584D01*
X129633130Y-84582581D01*
X129339067Y-84779067D01*
X129142581Y-85073130D01*
X129073584Y-85420000D01*
X129073584Y-87120000D01*
X129142581Y-87466870D01*
X129339067Y-87760933D01*
X129408492Y-87807321D01*
X129191898Y-88131476D01*
X129056931Y-88810000D01*
X129191898Y-89488524D01*
X129576251Y-90063749D01*
X130151476Y-90448102D01*
X130658724Y-90549000D01*
X130988476Y-90549000D01*
X131424475Y-90985000D01*
X131135750Y-90985000D01*
X130977000Y-91143750D01*
X130977000Y-92343000D01*
X132176250Y-92343000D01*
X132335000Y-92184250D01*
X132335000Y-91840503D01*
X132383225Y-91872726D01*
X132445544Y-91914366D01*
X132881610Y-92001105D01*
X132991683Y-91979210D01*
X134948456Y-91979210D01*
X134910505Y-92170000D01*
X134932400Y-92280074D01*
X134932401Y-93889527D01*
X134612452Y-93757000D01*
X134119548Y-93757000D01*
X133792664Y-93892400D01*
X132194721Y-93892400D01*
X132126991Y-93791035D01*
X132238327Y-93679699D01*
X132335000Y-93446310D01*
X132335000Y-92755750D01*
X132176250Y-92597000D01*
X130977000Y-92597000D01*
X130977000Y-92617000D01*
X130723000Y-92617000D01*
X130723000Y-92597000D01*
X129523750Y-92597000D01*
X129365000Y-92755750D01*
X129365000Y-93446310D01*
X129461673Y-93679699D01*
X129573009Y-93791035D01*
X129211898Y-94331476D01*
X129076931Y-95010000D01*
X129211898Y-95688524D01*
X129596251Y-96263749D01*
X129620572Y-96280000D01*
X129596251Y-96296251D01*
X129211898Y-96871476D01*
X129076931Y-97550000D01*
X129108876Y-97710600D01*
X128906573Y-97912903D01*
X128813255Y-97975256D01*
X128696679Y-98149725D01*
X128659000Y-98206116D01*
X128659000Y-91493690D01*
X129365000Y-91493690D01*
X129365000Y-92184250D01*
X129523750Y-92343000D01*
X130723000Y-92343000D01*
X130723000Y-91143750D01*
X130564250Y-90985000D01*
X129873691Y-90985000D01*
X129640302Y-91081673D01*
X129461673Y-91260301D01*
X129365000Y-91493690D01*
X128659000Y-91493690D01*
X128659000Y-82484202D01*
X134370383Y-82466999D01*
X134418954Y-82457186D01*
X134460073Y-82429532D01*
X134487479Y-82388247D01*
X134497000Y-82340299D01*
X134498039Y-81898691D01*
X136500000Y-81898691D01*
X136500000Y-82176750D01*
X136658750Y-82335500D01*
X137483000Y-82335500D01*
X137483000Y-81548750D01*
X137737000Y-81548750D01*
X137737000Y-82335500D01*
X138561250Y-82335500D01*
X138720000Y-82176750D01*
X138720000Y-81898691D01*
X138703432Y-81858691D01*
X139015000Y-81858691D01*
X139015000Y-82186750D01*
X139173750Y-82345500D01*
X140223000Y-82345500D01*
X140223000Y-81508750D01*
X140477000Y-81508750D01*
X140477000Y-82345500D01*
X141416250Y-82345500D01*
X141433750Y-82363000D01*
X142483000Y-82363000D01*
X142483000Y-81526250D01*
X142324250Y-81367500D01*
X141783690Y-81367500D01*
X141550301Y-81464173D01*
X141488750Y-81525724D01*
X141409699Y-81446673D01*
X141176310Y-81350000D01*
X140635750Y-81350000D01*
X140477000Y-81508750D01*
X140223000Y-81508750D01*
X140064250Y-81350000D01*
X139523690Y-81350000D01*
X139290301Y-81446673D01*
X139111673Y-81625302D01*
X139015000Y-81858691D01*
X138703432Y-81858691D01*
X138623327Y-81665302D01*
X138444699Y-81486673D01*
X138211310Y-81390000D01*
X137895750Y-81390000D01*
X137737000Y-81548750D01*
X137483000Y-81548750D01*
X137324250Y-81390000D01*
X137008690Y-81390000D01*
X136775301Y-81486673D01*
X136596673Y-81665302D01*
X136500000Y-81898691D01*
X134498039Y-81898691D01*
X134506183Y-78440000D01*
X146436793Y-78440000D01*
X146513675Y-78826513D01*
X146732617Y-79154183D01*
X146745584Y-79162847D01*
X146745584Y-79290000D01*
X146814581Y-79636870D01*
X147011067Y-79930933D01*
X147305130Y-80127419D01*
X147652000Y-80196416D01*
X149352000Y-80196416D01*
X149698870Y-80127419D01*
X149992933Y-79930933D01*
X150039321Y-79861508D01*
X150363476Y-80078102D01*
X150870724Y-80179000D01*
X151213276Y-80179000D01*
X151720524Y-80078102D01*
X152295749Y-79693749D01*
X152680102Y-79118524D01*
X152815069Y-78440000D01*
X152680102Y-77761476D01*
X152295749Y-77186251D01*
X151720524Y-76801898D01*
X151213276Y-76701000D01*
X150870724Y-76701000D01*
X150363476Y-76801898D01*
X150039321Y-77018492D01*
X149992933Y-76949067D01*
X149698870Y-76752581D01*
X149352000Y-76683584D01*
X147652000Y-76683584D01*
X147305130Y-76752581D01*
X147011067Y-76949067D01*
X146814581Y-77243130D01*
X146745584Y-77590000D01*
X146745584Y-77717153D01*
X146732617Y-77725817D01*
X146513675Y-78053487D01*
X146436793Y-78440000D01*
X134506183Y-78440000D01*
X134510425Y-76639000D01*
X156743000Y-76639000D01*
X156743001Y-105171000D01*
X156743001Y-105171000D01*
G37*
X156743001Y-105171000D02*
X156420433Y-105171000D01*
X156523419Y-105016870D01*
X156592416Y-104670000D01*
X156592416Y-102970000D01*
X156523419Y-102623130D01*
X156326933Y-102329067D01*
X156257508Y-102282679D01*
X156474102Y-101958524D01*
X156609069Y-101280000D01*
X156474102Y-100601476D01*
X156089749Y-100026251D01*
X156065428Y-100010000D01*
X156089749Y-99993749D01*
X156474102Y-99418524D01*
X156609069Y-98740000D01*
X156474102Y-98061476D01*
X156089749Y-97486251D01*
X156065428Y-97470000D01*
X156089749Y-97453749D01*
X156474102Y-96878524D01*
X156609069Y-96200000D01*
X156474102Y-95521476D01*
X156089749Y-94946251D01*
X156065428Y-94930000D01*
X156089749Y-94913749D01*
X156474102Y-94338524D01*
X156609069Y-93660000D01*
X156474102Y-92981476D01*
X156089749Y-92406251D01*
X156065428Y-92390000D01*
X156089749Y-92373749D01*
X156474102Y-91798524D01*
X156609069Y-91120000D01*
X156474102Y-90441476D01*
X156089749Y-89866251D01*
X156065428Y-89850000D01*
X156089749Y-89833749D01*
X156474102Y-89258524D01*
X156609069Y-88580000D01*
X156474102Y-87901476D01*
X156089749Y-87326251D01*
X156065428Y-87310000D01*
X156089749Y-87293749D01*
X156474102Y-86718524D01*
X156609069Y-86040000D01*
X156474102Y-85361476D01*
X156089749Y-84786251D01*
X156065428Y-84770000D01*
X156089749Y-84753749D01*
X156474102Y-84178524D01*
X156609069Y-83500000D01*
X156474102Y-82821476D01*
X156089749Y-82246251D01*
X156065428Y-82230000D01*
X156089749Y-82213749D01*
X156474102Y-81638524D01*
X156609069Y-80960000D01*
X156474102Y-80281476D01*
X156089749Y-79706251D01*
X156065428Y-79690000D01*
X156089749Y-79673749D01*
X156474102Y-79098524D01*
X156609069Y-78420000D01*
X156474102Y-77741476D01*
X156089749Y-77166251D01*
X155514524Y-76781898D01*
X155007276Y-76681000D01*
X154664724Y-76681000D01*
X154157476Y-76781898D01*
X153582251Y-77166251D01*
X153197898Y-77741476D01*
X153062931Y-78420000D01*
X153197898Y-79098524D01*
X153582251Y-79673749D01*
X153606572Y-79690000D01*
X153582251Y-79706251D01*
X153197898Y-80281476D01*
X153062931Y-80960000D01*
X153197898Y-81638524D01*
X153582251Y-82213749D01*
X153606572Y-82230000D01*
X153582251Y-82246251D01*
X153197898Y-82821476D01*
X153062931Y-83500000D01*
X153197898Y-84178524D01*
X153582251Y-84753749D01*
X153606572Y-84770000D01*
X153582251Y-84786251D01*
X153197898Y-85361476D01*
X153062931Y-86040000D01*
X153197898Y-86718524D01*
X153582251Y-87293749D01*
X153606572Y-87310000D01*
X153582251Y-87326251D01*
X153197898Y-87901476D01*
X153062931Y-88580000D01*
X153197898Y-89258524D01*
X153582251Y-89833749D01*
X153606572Y-89850000D01*
X153582251Y-89866251D01*
X153423392Y-90104000D01*
X149960841Y-90104000D01*
X148972410Y-89115570D01*
X148972410Y-88121723D01*
X148992314Y-88021659D01*
X148968408Y-87901476D01*
X148913461Y-87625237D01*
X148907412Y-87616183D01*
X148841975Y-87518250D01*
X148688905Y-87289165D01*
X148604073Y-87232482D01*
X147997518Y-86625928D01*
X147940836Y-86541097D01*
X147856003Y-86484413D01*
X147604764Y-86316541D01*
X147492260Y-86294162D01*
X147780540Y-86101540D01*
X148029865Y-85728399D01*
X148117416Y-85288250D01*
X148117416Y-84375750D01*
X148032122Y-83946946D01*
X148361837Y-83810373D01*
X148710373Y-83461837D01*
X148899000Y-83006452D01*
X148899000Y-82513548D01*
X148710373Y-82058163D01*
X148361837Y-81709627D01*
X147906452Y-81521000D01*
X147413548Y-81521000D01*
X147218198Y-81601917D01*
X147146832Y-81554232D01*
X146716250Y-81468584D01*
X146278750Y-81468584D01*
X145848168Y-81554232D01*
X145538063Y-81761437D01*
X145486309Y-81740000D01*
X145208250Y-81740000D01*
X145049500Y-81898750D01*
X145049500Y-82723000D01*
X145069500Y-82723000D01*
X145069500Y-82977000D01*
X145049500Y-82977000D01*
X145049500Y-83581750D01*
X144975500Y-83655750D01*
X144975500Y-84705000D01*
X144995500Y-84705000D01*
X144995500Y-84959000D01*
X144975500Y-84959000D01*
X144975500Y-84979000D01*
X144721500Y-84979000D01*
X144721500Y-84959000D01*
X144701500Y-84959000D01*
X144701500Y-84705000D01*
X144721500Y-84705000D01*
X144721500Y-83875250D01*
X144795500Y-83801250D01*
X144795500Y-82977000D01*
X144775500Y-82977000D01*
X144775500Y-82723000D01*
X144795500Y-82723000D01*
X144795500Y-81898750D01*
X144636750Y-81740000D01*
X144358691Y-81740000D01*
X144125302Y-81836673D01*
X143946673Y-82015301D01*
X143945000Y-82019340D01*
X143945000Y-81876191D01*
X143848327Y-81642802D01*
X143669699Y-81464173D01*
X143436310Y-81367500D01*
X142895750Y-81367500D01*
X142737000Y-81526250D01*
X142737000Y-82363000D01*
X142757000Y-82363000D01*
X142757000Y-82617000D01*
X142737000Y-82617000D01*
X142737000Y-82637000D01*
X142483000Y-82637000D01*
X142483000Y-82617000D01*
X141543750Y-82617000D01*
X141526250Y-82599500D01*
X140477000Y-82599500D01*
X140477000Y-82619500D01*
X140223000Y-82619500D01*
X140223000Y-82599500D01*
X139173750Y-82599500D01*
X139015000Y-82758250D01*
X139015000Y-83086309D01*
X139095421Y-83280463D01*
X139080460Y-83290460D01*
X138983696Y-83435277D01*
X138954452Y-83406033D01*
X138899183Y-83323317D01*
X138832798Y-83278960D01*
X138698563Y-83078063D01*
X138720000Y-83026309D01*
X138720000Y-82748250D01*
X138561250Y-82589500D01*
X137737000Y-82589500D01*
X137737000Y-82609500D01*
X137483000Y-82609500D01*
X137483000Y-82589500D01*
X136658750Y-82589500D01*
X136500000Y-82748250D01*
X136500000Y-83026309D01*
X136521437Y-83078063D01*
X136314232Y-83388168D01*
X136228584Y-83818750D01*
X136228584Y-84256250D01*
X136314232Y-84686832D01*
X136558137Y-85051863D01*
X136923168Y-85295768D01*
X137353750Y-85381416D01*
X137866250Y-85381416D01*
X138084570Y-85337989D01*
X138922377Y-86175797D01*
X138881000Y-86275690D01*
X138881000Y-86616250D01*
X139039750Y-86775000D01*
X139109584Y-86775000D01*
X139109584Y-86967000D01*
X139101750Y-86967000D01*
X138881000Y-87187750D01*
X138881000Y-87390335D01*
X138856000Y-87450690D01*
X138856000Y-88899000D01*
X138689000Y-88899000D01*
X138689000Y-87125750D01*
X138530250Y-86967000D01*
X138189690Y-86967000D01*
X137956301Y-87063673D01*
X137777673Y-87242302D01*
X137681000Y-87475691D01*
X137681000Y-87518250D01*
X137839750Y-87677000D01*
X137842975Y-87677000D01*
X137777673Y-87742302D01*
X137681000Y-87975691D01*
X137681000Y-88028309D01*
X137773656Y-88252000D01*
X137681000Y-88475691D01*
X137681000Y-88528309D01*
X137773656Y-88752000D01*
X137681000Y-88975691D01*
X137681000Y-89028309D01*
X137721050Y-89124998D01*
X137681000Y-89124998D01*
X137681000Y-89134400D01*
X136582125Y-89134400D01*
X133005300Y-85557576D01*
X132942945Y-85464255D01*
X132573266Y-85217244D01*
X132544965Y-85211615D01*
X132517419Y-85073130D01*
X132320933Y-84779067D01*
X132026870Y-84582581D01*
X131680000Y-84513584D01*
X129980000Y-84513584D01*
X129633130Y-84582581D01*
X129339067Y-84779067D01*
X129142581Y-85073130D01*
X129073584Y-85420000D01*
X129073584Y-87120000D01*
X129142581Y-87466870D01*
X129339067Y-87760933D01*
X129408492Y-87807321D01*
X129191898Y-88131476D01*
X129056931Y-88810000D01*
X129191898Y-89488524D01*
X129576251Y-90063749D01*
X130151476Y-90448102D01*
X130658724Y-90549000D01*
X130988476Y-90549000D01*
X131424475Y-90985000D01*
X131135750Y-90985000D01*
X130977000Y-91143750D01*
X130977000Y-92343000D01*
X132176250Y-92343000D01*
X132335000Y-92184250D01*
X132335000Y-91840503D01*
X132383225Y-91872726D01*
X132445544Y-91914366D01*
X132881610Y-92001105D01*
X132991683Y-91979210D01*
X134948456Y-91979210D01*
X134910505Y-92170000D01*
X134932400Y-92280074D01*
X134932401Y-93889527D01*
X134612452Y-93757000D01*
X134119548Y-93757000D01*
X133792664Y-93892400D01*
X132194721Y-93892400D01*
X132126991Y-93791035D01*
X132238327Y-93679699D01*
X132335000Y-93446310D01*
X132335000Y-92755750D01*
X132176250Y-92597000D01*
X130977000Y-92597000D01*
X130977000Y-92617000D01*
X130723000Y-92617000D01*
X130723000Y-92597000D01*
X129523750Y-92597000D01*
X129365000Y-92755750D01*
X129365000Y-93446310D01*
X129461673Y-93679699D01*
X129573009Y-93791035D01*
X129211898Y-94331476D01*
X129076931Y-95010000D01*
X129211898Y-95688524D01*
X129596251Y-96263749D01*
X129620572Y-96280000D01*
X129596251Y-96296251D01*
X129211898Y-96871476D01*
X129076931Y-97550000D01*
X129108876Y-97710600D01*
X128906573Y-97912903D01*
X128813255Y-97975256D01*
X128696679Y-98149725D01*
X128659000Y-98206116D01*
X128659000Y-91493690D01*
X129365000Y-91493690D01*
X129365000Y-92184250D01*
X129523750Y-92343000D01*
X130723000Y-92343000D01*
X130723000Y-91143750D01*
X130564250Y-90985000D01*
X129873691Y-90985000D01*
X129640302Y-91081673D01*
X129461673Y-91260301D01*
X129365000Y-91493690D01*
X128659000Y-91493690D01*
X128659000Y-82484202D01*
X134370383Y-82466999D01*
X134418954Y-82457186D01*
X134460073Y-82429532D01*
X134487479Y-82388247D01*
X134497000Y-82340299D01*
X134498039Y-81898691D01*
X136500000Y-81898691D01*
X136500000Y-82176750D01*
X136658750Y-82335500D01*
X137483000Y-82335500D01*
X137483000Y-81548750D01*
X137737000Y-81548750D01*
X137737000Y-82335500D01*
X138561250Y-82335500D01*
X138720000Y-82176750D01*
X138720000Y-81898691D01*
X138703432Y-81858691D01*
X139015000Y-81858691D01*
X139015000Y-82186750D01*
X139173750Y-82345500D01*
X140223000Y-82345500D01*
X140223000Y-81508750D01*
X140477000Y-81508750D01*
X140477000Y-82345500D01*
X141416250Y-82345500D01*
X141433750Y-82363000D01*
X142483000Y-82363000D01*
X142483000Y-81526250D01*
X142324250Y-81367500D01*
X141783690Y-81367500D01*
X141550301Y-81464173D01*
X141488750Y-81525724D01*
X141409699Y-81446673D01*
X141176310Y-81350000D01*
X140635750Y-81350000D01*
X140477000Y-81508750D01*
X140223000Y-81508750D01*
X140064250Y-81350000D01*
X139523690Y-81350000D01*
X139290301Y-81446673D01*
X139111673Y-81625302D01*
X139015000Y-81858691D01*
X138703432Y-81858691D01*
X138623327Y-81665302D01*
X138444699Y-81486673D01*
X138211310Y-81390000D01*
X137895750Y-81390000D01*
X137737000Y-81548750D01*
X137483000Y-81548750D01*
X137324250Y-81390000D01*
X137008690Y-81390000D01*
X136775301Y-81486673D01*
X136596673Y-81665302D01*
X136500000Y-81898691D01*
X134498039Y-81898691D01*
X134506183Y-78440000D01*
X146436793Y-78440000D01*
X146513675Y-78826513D01*
X146732617Y-79154183D01*
X146745584Y-79162847D01*
X146745584Y-79290000D01*
X146814581Y-79636870D01*
X147011067Y-79930933D01*
X147305130Y-80127419D01*
X147652000Y-80196416D01*
X149352000Y-80196416D01*
X149698870Y-80127419D01*
X149992933Y-79930933D01*
X150039321Y-79861508D01*
X150363476Y-80078102D01*
X150870724Y-80179000D01*
X151213276Y-80179000D01*
X151720524Y-80078102D01*
X152295749Y-79693749D01*
X152680102Y-79118524D01*
X152815069Y-78440000D01*
X152680102Y-77761476D01*
X152295749Y-77186251D01*
X151720524Y-76801898D01*
X151213276Y-76701000D01*
X150870724Y-76701000D01*
X150363476Y-76801898D01*
X150039321Y-77018492D01*
X149992933Y-76949067D01*
X149698870Y-76752581D01*
X149352000Y-76683584D01*
X147652000Y-76683584D01*
X147305130Y-76752581D01*
X147011067Y-76949067D01*
X146814581Y-77243130D01*
X146745584Y-77590000D01*
X146745584Y-77717153D01*
X146732617Y-77725817D01*
X146513675Y-78053487D01*
X146436793Y-78440000D01*
X134506183Y-78440000D01*
X134510425Y-76639000D01*
X156743000Y-76639000D01*
X156743001Y-105171000D01*
G36*
X141293000Y-89125000D02*
X141313000Y-89125000D01*
X141313000Y-89379000D01*
X141293000Y-89379000D01*
X141293000Y-89399000D01*
X141039000Y-89399000D01*
X141039000Y-89379000D01*
X141019000Y-89379000D01*
X141019000Y-89125000D01*
X141039000Y-89125000D01*
X141039000Y-89105000D01*
X141293000Y-89105000D01*
X141293000Y-89125000D01*
X141293000Y-89125000D01*
G37*
X141293000Y-89125000D02*
X141313000Y-89125000D01*
X141313000Y-89379000D01*
X141293000Y-89379000D01*
X141293000Y-89399000D01*
X141039000Y-89399000D01*
X141039000Y-89379000D01*
X141019000Y-89379000D01*
X141019000Y-89125000D01*
X141039000Y-89125000D01*
X141039000Y-89105000D01*
X141293000Y-89105000D01*
X141293000Y-89125000D01*
G04 #@! TD*
M02*
