M48
;DRILL file {KiCad (5.0.1)-3} date 10/5/2019 1:26:33 PM
;FORMAT={-:-/ absolute / metric / decimal}
FMAT,2
METRIC,TZ
T1C0.600
T2C1.000
%
G90
G05
M71
T1
X134.366Y-94.996
X141.77Y-90.48
X146.37Y-88.59
X147.66Y-82.76
T2
X130.85Y-92.47
X130.85Y-95.01
X130.85Y-97.55
X130.85Y-100.09
X148.502Y-78.44
X151.042Y-78.44
X130.83Y-86.27
X130.83Y-88.81
X154.836Y-78.42
X154.836Y-80.96
X154.836Y-83.5
X154.836Y-86.04
X154.836Y-88.58
X154.836Y-91.12
X154.836Y-93.66
X154.836Y-96.2
X154.836Y-98.74
X154.836Y-101.28
X154.836Y-103.82
X130.86Y-103.82
X133.4Y-103.82
X135.94Y-103.82
X138.48Y-103.82
X141.02Y-103.82
X143.56Y-103.82
X146.1Y-103.82
X148.64Y-103.82
X151.18Y-103.82
T0
M30
