G04 #@! TF.GenerationSoftware,KiCad,Pcbnew,(5.0.1)-3*
G04 #@! TF.CreationDate,2019-10-05T13:26:35-04:00*
G04 #@! TF.ProjectId,MAX30003,4D415833303030332E6B696361645F70,rev?*
G04 #@! TF.SameCoordinates,Original*
G04 #@! TF.FileFunction,Copper,L2,Bot,Signal*
G04 #@! TF.FilePolarity,Positive*
%FSLAX46Y46*%
G04 Gerber Fmt 4.6, Leading zero omitted, Abs format (unit mm)*
G04 Created by KiCad (PCBNEW (5.0.1)-3) date 10/5/2019 1:26:35 PM*
%MOMM*%
%LPD*%
G01*
G04 APERTURE LIST*
G04 #@! TA.AperFunction,ComponentPad*
%ADD10R,1.700000X1.700000*%
G04 #@! TD*
G04 #@! TA.AperFunction,ComponentPad*
%ADD11O,1.700000X1.700000*%
G04 #@! TD*
G04 #@! TA.AperFunction,ViaPad*
%ADD12C,0.700000*%
G04 #@! TD*
G04 #@! TA.AperFunction,Conductor*
%ADD13C,0.457200*%
G04 #@! TD*
G04 #@! TA.AperFunction,Conductor*
%ADD14C,0.254000*%
G04 #@! TD*
G04 APERTURE END LIST*
D10*
G04 #@! TO.P,J1,1*
G04 #@! TO.N,Net-(IC1-Pad6)*
X130830000Y-86270000D03*
D11*
G04 #@! TO.P,J1,2*
G04 #@! TO.N,Net-(IC1-Pad7)*
X130830000Y-88810000D03*
G04 #@! TD*
D10*
G04 #@! TO.P,J1,1*
G04 #@! TO.N,/P02*
X130860000Y-103820000D03*
D11*
G04 #@! TO.P,J1,2*
G04 #@! TO.N,/LOAD_SW_CTRL*
X133400000Y-103820000D03*
G04 #@! TO.P,J1,3*
G04 #@! TO.N,/AIN_BAT_DIV_VOLTAGE*
X135940000Y-103820000D03*
G04 #@! TO.P,J1,4*
G04 #@! TO.N,/P05*
X138480000Y-103820000D03*
G04 #@! TO.P,J1,5*
G04 #@! TO.N,/P06*
X141020000Y-103820000D03*
G04 #@! TO.P,J1,6*
G04 #@! TO.N,/P07*
X143560000Y-103820000D03*
G04 #@! TO.P,J1,7*
G04 #@! TO.N,/P08*
X146100000Y-103820000D03*
G04 #@! TO.P,J1,8*
G04 #@! TO.N,/P09*
X148640000Y-103820000D03*
G04 #@! TO.P,J1,9*
G04 #@! TO.N,/P10*
X151180000Y-103820000D03*
G04 #@! TD*
D10*
G04 #@! TO.P,J3,1*
G04 #@! TO.N,AGND*
X130850000Y-92470000D03*
D11*
G04 #@! TO.P,J3,2*
G04 #@! TO.N,AVDD*
X130850000Y-95010000D03*
G04 #@! TO.P,J3,3*
G04 #@! TO.N,DGND*
X130850000Y-97550000D03*
G04 #@! TO.P,J3,4*
G04 #@! TO.N,DVDD*
X130850000Y-100090000D03*
G04 #@! TD*
D10*
G04 #@! TO.P,J2,1*
G04 #@! TO.N,/MAX30003_CSB*
X154836000Y-103820000D03*
D11*
G04 #@! TO.P,J2,2*
G04 #@! TO.N,/MAX30003_SCLK*
X154836000Y-101280000D03*
G04 #@! TO.P,J2,3*
G04 #@! TO.N,/MAX30003_SDI*
X154836000Y-98740000D03*
G04 #@! TO.P,J2,4*
G04 #@! TO.N,/MAX30003_SDO*
X154836000Y-96200000D03*
G04 #@! TO.P,J2,5*
G04 #@! TO.N,/MAX30003_INT2B*
X154836000Y-93660000D03*
G04 #@! TO.P,J2,6*
G04 #@! TO.N,/MAX30003_INTB*
X154836000Y-91120000D03*
G04 #@! TO.P,J2,7*
G04 #@! TO.N,N/C*
X154836000Y-88580000D03*
G04 #@! TO.P,J2,8*
X154836000Y-86040000D03*
G04 #@! TO.P,J2,9*
X154836000Y-83500000D03*
G04 #@! TO.P,J2,10*
X154836000Y-80960000D03*
G04 #@! TO.P,J2,11*
X154836000Y-78420000D03*
G04 #@! TD*
G04 #@! TO.P,J3,2*
G04 #@! TO.N,/SWDCLK*
X151042000Y-78440000D03*
D10*
G04 #@! TO.P,J3,1*
G04 #@! TO.N,/SWDIO*
X148502000Y-78440000D03*
G04 #@! TD*
D12*
G04 #@! TO.N,AGND*
X141770000Y-90480000D03*
G04 #@! TO.N,AVDD*
X134366000Y-94996000D03*
X146370000Y-88590000D03*
X147660000Y-82760000D03*
G04 #@! TD*
D13*
G04 #@! TO.N,AVDD*
X140716000Y-88646000D02*
X134366000Y-94996000D01*
X146370000Y-88590000D02*
X140716000Y-88646000D01*
X146719999Y-88240001D02*
X146370000Y-88590000D01*
X146719999Y-84270001D02*
X146719999Y-88240001D01*
X147660000Y-82760000D02*
X146719999Y-84270001D01*
G04 #@! TD*
D14*
G04 #@! TO.N,AGND*
G36*
X156743001Y-105171000D02*
X156420433Y-105171000D01*
X156523419Y-105016870D01*
X156592416Y-104670000D01*
X156592416Y-102970000D01*
X156523419Y-102623130D01*
X156326933Y-102329067D01*
X156257508Y-102282679D01*
X156474102Y-101958524D01*
X156609069Y-101280000D01*
X156474102Y-100601476D01*
X156089749Y-100026251D01*
X156065428Y-100010000D01*
X156089749Y-99993749D01*
X156474102Y-99418524D01*
X156609069Y-98740000D01*
X156474102Y-98061476D01*
X156089749Y-97486251D01*
X156065428Y-97470000D01*
X156089749Y-97453749D01*
X156474102Y-96878524D01*
X156609069Y-96200000D01*
X156474102Y-95521476D01*
X156089749Y-94946251D01*
X156065428Y-94930000D01*
X156089749Y-94913749D01*
X156474102Y-94338524D01*
X156609069Y-93660000D01*
X156474102Y-92981476D01*
X156089749Y-92406251D01*
X156065428Y-92390000D01*
X156089749Y-92373749D01*
X156474102Y-91798524D01*
X156609069Y-91120000D01*
X156474102Y-90441476D01*
X156089749Y-89866251D01*
X156065428Y-89850000D01*
X156089749Y-89833749D01*
X156474102Y-89258524D01*
X156609069Y-88580000D01*
X156474102Y-87901476D01*
X156089749Y-87326251D01*
X156065428Y-87310000D01*
X156089749Y-87293749D01*
X156474102Y-86718524D01*
X156609069Y-86040000D01*
X156474102Y-85361476D01*
X156089749Y-84786251D01*
X156065428Y-84770000D01*
X156089749Y-84753749D01*
X156474102Y-84178524D01*
X156609069Y-83500000D01*
X156474102Y-82821476D01*
X156089749Y-82246251D01*
X156065428Y-82230000D01*
X156089749Y-82213749D01*
X156474102Y-81638524D01*
X156609069Y-80960000D01*
X156474102Y-80281476D01*
X156089749Y-79706251D01*
X156065428Y-79690000D01*
X156089749Y-79673749D01*
X156474102Y-79098524D01*
X156609069Y-78420000D01*
X156474102Y-77741476D01*
X156089749Y-77166251D01*
X155514524Y-76781898D01*
X155007276Y-76681000D01*
X154664724Y-76681000D01*
X154157476Y-76781898D01*
X153582251Y-77166251D01*
X153197898Y-77741476D01*
X153062931Y-78420000D01*
X153197898Y-79098524D01*
X153582251Y-79673749D01*
X153606572Y-79690000D01*
X153582251Y-79706251D01*
X153197898Y-80281476D01*
X153062931Y-80960000D01*
X153197898Y-81638524D01*
X153582251Y-82213749D01*
X153606572Y-82230000D01*
X153582251Y-82246251D01*
X153197898Y-82821476D01*
X153062931Y-83500000D01*
X153197898Y-84178524D01*
X153582251Y-84753749D01*
X153606572Y-84770000D01*
X153582251Y-84786251D01*
X153197898Y-85361476D01*
X153062931Y-86040000D01*
X153197898Y-86718524D01*
X153582251Y-87293749D01*
X153606572Y-87310000D01*
X153582251Y-87326251D01*
X153197898Y-87901476D01*
X153062931Y-88580000D01*
X153197898Y-89258524D01*
X153582251Y-89833749D01*
X153606572Y-89850000D01*
X153582251Y-89866251D01*
X153197898Y-90441476D01*
X153062931Y-91120000D01*
X153197898Y-91798524D01*
X153582251Y-92373749D01*
X153606572Y-92390000D01*
X153582251Y-92406251D01*
X153197898Y-92981476D01*
X153062931Y-93660000D01*
X153197898Y-94338524D01*
X153582251Y-94913749D01*
X153606572Y-94930000D01*
X153582251Y-94946251D01*
X153197898Y-95521476D01*
X153062931Y-96200000D01*
X153197898Y-96878524D01*
X153582251Y-97453749D01*
X153606572Y-97470000D01*
X153582251Y-97486251D01*
X153197898Y-98061476D01*
X153062931Y-98740000D01*
X153197898Y-99418524D01*
X153582251Y-99993749D01*
X153606572Y-100010000D01*
X153582251Y-100026251D01*
X153197898Y-100601476D01*
X153062931Y-101280000D01*
X153197898Y-101958524D01*
X153414492Y-102282679D01*
X153345067Y-102329067D01*
X153148581Y-102623130D01*
X153079584Y-102970000D01*
X153079584Y-104670000D01*
X153148581Y-105016870D01*
X153251567Y-105171000D01*
X152288203Y-105171000D01*
X152433749Y-105073749D01*
X152818102Y-104498524D01*
X152953069Y-103820000D01*
X152818102Y-103141476D01*
X152433749Y-102566251D01*
X151858524Y-102181898D01*
X151351276Y-102081000D01*
X151008724Y-102081000D01*
X150501476Y-102181898D01*
X149926251Y-102566251D01*
X149910000Y-102590572D01*
X149893749Y-102566251D01*
X149318524Y-102181898D01*
X148811276Y-102081000D01*
X148468724Y-102081000D01*
X147961476Y-102181898D01*
X147386251Y-102566251D01*
X147370000Y-102590572D01*
X147353749Y-102566251D01*
X146778524Y-102181898D01*
X146271276Y-102081000D01*
X145928724Y-102081000D01*
X145421476Y-102181898D01*
X144846251Y-102566251D01*
X144830000Y-102590572D01*
X144813749Y-102566251D01*
X144238524Y-102181898D01*
X143731276Y-102081000D01*
X143388724Y-102081000D01*
X142881476Y-102181898D01*
X142306251Y-102566251D01*
X142290000Y-102590572D01*
X142273749Y-102566251D01*
X141698524Y-102181898D01*
X141191276Y-102081000D01*
X140848724Y-102081000D01*
X140341476Y-102181898D01*
X139766251Y-102566251D01*
X139750000Y-102590572D01*
X139733749Y-102566251D01*
X139158524Y-102181898D01*
X138651276Y-102081000D01*
X138308724Y-102081000D01*
X137801476Y-102181898D01*
X137226251Y-102566251D01*
X137210000Y-102590572D01*
X137193749Y-102566251D01*
X136618524Y-102181898D01*
X136111276Y-102081000D01*
X135768724Y-102081000D01*
X135261476Y-102181898D01*
X134686251Y-102566251D01*
X134670000Y-102590572D01*
X134653749Y-102566251D01*
X134078524Y-102181898D01*
X133571276Y-102081000D01*
X133228724Y-102081000D01*
X132721476Y-102181898D01*
X132397321Y-102398492D01*
X132350933Y-102329067D01*
X132056870Y-102132581D01*
X131710000Y-102063584D01*
X130010000Y-102063584D01*
X129663130Y-102132581D01*
X129369067Y-102329067D01*
X129172581Y-102623130D01*
X129103584Y-102970000D01*
X129103584Y-104670000D01*
X129172581Y-105016870D01*
X129275567Y-105171000D01*
X128659000Y-105171000D01*
X128659000Y-95010000D01*
X129076931Y-95010000D01*
X129211898Y-95688524D01*
X129596251Y-96263749D01*
X129620572Y-96280000D01*
X129596251Y-96296251D01*
X129211898Y-96871476D01*
X129076931Y-97550000D01*
X129211898Y-98228524D01*
X129596251Y-98803749D01*
X129620572Y-98820000D01*
X129596251Y-98836251D01*
X129211898Y-99411476D01*
X129076931Y-100090000D01*
X129211898Y-100768524D01*
X129596251Y-101343749D01*
X130171476Y-101728102D01*
X130678724Y-101829000D01*
X131021276Y-101829000D01*
X131528524Y-101728102D01*
X132103749Y-101343749D01*
X132488102Y-100768524D01*
X132623069Y-100090000D01*
X132488102Y-99411476D01*
X132103749Y-98836251D01*
X132079428Y-98820000D01*
X132103749Y-98803749D01*
X132488102Y-98228524D01*
X132623069Y-97550000D01*
X132488102Y-96871476D01*
X132103749Y-96296251D01*
X132079428Y-96280000D01*
X132103749Y-96263749D01*
X132488102Y-95688524D01*
X132623069Y-95010000D01*
X132571262Y-94749548D01*
X133127000Y-94749548D01*
X133127000Y-95242452D01*
X133315627Y-95697837D01*
X133664163Y-96046373D01*
X134119548Y-96235000D01*
X134612452Y-96235000D01*
X135067837Y-96046373D01*
X135416373Y-95697837D01*
X135537774Y-95404750D01*
X141183501Y-89759024D01*
X145843192Y-89712873D01*
X146123548Y-89829000D01*
X146616452Y-89829000D01*
X147071837Y-89640373D01*
X147420373Y-89291837D01*
X147520992Y-89048921D01*
X147525744Y-89045746D01*
X147772755Y-88676067D01*
X147837599Y-88350074D01*
X147859494Y-88240002D01*
X147837599Y-88129930D01*
X147837599Y-84589442D01*
X148308945Y-83832282D01*
X148361837Y-83810373D01*
X148710373Y-83461837D01*
X148899000Y-83006452D01*
X148899000Y-82513548D01*
X148710373Y-82058163D01*
X148361837Y-81709627D01*
X147906452Y-81521000D01*
X147413548Y-81521000D01*
X146958163Y-81709627D01*
X146609627Y-82058163D01*
X146421000Y-82513548D01*
X146421000Y-82635573D01*
X145780756Y-83664051D01*
X145667243Y-83833936D01*
X145641804Y-83961826D01*
X145595815Y-84083835D01*
X145602399Y-84288007D01*
X145602400Y-87479948D01*
X140820589Y-87527309D01*
X140715999Y-87506505D01*
X140600447Y-87529490D01*
X140594864Y-87529545D01*
X140492579Y-87550946D01*
X140279934Y-87593244D01*
X140275154Y-87596438D01*
X140269529Y-87597615D01*
X140090499Y-87719821D01*
X140003570Y-87777905D01*
X139999621Y-87781854D01*
X139902315Y-87848275D01*
X139843951Y-87937524D01*
X133957250Y-93824226D01*
X133664163Y-93945627D01*
X133315627Y-94294163D01*
X133127000Y-94749548D01*
X132571262Y-94749548D01*
X132488102Y-94331476D01*
X132126991Y-93791035D01*
X132238327Y-93679699D01*
X132335000Y-93446310D01*
X132335000Y-92755750D01*
X132176250Y-92597000D01*
X130977000Y-92597000D01*
X130977000Y-92617000D01*
X130723000Y-92617000D01*
X130723000Y-92597000D01*
X129523750Y-92597000D01*
X129365000Y-92755750D01*
X129365000Y-93446310D01*
X129461673Y-93679699D01*
X129573009Y-93791035D01*
X129211898Y-94331476D01*
X129076931Y-95010000D01*
X128659000Y-95010000D01*
X128659000Y-91493690D01*
X129365000Y-91493690D01*
X129365000Y-92184250D01*
X129523750Y-92343000D01*
X130723000Y-92343000D01*
X130723000Y-91143750D01*
X130977000Y-91143750D01*
X130977000Y-92343000D01*
X132176250Y-92343000D01*
X132335000Y-92184250D01*
X132335000Y-91493690D01*
X132238327Y-91260301D01*
X132059698Y-91081673D01*
X131826309Y-90985000D01*
X131135750Y-90985000D01*
X130977000Y-91143750D01*
X130723000Y-91143750D01*
X130564250Y-90985000D01*
X129873691Y-90985000D01*
X129640302Y-91081673D01*
X129461673Y-91260301D01*
X129365000Y-91493690D01*
X128659000Y-91493690D01*
X128659000Y-88810000D01*
X129056931Y-88810000D01*
X129191898Y-89488524D01*
X129576251Y-90063749D01*
X130151476Y-90448102D01*
X130658724Y-90549000D01*
X131001276Y-90549000D01*
X131508524Y-90448102D01*
X132083749Y-90063749D01*
X132468102Y-89488524D01*
X132603069Y-88810000D01*
X132468102Y-88131476D01*
X132251508Y-87807321D01*
X132320933Y-87760933D01*
X132517419Y-87466870D01*
X132586416Y-87120000D01*
X132586416Y-85420000D01*
X132517419Y-85073130D01*
X132320933Y-84779067D01*
X132026870Y-84582581D01*
X131680000Y-84513584D01*
X129980000Y-84513584D01*
X129633130Y-84582581D01*
X129339067Y-84779067D01*
X129142581Y-85073130D01*
X129073584Y-85420000D01*
X129073584Y-87120000D01*
X129142581Y-87466870D01*
X129339067Y-87760933D01*
X129408492Y-87807321D01*
X129191898Y-88131476D01*
X129056931Y-88810000D01*
X128659000Y-88810000D01*
X128659000Y-82475653D01*
X134370192Y-82467000D01*
X134418779Y-82457259D01*
X134459939Y-82429666D01*
X134487406Y-82388423D01*
X134497000Y-82340000D01*
X134497000Y-77590000D01*
X146745584Y-77590000D01*
X146745584Y-79290000D01*
X146814581Y-79636870D01*
X147011067Y-79930933D01*
X147305130Y-80127419D01*
X147652000Y-80196416D01*
X149352000Y-80196416D01*
X149698870Y-80127419D01*
X149992933Y-79930933D01*
X150039321Y-79861508D01*
X150363476Y-80078102D01*
X150870724Y-80179000D01*
X151213276Y-80179000D01*
X151720524Y-80078102D01*
X152295749Y-79693749D01*
X152680102Y-79118524D01*
X152815069Y-78440000D01*
X152680102Y-77761476D01*
X152295749Y-77186251D01*
X151720524Y-76801898D01*
X151213276Y-76701000D01*
X150870724Y-76701000D01*
X150363476Y-76801898D01*
X150039321Y-77018492D01*
X149992933Y-76949067D01*
X149698870Y-76752581D01*
X149352000Y-76683584D01*
X147652000Y-76683584D01*
X147305130Y-76752581D01*
X147011067Y-76949067D01*
X146814581Y-77243130D01*
X146745584Y-77590000D01*
X134497000Y-77590000D01*
X134497000Y-76639000D01*
X156743000Y-76639000D01*
X156743001Y-105171000D01*
X156743001Y-105171000D01*
G37*
X156743001Y-105171000D02*
X156420433Y-105171000D01*
X156523419Y-105016870D01*
X156592416Y-104670000D01*
X156592416Y-102970000D01*
X156523419Y-102623130D01*
X156326933Y-102329067D01*
X156257508Y-102282679D01*
X156474102Y-101958524D01*
X156609069Y-101280000D01*
X156474102Y-100601476D01*
X156089749Y-100026251D01*
X156065428Y-100010000D01*
X156089749Y-99993749D01*
X156474102Y-99418524D01*
X156609069Y-98740000D01*
X156474102Y-98061476D01*
X156089749Y-97486251D01*
X156065428Y-97470000D01*
X156089749Y-97453749D01*
X156474102Y-96878524D01*
X156609069Y-96200000D01*
X156474102Y-95521476D01*
X156089749Y-94946251D01*
X156065428Y-94930000D01*
X156089749Y-94913749D01*
X156474102Y-94338524D01*
X156609069Y-93660000D01*
X156474102Y-92981476D01*
X156089749Y-92406251D01*
X156065428Y-92390000D01*
X156089749Y-92373749D01*
X156474102Y-91798524D01*
X156609069Y-91120000D01*
X156474102Y-90441476D01*
X156089749Y-89866251D01*
X156065428Y-89850000D01*
X156089749Y-89833749D01*
X156474102Y-89258524D01*
X156609069Y-88580000D01*
X156474102Y-87901476D01*
X156089749Y-87326251D01*
X156065428Y-87310000D01*
X156089749Y-87293749D01*
X156474102Y-86718524D01*
X156609069Y-86040000D01*
X156474102Y-85361476D01*
X156089749Y-84786251D01*
X156065428Y-84770000D01*
X156089749Y-84753749D01*
X156474102Y-84178524D01*
X156609069Y-83500000D01*
X156474102Y-82821476D01*
X156089749Y-82246251D01*
X156065428Y-82230000D01*
X156089749Y-82213749D01*
X156474102Y-81638524D01*
X156609069Y-80960000D01*
X156474102Y-80281476D01*
X156089749Y-79706251D01*
X156065428Y-79690000D01*
X156089749Y-79673749D01*
X156474102Y-79098524D01*
X156609069Y-78420000D01*
X156474102Y-77741476D01*
X156089749Y-77166251D01*
X155514524Y-76781898D01*
X155007276Y-76681000D01*
X154664724Y-76681000D01*
X154157476Y-76781898D01*
X153582251Y-77166251D01*
X153197898Y-77741476D01*
X153062931Y-78420000D01*
X153197898Y-79098524D01*
X153582251Y-79673749D01*
X153606572Y-79690000D01*
X153582251Y-79706251D01*
X153197898Y-80281476D01*
X153062931Y-80960000D01*
X153197898Y-81638524D01*
X153582251Y-82213749D01*
X153606572Y-82230000D01*
X153582251Y-82246251D01*
X153197898Y-82821476D01*
X153062931Y-83500000D01*
X153197898Y-84178524D01*
X153582251Y-84753749D01*
X153606572Y-84770000D01*
X153582251Y-84786251D01*
X153197898Y-85361476D01*
X153062931Y-86040000D01*
X153197898Y-86718524D01*
X153582251Y-87293749D01*
X153606572Y-87310000D01*
X153582251Y-87326251D01*
X153197898Y-87901476D01*
X153062931Y-88580000D01*
X153197898Y-89258524D01*
X153582251Y-89833749D01*
X153606572Y-89850000D01*
X153582251Y-89866251D01*
X153197898Y-90441476D01*
X153062931Y-91120000D01*
X153197898Y-91798524D01*
X153582251Y-92373749D01*
X153606572Y-92390000D01*
X153582251Y-92406251D01*
X153197898Y-92981476D01*
X153062931Y-93660000D01*
X153197898Y-94338524D01*
X153582251Y-94913749D01*
X153606572Y-94930000D01*
X153582251Y-94946251D01*
X153197898Y-95521476D01*
X153062931Y-96200000D01*
X153197898Y-96878524D01*
X153582251Y-97453749D01*
X153606572Y-97470000D01*
X153582251Y-97486251D01*
X153197898Y-98061476D01*
X153062931Y-98740000D01*
X153197898Y-99418524D01*
X153582251Y-99993749D01*
X153606572Y-100010000D01*
X153582251Y-100026251D01*
X153197898Y-100601476D01*
X153062931Y-101280000D01*
X153197898Y-101958524D01*
X153414492Y-102282679D01*
X153345067Y-102329067D01*
X153148581Y-102623130D01*
X153079584Y-102970000D01*
X153079584Y-104670000D01*
X153148581Y-105016870D01*
X153251567Y-105171000D01*
X152288203Y-105171000D01*
X152433749Y-105073749D01*
X152818102Y-104498524D01*
X152953069Y-103820000D01*
X152818102Y-103141476D01*
X152433749Y-102566251D01*
X151858524Y-102181898D01*
X151351276Y-102081000D01*
X151008724Y-102081000D01*
X150501476Y-102181898D01*
X149926251Y-102566251D01*
X149910000Y-102590572D01*
X149893749Y-102566251D01*
X149318524Y-102181898D01*
X148811276Y-102081000D01*
X148468724Y-102081000D01*
X147961476Y-102181898D01*
X147386251Y-102566251D01*
X147370000Y-102590572D01*
X147353749Y-102566251D01*
X146778524Y-102181898D01*
X146271276Y-102081000D01*
X145928724Y-102081000D01*
X145421476Y-102181898D01*
X144846251Y-102566251D01*
X144830000Y-102590572D01*
X144813749Y-102566251D01*
X144238524Y-102181898D01*
X143731276Y-102081000D01*
X143388724Y-102081000D01*
X142881476Y-102181898D01*
X142306251Y-102566251D01*
X142290000Y-102590572D01*
X142273749Y-102566251D01*
X141698524Y-102181898D01*
X141191276Y-102081000D01*
X140848724Y-102081000D01*
X140341476Y-102181898D01*
X139766251Y-102566251D01*
X139750000Y-102590572D01*
X139733749Y-102566251D01*
X139158524Y-102181898D01*
X138651276Y-102081000D01*
X138308724Y-102081000D01*
X137801476Y-102181898D01*
X137226251Y-102566251D01*
X137210000Y-102590572D01*
X137193749Y-102566251D01*
X136618524Y-102181898D01*
X136111276Y-102081000D01*
X135768724Y-102081000D01*
X135261476Y-102181898D01*
X134686251Y-102566251D01*
X134670000Y-102590572D01*
X134653749Y-102566251D01*
X134078524Y-102181898D01*
X133571276Y-102081000D01*
X133228724Y-102081000D01*
X132721476Y-102181898D01*
X132397321Y-102398492D01*
X132350933Y-102329067D01*
X132056870Y-102132581D01*
X131710000Y-102063584D01*
X130010000Y-102063584D01*
X129663130Y-102132581D01*
X129369067Y-102329067D01*
X129172581Y-102623130D01*
X129103584Y-102970000D01*
X129103584Y-104670000D01*
X129172581Y-105016870D01*
X129275567Y-105171000D01*
X128659000Y-105171000D01*
X128659000Y-95010000D01*
X129076931Y-95010000D01*
X129211898Y-95688524D01*
X129596251Y-96263749D01*
X129620572Y-96280000D01*
X129596251Y-96296251D01*
X129211898Y-96871476D01*
X129076931Y-97550000D01*
X129211898Y-98228524D01*
X129596251Y-98803749D01*
X129620572Y-98820000D01*
X129596251Y-98836251D01*
X129211898Y-99411476D01*
X129076931Y-100090000D01*
X129211898Y-100768524D01*
X129596251Y-101343749D01*
X130171476Y-101728102D01*
X130678724Y-101829000D01*
X131021276Y-101829000D01*
X131528524Y-101728102D01*
X132103749Y-101343749D01*
X132488102Y-100768524D01*
X132623069Y-100090000D01*
X132488102Y-99411476D01*
X132103749Y-98836251D01*
X132079428Y-98820000D01*
X132103749Y-98803749D01*
X132488102Y-98228524D01*
X132623069Y-97550000D01*
X132488102Y-96871476D01*
X132103749Y-96296251D01*
X132079428Y-96280000D01*
X132103749Y-96263749D01*
X132488102Y-95688524D01*
X132623069Y-95010000D01*
X132571262Y-94749548D01*
X133127000Y-94749548D01*
X133127000Y-95242452D01*
X133315627Y-95697837D01*
X133664163Y-96046373D01*
X134119548Y-96235000D01*
X134612452Y-96235000D01*
X135067837Y-96046373D01*
X135416373Y-95697837D01*
X135537774Y-95404750D01*
X141183501Y-89759024D01*
X145843192Y-89712873D01*
X146123548Y-89829000D01*
X146616452Y-89829000D01*
X147071837Y-89640373D01*
X147420373Y-89291837D01*
X147520992Y-89048921D01*
X147525744Y-89045746D01*
X147772755Y-88676067D01*
X147837599Y-88350074D01*
X147859494Y-88240002D01*
X147837599Y-88129930D01*
X147837599Y-84589442D01*
X148308945Y-83832282D01*
X148361837Y-83810373D01*
X148710373Y-83461837D01*
X148899000Y-83006452D01*
X148899000Y-82513548D01*
X148710373Y-82058163D01*
X148361837Y-81709627D01*
X147906452Y-81521000D01*
X147413548Y-81521000D01*
X146958163Y-81709627D01*
X146609627Y-82058163D01*
X146421000Y-82513548D01*
X146421000Y-82635573D01*
X145780756Y-83664051D01*
X145667243Y-83833936D01*
X145641804Y-83961826D01*
X145595815Y-84083835D01*
X145602399Y-84288007D01*
X145602400Y-87479948D01*
X140820589Y-87527309D01*
X140715999Y-87506505D01*
X140600447Y-87529490D01*
X140594864Y-87529545D01*
X140492579Y-87550946D01*
X140279934Y-87593244D01*
X140275154Y-87596438D01*
X140269529Y-87597615D01*
X140090499Y-87719821D01*
X140003570Y-87777905D01*
X139999621Y-87781854D01*
X139902315Y-87848275D01*
X139843951Y-87937524D01*
X133957250Y-93824226D01*
X133664163Y-93945627D01*
X133315627Y-94294163D01*
X133127000Y-94749548D01*
X132571262Y-94749548D01*
X132488102Y-94331476D01*
X132126991Y-93791035D01*
X132238327Y-93679699D01*
X132335000Y-93446310D01*
X132335000Y-92755750D01*
X132176250Y-92597000D01*
X130977000Y-92597000D01*
X130977000Y-92617000D01*
X130723000Y-92617000D01*
X130723000Y-92597000D01*
X129523750Y-92597000D01*
X129365000Y-92755750D01*
X129365000Y-93446310D01*
X129461673Y-93679699D01*
X129573009Y-93791035D01*
X129211898Y-94331476D01*
X129076931Y-95010000D01*
X128659000Y-95010000D01*
X128659000Y-91493690D01*
X129365000Y-91493690D01*
X129365000Y-92184250D01*
X129523750Y-92343000D01*
X130723000Y-92343000D01*
X130723000Y-91143750D01*
X130977000Y-91143750D01*
X130977000Y-92343000D01*
X132176250Y-92343000D01*
X132335000Y-92184250D01*
X132335000Y-91493690D01*
X132238327Y-91260301D01*
X132059698Y-91081673D01*
X131826309Y-90985000D01*
X131135750Y-90985000D01*
X130977000Y-91143750D01*
X130723000Y-91143750D01*
X130564250Y-90985000D01*
X129873691Y-90985000D01*
X129640302Y-91081673D01*
X129461673Y-91260301D01*
X129365000Y-91493690D01*
X128659000Y-91493690D01*
X128659000Y-88810000D01*
X129056931Y-88810000D01*
X129191898Y-89488524D01*
X129576251Y-90063749D01*
X130151476Y-90448102D01*
X130658724Y-90549000D01*
X131001276Y-90549000D01*
X131508524Y-90448102D01*
X132083749Y-90063749D01*
X132468102Y-89488524D01*
X132603069Y-88810000D01*
X132468102Y-88131476D01*
X132251508Y-87807321D01*
X132320933Y-87760933D01*
X132517419Y-87466870D01*
X132586416Y-87120000D01*
X132586416Y-85420000D01*
X132517419Y-85073130D01*
X132320933Y-84779067D01*
X132026870Y-84582581D01*
X131680000Y-84513584D01*
X129980000Y-84513584D01*
X129633130Y-84582581D01*
X129339067Y-84779067D01*
X129142581Y-85073130D01*
X129073584Y-85420000D01*
X129073584Y-87120000D01*
X129142581Y-87466870D01*
X129339067Y-87760933D01*
X129408492Y-87807321D01*
X129191898Y-88131476D01*
X129056931Y-88810000D01*
X128659000Y-88810000D01*
X128659000Y-82475653D01*
X134370192Y-82467000D01*
X134418779Y-82457259D01*
X134459939Y-82429666D01*
X134487406Y-82388423D01*
X134497000Y-82340000D01*
X134497000Y-77590000D01*
X146745584Y-77590000D01*
X146745584Y-79290000D01*
X146814581Y-79636870D01*
X147011067Y-79930933D01*
X147305130Y-80127419D01*
X147652000Y-80196416D01*
X149352000Y-80196416D01*
X149698870Y-80127419D01*
X149992933Y-79930933D01*
X150039321Y-79861508D01*
X150363476Y-80078102D01*
X150870724Y-80179000D01*
X151213276Y-80179000D01*
X151720524Y-80078102D01*
X152295749Y-79693749D01*
X152680102Y-79118524D01*
X152815069Y-78440000D01*
X152680102Y-77761476D01*
X152295749Y-77186251D01*
X151720524Y-76801898D01*
X151213276Y-76701000D01*
X150870724Y-76701000D01*
X150363476Y-76801898D01*
X150039321Y-77018492D01*
X149992933Y-76949067D01*
X149698870Y-76752581D01*
X149352000Y-76683584D01*
X147652000Y-76683584D01*
X147305130Y-76752581D01*
X147011067Y-76949067D01*
X146814581Y-77243130D01*
X146745584Y-77590000D01*
X134497000Y-77590000D01*
X134497000Y-76639000D01*
X156743000Y-76639000D01*
X156743001Y-105171000D01*
G04 #@! TD*
M02*
